solid ascii
 facet normal 0 0 -1
  outer loop
   vertex -0.01372 -0.03226 -1.5e-05
   vertex -0.01473 -0.03124 -1.5e-05
   vertex 0.01372 -0.03226 -1.5e-05
  endloop
 endfacet
 facet normal 0 0 -1
  outer loop
   vertex -0.01372 -0.03226 3.35276e-13
   vertex -0.01473 -0.03124 3.35276e-13
   vertex 0.01372 -0.03226 3.35276e-13
  endloop
 endfacet
 facet normal 0 0 -1
  outer loop
   vertex -0.01473 -0.03124 -1.5e-05
   vertex -0.01473 0.03124 -1.5e-05
   vertex 0.01372 -0.03226 -1.5e-05
  endloop
 endfacet
 facet normal 0 0 -1
  outer loop
   vertex -0.01473 -0.03124 3.35276e-13
   vertex -0.01473 0.03124 3.35276e-13
   vertex 0.01372 -0.03226 3.35276e-13
  endloop
 endfacet
 facet normal -0 0 -1
  outer loop
   vertex -0.01372 0.03226 -1.5e-05
   vertex 0.01372 0.03226 -1.5e-05
   vertex -0.01473 0.03124 -1.5e-05
  endloop
 endfacet
 facet normal -0 0 -1
  outer loop
   vertex -0.01372 0.03226 3.35276e-13
   vertex 0.01372 0.03226 3.35276e-13
   vertex -0.01473 0.03124 3.35276e-13
  endloop
 endfacet
 facet normal 0 -0 -1
  outer loop
   vertex -0.01473 0.03124 -1.5e-05
   vertex 0.01372 0.03226 -1.5e-05
   vertex 0.01372 -0.03226 -1.5e-05
  endloop
 endfacet
 facet normal 0 -0 -1
  outer loop
   vertex -0.01473 0.03124 3.35276e-13
   vertex 0.01372 0.03226 3.35276e-13
   vertex 0.01372 -0.03226 3.35276e-13
  endloop
 endfacet
 facet normal 0 0 -1
  outer loop
   vertex 0.01372 -0.03226 -1.5e-05
   vertex 0.01372 0.03226 -1.5e-05
   vertex 0.01473 -0.03124 -1.5e-05
  endloop
 endfacet
 facet normal 0 0 -1
  outer loop
   vertex 0.01372 -0.03226 3.35276e-13
   vertex 0.01372 0.03226 3.35276e-13
   vertex 0.01473 -0.03124 3.35276e-13
  endloop
 endfacet
 facet normal 0 0 -1
  outer loop
   vertex 0.01473 0.03124 -1.5e-05
   vertex 0.01473 -0.03124 -1.5e-05
   vertex 0.01372 0.03226 -1.5e-05
  endloop
 endfacet
 facet normal 0 0 -1
  outer loop
   vertex 0.01473 0.03124 3.35276e-13
   vertex 0.01473 -0.03124 3.35276e-13
   vertex 0.01372 0.03226 3.35276e-13
  endloop
 endfacet
 facet normal 0 0 -1
  outer loop
   vertex -0.01372 -0.03226 0.0016
   vertex -0.01473 -0.03124 0.0016
   vertex 0.01372 -0.03226 0.0016
  endloop
 endfacet
 facet normal 0 0 -1
  outer loop
   vertex -0.01372 -0.03226 0.001615
   vertex -0.01473 -0.03124 0.001615
   vertex 0.01372 -0.03226 0.001615
  endloop
 endfacet
 facet normal 0 0 -1
  outer loop
   vertex -0.01473 -0.03124 0.0016
   vertex -0.01473 0.03124 0.0016
   vertex 0.01372 -0.03226 0.0016
  endloop
 endfacet
 facet normal 0 0 -1
  outer loop
   vertex -0.01473 -0.03124 0.001615
   vertex -0.01473 0.03124 0.001615
   vertex 0.01372 -0.03226 0.001615
  endloop
 endfacet
 facet normal -0 0 -1
  outer loop
   vertex -0.01372 0.03226 0.0016
   vertex 0.01372 0.03226 0.0016
   vertex -0.01473 0.03124 0.0016
  endloop
 endfacet
 facet normal -0 0 -1
  outer loop
   vertex -0.01372 0.03226 0.001615
   vertex 0.01372 0.03226 0.001615
   vertex -0.01473 0.03124 0.001615
  endloop
 endfacet
 facet normal 0 -0 -1
  outer loop
   vertex -0.01473 0.03124 0.0016
   vertex 0.01372 0.03226 0.0016
   vertex 0.01372 -0.03226 0.0016
  endloop
 endfacet
 facet normal 0 -0 -1
  outer loop
   vertex -0.01473 0.03124 0.001615
   vertex 0.01372 0.03226 0.001615
   vertex 0.01372 -0.03226 0.001615
  endloop
 endfacet
 facet normal 0 0 -1
  outer loop
   vertex 0.01372 -0.03226 0.0016
   vertex 0.01372 0.03226 0.0016
   vertex 0.01473 -0.03124 0.0016
  endloop
 endfacet
 facet normal 0 0 -1
  outer loop
   vertex 0.01372 -0.03226 0.001615
   vertex 0.01372 0.03226 0.001615
   vertex 0.01473 -0.03124 0.001615
  endloop
 endfacet
 facet normal 0 0 -1
  outer loop
   vertex 0.01473 0.03124 0.0016
   vertex 0.01473 -0.03124 0.0016
   vertex 0.01372 0.03226 0.0016
  endloop
 endfacet
 facet normal 0 0 -1
  outer loop
   vertex 0.01473 0.03124 0.001615
   vertex 0.01473 -0.03124 0.001615
   vertex 0.01372 0.03226 0.001615
  endloop
 endfacet
 facet normal 0.710581 0.703616 0
  outer loop
   vertex -0.01372 -0.03226 -1.5e-05
   vertex -0.01473 -0.03124 -1.5e-05
   vertex -0.01372 -0.03226 3.35276e-13
  endloop
 endfacet
 facet normal 0.710581 0.703616 -0
  outer loop
   vertex -0.01372 -0.03226 3.35276e-13
   vertex -0.01473 -0.03124 -1.5e-05
   vertex -0.01473 -0.03124 3.35276e-13
  endloop
 endfacet
 facet normal 0 1 0
  outer loop
   vertex 0.01372 -0.03226 -1.5e-05
   vertex -0.01372 -0.03226 -1.5e-05
   vertex 0.01372 -0.03226 3.35276e-13
  endloop
 endfacet
 facet normal 0 1 0
  outer loop
   vertex 0.01372 -0.03226 3.35276e-13
   vertex -0.01372 -0.03226 -1.5e-05
   vertex -0.01372 -0.03226 3.35276e-13
  endloop
 endfacet
 facet normal 1 0 0
  outer loop
   vertex -0.01473 -0.03124 -1.5e-05
   vertex -0.01473 0.03124 -1.5e-05
   vertex -0.01473 -0.03124 3.35276e-13
  endloop
 endfacet
 facet normal 1 0 -0
  outer loop
   vertex -0.01473 -0.03124 3.35276e-13
   vertex -0.01473 0.03124 -1.5e-05
   vertex -0.01473 0.03124 3.35276e-13
  endloop
 endfacet
 facet normal 0 -1 0
  outer loop
   vertex -0.01372 0.03226 -1.5e-05
   vertex 0.01372 0.03226 -1.5e-05
   vertex -0.01372 0.03226 3.35276e-13
  endloop
 endfacet
 facet normal 0 -1 0
  outer loop
   vertex -0.01372 0.03226 3.35276e-13
   vertex 0.01372 0.03226 -1.5e-05
   vertex 0.01372 0.03226 3.35276e-13
  endloop
 endfacet
 facet normal 0.710581 -0.703616 0
  outer loop
   vertex -0.01473 0.03124 -1.5e-05
   vertex -0.01372 0.03226 -1.5e-05
   vertex -0.01473 0.03124 3.35276e-13
  endloop
 endfacet
 facet normal 0.710581 -0.703616 0
  outer loop
   vertex -0.01473 0.03124 3.35276e-13
   vertex -0.01372 0.03226 -1.5e-05
   vertex -0.01372 0.03226 3.35276e-13
  endloop
 endfacet
 facet normal -0.710581 0.703616 0
  outer loop
   vertex 0.01473 -0.03124 -1.5e-05
   vertex 0.01372 -0.03226 -1.5e-05
   vertex 0.01473 -0.03124 3.35276e-13
  endloop
 endfacet
 facet normal -0.710581 0.703616 0
  outer loop
   vertex 0.01473 -0.03124 3.35276e-13
   vertex 0.01372 -0.03226 -1.5e-05
   vertex 0.01372 -0.03226 3.35276e-13
  endloop
 endfacet
 facet normal -1 0 0
  outer loop
   vertex 0.01473 0.03124 -1.5e-05
   vertex 0.01473 -0.03124 -1.5e-05
   vertex 0.01473 0.03124 3.35276e-13
  endloop
 endfacet
 facet normal -1 0 0
  outer loop
   vertex 0.01473 0.03124 3.35276e-13
   vertex 0.01473 -0.03124 -1.5e-05
   vertex 0.01473 -0.03124 3.35276e-13
  endloop
 endfacet
 facet normal -0.710581 -0.703616 0
  outer loop
   vertex 0.01372 0.03226 -1.5e-05
   vertex 0.01473 0.03124 -1.5e-05
   vertex 0.01372 0.03226 3.35276e-13
  endloop
 endfacet
 facet normal -0.710581 -0.703616 0
  outer loop
   vertex 0.01372 0.03226 3.35276e-13
   vertex 0.01473 0.03124 -1.5e-05
   vertex 0.01473 0.03124 3.35276e-13
  endloop
 endfacet
 facet normal 0.710581 0.703616 0
  outer loop
   vertex -0.01372 -0.03226 0.0016
   vertex -0.01473 -0.03124 0.0016
   vertex -0.01372 -0.03226 0.001615
  endloop
 endfacet
 facet normal 0.710581 0.703616 -0
  outer loop
   vertex -0.01372 -0.03226 0.001615
   vertex -0.01473 -0.03124 0.0016
   vertex -0.01473 -0.03124 0.001615
  endloop
 endfacet
 facet normal 0 1 0
  outer loop
   vertex 0.01372 -0.03226 0.0016
   vertex -0.01372 -0.03226 0.0016
   vertex 0.01372 -0.03226 0.001615
  endloop
 endfacet
 facet normal 0 1 0
  outer loop
   vertex 0.01372 -0.03226 0.001615
   vertex -0.01372 -0.03226 0.0016
   vertex -0.01372 -0.03226 0.001615
  endloop
 endfacet
 facet normal 1 0 0
  outer loop
   vertex -0.01473 -0.03124 0.0016
   vertex -0.01473 0.03124 0.0016
   vertex -0.01473 -0.03124 0.001615
  endloop
 endfacet
 facet normal 1 0 -0
  outer loop
   vertex -0.01473 -0.03124 0.001615
   vertex -0.01473 0.03124 0.0016
   vertex -0.01473 0.03124 0.001615
  endloop
 endfacet
 facet normal 0 -1 0
  outer loop
   vertex -0.01372 0.03226 0.0016
   vertex 0.01372 0.03226 0.0016
   vertex -0.01372 0.03226 0.001615
  endloop
 endfacet
 facet normal 0 -1 0
  outer loop
   vertex -0.01372 0.03226 0.001615
   vertex 0.01372 0.03226 0.0016
   vertex 0.01372 0.03226 0.001615
  endloop
 endfacet
 facet normal 0.710581 -0.703616 0
  outer loop
   vertex -0.01473 0.03124 0.0016
   vertex -0.01372 0.03226 0.0016
   vertex -0.01473 0.03124 0.001615
  endloop
 endfacet
 facet normal 0.710581 -0.703616 0
  outer loop
   vertex -0.01473 0.03124 0.001615
   vertex -0.01372 0.03226 0.0016
   vertex -0.01372 0.03226 0.001615
  endloop
 endfacet
 facet normal -0.710581 0.703616 0
  outer loop
   vertex 0.01473 -0.03124 0.0016
   vertex 0.01372 -0.03226 0.0016
   vertex 0.01473 -0.03124 0.001615
  endloop
 endfacet
 facet normal -0.710581 0.703616 0
  outer loop
   vertex 0.01473 -0.03124 0.001615
   vertex 0.01372 -0.03226 0.0016
   vertex 0.01372 -0.03226 0.001615
  endloop
 endfacet
 facet normal -1 0 0
  outer loop
   vertex 0.01473 0.03124 0.0016
   vertex 0.01473 -0.03124 0.0016
   vertex 0.01473 0.03124 0.001615
  endloop
 endfacet
 facet normal -1 0 0
  outer loop
   vertex 0.01473 0.03124 0.001615
   vertex 0.01473 -0.03124 0.0016
   vertex 0.01473 -0.03124 0.001615
  endloop
 endfacet
 facet normal -0.710581 -0.703616 0
  outer loop
   vertex 0.01372 0.03226 0.0016
   vertex 0.01473 0.03124 0.0016
   vertex 0.01372 0.03226 0.001615
  endloop
 endfacet
 facet normal -0.710581 -0.703616 0
  outer loop
   vertex 0.01372 0.03226 0.001615
   vertex 0.01473 0.03124 0.0016
   vertex 0.01473 0.03124 0.001615
  endloop
 endfacet
endsolid
