%FSLAX45Y45*%
G04 Gerber Fmt 4.5, Leading zero omitted, Abs format (unit mm)*
G04 Created by KiCad (PCBNEW 6.0.5-a6ca702e91~116~ubuntu20.04.1) date 2024-03-02 15:14:04*
%MOMM*%
%LPD*%
G01*
G04 APERTURE LIST*
%TA.AperFunction,Profile*%
%ADD10C,0.254000*%
%TD*%
%ADD11C,0.200000*%
%ADD12C,0.071120*%
%ADD13C,0.317500*%
G04 APERTURE END LIST*
D10*
X2946400Y6350000D02*
X2844800Y6451600D01*
X0Y6350000D02*
X0Y101600D01*
X101600Y6451600D02*
X0Y6350000D01*
X101600Y0D02*
X0Y101600D01*
X2946400Y101600D02*
X2946400Y6350000D01*
X101600Y0D02*
X2844800Y0D01*
X2844800Y6451600D02*
X101600Y6451600D01*
X2844800Y0D02*
X2946400Y101600D01*
D11*
D12*
X2143760Y408940D02*
X2214880Y337820D01*
X2214880Y408940D02*
X2143760Y337820D01*
X2560320Y408940D02*
X2631440Y337820D01*
X2631440Y408940D02*
X2560320Y337820D01*
D13*
X552450Y926897D02*
G75*
G03*
X552450Y926897I-158750J0D01*
G01*
X1695450Y926897D02*
G75*
G03*
X1695450Y926897I-158750J0D01*
G01*
D11*
X244919Y-323176D02*
X244919Y-123176D01*
X292538Y-123176D01*
X321110Y-132700D01*
X340157Y-151748D01*
X349681Y-170795D01*
X359205Y-208890D01*
X359205Y-237462D01*
X349681Y-275557D01*
X340157Y-294605D01*
X321110Y-313652D01*
X292538Y-323176D01*
X244919Y-323176D01*
X444919Y-323176D02*
X444919Y-189843D01*
X444919Y-227938D02*
X454443Y-208890D01*
X463967Y-199367D01*
X483014Y-189843D01*
X502062Y-189843D01*
X568729Y-323176D02*
X568729Y-189843D01*
X568729Y-123176D02*
X559205Y-132700D01*
X568729Y-142224D01*
X578252Y-132700D01*
X568729Y-123176D01*
X568729Y-142224D01*
X692538Y-323176D02*
X673490Y-313652D01*
X663967Y-294605D01*
X663967Y-123176D01*
X797300Y-323176D02*
X778252Y-313652D01*
X768728Y-294605D01*
X768728Y-123176D01*
X1025871Y-323176D02*
X1025871Y-123176D01*
X1092538Y-266033D01*
X1159205Y-123176D01*
X1159205Y-323176D01*
X1340157Y-323176D02*
X1340157Y-218414D01*
X1330633Y-199367D01*
X1311586Y-189843D01*
X1273490Y-189843D01*
X1254443Y-199367D01*
X1340157Y-313652D02*
X1321110Y-323176D01*
X1273490Y-323176D01*
X1254443Y-313652D01*
X1244919Y-294605D01*
X1244919Y-275557D01*
X1254443Y-256509D01*
X1273490Y-246986D01*
X1321110Y-246986D01*
X1340157Y-237462D01*
X1435395Y-189843D02*
X1435395Y-389843D01*
X1435395Y-199367D02*
X1454443Y-189843D01*
X1492538Y-189843D01*
X1511586Y-199367D01*
X1521109Y-208890D01*
X1530633Y-227938D01*
X1530633Y-285081D01*
X1521109Y-304129D01*
X1511586Y-313652D01*
X1492538Y-323176D01*
X1454443Y-323176D01*
X1435395Y-313652D01*
X1616348Y-304129D02*
X1625871Y-313652D01*
X1616348Y-323176D01*
X1606824Y-313652D01*
X1616348Y-304129D01*
X1616348Y-323176D01*
X1616348Y-199367D02*
X1625871Y-208890D01*
X1616348Y-218414D01*
X1606824Y-208890D01*
X1616348Y-199367D01*
X1616348Y-218414D01*
D12*
X-83820Y-617140D02*
X-12700Y-688260D01*
X-12700Y-617140D02*
X-83820Y-688260D01*
D11*
X283014Y-543176D02*
X302062Y-543176D01*
X321110Y-552700D01*
X330633Y-562224D01*
X340157Y-581271D01*
X349681Y-619367D01*
X349681Y-666986D01*
X340157Y-705081D01*
X330633Y-724128D01*
X321110Y-733652D01*
X302062Y-743176D01*
X283014Y-743176D01*
X263967Y-733652D01*
X254443Y-724128D01*
X244919Y-705081D01*
X235395Y-666986D01*
X235395Y-619367D01*
X244919Y-581271D01*
X254443Y-562224D01*
X263967Y-552700D01*
X283014Y-543176D01*
X435395Y-724128D02*
X444919Y-733652D01*
X435395Y-743176D01*
X425871Y-733652D01*
X435395Y-724128D01*
X435395Y-743176D01*
X511586Y-543176D02*
X644919Y-543176D01*
X559205Y-743176D01*
X825871Y-743176D02*
X711586Y-743176D01*
X768728Y-743176D02*
X768728Y-543176D01*
X749681Y-571748D01*
X730633Y-590795D01*
X711586Y-600319D01*
X1016348Y-743176D02*
X902062Y-743176D01*
X959205Y-743176D02*
X959205Y-543176D01*
X940157Y-571748D01*
X921109Y-590795D01*
X902062Y-600319D01*
X1102062Y-743176D02*
X1102062Y-609843D01*
X1102062Y-628890D02*
X1111586Y-619367D01*
X1130633Y-609843D01*
X1159205Y-609843D01*
X1178252Y-619367D01*
X1187776Y-638414D01*
X1187776Y-743176D01*
X1187776Y-638414D02*
X1197300Y-619367D01*
X1216348Y-609843D01*
X1244919Y-609843D01*
X1263967Y-619367D01*
X1273490Y-638414D01*
X1273490Y-743176D01*
X1368729Y-743176D02*
X1368729Y-609843D01*
X1368729Y-628890D02*
X1378252Y-619367D01*
X1397300Y-609843D01*
X1425871Y-609843D01*
X1444919Y-619367D01*
X1454443Y-638414D01*
X1454443Y-743176D01*
X1454443Y-638414D02*
X1463967Y-619367D01*
X1483014Y-609843D01*
X1511586Y-609843D01*
X1530633Y-619367D01*
X1540157Y-638414D01*
X1540157Y-743176D01*
X1930633Y-533652D02*
X1759205Y-790795D01*
X2187776Y-543176D02*
X2206824Y-543176D01*
X2225871Y-552700D01*
X2235395Y-562224D01*
X2244919Y-581271D01*
X2254443Y-619367D01*
X2254443Y-666986D01*
X2244919Y-705081D01*
X2235395Y-724128D01*
X2225871Y-733652D01*
X2206824Y-743176D01*
X2187776Y-743176D01*
X2168729Y-733652D01*
X2159205Y-724128D01*
X2149681Y-705081D01*
X2140157Y-666986D01*
X2140157Y-619367D01*
X2149681Y-581271D01*
X2159205Y-562224D01*
X2168729Y-552700D01*
X2187776Y-543176D01*
X2340157Y-724128D02*
X2349681Y-733652D01*
X2340157Y-743176D01*
X2330633Y-733652D01*
X2340157Y-724128D01*
X2340157Y-743176D01*
X2473490Y-543176D02*
X2492538Y-543176D01*
X2511586Y-552700D01*
X2521110Y-562224D01*
X2530633Y-581271D01*
X2540157Y-619367D01*
X2540157Y-666986D01*
X2530633Y-705081D01*
X2521110Y-724128D01*
X2511586Y-733652D01*
X2492538Y-743176D01*
X2473490Y-743176D01*
X2454443Y-733652D01*
X2444919Y-724128D01*
X2435395Y-705081D01*
X2425871Y-666986D01*
X2425871Y-619367D01*
X2435395Y-581271D01*
X2444919Y-562224D01*
X2454443Y-552700D01*
X2473490Y-543176D01*
X2616348Y-562224D02*
X2625871Y-552700D01*
X2644919Y-543176D01*
X2692538Y-543176D01*
X2711586Y-552700D01*
X2721110Y-562224D01*
X2730633Y-581271D01*
X2730633Y-600319D01*
X2721110Y-628890D01*
X2606824Y-743176D01*
X2730633Y-743176D01*
X2844919Y-628890D02*
X2825871Y-619367D01*
X2816348Y-609843D01*
X2806824Y-590795D01*
X2806824Y-581271D01*
X2816348Y-562224D01*
X2825871Y-552700D01*
X2844919Y-543176D01*
X2883014Y-543176D01*
X2902062Y-552700D01*
X2911586Y-562224D01*
X2921109Y-581271D01*
X2921109Y-590795D01*
X2911586Y-609843D01*
X2902062Y-619367D01*
X2883014Y-628890D01*
X2844919Y-628890D01*
X2825871Y-638414D01*
X2816348Y-647938D01*
X2806824Y-666986D01*
X2806824Y-705081D01*
X2816348Y-724128D01*
X2825871Y-733652D01*
X2844919Y-743176D01*
X2883014Y-743176D01*
X2902062Y-733652D01*
X2911586Y-724128D01*
X2921109Y-705081D01*
X2921109Y-666986D01*
X2911586Y-647938D01*
X2902062Y-638414D01*
X2883014Y-628890D01*
X3044919Y-543176D02*
X3063967Y-543176D01*
X3083014Y-552700D01*
X3092538Y-562224D01*
X3102062Y-581271D01*
X3111586Y-619367D01*
X3111586Y-666986D01*
X3102062Y-705081D01*
X3092538Y-724128D01*
X3083014Y-733652D01*
X3063967Y-743176D01*
X3044919Y-743176D01*
X3025871Y-733652D01*
X3016348Y-724128D01*
X3006824Y-705081D01*
X2997300Y-666986D01*
X2997300Y-619367D01*
X3006824Y-581271D01*
X3016348Y-562224D01*
X3025871Y-552700D01*
X3044919Y-543176D01*
X3187776Y-543176D02*
X3187776Y-581271D01*
X3263967Y-543176D02*
X3263967Y-581271D01*
X3559205Y-819367D02*
X3549681Y-809843D01*
X3530633Y-781271D01*
X3521109Y-762224D01*
X3511586Y-733652D01*
X3502062Y-686033D01*
X3502062Y-647938D01*
X3511586Y-600319D01*
X3521109Y-571748D01*
X3530633Y-552700D01*
X3549681Y-524128D01*
X3559205Y-514605D01*
X3625871Y-562224D02*
X3635395Y-552700D01*
X3654443Y-543176D01*
X3702062Y-543176D01*
X3721109Y-552700D01*
X3730633Y-562224D01*
X3740157Y-581271D01*
X3740157Y-600319D01*
X3730633Y-628890D01*
X3616348Y-743176D01*
X3740157Y-743176D01*
X3978252Y-743176D02*
X3978252Y-543176D01*
X4063967Y-743176D02*
X4063967Y-638414D01*
X4054443Y-619367D01*
X4035395Y-609843D01*
X4006824Y-609843D01*
X3987776Y-619367D01*
X3978252Y-628890D01*
X4187776Y-743176D02*
X4168728Y-733652D01*
X4159205Y-724128D01*
X4149681Y-705081D01*
X4149681Y-647938D01*
X4159205Y-628890D01*
X4168728Y-619367D01*
X4187776Y-609843D01*
X4216348Y-609843D01*
X4235395Y-619367D01*
X4244919Y-628890D01*
X4254443Y-647938D01*
X4254443Y-705081D01*
X4244919Y-724128D01*
X4235395Y-733652D01*
X4216348Y-743176D01*
X4187776Y-743176D01*
X4368729Y-743176D02*
X4349681Y-733652D01*
X4340157Y-714605D01*
X4340157Y-543176D01*
X4521110Y-733652D02*
X4502062Y-743176D01*
X4463967Y-743176D01*
X4444919Y-733652D01*
X4435395Y-714605D01*
X4435395Y-638414D01*
X4444919Y-619367D01*
X4463967Y-609843D01*
X4502062Y-609843D01*
X4521110Y-619367D01*
X4530633Y-638414D01*
X4530633Y-657462D01*
X4435395Y-676510D01*
X4606824Y-733652D02*
X4625871Y-743176D01*
X4663967Y-743176D01*
X4683014Y-733652D01*
X4692538Y-714605D01*
X4692538Y-705081D01*
X4683014Y-686033D01*
X4663967Y-676510D01*
X4635395Y-676510D01*
X4616348Y-666986D01*
X4606824Y-647938D01*
X4606824Y-638414D01*
X4616348Y-619367D01*
X4635395Y-609843D01*
X4663967Y-609843D01*
X4683014Y-619367D01*
X4759205Y-819367D02*
X4768729Y-809843D01*
X4787776Y-781271D01*
X4797300Y-762224D01*
X4806824Y-733652D01*
X4816348Y-686033D01*
X4816348Y-647938D01*
X4806824Y-600319D01*
X4797300Y-571748D01*
X4787776Y-552700D01*
X4768729Y-524128D01*
X4759205Y-514605D01*
X5121110Y-819367D02*
X5111586Y-809843D01*
X5092538Y-781271D01*
X5083014Y-762224D01*
X5073490Y-733652D01*
X5063967Y-686033D01*
X5063967Y-647938D01*
X5073490Y-600319D01*
X5083014Y-571748D01*
X5092538Y-552700D01*
X5111586Y-524128D01*
X5121110Y-514605D01*
X5197300Y-609843D02*
X5197300Y-743176D01*
X5197300Y-628890D02*
X5206824Y-619367D01*
X5225871Y-609843D01*
X5254443Y-609843D01*
X5273490Y-619367D01*
X5283014Y-638414D01*
X5283014Y-743176D01*
X5406824Y-743176D02*
X5387776Y-733652D01*
X5378252Y-724128D01*
X5368729Y-705081D01*
X5368729Y-647938D01*
X5378252Y-628890D01*
X5387776Y-619367D01*
X5406824Y-609843D01*
X5435395Y-609843D01*
X5454443Y-619367D01*
X5463967Y-628890D01*
X5473490Y-647938D01*
X5473490Y-705081D01*
X5463967Y-724128D01*
X5454443Y-733652D01*
X5435395Y-743176D01*
X5406824Y-743176D01*
X5530633Y-609843D02*
X5606824Y-609843D01*
X5559205Y-543176D02*
X5559205Y-714605D01*
X5568729Y-733652D01*
X5587776Y-743176D01*
X5606824Y-743176D01*
X5825871Y-609843D02*
X5825871Y-809843D01*
X5825871Y-619367D02*
X5844919Y-609843D01*
X5883014Y-609843D01*
X5902062Y-619367D01*
X5911586Y-628890D01*
X5921109Y-647938D01*
X5921109Y-705081D01*
X5911586Y-724128D01*
X5902062Y-733652D01*
X5883014Y-743176D01*
X5844919Y-743176D01*
X5825871Y-733652D01*
X6035395Y-743176D02*
X6016348Y-733652D01*
X6006824Y-714605D01*
X6006824Y-543176D01*
X6197300Y-743176D02*
X6197300Y-638414D01*
X6187776Y-619367D01*
X6168728Y-609843D01*
X6130633Y-609843D01*
X6111586Y-619367D01*
X6197300Y-733652D02*
X6178252Y-743176D01*
X6130633Y-743176D01*
X6111586Y-733652D01*
X6102062Y-714605D01*
X6102062Y-695557D01*
X6111586Y-676510D01*
X6130633Y-666986D01*
X6178252Y-666986D01*
X6197300Y-657462D01*
X6263967Y-609843D02*
X6340157Y-609843D01*
X6292538Y-543176D02*
X6292538Y-714605D01*
X6302062Y-733652D01*
X6321109Y-743176D01*
X6340157Y-743176D01*
X6483014Y-733652D02*
X6463967Y-743176D01*
X6425871Y-743176D01*
X6406824Y-733652D01*
X6397300Y-714605D01*
X6397300Y-638414D01*
X6406824Y-619367D01*
X6425871Y-609843D01*
X6463967Y-609843D01*
X6483014Y-619367D01*
X6492538Y-638414D01*
X6492538Y-657462D01*
X6397300Y-676510D01*
X6663967Y-743176D02*
X6663967Y-543176D01*
X6663967Y-733652D02*
X6644919Y-743176D01*
X6606824Y-743176D01*
X6587776Y-733652D01*
X6578252Y-724128D01*
X6568728Y-705081D01*
X6568728Y-647938D01*
X6578252Y-628890D01*
X6587776Y-619367D01*
X6606824Y-609843D01*
X6644919Y-609843D01*
X6663967Y-619367D01*
X6740157Y-819367D02*
X6749681Y-809843D01*
X6768728Y-781271D01*
X6778252Y-762224D01*
X6787776Y-733652D01*
X6797300Y-686033D01*
X6797300Y-647938D01*
X6787776Y-600319D01*
X6778252Y-571748D01*
X6768728Y-552700D01*
X6749681Y-524128D01*
X6740157Y-514605D01*
X-12700Y-916700D02*
G75*
G03*
X-12700Y-916700I-100000J0D01*
G01*
X225871Y-807176D02*
X349681Y-807176D01*
X283014Y-883367D01*
X311586Y-883367D01*
X330633Y-892890D01*
X340157Y-902414D01*
X349681Y-921462D01*
X349681Y-969081D01*
X340157Y-988128D01*
X330633Y-997652D01*
X311586Y-1007176D01*
X254443Y-1007176D01*
X235395Y-997652D01*
X225871Y-988128D01*
X435395Y-988128D02*
X444919Y-997652D01*
X435395Y-1007176D01*
X425871Y-997652D01*
X435395Y-988128D01*
X435395Y-1007176D01*
X635395Y-1007176D02*
X521109Y-1007176D01*
X578252Y-1007176D02*
X578252Y-807176D01*
X559205Y-835748D01*
X540157Y-854795D01*
X521109Y-864319D01*
X702062Y-807176D02*
X835395Y-807176D01*
X749681Y-1007176D01*
X1006824Y-807176D02*
X911586Y-807176D01*
X902062Y-902414D01*
X911586Y-892890D01*
X930633Y-883367D01*
X978252Y-883367D01*
X997300Y-892890D01*
X1006824Y-902414D01*
X1016348Y-921462D01*
X1016348Y-969081D01*
X1006824Y-988128D01*
X997300Y-997652D01*
X978252Y-1007176D01*
X930633Y-1007176D01*
X911586Y-997652D01*
X902062Y-988128D01*
X1102062Y-1007176D02*
X1102062Y-873843D01*
X1102062Y-892890D02*
X1111586Y-883367D01*
X1130633Y-873843D01*
X1159205Y-873843D01*
X1178252Y-883367D01*
X1187776Y-902414D01*
X1187776Y-1007176D01*
X1187776Y-902414D02*
X1197300Y-883367D01*
X1216348Y-873843D01*
X1244919Y-873843D01*
X1263967Y-883367D01*
X1273490Y-902414D01*
X1273490Y-1007176D01*
X1368729Y-1007176D02*
X1368729Y-873843D01*
X1368729Y-892890D02*
X1378252Y-883367D01*
X1397300Y-873843D01*
X1425871Y-873843D01*
X1444919Y-883367D01*
X1454443Y-902414D01*
X1454443Y-1007176D01*
X1454443Y-902414D02*
X1463967Y-883367D01*
X1483014Y-873843D01*
X1511586Y-873843D01*
X1530633Y-883367D01*
X1540157Y-902414D01*
X1540157Y-1007176D01*
X1930633Y-797652D02*
X1759205Y-1054795D01*
X2187776Y-807176D02*
X2206824Y-807176D01*
X2225871Y-816700D01*
X2235395Y-826224D01*
X2244919Y-845271D01*
X2254443Y-883367D01*
X2254443Y-930986D01*
X2244919Y-969081D01*
X2235395Y-988128D01*
X2225871Y-997652D01*
X2206824Y-1007176D01*
X2187776Y-1007176D01*
X2168729Y-997652D01*
X2159205Y-988128D01*
X2149681Y-969081D01*
X2140157Y-930986D01*
X2140157Y-883367D01*
X2149681Y-845271D01*
X2159205Y-826224D01*
X2168729Y-816700D01*
X2187776Y-807176D01*
X2340157Y-988128D02*
X2349681Y-997652D01*
X2340157Y-1007176D01*
X2330633Y-997652D01*
X2340157Y-988128D01*
X2340157Y-1007176D01*
X2540157Y-1007176D02*
X2425871Y-1007176D01*
X2483014Y-1007176D02*
X2483014Y-807176D01*
X2463967Y-835748D01*
X2444919Y-854795D01*
X2425871Y-864319D01*
X2616348Y-826224D02*
X2625871Y-816700D01*
X2644919Y-807176D01*
X2692538Y-807176D01*
X2711586Y-816700D01*
X2721110Y-826224D01*
X2730633Y-845271D01*
X2730633Y-864319D01*
X2721110Y-892890D01*
X2606824Y-1007176D01*
X2730633Y-1007176D01*
X2911586Y-807176D02*
X2816348Y-807176D01*
X2806824Y-902414D01*
X2816348Y-892890D01*
X2835395Y-883367D01*
X2883014Y-883367D01*
X2902062Y-892890D01*
X2911586Y-902414D01*
X2921109Y-921462D01*
X2921109Y-969081D01*
X2911586Y-988128D01*
X2902062Y-997652D01*
X2883014Y-1007176D01*
X2835395Y-1007176D01*
X2816348Y-997652D01*
X2806824Y-988128D01*
X3044919Y-807176D02*
X3063967Y-807176D01*
X3083014Y-816700D01*
X3092538Y-826224D01*
X3102062Y-845271D01*
X3111586Y-883367D01*
X3111586Y-930986D01*
X3102062Y-969081D01*
X3092538Y-988128D01*
X3083014Y-997652D01*
X3063967Y-1007176D01*
X3044919Y-1007176D01*
X3025871Y-997652D01*
X3016348Y-988128D01*
X3006824Y-969081D01*
X2997300Y-930986D01*
X2997300Y-883367D01*
X3006824Y-845271D01*
X3016348Y-826224D01*
X3025871Y-816700D01*
X3044919Y-807176D01*
X3187776Y-807176D02*
X3187776Y-845271D01*
X3263967Y-807176D02*
X3263967Y-845271D01*
X3559205Y-1083367D02*
X3549681Y-1073843D01*
X3530633Y-1045271D01*
X3521109Y-1026224D01*
X3511586Y-997652D01*
X3502062Y-950033D01*
X3502062Y-911938D01*
X3511586Y-864319D01*
X3521109Y-835748D01*
X3530633Y-816700D01*
X3549681Y-788128D01*
X3559205Y-778605D01*
X3625871Y-826224D02*
X3635395Y-816700D01*
X3654443Y-807176D01*
X3702062Y-807176D01*
X3721109Y-816700D01*
X3730633Y-826224D01*
X3740157Y-845271D01*
X3740157Y-864319D01*
X3730633Y-892890D01*
X3616348Y-1007176D01*
X3740157Y-1007176D01*
X3978252Y-1007176D02*
X3978252Y-807176D01*
X4063967Y-1007176D02*
X4063967Y-902414D01*
X4054443Y-883367D01*
X4035395Y-873843D01*
X4006824Y-873843D01*
X3987776Y-883367D01*
X3978252Y-892890D01*
X4187776Y-1007176D02*
X4168728Y-997652D01*
X4159205Y-988128D01*
X4149681Y-969081D01*
X4149681Y-911938D01*
X4159205Y-892890D01*
X4168728Y-883367D01*
X4187776Y-873843D01*
X4216348Y-873843D01*
X4235395Y-883367D01*
X4244919Y-892890D01*
X4254443Y-911938D01*
X4254443Y-969081D01*
X4244919Y-988128D01*
X4235395Y-997652D01*
X4216348Y-1007176D01*
X4187776Y-1007176D01*
X4368729Y-1007176D02*
X4349681Y-997652D01*
X4340157Y-978605D01*
X4340157Y-807176D01*
X4521110Y-997652D02*
X4502062Y-1007176D01*
X4463967Y-1007176D01*
X4444919Y-997652D01*
X4435395Y-978605D01*
X4435395Y-902414D01*
X4444919Y-883367D01*
X4463967Y-873843D01*
X4502062Y-873843D01*
X4521110Y-883367D01*
X4530633Y-902414D01*
X4530633Y-921462D01*
X4435395Y-940509D01*
X4606824Y-997652D02*
X4625871Y-1007176D01*
X4663967Y-1007176D01*
X4683014Y-997652D01*
X4692538Y-978605D01*
X4692538Y-969081D01*
X4683014Y-950033D01*
X4663967Y-940509D01*
X4635395Y-940509D01*
X4616348Y-930986D01*
X4606824Y-911938D01*
X4606824Y-902414D01*
X4616348Y-883367D01*
X4635395Y-873843D01*
X4663967Y-873843D01*
X4683014Y-883367D01*
X4759205Y-1083367D02*
X4768729Y-1073843D01*
X4787776Y-1045271D01*
X4797300Y-1026224D01*
X4806824Y-997652D01*
X4816348Y-950033D01*
X4816348Y-911938D01*
X4806824Y-864319D01*
X4797300Y-835748D01*
X4787776Y-816700D01*
X4768729Y-788128D01*
X4759205Y-778605D01*
X5121110Y-1083367D02*
X5111586Y-1073843D01*
X5092538Y-1045271D01*
X5083014Y-1026224D01*
X5073490Y-997652D01*
X5063967Y-950033D01*
X5063967Y-911938D01*
X5073490Y-864319D01*
X5083014Y-835748D01*
X5092538Y-816700D01*
X5111586Y-788128D01*
X5121110Y-778605D01*
X5197300Y-873843D02*
X5197300Y-1007176D01*
X5197300Y-892890D02*
X5206824Y-883367D01*
X5225871Y-873843D01*
X5254443Y-873843D01*
X5273490Y-883367D01*
X5283014Y-902414D01*
X5283014Y-1007176D01*
X5406824Y-1007176D02*
X5387776Y-997652D01*
X5378252Y-988128D01*
X5368729Y-969081D01*
X5368729Y-911938D01*
X5378252Y-892890D01*
X5387776Y-883367D01*
X5406824Y-873843D01*
X5435395Y-873843D01*
X5454443Y-883367D01*
X5463967Y-892890D01*
X5473490Y-911938D01*
X5473490Y-969081D01*
X5463967Y-988128D01*
X5454443Y-997652D01*
X5435395Y-1007176D01*
X5406824Y-1007176D01*
X5530633Y-873843D02*
X5606824Y-873843D01*
X5559205Y-807176D02*
X5559205Y-978605D01*
X5568729Y-997652D01*
X5587776Y-1007176D01*
X5606824Y-1007176D01*
X5825871Y-873843D02*
X5825871Y-1073843D01*
X5825871Y-883367D02*
X5844919Y-873843D01*
X5883014Y-873843D01*
X5902062Y-883367D01*
X5911586Y-892890D01*
X5921109Y-911938D01*
X5921109Y-969081D01*
X5911586Y-988128D01*
X5902062Y-997652D01*
X5883014Y-1007176D01*
X5844919Y-1007176D01*
X5825871Y-997652D01*
X6035395Y-1007176D02*
X6016348Y-997652D01*
X6006824Y-978605D01*
X6006824Y-807176D01*
X6197300Y-1007176D02*
X6197300Y-902414D01*
X6187776Y-883367D01*
X6168728Y-873843D01*
X6130633Y-873843D01*
X6111586Y-883367D01*
X6197300Y-997652D02*
X6178252Y-1007176D01*
X6130633Y-1007176D01*
X6111586Y-997652D01*
X6102062Y-978605D01*
X6102062Y-959557D01*
X6111586Y-940509D01*
X6130633Y-930986D01*
X6178252Y-930986D01*
X6197300Y-921462D01*
X6263967Y-873843D02*
X6340157Y-873843D01*
X6292538Y-807176D02*
X6292538Y-978605D01*
X6302062Y-997652D01*
X6321109Y-1007176D01*
X6340157Y-1007176D01*
X6483014Y-997652D02*
X6463967Y-1007176D01*
X6425871Y-1007176D01*
X6406824Y-997652D01*
X6397300Y-978605D01*
X6397300Y-902414D01*
X6406824Y-883367D01*
X6425871Y-873843D01*
X6463967Y-873843D01*
X6483014Y-883367D01*
X6492538Y-902414D01*
X6492538Y-921462D01*
X6397300Y-940509D01*
X6663967Y-1007176D02*
X6663967Y-807176D01*
X6663967Y-997652D02*
X6644919Y-1007176D01*
X6606824Y-1007176D01*
X6587776Y-997652D01*
X6578252Y-988128D01*
X6568728Y-969081D01*
X6568728Y-911938D01*
X6578252Y-892890D01*
X6587776Y-883367D01*
X6606824Y-873843D01*
X6644919Y-873843D01*
X6663967Y-883367D01*
X6740157Y-1083367D02*
X6749681Y-1073843D01*
X6768728Y-1045271D01*
X6778252Y-1026224D01*
X6787776Y-997652D01*
X6797300Y-950033D01*
X6797300Y-911938D01*
X6787776Y-864319D01*
X6778252Y-835748D01*
X6768728Y-816700D01*
X6749681Y-788128D01*
X6740157Y-778605D01*
M02*
