G04 #@! TF.GenerationSoftware,KiCad,Pcbnew,6.0.5-a6ca702e91~116~ubuntu20.04.1*
G04 #@! TF.CreationDate,2024-03-02T15:14:07+03:00*
G04 #@! TF.ProjectId,iot-esp-eth-ind,696f742d-6573-4702-9d65-74682d696e64,rev?*
G04 #@! TF.SameCoordinates,PX3072580PYa990340*
G04 #@! TF.FileFunction,Soldermask,Top*
G04 #@! TF.FilePolarity,Negative*
%FSLAX46Y46*%
G04 Gerber Fmt 4.6, Leading zero omitted, Abs format (unit mm)*
G04 Created by KiCad (PCBNEW 6.0.5-a6ca702e91~116~ubuntu20.04.1) date 2024-03-02 15:14:07*
%MOMM*%
%LPD*%
G01*
G04 APERTURE LIST*
G04 Aperture macros list*
%AMRoundRect*
0 Rectangle with rounded corners*
0 $1 Rounding radius*
0 $2 $3 $4 $5 $6 $7 $8 $9 X,Y pos of 4 corners*
0 Add a 4 corners polygon primitive as box body*
4,1,4,$2,$3,$4,$5,$6,$7,$8,$9,$2,$3,0*
0 Add four circle primitives for the rounded corners*
1,1,$1+$1,$2,$3*
1,1,$1+$1,$4,$5*
1,1,$1+$1,$6,$7*
1,1,$1+$1,$8,$9*
0 Add four rect primitives between the rounded corners*
20,1,$1+$1,$2,$3,$4,$5,0*
20,1,$1+$1,$4,$5,$6,$7,0*
20,1,$1+$1,$6,$7,$8,$9,0*
20,1,$1+$1,$8,$9,$2,$3,0*%
%AMHorizOval*
0 Thick line with rounded ends*
0 $1 width*
0 $2 $3 position (X,Y) of the first rounded end (center of the circle)*
0 $4 $5 position (X,Y) of the second rounded end (center of the circle)*
0 Add line between two ends*
20,1,$1,$2,$3,$4,$5,0*
0 Add two circle primitives to create the rounded ends*
1,1,$1,$2,$3*
1,1,$1,$4,$5*%
G04 Aperture macros list end*
%ADD10RoundRect,0.254000X-0.254000X0.063500X-0.254000X-0.063500X0.254000X-0.063500X0.254000X0.063500X0*%
%ADD11RoundRect,0.254000X0.254000X-0.063500X0.254000X0.063500X-0.254000X0.063500X-0.254000X-0.063500X0*%
%ADD12RoundRect,0.152400X0.038100X0.165100X-0.038100X0.165100X-0.038100X-0.165100X0.038100X-0.165100X0*%
%ADD13O,1.399540X0.599440*%
%ADD14RoundRect,0.152400X-0.165100X0.038100X-0.165100X-0.038100X0.165100X-0.038100X0.165100X0.038100X0*%
%ADD15O,1.016000X2.032000*%
%ADD16RoundRect,0.539750X-1.111250X0.539750X-1.111250X-0.539750X1.111250X-0.539750X1.111250X0.539750X0*%
%ADD17RoundRect,0.152400X0.165100X-0.038100X0.165100X0.038100X-0.165100X0.038100X-0.165100X-0.038100X0*%
%ADD18RoundRect,0.508000X-0.127000X0.190500X-0.127000X-0.190500X0.127000X-0.190500X0.127000X0.190500X0*%
%ADD19RoundRect,0.152400X-0.038100X-0.165100X0.038100X-0.165100X0.038100X0.165100X-0.038100X0.165100X0*%
%ADD20RoundRect,0.508000X0.127000X-0.190500X0.127000X0.190500X-0.127000X0.190500X-0.127000X-0.190500X0*%
%ADD21RoundRect,0.406400X-0.482600X0.101600X-0.482600X-0.101600X0.482600X-0.101600X0.482600X0.101600X0*%
%ADD22RoundRect,0.254000X0.063500X0.254000X-0.063500X0.254000X-0.063500X-0.254000X0.063500X-0.254000X0*%
%ADD23O,0.254000X1.016000*%
%ADD24O,1.016000X0.254000*%
%ADD25RoundRect,0.330200X-1.320800X-1.320800X1.320800X-1.320800X1.320800X1.320800X-1.320800X1.320800X0*%
%ADD26C,3.048000*%
%ADD27RoundRect,0.335280X0.083820X0.363220X-0.083820X0.363220X-0.083820X-0.363220X0.083820X-0.363220X0*%
%ADD28RoundRect,0.254000X-0.063500X-0.254000X0.063500X-0.254000X0.063500X0.254000X-0.063500X0.254000X0*%
%ADD29RoundRect,0.203200X-0.050800X-0.114300X0.050800X-0.114300X0.050800X0.114300X-0.050800X0.114300X0*%
%ADD30O,0.762000X0.914400*%
%ADD31RoundRect,0.203200X0.114300X-0.050800X0.114300X0.050800X-0.114300X0.050800X-0.114300X-0.050800X0*%
%ADD32RoundRect,0.335280X-0.083820X-0.363220X0.083820X-0.363220X0.083820X0.363220X-0.083820X0.363220X0*%
%ADD33O,1.320800X0.508000*%
%ADD34O,1.016000X1.524000*%
%ADD35O,0.406400X0.914400*%
%ADD36O,0.914400X0.762000*%
%ADD37O,1.016000X0.812800*%
%ADD38RoundRect,0.203200X-0.114300X0.050800X-0.114300X-0.050800X0.114300X-0.050800X0.114300X0.050800X0*%
%ADD39O,0.762000X0.558800*%
%ADD40O,0.355600X0.635000*%
%ADD41C,0.711200*%
%ADD42O,0.381000X1.270000*%
%ADD43RoundRect,0.444500X-0.444500X0.508000X-0.444500X-0.508000X0.444500X-0.508000X0.444500X0.508000X0*%
%ADD44RoundRect,0.476250X-0.476250X0.476250X-0.476250X-0.476250X0.476250X-0.476250X0.476250X0.476250X0*%
%ADD45O,2.540000X1.524000*%
%ADD46RoundRect,0.914400X-0.228600X-0.292100X0.228600X-0.292100X0.228600X0.292100X-0.228600X0.292100X0*%
%ADD47RoundRect,0.203200X0.050800X0.114300X-0.050800X0.114300X-0.050800X-0.114300X0.050800X-0.114300X0*%
%ADD48O,1.371600X0.558800*%
%ADD49C,3.175000*%
%ADD50O,1.651000X2.159000*%
%ADD51O,1.778000X2.286000*%
%ADD52O,2.540000X3.048000*%
%ADD53O,1.143000X1.270000*%
%ADD54O,1.143000X0.838200*%
%ADD55HorizOval,0.812800X-0.071842X0.071842X0.071842X-0.071842X0*%
%ADD56RoundRect,0.406400X-0.101600X0.165100X-0.101600X-0.165100X0.101600X-0.165100X0.101600X0.165100X0*%
%ADD57O,0.177800X0.889000*%
%ADD58O,0.889000X0.177800*%
%ADD59RoundRect,0.355600X1.422400X1.422400X-1.422400X1.422400X-1.422400X-1.422400X1.422400X-1.422400X0*%
%ADD60O,4.318000X1.016000*%
%ADD61O,1.016000X4.318000*%
%ADD62O,1.016000X3.302000*%
%ADD63O,3.302000X1.016000*%
G04 APERTURE END LIST*
D10*
G04 #@! TO.C,C22*
X11303000Y52654200D03*
X11303000Y51130200D03*
G04 #@! TD*
D11*
G04 #@! TO.C,L81*
X18542000Y15494000D03*
X18542000Y17018000D03*
G04 #@! TD*
G04 #@! TO.C,L2*
X9525000Y41021000D03*
X9525000Y42545000D03*
G04 #@! TD*
D12*
G04 #@! TO.C,C87*
X20764500Y14605000D03*
X19875500Y14605000D03*
G04 #@! TD*
D13*
G04 #@! TO.C,U81*
X22098000Y18542000D03*
X22098000Y17272000D03*
X22098000Y16002000D03*
X22098000Y14732000D03*
X22098000Y13462000D03*
X22098000Y12192000D03*
X22098000Y10922000D03*
X22098000Y9652000D03*
X27432000Y9652000D03*
X27432000Y10922000D03*
X27432000Y12192000D03*
X27432000Y13462000D03*
X27432000Y14732000D03*
X27432000Y16002000D03*
X27432000Y17272000D03*
X27432000Y18542000D03*
G04 #@! TD*
D14*
G04 #@! TO.C,C7*
X21463000Y52006500D03*
X21463000Y51117500D03*
G04 #@! TD*
G04 #@! TO.C,R72*
X8509000Y32448500D03*
X8509000Y31559500D03*
G04 #@! TD*
G04 #@! TO.C,C24*
X8763000Y39306500D03*
X8763000Y38417500D03*
G04 #@! TD*
D15*
G04 #@! TO.C,U41*
X20193000Y24892000D03*
X22479000Y24892000D03*
X24765000Y24892000D03*
D16*
X22479000Y30480000D03*
G04 #@! TD*
D10*
G04 #@! TO.C,D42*
X24257000Y38989000D03*
X24257000Y40513000D03*
G04 #@! TD*
D11*
G04 #@! TO.C,C18*
X8128000Y42824400D03*
X8128000Y44348400D03*
G04 #@! TD*
D17*
G04 #@! TO.C,C62*
X5207000Y21526500D03*
X5207000Y22415500D03*
G04 #@! TD*
D18*
G04 #@! TO.C,X81*
X18859500Y9144000D03*
X18859500Y6858000D03*
X20510500Y6858000D03*
X20510500Y9144000D03*
G04 #@! TD*
D19*
G04 #@! TO.C,C12*
X20637500Y48895000D03*
X21526500Y48895000D03*
G04 #@! TD*
D14*
G04 #@! TO.C,C25*
X9652000Y39306500D03*
X9652000Y38417500D03*
G04 #@! TD*
G04 #@! TO.C,C10*
X19939000Y42278300D03*
X19939000Y41389300D03*
G04 #@! TD*
D20*
G04 #@! TO.C,X61*
X7302500Y24511000D03*
X7302500Y26797000D03*
X5651500Y26797000D03*
X5651500Y24511000D03*
G04 #@! TD*
D14*
G04 #@! TO.C,C3*
X18796000Y51625500D03*
X18796000Y50736500D03*
G04 #@! TD*
G04 #@! TO.C,C65*
X14605000Y22923500D03*
X14605000Y22034500D03*
G04 #@! TD*
G04 #@! TO.C,R51*
X24511000Y42354500D03*
X24511000Y41465500D03*
G04 #@! TD*
D19*
G04 #@! TO.C,R69*
X16192500Y26416000D03*
X17081500Y26416000D03*
G04 #@! TD*
D21*
G04 #@! TO.C,X2*
X8509000Y49657000D03*
X8509000Y47117000D03*
G04 #@! TD*
D19*
G04 #@! TO.C,R31*
X9588500Y33274000D03*
X10477500Y33274000D03*
G04 #@! TD*
D17*
G04 #@! TO.C,C73*
X7620000Y31559500D03*
X7620000Y32448500D03*
G04 #@! TD*
D22*
G04 #@! TO.C,C11*
X10922000Y43688000D03*
X9398000Y43688000D03*
G04 #@! TD*
D23*
G04 #@! TO.C,U61*
X10566400Y24892000D03*
X11074400Y24892000D03*
X11569700Y24892000D03*
X12065000Y24892000D03*
X12573000Y24892000D03*
X13068300Y24892000D03*
X13563600Y24892000D03*
X14071600Y24892000D03*
D24*
X14859000Y25679400D03*
X14859000Y26187400D03*
X14859000Y26682700D03*
X14859000Y27178000D03*
X14859000Y27686000D03*
X14859000Y28181300D03*
X14859000Y28676600D03*
X14859000Y29184600D03*
D23*
X14071600Y29972000D03*
X13563600Y29972000D03*
X13068300Y29972000D03*
X12573000Y29972000D03*
X12065000Y29972000D03*
X11569700Y29972000D03*
X11074400Y29972000D03*
X10566400Y29972000D03*
D24*
X9779000Y29184600D03*
X9779000Y28676600D03*
X9779000Y28181300D03*
X9779000Y27686000D03*
X9779000Y27178000D03*
X9779000Y26682700D03*
X9779000Y26187400D03*
X9779000Y25679400D03*
D25*
X12319000Y27432000D03*
G04 #@! TD*
D19*
G04 #@! TO.C,C23*
X14287500Y52451000D03*
X15176500Y52451000D03*
G04 #@! TD*
G04 #@! TO.C,C15*
X7937500Y45974000D03*
X8826500Y45974000D03*
G04 #@! TD*
D14*
G04 #@! TO.C,C66*
X16256000Y28130500D03*
X16256000Y27241500D03*
G04 #@! TD*
G04 #@! TO.C,C5*
X9931400Y47358300D03*
X9931400Y46469300D03*
G04 #@! TD*
D26*
G04 #@! TO.C,FD3*
X2032000Y2032000D03*
G04 #@! TD*
D27*
G04 #@! TO.C,C21*
X9842500Y52070000D03*
X7937500Y52070000D03*
G04 #@! TD*
D28*
G04 #@! TO.C,C8*
X20320000Y50038000D03*
X21844000Y50038000D03*
G04 #@! TD*
D29*
G04 #@! TO.C,D107*
X24612600Y31877000D03*
X25425400Y31877000D03*
G04 #@! TD*
D14*
G04 #@! TO.C,R56*
X24511000Y48196500D03*
X24511000Y47307500D03*
G04 #@! TD*
D30*
G04 #@! TO.C,D82*
X18338800Y28041600D03*
X18338800Y25806400D03*
G04 #@! TD*
D12*
G04 #@! TO.C,R64*
X7810500Y22352000D03*
X6921500Y22352000D03*
G04 #@! TD*
D31*
G04 #@! TO.C,D95*
X4064000Y36296600D03*
X4064000Y37109400D03*
G04 #@! TD*
D12*
G04 #@! TO.C,C81*
X21653500Y5207000D03*
X20764500Y5207000D03*
G04 #@! TD*
G04 #@! TO.C,C69*
X6159500Y23241000D03*
X5270500Y23241000D03*
G04 #@! TD*
D32*
G04 #@! TO.C,C89*
X19748500Y22860000D03*
X21653500Y22860000D03*
G04 #@! TD*
D19*
G04 #@! TO.C,C70*
X5270500Y28067000D03*
X6159500Y28067000D03*
G04 #@! TD*
D14*
G04 #@! TO.C,R7*
X19812000Y40195500D03*
X19812000Y39306500D03*
G04 #@! TD*
D12*
G04 #@! TO.C,C68*
X7810500Y28067000D03*
X6921500Y28067000D03*
G04 #@! TD*
D33*
G04 #@! TO.C,D81*
X25196800Y5892800D03*
X25196800Y6858000D03*
X25196800Y7823200D03*
X22758400Y7823200D03*
X22758400Y6858000D03*
X22758400Y5892800D03*
G04 #@! TD*
D17*
G04 #@! TO.C,C2*
X16002000Y51625500D03*
X16002000Y52514500D03*
G04 #@! TD*
D12*
G04 #@! TO.C,R6*
X17081500Y29387800D03*
X16192500Y29387800D03*
G04 #@! TD*
G04 #@! TO.C,C1*
X17970500Y51689000D03*
X17081500Y51689000D03*
G04 #@! TD*
D34*
G04 #@! TO.C,J41*
X22098000Y20828000D03*
X23368000Y20828000D03*
X24638000Y20828000D03*
G04 #@! TD*
D35*
G04 #@! TO.C,T81*
X27406600Y6248400D03*
X27406600Y7975600D03*
X28219400Y7975600D03*
X28219400Y6248400D03*
G04 #@! TD*
D36*
G04 #@! TO.C,D41*
X21361400Y32385000D03*
X23596600Y32385000D03*
G04 #@! TD*
D37*
G04 #@! TO.C,Q81*
X20657820Y17970500D03*
X20657820Y19875500D03*
X18458180Y18923000D03*
G04 #@! TD*
D17*
G04 #@! TO.C,R4*
X19177000Y47434500D03*
X19177000Y48323500D03*
G04 #@! TD*
D12*
G04 #@! TO.C,C17*
X8445500Y41910000D03*
X7556500Y41910000D03*
G04 #@! TD*
D19*
G04 #@! TO.C,C9*
X20764500Y44069000D03*
X21653500Y44069000D03*
G04 #@! TD*
D14*
G04 #@! TO.C,R2*
X21590000Y39687500D03*
X21590000Y38798500D03*
G04 #@! TD*
D38*
G04 #@! TO.C,D96*
X4064000Y35458400D03*
X4064000Y34645600D03*
G04 #@! TD*
D17*
G04 #@! TO.C,C63*
X6096000Y21526500D03*
X6096000Y22415500D03*
G04 #@! TD*
D14*
G04 #@! TO.C,C43*
X21336000Y25082500D03*
X21336000Y24193500D03*
G04 #@! TD*
D12*
G04 #@! TO.C,C19*
X8445500Y41021000D03*
X7556500Y41021000D03*
G04 #@! TD*
D17*
G04 #@! TO.C,C4*
X5461000Y48958500D03*
X5461000Y49847500D03*
G04 #@! TD*
D38*
G04 #@! TO.C,D94*
X4064000Y41427400D03*
X4064000Y40614600D03*
G04 #@! TD*
D26*
G04 #@! TO.C,FD4*
X18542000Y3302000D03*
G04 #@! TD*
D19*
G04 #@! TO.C,C90*
X17843500Y28956000D03*
X18732500Y28956000D03*
G04 #@! TD*
D12*
G04 #@! TO.C,C14*
X8699500Y50800000D03*
X7810500Y50800000D03*
G04 #@! TD*
D26*
G04 #@! TO.C,FD1*
X4572000Y52197000D03*
G04 #@! TD*
D14*
G04 #@! TO.C,C6*
X19685000Y52387500D03*
X19685000Y51498500D03*
G04 #@! TD*
D36*
G04 #@! TO.C,D83*
X18008600Y24257000D03*
X15773400Y24257000D03*
G04 #@! TD*
D30*
G04 #@! TO.C,D31*
X5334000Y35661600D03*
X5334000Y33426400D03*
G04 #@! TD*
D38*
G04 #@! TO.C,D101*
X25400000Y48158400D03*
X25400000Y47345600D03*
G04 #@! TD*
D39*
G04 #@! TO.C,S31*
X12954000Y34467800D03*
X9906000Y34467800D03*
X12954000Y36144200D03*
X9906000Y36144200D03*
D40*
X13131800Y35306000D03*
X9728200Y35306000D03*
G04 #@! TD*
D10*
G04 #@! TO.C,C83*
X19939000Y17018000D03*
X19939000Y15494000D03*
G04 #@! TD*
D12*
G04 #@! TO.C,D1*
X18859500Y52578000D03*
X17970500Y52578000D03*
G04 #@! TD*
D41*
G04 #@! TO.C,J81*
X25958800Y3733800D03*
X21793200Y3733800D03*
D42*
X22575520Y4064000D03*
X23228300Y4064000D03*
X23876000Y4064000D03*
X24523700Y4064000D03*
X25176480Y4064000D03*
D43*
X27432000Y1270000D03*
D44*
X25146000Y1270000D03*
D43*
X20320000Y1270000D03*
D44*
X22606000Y1270000D03*
G04 #@! TD*
D31*
G04 #@! TO.C,D99*
X4064000Y26898600D03*
X4064000Y27711400D03*
G04 #@! TD*
D14*
G04 #@! TO.C,L4*
X7874000Y40195500D03*
X7874000Y39306500D03*
G04 #@! TD*
D19*
G04 #@! TO.C,R32*
X4889500Y36576000D03*
X5778500Y36576000D03*
G04 #@! TD*
G04 #@! TO.C,C13*
X20764500Y44958000D03*
X21653500Y44958000D03*
G04 #@! TD*
D14*
G04 #@! TO.C,R84*
X19050000Y24955500D03*
X19050000Y24066500D03*
G04 #@! TD*
D17*
G04 #@! TO.C,C86*
X20828000Y20764500D03*
X20828000Y21653500D03*
G04 #@! TD*
D33*
G04 #@! TO.C,U62*
X14274800Y33223200D03*
X14274800Y32258000D03*
X14274800Y31292800D03*
X16713200Y31292800D03*
X16713200Y33223200D03*
G04 #@! TD*
D29*
G04 #@! TO.C,D109*
X24612600Y30099000D03*
X25425400Y30099000D03*
G04 #@! TD*
D17*
G04 #@! TO.C,R41*
X24003000Y37147500D03*
X24003000Y38036500D03*
G04 #@! TD*
D11*
G04 #@! TO.C,C32*
X5207000Y37592000D03*
X5207000Y39116000D03*
G04 #@! TD*
D29*
G04 #@! TO.C,D108*
X24612600Y30988000D03*
X25425400Y30988000D03*
G04 #@! TD*
D38*
G04 #@! TO.C,D102*
X25400000Y46475650D03*
X25400000Y45662850D03*
G04 #@! TD*
D12*
G04 #@! TO.C,C67*
X7810500Y28956000D03*
X6921500Y28956000D03*
G04 #@! TD*
G04 #@! TO.C,C64*
X7810500Y21463000D03*
X6921500Y21463000D03*
G04 #@! TD*
D14*
G04 #@! TO.C,R67*
X11176000Y32448500D03*
X11176000Y31559500D03*
G04 #@! TD*
D33*
G04 #@! TO.C,U82*
X19888200Y30276800D03*
X19888200Y31242000D03*
X19888200Y32207200D03*
X17449800Y32207200D03*
X17449800Y30276800D03*
G04 #@! TD*
D14*
G04 #@! TO.C,R81*
X18542000Y20891500D03*
X18542000Y20002500D03*
G04 #@! TD*
D19*
G04 #@! TO.C,C31*
X11239500Y33274000D03*
X12128500Y33274000D03*
G04 #@! TD*
D45*
G04 #@! TO.C,J52*
X27432000Y49784000D03*
X27432000Y47244000D03*
X27432000Y44704000D03*
X27432000Y42164000D03*
X27432000Y39624000D03*
X27432000Y37084000D03*
X27432000Y34544000D03*
X27432000Y32004000D03*
X27432000Y29464000D03*
X27432000Y26924000D03*
X27432000Y24384000D03*
X27432000Y21844000D03*
G04 #@! TD*
D46*
G04 #@! TO.C,C42*
X19558000Y34925000D03*
X24130000Y34925000D03*
G04 #@! TD*
D12*
G04 #@! TO.C,R70*
X7810500Y23241000D03*
X6921500Y23241000D03*
G04 #@! TD*
D38*
G04 #@! TO.C,D100*
X4064000Y25298400D03*
X4064000Y24485600D03*
G04 #@! TD*
D47*
G04 #@! TO.C,D110*
X26695400Y20066000D03*
X25882600Y20066000D03*
G04 #@! TD*
D48*
G04 #@! TO.C,U2*
X18415000Y38735000D03*
X18415000Y40005000D03*
X18415000Y41275000D03*
X18415000Y42545000D03*
X11049000Y42545000D03*
X11049000Y41275000D03*
X11049000Y40005000D03*
X11049000Y38735000D03*
G04 #@! TD*
D49*
G04 #@! TO.C,J61*
X15367000Y9268968D03*
X3937000Y9268968D03*
D50*
X5207000Y15621000D03*
X6477000Y18161000D03*
X7747000Y15621000D03*
X9017000Y18161000D03*
X10287000Y15621000D03*
X11557000Y18161000D03*
X12827000Y15621000D03*
X14097000Y18161000D03*
D51*
X3048000Y5207000D03*
X5588000Y5207000D03*
X13716000Y5207000D03*
X16256000Y5207000D03*
D52*
X17526000Y12319000D03*
X1778000Y12319000D03*
G04 #@! TD*
D17*
G04 #@! TO.C,R1*
X20574000Y51117500D03*
X20574000Y52006500D03*
G04 #@! TD*
D14*
G04 #@! TO.C,R71*
X15494000Y23177500D03*
X15494000Y22288500D03*
G04 #@! TD*
D17*
G04 #@! TO.C,C74*
X6731000Y31559500D03*
X6731000Y32448500D03*
G04 #@! TD*
G04 #@! TO.C,R82*
X15494000Y20637500D03*
X15494000Y21526500D03*
G04 #@! TD*
D14*
G04 #@! TO.C,R63*
X4318000Y22415500D03*
X4318000Y21526500D03*
G04 #@! TD*
D17*
G04 #@! TO.C,L82*
X19939000Y20764500D03*
X19939000Y21653500D03*
G04 #@! TD*
D19*
G04 #@! TO.C,R68*
X16192500Y25527000D03*
X17081500Y25527000D03*
G04 #@! TD*
D14*
G04 #@! TO.C,R52*
X25400000Y38798500D03*
X25400000Y37909500D03*
G04 #@! TD*
D32*
G04 #@! TO.C,C72*
X5092700Y30226000D03*
X6997700Y30226000D03*
G04 #@! TD*
D19*
G04 #@! TO.C,R54*
X24447500Y43180000D03*
X25336500Y43180000D03*
G04 #@! TD*
D53*
G04 #@! TO.C,U31*
X8572500Y33769300D03*
D54*
X8572500Y35496500D03*
X6667500Y35496500D03*
X6667500Y33591500D03*
G04 #@! TD*
D17*
G04 #@! TO.C,R3*
X5461000Y47307500D03*
X5461000Y48196500D03*
G04 #@! TD*
D14*
G04 #@! TO.C,R85*
X23622000Y25082500D03*
X23622000Y24193500D03*
G04 #@! TD*
D31*
G04 #@! TO.C,D104*
X25400000Y39598600D03*
X25400000Y40411400D03*
G04 #@! TD*
D38*
G04 #@! TO.C,D91*
X4064000Y48158400D03*
X4064000Y47345600D03*
G04 #@! TD*
D31*
G04 #@! TO.C,D105*
X25400000Y36296600D03*
X25400000Y37109400D03*
G04 #@! TD*
D45*
G04 #@! TO.C,J51*
X2032000Y49784000D03*
X2032000Y47244000D03*
X2032000Y44704000D03*
X2032000Y42164000D03*
X2032000Y39624000D03*
X2032000Y37084000D03*
X2032000Y34544000D03*
X2032000Y32004000D03*
X2032000Y29464000D03*
X2032000Y26924000D03*
X2032000Y24384000D03*
X2032000Y21844000D03*
G04 #@! TD*
D29*
G04 #@! TO.C,D103*
X24485600Y44069000D03*
X25298400Y44069000D03*
G04 #@! TD*
D55*
G04 #@! TO.C,Q82*
X17376170Y20576498D03*
X18723208Y21923536D03*
X16494309Y22805397D03*
G04 #@! TD*
D14*
G04 #@! TO.C,R8*
X20701000Y40195500D03*
X20701000Y39306500D03*
G04 #@! TD*
D12*
G04 #@! TO.C,R62*
X5118100Y20701000D03*
X4229100Y20701000D03*
G04 #@! TD*
D56*
G04 #@! TO.C,X1*
X20193000Y47802800D03*
X20193000Y46151800D03*
X21463000Y46151800D03*
X21463000Y47802800D03*
G04 #@! TD*
D12*
G04 #@! TO.C,L1*
X17970500Y50800000D03*
X17081500Y50800000D03*
G04 #@! TD*
D17*
G04 #@! TO.C,R83*
X17145000Y27241500D03*
X17145000Y28130500D03*
G04 #@! TD*
D38*
G04 #@! TO.C,D98*
X4064000Y30378400D03*
X4064000Y29565600D03*
G04 #@! TD*
G04 #@! TO.C,D93*
X4064000Y43078400D03*
X4064000Y42265600D03*
G04 #@! TD*
D12*
G04 #@! TO.C,C85*
X19748500Y5588000D03*
X18859500Y5588000D03*
G04 #@! TD*
D19*
G04 #@! TO.C,C16*
X8826500Y40132000D03*
X9715500Y40132000D03*
G04 #@! TD*
D26*
G04 #@! TO.C,FD2*
X24892000Y52197000D03*
G04 #@! TD*
D19*
G04 #@! TO.C,C88*
X27495500Y20066000D03*
X28384500Y20066000D03*
G04 #@! TD*
G04 #@! TO.C,L3*
X14287500Y51587400D03*
X15176500Y51587400D03*
G04 #@! TD*
D57*
G04 #@! TO.C,U1*
X17007000Y49022000D03*
X16657000Y49022000D03*
X16307000Y49022000D03*
X15957000Y49022000D03*
X15607000Y49022000D03*
X15257000Y49022000D03*
X14907000Y49022000D03*
X14557000Y49022000D03*
X14207000Y49022000D03*
X13857000Y49022000D03*
X13507000Y49022000D03*
X13157000Y49022000D03*
X12807000Y49022000D03*
X12457000Y49022000D03*
D58*
X12192000Y48057000D03*
X12192000Y47707000D03*
X12192000Y47357000D03*
X12192000Y47007000D03*
X12192000Y46657000D03*
X12192000Y46307000D03*
X12192000Y45957000D03*
X12192000Y45607000D03*
X12192000Y45257000D03*
X12192000Y44907000D03*
D57*
X12457000Y43942000D03*
X12807000Y43942000D03*
X13157000Y43942000D03*
X13507000Y43942000D03*
X13857000Y43942000D03*
X14207000Y43942000D03*
X14557000Y43942000D03*
X14907000Y43942000D03*
X15257000Y43942000D03*
X15607000Y43942000D03*
X15957000Y43942000D03*
X16307000Y43942000D03*
X16657000Y43942000D03*
X17007000Y43942000D03*
D58*
X17272000Y44907000D03*
X17272000Y45257000D03*
X17272000Y45607000D03*
X17272000Y45957000D03*
X17272000Y46307000D03*
X17272000Y46657000D03*
X17272000Y47007000D03*
X17272000Y47357000D03*
X17272000Y47707000D03*
X17272000Y48057000D03*
D59*
X14732000Y46482000D03*
G04 #@! TD*
D17*
G04 #@! TO.C,R65*
X12065000Y31559500D03*
X12065000Y32448500D03*
G04 #@! TD*
D14*
G04 #@! TO.C,L61*
X5842000Y32448500D03*
X5842000Y31559500D03*
G04 #@! TD*
D19*
G04 #@! TO.C,C82*
X18224500Y14605000D03*
X19113500Y14605000D03*
G04 #@! TD*
D17*
G04 #@! TO.C,C75*
X17907000Y33337500D03*
X17907000Y34226500D03*
G04 #@! TD*
D31*
G04 #@! TO.C,D97*
X4064000Y31597600D03*
X4064000Y32410400D03*
G04 #@! TD*
D14*
G04 #@! TO.C,C71*
X4953000Y32448500D03*
X4953000Y31559500D03*
G04 #@! TD*
D39*
G04 #@! TO.C,S1*
X17018000Y34467800D03*
X13970000Y34467800D03*
X17018000Y36144200D03*
X13970000Y36144200D03*
D40*
X17195800Y35306000D03*
X13792200Y35306000D03*
G04 #@! TD*
D14*
G04 #@! TO.C,R73*
X8001000Y30670500D03*
X8001000Y29781500D03*
G04 #@! TD*
G04 #@! TO.C,R66*
X10287000Y32448500D03*
X10287000Y31559500D03*
G04 #@! TD*
D29*
G04 #@! TO.C,D106*
X24612600Y32766000D03*
X25425400Y32766000D03*
G04 #@! TD*
D33*
G04 #@! TO.C,D61*
X12903200Y20878800D03*
X12903200Y21844000D03*
X12903200Y22809200D03*
X10464800Y22809200D03*
X10464800Y21844000D03*
X10464800Y20878800D03*
G04 #@! TD*
D38*
G04 #@! TO.C,D92*
X4064000Y45618400D03*
X4064000Y44805600D03*
G04 #@! TD*
D60*
G04 #@! TO.C,SH1*
X21209000Y37338000D03*
X8255000Y53594000D03*
D61*
X22860000Y38989000D03*
X22860000Y51943000D03*
D62*
X22860000Y45466000D03*
D60*
X21209000Y53594000D03*
D62*
X6604000Y45466000D03*
D60*
X8255000Y37338000D03*
D61*
X6604000Y38989000D03*
D63*
X14732000Y37338000D03*
X14732000Y53594000D03*
D61*
X6604000Y51943000D03*
G04 #@! TD*
D12*
G04 #@! TO.C,C84*
X19875500Y10414000D03*
X18986500Y10414000D03*
G04 #@! TD*
D14*
G04 #@! TO.C,R55*
X24511000Y46545500D03*
X24511000Y45656500D03*
G04 #@! TD*
G04 #@! TO.C,R53*
X25400000Y42354500D03*
X25400000Y41465500D03*
G04 #@! TD*
D27*
G04 #@! TO.C,C41*
X24701500Y22860000D03*
X22796500Y22860000D03*
G04 #@! TD*
D14*
G04 #@! TO.C,R5*
X10033000Y50228500D03*
X10033000Y49339500D03*
G04 #@! TD*
D17*
G04 #@! TO.C,C20*
X12642850Y52190650D03*
X12642850Y53079650D03*
G04 #@! TD*
M02*
