%FSLAX45Y45*%
G04 Gerber Fmt 4.5, Leading zero omitted, Abs format (unit mm)*
G04 Created by KiCad (PCBNEW 6.0.5-a6ca702e91~116~ubuntu20.04.1) date 2024-03-03 00:05:45*
%MOMM*%
%LPD*%
G01*
G04 APERTURE LIST*
%TA.AperFunction,Profile*%
%ADD10C,0.254000*%
%TD*%
%ADD11C,0.200000*%
%ADD12C,0.030480*%
%ADD13C,0.069850*%
%ADD14C,0.088900*%
%ADD15C,0.101600*%
%ADD16C,0.127000*%
G04 APERTURE END LIST*
D10*
X2946400Y6350000D02*
X2844800Y6451600D01*
X0Y6350000D02*
X0Y101600D01*
X101600Y6451600D02*
X0Y6350000D01*
X101600Y0D02*
X0Y101600D01*
X2946400Y101600D02*
X2946400Y6350000D01*
X101600Y0D02*
X2844800Y0D01*
X2844800Y6451600D02*
X101600Y6451600D01*
X2844800Y0D02*
X2946400Y101600D01*
D11*
D12*
X73660Y408940D02*
X104140Y378460D01*
X104140Y408940D02*
X73660Y378460D01*
X86360Y5361940D02*
X116840Y5331460D01*
X116840Y5361940D02*
X86360Y5331460D01*
X86360Y5260340D02*
X116840Y5229860D01*
X116840Y5260340D02*
X86360Y5229860D01*
X86360Y5158740D02*
X116840Y5128260D01*
X116840Y5158740D02*
X86360Y5128260D01*
X111760Y1996440D02*
X142240Y1965960D01*
X142240Y1996440D02*
X111760Y1965960D01*
X111760Y1742440D02*
X142240Y1711960D01*
X142240Y1742440D02*
X111760Y1711960D01*
X111760Y1488440D02*
X142240Y1457960D01*
X142240Y1488440D02*
X111760Y1457960D01*
X137160Y5463540D02*
X167640Y5433060D01*
X167640Y5463540D02*
X137160Y5433060D01*
X187960Y5361940D02*
X218440Y5331460D01*
X218440Y5361940D02*
X187960Y5331460D01*
X187960Y5260340D02*
X218440Y5229860D01*
X218440Y5260340D02*
X187960Y5229860D01*
X238760Y5463540D02*
X269240Y5433060D01*
X269240Y5463540D02*
X238760Y5433060D01*
X276860Y4866640D02*
X307340Y4836160D01*
X307340Y4866640D02*
X276860Y4836160D01*
X276860Y4612640D02*
X307340Y4582160D01*
X307340Y4612640D02*
X276860Y4582160D01*
X276860Y4358640D02*
X307340Y4328160D01*
X307340Y4358640D02*
X276860Y4328160D01*
X276860Y4104640D02*
X307340Y4074160D01*
X307340Y4104640D02*
X276860Y4074160D01*
X284480Y2834640D02*
X314960Y2804160D01*
X314960Y2834640D02*
X284480Y2804160D01*
X287020Y3342640D02*
X317500Y3312160D01*
X317500Y3342640D02*
X287020Y3312160D01*
X289560Y5361940D02*
X320040Y5331460D01*
X320040Y5361940D02*
X289560Y5331460D01*
X289560Y1793240D02*
X320040Y1762760D01*
X320040Y1793240D02*
X289560Y1762760D01*
X302260Y3596640D02*
X332740Y3566160D01*
X332740Y3596640D02*
X302260Y3566160D01*
X302260Y3088640D02*
X332740Y3058160D01*
X332740Y3088640D02*
X302260Y3058160D01*
X314960Y3850640D02*
X345440Y3820160D01*
X345440Y3850640D02*
X314960Y3820160D01*
X327660Y1704340D02*
X358140Y1673860D01*
X358140Y1704340D02*
X327660Y1673860D01*
X340360Y5463540D02*
X370840Y5433060D01*
X370840Y5463540D02*
X340360Y5433060D01*
X340360Y2618740D02*
X370840Y2588260D01*
X370840Y2618740D02*
X340360Y2588260D01*
X375920Y2326640D02*
X406400Y2296160D01*
X406400Y2326640D02*
X375920Y2296160D01*
X378460Y142240D02*
X408940Y111760D01*
X408940Y142240D02*
X378460Y111760D01*
X424180Y3337560D02*
X454660Y3307080D01*
X454660Y3337560D02*
X424180Y3307080D01*
X431800Y2834640D02*
X462280Y2804160D01*
X462280Y2834640D02*
X431800Y2804160D01*
X435610Y4999990D02*
X466090Y4969510D01*
X466090Y4999990D02*
X435610Y4969510D01*
X436880Y2390140D02*
X467360Y2359660D01*
X467360Y2390140D02*
X436880Y2359660D01*
X441960Y5463540D02*
X472440Y5433060D01*
X472440Y5463540D02*
X441960Y5433060D01*
X459740Y4691380D02*
X490220Y4660900D01*
X490220Y4691380D02*
X459740Y4660900D01*
X459740Y3860800D02*
X490220Y3830320D01*
X490220Y3860800D02*
X459740Y3830320D01*
X467360Y4879340D02*
X497840Y4848860D01*
X497840Y4879340D02*
X467360Y4848860D01*
X467360Y3444240D02*
X497840Y3413760D01*
X497840Y3444240D02*
X467360Y3413760D01*
X473710Y2548890D02*
X504190Y2518410D01*
X504190Y2548890D02*
X473710Y2518410D01*
X474980Y4605020D02*
X505460Y4574540D01*
X505460Y4605020D02*
X474980Y4574540D01*
X474980Y3530600D02*
X505460Y3500120D01*
X505460Y3530600D02*
X474980Y3500120D01*
X480060Y2908300D02*
X510540Y2877820D01*
X510540Y2908300D02*
X480060Y2877820D01*
X480060Y2009140D02*
X510540Y1978660D01*
X510540Y2009140D02*
X480060Y1978660D01*
X543560Y5463540D02*
X574040Y5433060D01*
X574040Y5463540D02*
X543560Y5433060D01*
X543560Y4409440D02*
X574040Y4378960D01*
X574040Y4409440D02*
X543560Y4378960D01*
X563880Y4323080D02*
X594360Y4292600D01*
X594360Y4323080D02*
X563880Y4292600D01*
X563880Y4236720D02*
X594360Y4206240D01*
X594360Y4236720D02*
X563880Y4206240D01*
X563880Y4150360D02*
X594360Y4119880D01*
X594360Y4150360D02*
X563880Y4119880D01*
X581660Y3329940D02*
X612140Y3299460D01*
X612140Y3329940D02*
X581660Y3299460D01*
X584200Y2070100D02*
X614680Y2039620D01*
X614680Y2070100D02*
X584200Y2039620D01*
X594360Y2910840D02*
X624840Y2880360D01*
X624840Y2910840D02*
X594360Y2880360D01*
X607060Y4955540D02*
X637540Y4925060D01*
X637540Y4955540D02*
X607060Y4925060D01*
X614680Y3068320D02*
X645160Y3037840D01*
X645160Y3068320D02*
X614680Y3037840D01*
X614680Y3004820D02*
X645160Y2974340D01*
X645160Y3004820D02*
X614680Y2974340D01*
X619760Y142240D02*
X650240Y111760D01*
X650240Y142240D02*
X619760Y111760D01*
X645160Y5463540D02*
X675640Y5433060D01*
X675640Y5463540D02*
X645160Y5433060D01*
X652780Y2768600D02*
X683260Y2738120D01*
X683260Y2768600D02*
X652780Y2738120D01*
X673100Y2070100D02*
X703580Y2039620D01*
X703580Y2070100D02*
X673100Y2039620D01*
X683260Y4155440D02*
X713740Y4124960D01*
X713740Y4155440D02*
X683260Y4124960D01*
X721360Y5285740D02*
X751840Y5255260D01*
X751840Y5285740D02*
X721360Y5255260D01*
X721360Y5146040D02*
X751840Y5115560D01*
X751840Y5146040D02*
X721360Y5115560D01*
X746760Y5463540D02*
X777240Y5433060D01*
X777240Y5463540D02*
X746760Y5433060D01*
X746760Y3317240D02*
X777240Y3286760D01*
X777240Y3317240D02*
X746760Y3286760D01*
X759460Y3837940D02*
X789940Y3807460D01*
X789940Y3837940D02*
X759460Y3807460D01*
X772160Y1247140D02*
X802640Y1216660D01*
X802640Y1247140D02*
X772160Y1216660D01*
X772160Y993140D02*
X802640Y962660D01*
X802640Y993140D02*
X772160Y962660D01*
X772160Y739140D02*
X802640Y708660D01*
X802640Y739140D02*
X772160Y708660D01*
X810260Y2781300D02*
X840740Y2750820D01*
X840740Y2781300D02*
X810260Y2750820D01*
X810260Y2656840D02*
X840740Y2626360D01*
X840740Y2656840D02*
X810260Y2626360D01*
X815340Y4356100D02*
X845820Y4325620D01*
X845820Y4356100D02*
X815340Y4325620D01*
X845820Y3014980D02*
X876300Y2984500D01*
X876300Y3014980D02*
X845820Y2984500D01*
X848360Y5463540D02*
X878840Y5433060D01*
X878840Y5463540D02*
X848360Y5433060D01*
X855980Y2928620D02*
X886460Y2898140D01*
X886460Y2928620D02*
X855980Y2898140D01*
X871220Y3098800D02*
X901700Y3068320D01*
X901700Y3098800D02*
X871220Y3068320D01*
X873760Y3634740D02*
X904240Y3604260D01*
X904240Y3634740D02*
X873760Y3604260D01*
X873760Y396240D02*
X904240Y365760D01*
X904240Y396240D02*
X873760Y365760D01*
X873760Y142240D02*
X904240Y111760D01*
X904240Y142240D02*
X873760Y111760D01*
X878840Y5260340D02*
X909320Y5229860D01*
X909320Y5260340D02*
X878840Y5229860D01*
X878840Y5184140D02*
X909320Y5153660D01*
X909320Y5184140D02*
X878840Y5153660D01*
X886460Y4828540D02*
X916940Y4798060D01*
X916940Y4828540D02*
X886460Y4798060D01*
X904240Y4168140D02*
X934720Y4137660D01*
X934720Y4168140D02*
X904240Y4137660D01*
X904240Y3926840D02*
X934720Y3896360D01*
X934720Y3926840D02*
X904240Y3896360D01*
X914400Y4526280D02*
X944880Y4495800D01*
X944880Y4526280D02*
X914400Y4495800D01*
X947420Y2186940D02*
X977900Y2156460D01*
X977900Y2186940D02*
X947420Y2156460D01*
X949960Y5463540D02*
X980440Y5433060D01*
X980440Y5463540D02*
X949960Y5433060D01*
X949960Y2491740D02*
X980440Y2461260D01*
X980440Y2491740D02*
X949960Y2461260D01*
X965200Y4859020D02*
X995680Y4828540D01*
X995680Y4859020D02*
X965200Y4828540D01*
X972820Y4584700D02*
X1003300Y4554220D01*
X1003300Y4584700D02*
X972820Y4554220D01*
X975360Y1247140D02*
X1005840Y1216660D01*
X1005840Y1247140D02*
X975360Y1216660D01*
X982980Y4465320D02*
X1013460Y4434840D01*
X1013460Y4465320D02*
X982980Y4434840D01*
X1005840Y4338320D02*
X1036320Y4307840D01*
X1036320Y4338320D02*
X1005840Y4307840D01*
X1013460Y5107940D02*
X1043940Y5077460D01*
X1043940Y5107940D02*
X1013460Y5077460D01*
X1036320Y3121660D02*
X1066800Y3091180D01*
X1066800Y3121660D02*
X1036320Y3091180D01*
X1041400Y4892040D02*
X1071880Y4861560D01*
X1071880Y4892040D02*
X1041400Y4861560D01*
X1046480Y4620260D02*
X1076960Y4589780D01*
X1076960Y4620260D02*
X1046480Y4589780D01*
X1051560Y5463540D02*
X1082040Y5433060D01*
X1082040Y5463540D02*
X1051560Y5433060D01*
X1051560Y5374640D02*
X1082040Y5344160D01*
X1082040Y5374640D02*
X1051560Y5344160D01*
X1051560Y4701540D02*
X1082040Y4671060D01*
X1082040Y4701540D02*
X1051560Y4671060D01*
X1051560Y3411220D02*
X1082040Y3380740D01*
X1082040Y3411220D02*
X1051560Y3380740D01*
X1076960Y5184140D02*
X1107440Y5153660D01*
X1107440Y5184140D02*
X1076960Y5153660D01*
X1102360Y3660140D02*
X1132840Y3629660D01*
X1132840Y3660140D02*
X1102360Y3629660D01*
X1112520Y4935220D02*
X1143000Y4904740D01*
X1143000Y4935220D02*
X1112520Y4904740D01*
X1122680Y3121660D02*
X1153160Y3091180D01*
X1153160Y3121660D02*
X1122680Y3091180D01*
X1127760Y396240D02*
X1158240Y365760D01*
X1158240Y396240D02*
X1127760Y365760D01*
X1127760Y142240D02*
X1158240Y111760D01*
X1158240Y142240D02*
X1127760Y111760D01*
X1153160Y5463540D02*
X1183640Y5433060D01*
X1183640Y5463540D02*
X1153160Y5433060D01*
X1153160Y5374640D02*
X1183640Y5344160D01*
X1183640Y5374640D02*
X1153160Y5344160D01*
X1153160Y3418840D02*
X1183640Y3388360D01*
X1183640Y3418840D02*
X1153160Y3388360D01*
X1153160Y2085340D02*
X1183640Y2054860D01*
X1183640Y2085340D02*
X1153160Y2054860D01*
X1155700Y4460240D02*
X1186180Y4429760D01*
X1186180Y4460240D02*
X1155700Y4429760D01*
X1165860Y4871720D02*
X1196340Y4841240D01*
X1196340Y4871720D02*
X1165860Y4841240D01*
X1165860Y4224020D02*
X1196340Y4193540D01*
X1196340Y4224020D02*
X1165860Y4193540D01*
X1173480Y5201920D02*
X1203960Y5171440D01*
X1203960Y5201920D02*
X1173480Y5171440D01*
X1178560Y3812540D02*
X1209040Y3782060D01*
X1209040Y3812540D02*
X1178560Y3782060D01*
X1178560Y3609340D02*
X1209040Y3578860D01*
X1209040Y3609340D02*
X1178560Y3578860D01*
X1178560Y1247140D02*
X1209040Y1216660D01*
X1209040Y1247140D02*
X1178560Y1216660D01*
X1178560Y993140D02*
X1209040Y962660D01*
X1209040Y993140D02*
X1178560Y962660D01*
X1178560Y739140D02*
X1209040Y708660D01*
X1209040Y739140D02*
X1178560Y708660D01*
X1181100Y4381500D02*
X1211580Y4351020D01*
X1211580Y4381500D02*
X1181100Y4351020D01*
X1196340Y4046220D02*
X1226820Y4015740D01*
X1226820Y4046220D02*
X1196340Y4015740D01*
X1239520Y4269740D02*
X1270000Y4239260D01*
X1270000Y4269740D02*
X1239520Y4239260D01*
X1247140Y4185920D02*
X1277620Y4155440D01*
X1277620Y4185920D02*
X1247140Y4155440D01*
X1254760Y5463540D02*
X1285240Y5433060D01*
X1285240Y5463540D02*
X1254760Y5433060D01*
X1254760Y5374640D02*
X1285240Y5344160D01*
X1285240Y5374640D02*
X1254760Y5344160D01*
X1254760Y3685540D02*
X1285240Y3655060D01*
X1285240Y3685540D02*
X1254760Y3655060D01*
X1254760Y3368040D02*
X1285240Y3337560D01*
X1285240Y3368040D02*
X1254760Y3337560D01*
X1259840Y5158740D02*
X1290320Y5128260D01*
X1290320Y5158740D02*
X1259840Y5128260D01*
X1259840Y3119120D02*
X1290320Y3088640D01*
X1290320Y3119120D02*
X1259840Y3088640D01*
X1280160Y4003040D02*
X1310640Y3972560D01*
X1310640Y4003040D02*
X1280160Y3972560D01*
X1305560Y3863340D02*
X1336040Y3832860D01*
X1336040Y3863340D02*
X1305560Y3832860D01*
X1318260Y4142740D02*
X1348740Y4112260D01*
X1348740Y4142740D02*
X1318260Y4112260D01*
X1325880Y3175000D02*
X1356360Y3144520D01*
X1356360Y3175000D02*
X1325880Y3144520D01*
X1343660Y5179060D02*
X1374140Y5148580D01*
X1374140Y5179060D02*
X1343660Y5148580D01*
X1343660Y3380740D02*
X1374140Y3350260D01*
X1374140Y3380740D02*
X1343660Y3350260D01*
X1356360Y5463540D02*
X1386840Y5433060D01*
X1386840Y5463540D02*
X1356360Y5433060D01*
X1369060Y2263140D02*
X1399540Y2232660D01*
X1399540Y2263140D02*
X1369060Y2232660D01*
X1381760Y4193540D02*
X1412240Y4163060D01*
X1412240Y4193540D02*
X1381760Y4163060D01*
X1381760Y1247140D02*
X1412240Y1216660D01*
X1412240Y1247140D02*
X1381760Y1216660D01*
X1381760Y142240D02*
X1412240Y111760D01*
X1412240Y142240D02*
X1381760Y111760D01*
X1432560Y2098040D02*
X1463040Y2067560D01*
X1463040Y2098040D02*
X1432560Y2067560D01*
X1442720Y3063240D02*
X1473200Y3032760D01*
X1473200Y3063240D02*
X1442720Y3032760D01*
X1445260Y3525520D02*
X1475740Y3495040D01*
X1475740Y3525520D02*
X1445260Y3495040D01*
X1457960Y5463540D02*
X1488440Y5433060D01*
X1488440Y5463540D02*
X1457960Y5433060D01*
X1457960Y4041140D02*
X1488440Y4010660D01*
X1488440Y4041140D02*
X1457960Y4010660D01*
X1475740Y5095240D02*
X1506220Y5064760D01*
X1506220Y5095240D02*
X1475740Y5064760D01*
X1483360Y3962400D02*
X1513840Y3931920D01*
X1513840Y3962400D02*
X1483360Y3931920D01*
X1488440Y2989580D02*
X1518920Y2959100D01*
X1518920Y2989580D02*
X1488440Y2959100D01*
X1513840Y3629660D02*
X1544320Y3599180D01*
X1544320Y3629660D02*
X1513840Y3599180D01*
X1557020Y5107940D02*
X1587500Y5077460D01*
X1587500Y5107940D02*
X1557020Y5077460D01*
X1559560Y5463540D02*
X1590040Y5433060D01*
X1590040Y5463540D02*
X1559560Y5433060D01*
X1559560Y3431540D02*
X1590040Y3401060D01*
X1590040Y3431540D02*
X1559560Y3401060D01*
X1567180Y3959860D02*
X1597660Y3929380D01*
X1597660Y3959860D02*
X1567180Y3929380D01*
X1572260Y2755900D02*
X1602740Y2725420D01*
X1602740Y2755900D02*
X1572260Y2725420D01*
X1574800Y5029200D02*
X1605280Y4998720D01*
X1605280Y5029200D02*
X1574800Y4998720D01*
X1584960Y1831340D02*
X1615440Y1800860D01*
X1615440Y1831340D02*
X1584960Y1800860D01*
X1584960Y1602740D02*
X1615440Y1572260D01*
X1615440Y1602740D02*
X1584960Y1572260D01*
X1610360Y2049780D02*
X1640840Y2019300D01*
X1640840Y2049780D02*
X1610360Y2019300D01*
X1623060Y2186940D02*
X1653540Y2156460D01*
X1653540Y2186940D02*
X1623060Y2156460D01*
X1633220Y2875280D02*
X1663700Y2844800D01*
X1663700Y2875280D02*
X1633220Y2844800D01*
X1635760Y142240D02*
X1666240Y111760D01*
X1666240Y142240D02*
X1635760Y111760D01*
X1648460Y4079240D02*
X1678940Y4048760D01*
X1678940Y4079240D02*
X1648460Y4048760D01*
X1661160Y5463540D02*
X1691640Y5433060D01*
X1691640Y5463540D02*
X1661160Y5433060D01*
X1661160Y5374640D02*
X1691640Y5344160D01*
X1691640Y5374640D02*
X1661160Y5344160D01*
X1661160Y2504440D02*
X1691640Y2473960D01*
X1691640Y2504440D02*
X1661160Y2473960D01*
X1686560Y5273040D02*
X1717040Y5242560D01*
X1717040Y5273040D02*
X1686560Y5242560D01*
X1699260Y4142740D02*
X1729740Y4112260D01*
X1729740Y4142740D02*
X1699260Y4112260D01*
X1711960Y4295140D02*
X1742440Y4264660D01*
X1742440Y4295140D02*
X1711960Y4264660D01*
X1711960Y2186940D02*
X1742440Y2156460D01*
X1742440Y2186940D02*
X1711960Y2156460D01*
X1724660Y2352040D02*
X1755140Y2321560D01*
X1755140Y2352040D02*
X1724660Y2321560D01*
X1737360Y2656840D02*
X1767840Y2626360D01*
X1767840Y2656840D02*
X1737360Y2626360D01*
X1750060Y5011420D02*
X1780540Y4980940D01*
X1780540Y5011420D02*
X1750060Y4980940D01*
X1750060Y4371340D02*
X1780540Y4340860D01*
X1780540Y4371340D02*
X1750060Y4340860D01*
X1775460Y2542540D02*
X1805940Y2512060D01*
X1805940Y2542540D02*
X1775460Y2512060D01*
X1788160Y142240D02*
X1818640Y111760D01*
X1818640Y142240D02*
X1788160Y111760D01*
X1800860Y2974340D02*
X1831340Y2943860D01*
X1831340Y2974340D02*
X1800860Y2943860D01*
X1813560Y3710940D02*
X1844040Y3680460D01*
X1844040Y3710940D02*
X1813560Y3680460D01*
X1826260Y3799840D02*
X1856740Y3769360D01*
X1856740Y3799840D02*
X1826260Y3769360D01*
X1826260Y3622040D02*
X1856740Y3591560D01*
X1856740Y3622040D02*
X1826260Y3591560D01*
X1826260Y3139440D02*
X1856740Y3108960D01*
X1856740Y3139440D02*
X1826260Y3108960D01*
X1833880Y4351020D02*
X1864360Y4320540D01*
X1864360Y4351020D02*
X1833880Y4320540D01*
X1838960Y1628140D02*
X1869440Y1597660D01*
X1869440Y1628140D02*
X1838960Y1597660D01*
X1849120Y5039360D02*
X1879600Y5008880D01*
X1879600Y5039360D02*
X1849120Y5008880D01*
X1877060Y5349240D02*
X1907540Y5318760D01*
X1907540Y5349240D02*
X1877060Y5318760D01*
X1889760Y2301240D02*
X1920240Y2270760D01*
X1920240Y2301240D02*
X1889760Y2270760D01*
X1889760Y1869440D02*
X1920240Y1838960D01*
X1920240Y1869440D02*
X1889760Y1838960D01*
X1889760Y142240D02*
X1920240Y111760D01*
X1920240Y142240D02*
X1889760Y111760D01*
X1915160Y5463540D02*
X1945640Y5433060D01*
X1945640Y5463540D02*
X1915160Y5433060D01*
X1915160Y4688840D02*
X1945640Y4658360D01*
X1945640Y4688840D02*
X1915160Y4658360D01*
X1915160Y3317240D02*
X1945640Y3286760D01*
X1945640Y3317240D02*
X1915160Y3286760D01*
X1915160Y2860040D02*
X1945640Y2829560D01*
X1945640Y2860040D02*
X1915160Y2829560D01*
X1915160Y2707640D02*
X1945640Y2677160D01*
X1945640Y2707640D02*
X1915160Y2677160D01*
X1925320Y1963420D02*
X1955800Y1932940D01*
X1955800Y1963420D02*
X1925320Y1932940D01*
X1932940Y2113280D02*
X1963420Y2082800D01*
X1963420Y2113280D02*
X1932940Y2082800D01*
X1945640Y4323080D02*
X1976120Y4292600D01*
X1976120Y4323080D02*
X1945640Y4292600D01*
X1953260Y3901440D02*
X1983740Y3870960D01*
X1983740Y3901440D02*
X1953260Y3870960D01*
X1953260Y815340D02*
X1983740Y784860D01*
X1983740Y815340D02*
X1953260Y784860D01*
X1965960Y4079240D02*
X1996440Y4048760D01*
X1996440Y4079240D02*
X1965960Y4048760D01*
X1976120Y1887220D02*
X2006600Y1856740D01*
X2006600Y1887220D02*
X1976120Y1856740D01*
X1991360Y4485640D02*
X2021840Y4455160D01*
X2021840Y4485640D02*
X1991360Y4455160D01*
X1991360Y472440D02*
X2021840Y441960D01*
X2021840Y472440D02*
X1991360Y441960D01*
X2016760Y5463540D02*
X2047240Y5433060D01*
X2047240Y5463540D02*
X2016760Y5433060D01*
X2016760Y3317240D02*
X2047240Y3286760D01*
X2047240Y3317240D02*
X2016760Y3286760D01*
X2042160Y5298440D02*
X2072640Y5267960D01*
X2072640Y5298440D02*
X2042160Y5267960D01*
X2042160Y3901440D02*
X2072640Y3870960D01*
X2072640Y3901440D02*
X2042160Y3870960D01*
X2054860Y4079240D02*
X2085340Y4048760D01*
X2085340Y4079240D02*
X2054860Y4048760D01*
X2054860Y1717040D02*
X2085340Y1686560D01*
X2085340Y1717040D02*
X2054860Y1686560D01*
X2067560Y2275840D02*
X2098040Y2245360D01*
X2098040Y2275840D02*
X2067560Y2245360D01*
X2067560Y1564640D02*
X2098040Y1534160D01*
X2098040Y1564640D02*
X2067560Y1534160D01*
X2067560Y1412240D02*
X2098040Y1381760D01*
X2098040Y1412240D02*
X2067560Y1381760D01*
X2080260Y5019040D02*
X2110740Y4988560D01*
X2110740Y5019040D02*
X2080260Y4988560D01*
X2080260Y4320540D02*
X2110740Y4290060D01*
X2110740Y4320540D02*
X2080260Y4290060D01*
X2080260Y3571240D02*
X2110740Y3540760D01*
X2110740Y3571240D02*
X2080260Y3540760D01*
X2080260Y1031240D02*
X2110740Y1000760D01*
X2110740Y1031240D02*
X2080260Y1000760D01*
X2118360Y5463540D02*
X2148840Y5433060D01*
X2148840Y5463540D02*
X2118360Y5433060D01*
X2118360Y3660140D02*
X2148840Y3629660D01*
X2148840Y3660140D02*
X2118360Y3629660D01*
X2118360Y2860040D02*
X2148840Y2829560D01*
X2148840Y2860040D02*
X2118360Y2829560D01*
X2118360Y2644140D02*
X2148840Y2613660D01*
X2148840Y2644140D02*
X2118360Y2613660D01*
X2131060Y142240D02*
X2161540Y111760D01*
X2161540Y142240D02*
X2131060Y111760D01*
X2143760Y4041140D02*
X2174240Y4010660D01*
X2174240Y4041140D02*
X2143760Y4010660D01*
X2164080Y3850640D02*
X2194560Y3820160D01*
X2194560Y3850640D02*
X2164080Y3820160D01*
X2169160Y5298440D02*
X2199640Y5267960D01*
X2199640Y5298440D02*
X2169160Y5267960D01*
X2174240Y723900D02*
X2204720Y693420D01*
X2204720Y723900D02*
X2174240Y693420D01*
X2189480Y4218940D02*
X2219960Y4188460D01*
X2219960Y4218940D02*
X2189480Y4188460D01*
X2194560Y4904740D02*
X2225040Y4874260D01*
X2225040Y4904740D02*
X2194560Y4874260D01*
X2219960Y5463540D02*
X2250440Y5433060D01*
X2250440Y5463540D02*
X2219960Y5433060D01*
X2232660Y548640D02*
X2263140Y518160D01*
X2263140Y548640D02*
X2232660Y518160D01*
X2245360Y3571240D02*
X2275840Y3540760D01*
X2275840Y3571240D02*
X2245360Y3540760D01*
X2245360Y3482340D02*
X2275840Y3451860D01*
X2275840Y3482340D02*
X2245360Y3451860D01*
X2245360Y3393440D02*
X2275840Y3362960D01*
X2275840Y3393440D02*
X2245360Y3362960D01*
X2270760Y4168140D02*
X2301240Y4137660D01*
X2301240Y4168140D02*
X2270760Y4137660D01*
X2270760Y3228340D02*
X2301240Y3197860D01*
X2301240Y3228340D02*
X2270760Y3197860D01*
X2296160Y1869440D02*
X2326640Y1838960D01*
X2326640Y1869440D02*
X2296160Y1838960D01*
X2296160Y1742440D02*
X2326640Y1711960D01*
X2326640Y1742440D02*
X2296160Y1711960D01*
X2321560Y5463540D02*
X2352040Y5433060D01*
X2352040Y5463540D02*
X2321560Y5433060D01*
X2344420Y3990340D02*
X2374900Y3959860D01*
X2374900Y3990340D02*
X2344420Y3959860D01*
X2346960Y2885440D02*
X2377440Y2854960D01*
X2377440Y2885440D02*
X2346960Y2854960D01*
X2346960Y2745740D02*
X2377440Y2715260D01*
X2377440Y2745740D02*
X2346960Y2715260D01*
X2346960Y2593340D02*
X2377440Y2562860D01*
X2377440Y2593340D02*
X2346960Y2562860D01*
X2346960Y2326640D02*
X2377440Y2296160D01*
X2377440Y2326640D02*
X2346960Y2296160D01*
X2346960Y1577340D02*
X2377440Y1546860D01*
X2377440Y1577340D02*
X2346960Y1546860D01*
X2346960Y1412240D02*
X2377440Y1381760D01*
X2377440Y1412240D02*
X2346960Y1381760D01*
X2346960Y967740D02*
X2377440Y937260D01*
X2377440Y967740D02*
X2346960Y937260D01*
X2354580Y4361180D02*
X2385060Y4330700D01*
X2385060Y4361180D02*
X2354580Y4330700D01*
X2372360Y4777740D02*
X2402840Y4747260D01*
X2402840Y4777740D02*
X2372360Y4747260D01*
X2372360Y802640D02*
X2402840Y772160D01*
X2402840Y802640D02*
X2372360Y772160D01*
X2372360Y142240D02*
X2402840Y111760D01*
X2402840Y142240D02*
X2372360Y111760D01*
X2377440Y4610100D02*
X2407920Y4579620D01*
X2407920Y4610100D02*
X2377440Y4579620D01*
X2377440Y4521200D02*
X2407920Y4490720D01*
X2407920Y4521200D02*
X2377440Y4490720D01*
X2397760Y5057140D02*
X2428240Y5026660D01*
X2428240Y5057140D02*
X2397760Y5026660D01*
X2423160Y5463540D02*
X2453640Y5433060D01*
X2453640Y5463540D02*
X2423160Y5433060D01*
X2435860Y2809240D02*
X2466340Y2778760D01*
X2466340Y2809240D02*
X2435860Y2778760D01*
X2448560Y1297940D02*
X2479040Y1267460D01*
X2479040Y1297940D02*
X2448560Y1267460D01*
X2461260Y3774440D02*
X2491740Y3743960D01*
X2491740Y3774440D02*
X2461260Y3743960D01*
X2473960Y1704340D02*
X2504440Y1673860D01*
X2504440Y1704340D02*
X2473960Y1673860D01*
X2473960Y1526540D02*
X2504440Y1496060D01*
X2504440Y1526540D02*
X2473960Y1496060D01*
X2512060Y3355340D02*
X2542540Y3324860D01*
X2542540Y3355340D02*
X2512060Y3324860D01*
X2524760Y5463540D02*
X2555240Y5433060D01*
X2555240Y5463540D02*
X2524760Y5433060D01*
X2542540Y3482340D02*
X2573020Y3451860D01*
X2573020Y3482340D02*
X2542540Y3451860D01*
X2550160Y3571240D02*
X2580640Y3540760D01*
X2580640Y3571240D02*
X2550160Y3540760D01*
X2575560Y2580640D02*
X2606040Y2550160D01*
X2606040Y2580640D02*
X2575560Y2550160D01*
X2575560Y1742440D02*
X2606040Y1711960D01*
X2606040Y1742440D02*
X2575560Y1711960D01*
X2575560Y1170940D02*
X2606040Y1140460D01*
X2606040Y1170940D02*
X2575560Y1140460D01*
X2588260Y4866640D02*
X2618740Y4836160D01*
X2618740Y4866640D02*
X2588260Y4836160D01*
X2588260Y3088640D02*
X2618740Y3058160D01*
X2618740Y3088640D02*
X2588260Y3058160D01*
X2588260Y485140D02*
X2618740Y454660D01*
X2618740Y485140D02*
X2588260Y454660D01*
X2600960Y1310640D02*
X2631440Y1280160D01*
X2631440Y1310640D02*
X2600960Y1280160D01*
X2613660Y4612640D02*
X2644140Y4582160D01*
X2644140Y4612640D02*
X2613660Y4582160D01*
X2613660Y4368800D02*
X2644140Y4338320D01*
X2644140Y4368800D02*
X2613660Y4338320D01*
X2613660Y4104640D02*
X2644140Y4074160D01*
X2644140Y4104640D02*
X2613660Y4074160D01*
X2613660Y3850640D02*
X2644140Y3820160D01*
X2644140Y3850640D02*
X2613660Y3820160D01*
X2613660Y713740D02*
X2644140Y683260D01*
X2644140Y713740D02*
X2613660Y683260D01*
X2613660Y142240D02*
X2644140Y111760D01*
X2644140Y142240D02*
X2613660Y111760D01*
X2626360Y5463540D02*
X2656840Y5433060D01*
X2656840Y5463540D02*
X2626360Y5433060D01*
X2626360Y5361940D02*
X2656840Y5331460D01*
X2656840Y5361940D02*
X2626360Y5331460D01*
X2664460Y472440D02*
X2694940Y441960D01*
X2694940Y472440D02*
X2664460Y441960D01*
X2702560Y1945640D02*
X2733040Y1915160D01*
X2733040Y1945640D02*
X2702560Y1915160D01*
X2702560Y561340D02*
X2733040Y530860D01*
X2733040Y561340D02*
X2702560Y530860D01*
X2727960Y5463540D02*
X2758440Y5433060D01*
X2758440Y5463540D02*
X2727960Y5433060D01*
X2727960Y5361940D02*
X2758440Y5331460D01*
X2758440Y5361940D02*
X2727960Y5331460D01*
X2727960Y5260340D02*
X2758440Y5229860D01*
X2758440Y5260340D02*
X2727960Y5229860D01*
X2778760Y510540D02*
X2809240Y480060D01*
X2809240Y510540D02*
X2778760Y480060D01*
X2829560Y5463540D02*
X2860040Y5433060D01*
X2860040Y5463540D02*
X2829560Y5433060D01*
X2829560Y5361940D02*
X2860040Y5331460D01*
X2860040Y5361940D02*
X2829560Y5331460D01*
X2829560Y5260340D02*
X2860040Y5229860D01*
X2860040Y5260340D02*
X2829560Y5229860D01*
X2829560Y5158740D02*
X2860040Y5128260D01*
X2860040Y5158740D02*
X2829560Y5128260D01*
X2829560Y370840D02*
X2860040Y340360D01*
X2860040Y370840D02*
X2829560Y340360D01*
X2829560Y243840D02*
X2860040Y213360D01*
X2860040Y243840D02*
X2829560Y213360D01*
X2842260Y1805940D02*
X2872740Y1775460D01*
X2872740Y1805940D02*
X2842260Y1775460D01*
X2842260Y1551940D02*
X2872740Y1521460D01*
X2872740Y1551940D02*
X2842260Y1521460D01*
X2842260Y1297940D02*
X2872740Y1267460D01*
X2872740Y1297940D02*
X2842260Y1267460D01*
X2842260Y1043940D02*
X2872740Y1013460D01*
X2872740Y1043940D02*
X2842260Y1013460D01*
X1120140Y2870200D02*
G75*
G03*
X1120140Y2870200I-15240J0D01*
G01*
X1120140Y2743200D02*
G75*
G03*
X1120140Y2743200I-15240J0D01*
G01*
X1120140Y2616200D02*
G75*
G03*
X1120140Y2616200I-15240J0D01*
G01*
X1247140Y2870200D02*
G75*
G03*
X1247140Y2870200I-15240J0D01*
G01*
X1247140Y2743200D02*
G75*
G03*
X1247140Y2743200I-15240J0D01*
G01*
X1247140Y2616200D02*
G75*
G03*
X1247140Y2616200I-15240J0D01*
G01*
X1361440Y4775200D02*
G75*
G03*
X1361440Y4775200I-15240J0D01*
G01*
X1361440Y4648200D02*
G75*
G03*
X1361440Y4648200I-15240J0D01*
G01*
X1361440Y4521200D02*
G75*
G03*
X1361440Y4521200I-15240J0D01*
G01*
X1374140Y2870200D02*
G75*
G03*
X1374140Y2870200I-15240J0D01*
G01*
X1374140Y2743200D02*
G75*
G03*
X1374140Y2743200I-15240J0D01*
G01*
X1374140Y2616200D02*
G75*
G03*
X1374140Y2616200I-15240J0D01*
G01*
X1488440Y4775200D02*
G75*
G03*
X1488440Y4775200I-15240J0D01*
G01*
X1488440Y4648200D02*
G75*
G03*
X1488440Y4648200I-15240J0D01*
G01*
X1488440Y4521200D02*
G75*
G03*
X1488440Y4521200I-15240J0D01*
G01*
X1615440Y4775200D02*
G75*
G03*
X1615440Y4775200I-15240J0D01*
G01*
X1615440Y4648200D02*
G75*
G03*
X1615440Y4648200I-15240J0D01*
G01*
X1615440Y4521200D02*
G75*
G03*
X1615440Y4521200I-15240J0D01*
G01*
D13*
X2209800Y2117725D02*
X2209800Y2047875D01*
X2174875Y2082800D02*
X2244725Y2082800D01*
X2336800Y2117725D02*
X2336800Y2047875D01*
X2301875Y2082800D02*
X2371725Y2082800D01*
X2463800Y2117725D02*
X2463800Y2047875D01*
X2428875Y2082800D02*
X2498725Y2082800D01*
D14*
X552131Y1530669D02*
X552131Y1593531D01*
X489269Y1593531D01*
X489269Y1530669D01*
X552131Y1530669D01*
X679131Y1784669D02*
X679131Y1847531D01*
X616269Y1847531D01*
X616269Y1784669D01*
X679131Y1784669D01*
X806131Y1530669D02*
X806131Y1593531D01*
X743269Y1593531D01*
X743269Y1530669D01*
X806131Y1530669D01*
X933131Y1784669D02*
X933131Y1847531D01*
X870269Y1847531D01*
X870269Y1784669D01*
X933131Y1784669D01*
X1060131Y1530669D02*
X1060131Y1593531D01*
X997269Y1593531D01*
X997269Y1530669D01*
X1060131Y1530669D01*
X1187131Y1784669D02*
X1187131Y1847531D01*
X1124269Y1847531D01*
X1124269Y1784669D01*
X1187131Y1784669D01*
X1314131Y1530669D02*
X1314131Y1593531D01*
X1251269Y1593531D01*
X1251269Y1530669D01*
X1314131Y1530669D01*
X1441131Y1784669D02*
X1441131Y1847531D01*
X1378269Y1847531D01*
X1378269Y1784669D01*
X1441131Y1784669D01*
D15*
X203200Y4927600D02*
X254000Y4978400D01*
X203200Y5029200D01*
X152400Y4978400D01*
X203200Y4927600D01*
X203200Y4673600D02*
X254000Y4724400D01*
X203200Y4775200D01*
X152400Y4724400D01*
X203200Y4673600D01*
X203200Y4419600D02*
X254000Y4470400D01*
X203200Y4521200D01*
X152400Y4470400D01*
X203200Y4419600D01*
X203200Y4165600D02*
X254000Y4216400D01*
X203200Y4267200D01*
X152400Y4216400D01*
X203200Y4165600D01*
X203200Y3911600D02*
X254000Y3962400D01*
X203200Y4013200D01*
X152400Y3962400D01*
X203200Y3911600D01*
X203200Y3657600D02*
X254000Y3708400D01*
X203200Y3759200D01*
X152400Y3708400D01*
X203200Y3657600D01*
X203200Y3403600D02*
X254000Y3454400D01*
X203200Y3505200D01*
X152400Y3454400D01*
X203200Y3403600D01*
X203200Y3149600D02*
X254000Y3200400D01*
X203200Y3251200D01*
X152400Y3200400D01*
X203200Y3149600D01*
X203200Y2895600D02*
X254000Y2946400D01*
X203200Y2997200D01*
X152400Y2946400D01*
X203200Y2895600D01*
X203200Y2641600D02*
X254000Y2692400D01*
X203200Y2743200D01*
X152400Y2692400D01*
X203200Y2641600D01*
X203200Y2387600D02*
X254000Y2438400D01*
X203200Y2489200D01*
X152400Y2438400D01*
X203200Y2387600D01*
X203200Y2133600D02*
X254000Y2184400D01*
X203200Y2235200D01*
X152400Y2184400D01*
X203200Y2133600D01*
X304800Y393700D02*
X355600Y444500D01*
X304800Y495300D01*
X254000Y444500D01*
X304800Y393700D01*
X558800Y393700D02*
X609600Y444500D01*
X558800Y495300D01*
X508000Y444500D01*
X558800Y393700D01*
X1371600Y393700D02*
X1422400Y444500D01*
X1371600Y495300D01*
X1320800Y444500D01*
X1371600Y393700D01*
X1625600Y393700D02*
X1676400Y444500D01*
X1625600Y495300D01*
X1574800Y444500D01*
X1625600Y393700D01*
X2743200Y4927600D02*
X2794000Y4978400D01*
X2743200Y5029200D01*
X2692400Y4978400D01*
X2743200Y4927600D01*
X2743200Y4673600D02*
X2794000Y4724400D01*
X2743200Y4775200D01*
X2692400Y4724400D01*
X2743200Y4673600D01*
X2743200Y4419600D02*
X2794000Y4470400D01*
X2743200Y4521200D01*
X2692400Y4470400D01*
X2743200Y4419600D01*
X2743200Y4165600D02*
X2794000Y4216400D01*
X2743200Y4267200D01*
X2692400Y4216400D01*
X2743200Y4165600D01*
X2743200Y3911600D02*
X2794000Y3962400D01*
X2743200Y4013200D01*
X2692400Y3962400D01*
X2743200Y3911600D01*
X2743200Y3657600D02*
X2794000Y3708400D01*
X2743200Y3759200D01*
X2692400Y3708400D01*
X2743200Y3657600D01*
X2743200Y3403600D02*
X2794000Y3454400D01*
X2743200Y3505200D01*
X2692400Y3454400D01*
X2743200Y3403600D01*
X2743200Y3149600D02*
X2794000Y3200400D01*
X2743200Y3251200D01*
X2692400Y3200400D01*
X2743200Y3149600D01*
X2743200Y2895600D02*
X2794000Y2946400D01*
X2743200Y2997200D01*
X2692400Y2946400D01*
X2743200Y2895600D01*
X2743200Y2641600D02*
X2794000Y2692400D01*
X2743200Y2743200D01*
X2692400Y2692400D01*
X2743200Y2641600D01*
X2743200Y2387600D02*
X2794000Y2438400D01*
X2743200Y2489200D01*
X2692400Y2438400D01*
X2743200Y2387600D01*
X2743200Y2133600D02*
X2794000Y2184400D01*
X2743200Y2235200D01*
X2692400Y2184400D01*
X2743200Y2133600D01*
D16*
X124460Y1295400D02*
X251460Y1168400D01*
X251460Y1295400D02*
X124460Y1168400D01*
X251460Y1231900D02*
G75*
G03*
X251460Y1231900I-63500J0D01*
G01*
D11*
X134460Y1257300D02*
X134460Y1206500D01*
X241460Y1257300D02*
X241460Y1206500D01*
X134460Y1206500D02*
G75*
G03*
X241460Y1206500I53500J0D01*
G01*
X241460Y1257300D02*
G75*
G03*
X134460Y1257300I-53500J0D01*
G01*
D16*
X1678940Y1295400D02*
X1805940Y1168400D01*
X1805940Y1295400D02*
X1678940Y1168400D01*
X1805940Y1231900D02*
G75*
G03*
X1805940Y1231900I-63500J0D01*
G01*
D11*
X1688940Y1257300D02*
X1688940Y1206500D01*
X1795940Y1257300D02*
X1795940Y1206500D01*
X1688940Y1206500D02*
G75*
G03*
X1795940Y1206500I53500J0D01*
G01*
X1795940Y1257300D02*
G75*
G03*
X1688940Y1257300I-53500J0D01*
G01*
X244919Y-323176D02*
X244919Y-123176D01*
X292538Y-123176D01*
X321110Y-132700D01*
X340157Y-151748D01*
X349681Y-170795D01*
X359205Y-208890D01*
X359205Y-237462D01*
X349681Y-275557D01*
X340157Y-294605D01*
X321110Y-313652D01*
X292538Y-323176D01*
X244919Y-323176D01*
X444919Y-323176D02*
X444919Y-189843D01*
X444919Y-227938D02*
X454443Y-208890D01*
X463967Y-199367D01*
X483014Y-189843D01*
X502062Y-189843D01*
X568729Y-323176D02*
X568729Y-189843D01*
X568729Y-123176D02*
X559205Y-132700D01*
X568729Y-142224D01*
X578252Y-132700D01*
X568729Y-123176D01*
X568729Y-142224D01*
X692538Y-323176D02*
X673490Y-313652D01*
X663967Y-294605D01*
X663967Y-123176D01*
X797300Y-323176D02*
X778252Y-313652D01*
X768728Y-294605D01*
X768728Y-123176D01*
X1025871Y-323176D02*
X1025871Y-123176D01*
X1092538Y-266033D01*
X1159205Y-123176D01*
X1159205Y-323176D01*
X1340157Y-323176D02*
X1340157Y-218414D01*
X1330633Y-199367D01*
X1311586Y-189843D01*
X1273490Y-189843D01*
X1254443Y-199367D01*
X1340157Y-313652D02*
X1321110Y-323176D01*
X1273490Y-323176D01*
X1254443Y-313652D01*
X1244919Y-294605D01*
X1244919Y-275557D01*
X1254443Y-256509D01*
X1273490Y-246986D01*
X1321110Y-246986D01*
X1340157Y-237462D01*
X1435395Y-189843D02*
X1435395Y-389843D01*
X1435395Y-199367D02*
X1454443Y-189843D01*
X1492538Y-189843D01*
X1511586Y-199367D01*
X1521109Y-208890D01*
X1530633Y-227938D01*
X1530633Y-285081D01*
X1521109Y-304129D01*
X1511586Y-313652D01*
X1492538Y-323176D01*
X1454443Y-323176D01*
X1435395Y-313652D01*
X1616348Y-304129D02*
X1625871Y-313652D01*
X1616348Y-323176D01*
X1606824Y-313652D01*
X1616348Y-304129D01*
X1616348Y-323176D01*
X1616348Y-199367D02*
X1625871Y-208890D01*
X1616348Y-218414D01*
X1606824Y-208890D01*
X1616348Y-199367D01*
X1616348Y-218414D01*
D12*
X-43180Y-637460D02*
X-12700Y-667940D01*
X-12700Y-637460D02*
X-43180Y-667940D01*
D11*
X283014Y-543176D02*
X302062Y-543176D01*
X321110Y-552700D01*
X330633Y-562224D01*
X340157Y-581271D01*
X349681Y-619367D01*
X349681Y-666986D01*
X340157Y-705081D01*
X330633Y-724128D01*
X321110Y-733652D01*
X302062Y-743176D01*
X283014Y-743176D01*
X263967Y-733652D01*
X254443Y-724128D01*
X244919Y-705081D01*
X235395Y-666986D01*
X235395Y-619367D01*
X244919Y-581271D01*
X254443Y-562224D01*
X263967Y-552700D01*
X283014Y-543176D01*
X435395Y-724128D02*
X444919Y-733652D01*
X435395Y-743176D01*
X425871Y-733652D01*
X435395Y-724128D01*
X435395Y-743176D01*
X511586Y-543176D02*
X635395Y-543176D01*
X568729Y-619367D01*
X597300Y-619367D01*
X616348Y-628890D01*
X625871Y-638414D01*
X635395Y-657462D01*
X635395Y-705081D01*
X625871Y-724128D01*
X616348Y-733652D01*
X597300Y-743176D01*
X540157Y-743176D01*
X521109Y-733652D01*
X511586Y-724128D01*
X759205Y-543176D02*
X778252Y-543176D01*
X797300Y-552700D01*
X806824Y-562224D01*
X816348Y-581271D01*
X825871Y-619367D01*
X825871Y-666986D01*
X816348Y-705081D01*
X806824Y-724128D01*
X797300Y-733652D01*
X778252Y-743176D01*
X759205Y-743176D01*
X740157Y-733652D01*
X730633Y-724128D01*
X721109Y-705081D01*
X711586Y-666986D01*
X711586Y-619367D01*
X721109Y-581271D01*
X730633Y-562224D01*
X740157Y-552700D01*
X759205Y-543176D01*
X1006824Y-543176D02*
X911586Y-543176D01*
X902062Y-638414D01*
X911586Y-628890D01*
X930633Y-619367D01*
X978252Y-619367D01*
X997300Y-628890D01*
X1006824Y-638414D01*
X1016348Y-657462D01*
X1016348Y-705081D01*
X1006824Y-724128D01*
X997300Y-733652D01*
X978252Y-743176D01*
X930633Y-743176D01*
X911586Y-733652D01*
X902062Y-724128D01*
X1102062Y-743176D02*
X1102062Y-609843D01*
X1102062Y-628890D02*
X1111586Y-619367D01*
X1130633Y-609843D01*
X1159205Y-609843D01*
X1178252Y-619367D01*
X1187776Y-638414D01*
X1187776Y-743176D01*
X1187776Y-638414D02*
X1197300Y-619367D01*
X1216348Y-609843D01*
X1244919Y-609843D01*
X1263967Y-619367D01*
X1273490Y-638414D01*
X1273490Y-743176D01*
X1368729Y-743176D02*
X1368729Y-609843D01*
X1368729Y-628890D02*
X1378252Y-619367D01*
X1397300Y-609843D01*
X1425871Y-609843D01*
X1444919Y-619367D01*
X1454443Y-638414D01*
X1454443Y-743176D01*
X1454443Y-638414D02*
X1463967Y-619367D01*
X1483014Y-609843D01*
X1511586Y-609843D01*
X1530633Y-619367D01*
X1540157Y-638414D01*
X1540157Y-743176D01*
X1930633Y-533652D02*
X1759205Y-790795D01*
X2187776Y-543176D02*
X2206824Y-543176D01*
X2225871Y-552700D01*
X2235395Y-562224D01*
X2244919Y-581271D01*
X2254443Y-619367D01*
X2254443Y-666986D01*
X2244919Y-705081D01*
X2235395Y-724128D01*
X2225871Y-733652D01*
X2206824Y-743176D01*
X2187776Y-743176D01*
X2168729Y-733652D01*
X2159205Y-724128D01*
X2149681Y-705081D01*
X2140157Y-666986D01*
X2140157Y-619367D01*
X2149681Y-581271D01*
X2159205Y-562224D01*
X2168729Y-552700D01*
X2187776Y-543176D01*
X2340157Y-724128D02*
X2349681Y-733652D01*
X2340157Y-743176D01*
X2330633Y-733652D01*
X2340157Y-724128D01*
X2340157Y-743176D01*
X2473490Y-543176D02*
X2492538Y-543176D01*
X2511586Y-552700D01*
X2521110Y-562224D01*
X2530633Y-581271D01*
X2540157Y-619367D01*
X2540157Y-666986D01*
X2530633Y-705081D01*
X2521110Y-724128D01*
X2511586Y-733652D01*
X2492538Y-743176D01*
X2473490Y-743176D01*
X2454443Y-733652D01*
X2444919Y-724128D01*
X2435395Y-705081D01*
X2425871Y-666986D01*
X2425871Y-619367D01*
X2435395Y-581271D01*
X2444919Y-562224D01*
X2454443Y-552700D01*
X2473490Y-543176D01*
X2730633Y-743176D02*
X2616348Y-743176D01*
X2673490Y-743176D02*
X2673490Y-543176D01*
X2654443Y-571748D01*
X2635395Y-590795D01*
X2616348Y-600319D01*
X2806824Y-562224D02*
X2816348Y-552700D01*
X2835395Y-543176D01*
X2883014Y-543176D01*
X2902062Y-552700D01*
X2911586Y-562224D01*
X2921109Y-581271D01*
X2921109Y-600319D01*
X2911586Y-628890D01*
X2797300Y-743176D01*
X2921109Y-743176D01*
X3044919Y-543176D02*
X3063967Y-543176D01*
X3083014Y-552700D01*
X3092538Y-562224D01*
X3102062Y-581271D01*
X3111586Y-619367D01*
X3111586Y-666986D01*
X3102062Y-705081D01*
X3092538Y-724128D01*
X3083014Y-733652D01*
X3063967Y-743176D01*
X3044919Y-743176D01*
X3025871Y-733652D01*
X3016348Y-724128D01*
X3006824Y-705081D01*
X2997300Y-666986D01*
X2997300Y-619367D01*
X3006824Y-581271D01*
X3016348Y-562224D01*
X3025871Y-552700D01*
X3044919Y-543176D01*
X3187776Y-543176D02*
X3187776Y-581271D01*
X3263967Y-543176D02*
X3263967Y-581271D01*
X3559205Y-819367D02*
X3549681Y-809843D01*
X3530633Y-781271D01*
X3521109Y-762224D01*
X3511586Y-733652D01*
X3502062Y-686033D01*
X3502062Y-647938D01*
X3511586Y-600319D01*
X3521109Y-571748D01*
X3530633Y-552700D01*
X3549681Y-524128D01*
X3559205Y-514605D01*
X3625871Y-562224D02*
X3635395Y-552700D01*
X3654443Y-543176D01*
X3702062Y-543176D01*
X3721109Y-552700D01*
X3730633Y-562224D01*
X3740157Y-581271D01*
X3740157Y-600319D01*
X3730633Y-628890D01*
X3616348Y-743176D01*
X3740157Y-743176D01*
X3854443Y-628890D02*
X3835395Y-619367D01*
X3825871Y-609843D01*
X3816348Y-590795D01*
X3816348Y-581271D01*
X3825871Y-562224D01*
X3835395Y-552700D01*
X3854443Y-543176D01*
X3892538Y-543176D01*
X3911586Y-552700D01*
X3921109Y-562224D01*
X3930633Y-581271D01*
X3930633Y-590795D01*
X3921109Y-609843D01*
X3911586Y-619367D01*
X3892538Y-628890D01*
X3854443Y-628890D01*
X3835395Y-638414D01*
X3825871Y-647938D01*
X3816348Y-666986D01*
X3816348Y-705081D01*
X3825871Y-724128D01*
X3835395Y-733652D01*
X3854443Y-743176D01*
X3892538Y-743176D01*
X3911586Y-733652D01*
X3921109Y-724128D01*
X3930633Y-705081D01*
X3930633Y-666986D01*
X3921109Y-647938D01*
X3911586Y-638414D01*
X3892538Y-628890D01*
X4025871Y-743176D02*
X4063967Y-743176D01*
X4083014Y-733652D01*
X4092538Y-724128D01*
X4111586Y-695557D01*
X4121109Y-657462D01*
X4121109Y-581271D01*
X4111586Y-562224D01*
X4102062Y-552700D01*
X4083014Y-543176D01*
X4044919Y-543176D01*
X4025871Y-552700D01*
X4016348Y-562224D01*
X4006824Y-581271D01*
X4006824Y-628890D01*
X4016348Y-647938D01*
X4025871Y-657462D01*
X4044919Y-666986D01*
X4083014Y-666986D01*
X4102062Y-657462D01*
X4111586Y-647938D01*
X4121109Y-628890D01*
X4359205Y-743176D02*
X4359205Y-543176D01*
X4444919Y-743176D02*
X4444919Y-638414D01*
X4435395Y-619367D01*
X4416348Y-609843D01*
X4387776Y-609843D01*
X4368729Y-619367D01*
X4359205Y-628890D01*
X4568729Y-743176D02*
X4549681Y-733652D01*
X4540157Y-724128D01*
X4530633Y-705081D01*
X4530633Y-647938D01*
X4540157Y-628890D01*
X4549681Y-619367D01*
X4568729Y-609843D01*
X4597300Y-609843D01*
X4616348Y-619367D01*
X4625871Y-628890D01*
X4635395Y-647938D01*
X4635395Y-705081D01*
X4625871Y-724128D01*
X4616348Y-733652D01*
X4597300Y-743176D01*
X4568729Y-743176D01*
X4749681Y-743176D02*
X4730633Y-733652D01*
X4721110Y-714605D01*
X4721110Y-543176D01*
X4902062Y-733652D02*
X4883014Y-743176D01*
X4844919Y-743176D01*
X4825871Y-733652D01*
X4816348Y-714605D01*
X4816348Y-638414D01*
X4825871Y-619367D01*
X4844919Y-609843D01*
X4883014Y-609843D01*
X4902062Y-619367D01*
X4911586Y-638414D01*
X4911586Y-657462D01*
X4816348Y-676510D01*
X4987776Y-733652D02*
X5006824Y-743176D01*
X5044919Y-743176D01*
X5063967Y-733652D01*
X5073490Y-714605D01*
X5073490Y-705081D01*
X5063967Y-686033D01*
X5044919Y-676510D01*
X5016348Y-676510D01*
X4997300Y-666986D01*
X4987776Y-647938D01*
X4987776Y-638414D01*
X4997300Y-619367D01*
X5016348Y-609843D01*
X5044919Y-609843D01*
X5063967Y-619367D01*
X5140157Y-819367D02*
X5149681Y-809843D01*
X5168729Y-781271D01*
X5178252Y-762224D01*
X5187776Y-733652D01*
X5197300Y-686033D01*
X5197300Y-647938D01*
X5187776Y-600319D01*
X5178252Y-571748D01*
X5168729Y-552700D01*
X5149681Y-524128D01*
X5140157Y-514605D01*
D12*
X-12700Y-916700D02*
G75*
G03*
X-12700Y-916700I-15240J0D01*
G01*
D11*
X283014Y-807176D02*
X302062Y-807176D01*
X321110Y-816700D01*
X330633Y-826224D01*
X340157Y-845271D01*
X349681Y-883367D01*
X349681Y-930986D01*
X340157Y-969081D01*
X330633Y-988128D01*
X321110Y-997652D01*
X302062Y-1007176D01*
X283014Y-1007176D01*
X263967Y-997652D01*
X254443Y-988128D01*
X244919Y-969081D01*
X235395Y-930986D01*
X235395Y-883367D01*
X244919Y-845271D01*
X254443Y-826224D01*
X263967Y-816700D01*
X283014Y-807176D01*
X435395Y-988128D02*
X444919Y-997652D01*
X435395Y-1007176D01*
X425871Y-997652D01*
X435395Y-988128D01*
X435395Y-1007176D01*
X511586Y-807176D02*
X635395Y-807176D01*
X568729Y-883367D01*
X597300Y-883367D01*
X616348Y-892890D01*
X625871Y-902414D01*
X635395Y-921462D01*
X635395Y-969081D01*
X625871Y-988128D01*
X616348Y-997652D01*
X597300Y-1007176D01*
X540157Y-1007176D01*
X521109Y-997652D01*
X511586Y-988128D01*
X759205Y-807176D02*
X778252Y-807176D01*
X797300Y-816700D01*
X806824Y-826224D01*
X816348Y-845271D01*
X825871Y-883367D01*
X825871Y-930986D01*
X816348Y-969081D01*
X806824Y-988128D01*
X797300Y-997652D01*
X778252Y-1007176D01*
X759205Y-1007176D01*
X740157Y-997652D01*
X730633Y-988128D01*
X721109Y-969081D01*
X711586Y-930986D01*
X711586Y-883367D01*
X721109Y-845271D01*
X730633Y-826224D01*
X740157Y-816700D01*
X759205Y-807176D01*
X1006824Y-807176D02*
X911586Y-807176D01*
X902062Y-902414D01*
X911586Y-892890D01*
X930633Y-883367D01*
X978252Y-883367D01*
X997300Y-892890D01*
X1006824Y-902414D01*
X1016348Y-921462D01*
X1016348Y-969081D01*
X1006824Y-988128D01*
X997300Y-997652D01*
X978252Y-1007176D01*
X930633Y-1007176D01*
X911586Y-997652D01*
X902062Y-988128D01*
X1102062Y-1007176D02*
X1102062Y-873843D01*
X1102062Y-892890D02*
X1111586Y-883367D01*
X1130633Y-873843D01*
X1159205Y-873843D01*
X1178252Y-883367D01*
X1187776Y-902414D01*
X1187776Y-1007176D01*
X1187776Y-902414D02*
X1197300Y-883367D01*
X1216348Y-873843D01*
X1244919Y-873843D01*
X1263967Y-883367D01*
X1273490Y-902414D01*
X1273490Y-1007176D01*
X1368729Y-1007176D02*
X1368729Y-873843D01*
X1368729Y-892890D02*
X1378252Y-883367D01*
X1397300Y-873843D01*
X1425871Y-873843D01*
X1444919Y-883367D01*
X1454443Y-902414D01*
X1454443Y-1007176D01*
X1454443Y-902414D02*
X1463967Y-883367D01*
X1483014Y-873843D01*
X1511586Y-873843D01*
X1530633Y-883367D01*
X1540157Y-902414D01*
X1540157Y-1007176D01*
X1930633Y-797652D02*
X1759205Y-1054795D01*
X2187776Y-807176D02*
X2206824Y-807176D01*
X2225871Y-816700D01*
X2235395Y-826224D01*
X2244919Y-845271D01*
X2254443Y-883367D01*
X2254443Y-930986D01*
X2244919Y-969081D01*
X2235395Y-988128D01*
X2225871Y-997652D01*
X2206824Y-1007176D01*
X2187776Y-1007176D01*
X2168729Y-997652D01*
X2159205Y-988128D01*
X2149681Y-969081D01*
X2140157Y-930986D01*
X2140157Y-883367D01*
X2149681Y-845271D01*
X2159205Y-826224D01*
X2168729Y-816700D01*
X2187776Y-807176D01*
X2340157Y-988128D02*
X2349681Y-997652D01*
X2340157Y-1007176D01*
X2330633Y-997652D01*
X2340157Y-988128D01*
X2340157Y-1007176D01*
X2473490Y-807176D02*
X2492538Y-807176D01*
X2511586Y-816700D01*
X2521110Y-826224D01*
X2530633Y-845271D01*
X2540157Y-883367D01*
X2540157Y-930986D01*
X2530633Y-969081D01*
X2521110Y-988128D01*
X2511586Y-997652D01*
X2492538Y-1007176D01*
X2473490Y-1007176D01*
X2454443Y-997652D01*
X2444919Y-988128D01*
X2435395Y-969081D01*
X2425871Y-930986D01*
X2425871Y-883367D01*
X2435395Y-845271D01*
X2444919Y-826224D01*
X2454443Y-816700D01*
X2473490Y-807176D01*
X2730633Y-1007176D02*
X2616348Y-1007176D01*
X2673490Y-1007176D02*
X2673490Y-807176D01*
X2654443Y-835748D01*
X2635395Y-854795D01*
X2616348Y-864319D01*
X2806824Y-826224D02*
X2816348Y-816700D01*
X2835395Y-807176D01*
X2883014Y-807176D01*
X2902062Y-816700D01*
X2911586Y-826224D01*
X2921109Y-845271D01*
X2921109Y-864319D01*
X2911586Y-892890D01*
X2797300Y-1007176D01*
X2921109Y-1007176D01*
X3044919Y-807176D02*
X3063967Y-807176D01*
X3083014Y-816700D01*
X3092538Y-826224D01*
X3102062Y-845271D01*
X3111586Y-883367D01*
X3111586Y-930986D01*
X3102062Y-969081D01*
X3092538Y-988128D01*
X3083014Y-997652D01*
X3063967Y-1007176D01*
X3044919Y-1007176D01*
X3025871Y-997652D01*
X3016348Y-988128D01*
X3006824Y-969081D01*
X2997300Y-930986D01*
X2997300Y-883367D01*
X3006824Y-845271D01*
X3016348Y-826224D01*
X3025871Y-816700D01*
X3044919Y-807176D01*
X3187776Y-807176D02*
X3187776Y-845271D01*
X3263967Y-807176D02*
X3263967Y-845271D01*
X3559205Y-1083367D02*
X3549681Y-1073843D01*
X3530633Y-1045271D01*
X3521109Y-1026224D01*
X3511586Y-997652D01*
X3502062Y-950033D01*
X3502062Y-911938D01*
X3511586Y-864319D01*
X3521109Y-835748D01*
X3530633Y-816700D01*
X3549681Y-788128D01*
X3559205Y-778605D01*
X3740157Y-1007176D02*
X3625871Y-1007176D01*
X3683014Y-1007176D02*
X3683014Y-807176D01*
X3663967Y-835748D01*
X3644919Y-854795D01*
X3625871Y-864319D01*
X3854443Y-892890D02*
X3835395Y-883367D01*
X3825871Y-873843D01*
X3816348Y-854795D01*
X3816348Y-845271D01*
X3825871Y-826224D01*
X3835395Y-816700D01*
X3854443Y-807176D01*
X3892538Y-807176D01*
X3911586Y-816700D01*
X3921109Y-826224D01*
X3930633Y-845271D01*
X3930633Y-854795D01*
X3921109Y-873843D01*
X3911586Y-883367D01*
X3892538Y-892890D01*
X3854443Y-892890D01*
X3835395Y-902414D01*
X3825871Y-911938D01*
X3816348Y-930986D01*
X3816348Y-969081D01*
X3825871Y-988128D01*
X3835395Y-997652D01*
X3854443Y-1007176D01*
X3892538Y-1007176D01*
X3911586Y-997652D01*
X3921109Y-988128D01*
X3930633Y-969081D01*
X3930633Y-930986D01*
X3921109Y-911938D01*
X3911586Y-902414D01*
X3892538Y-892890D01*
X4168728Y-1007176D02*
X4168728Y-807176D01*
X4254443Y-1007176D02*
X4254443Y-902414D01*
X4244919Y-883367D01*
X4225871Y-873843D01*
X4197300Y-873843D01*
X4178252Y-883367D01*
X4168728Y-892890D01*
X4378252Y-1007176D02*
X4359205Y-997652D01*
X4349681Y-988128D01*
X4340157Y-969081D01*
X4340157Y-911938D01*
X4349681Y-892890D01*
X4359205Y-883367D01*
X4378252Y-873843D01*
X4406824Y-873843D01*
X4425871Y-883367D01*
X4435395Y-892890D01*
X4444919Y-911938D01*
X4444919Y-969081D01*
X4435395Y-988128D01*
X4425871Y-997652D01*
X4406824Y-1007176D01*
X4378252Y-1007176D01*
X4559205Y-1007176D02*
X4540157Y-997652D01*
X4530633Y-978605D01*
X4530633Y-807176D01*
X4711586Y-997652D02*
X4692538Y-1007176D01*
X4654443Y-1007176D01*
X4635395Y-997652D01*
X4625871Y-978605D01*
X4625871Y-902414D01*
X4635395Y-883367D01*
X4654443Y-873843D01*
X4692538Y-873843D01*
X4711586Y-883367D01*
X4721110Y-902414D01*
X4721110Y-921462D01*
X4625871Y-940509D01*
X4797300Y-997652D02*
X4816348Y-1007176D01*
X4854443Y-1007176D01*
X4873490Y-997652D01*
X4883014Y-978605D01*
X4883014Y-969081D01*
X4873490Y-950033D01*
X4854443Y-940509D01*
X4825871Y-940509D01*
X4806824Y-930986D01*
X4797300Y-911938D01*
X4797300Y-902414D01*
X4806824Y-883367D01*
X4825871Y-873843D01*
X4854443Y-873843D01*
X4873490Y-883367D01*
X4949681Y-1083367D02*
X4959205Y-1073843D01*
X4978252Y-1045271D01*
X4987776Y-1026224D01*
X4997300Y-997652D01*
X5006824Y-950033D01*
X5006824Y-911938D01*
X4997300Y-864319D01*
X4987776Y-835748D01*
X4978252Y-816700D01*
X4959205Y-788128D01*
X4949681Y-778605D01*
D13*
X-47625Y-1145775D02*
X-47625Y-1215625D01*
X-82550Y-1180700D02*
X-12700Y-1180700D01*
D11*
X283014Y-1071176D02*
X302062Y-1071176D01*
X321110Y-1080700D01*
X330633Y-1090224D01*
X340157Y-1109271D01*
X349681Y-1147367D01*
X349681Y-1194986D01*
X340157Y-1233081D01*
X330633Y-1252129D01*
X321110Y-1261652D01*
X302062Y-1271176D01*
X283014Y-1271176D01*
X263967Y-1261652D01*
X254443Y-1252129D01*
X244919Y-1233081D01*
X235395Y-1194986D01*
X235395Y-1147367D01*
X244919Y-1109271D01*
X254443Y-1090224D01*
X263967Y-1080700D01*
X283014Y-1071176D01*
X435395Y-1252129D02*
X444919Y-1261652D01*
X435395Y-1271176D01*
X425871Y-1261652D01*
X435395Y-1252129D01*
X435395Y-1271176D01*
X616348Y-1071176D02*
X578252Y-1071176D01*
X559205Y-1080700D01*
X549681Y-1090224D01*
X530633Y-1118795D01*
X521109Y-1156890D01*
X521109Y-1233081D01*
X530633Y-1252129D01*
X540157Y-1261652D01*
X559205Y-1271176D01*
X597300Y-1271176D01*
X616348Y-1261652D01*
X625871Y-1252129D01*
X635395Y-1233081D01*
X635395Y-1185462D01*
X625871Y-1166414D01*
X616348Y-1156890D01*
X597300Y-1147367D01*
X559205Y-1147367D01*
X540157Y-1156890D01*
X530633Y-1166414D01*
X521109Y-1185462D01*
X730633Y-1271176D02*
X768728Y-1271176D01*
X787776Y-1261652D01*
X797300Y-1252129D01*
X816348Y-1223557D01*
X825871Y-1185462D01*
X825871Y-1109271D01*
X816348Y-1090224D01*
X806824Y-1080700D01*
X787776Y-1071176D01*
X749681Y-1071176D01*
X730633Y-1080700D01*
X721109Y-1090224D01*
X711586Y-1109271D01*
X711586Y-1156890D01*
X721109Y-1175938D01*
X730633Y-1185462D01*
X749681Y-1194986D01*
X787776Y-1194986D01*
X806824Y-1185462D01*
X816348Y-1175938D01*
X825871Y-1156890D01*
X921109Y-1271176D02*
X959205Y-1271176D01*
X978252Y-1261652D01*
X987776Y-1252129D01*
X1006824Y-1223557D01*
X1016348Y-1185462D01*
X1016348Y-1109271D01*
X1006824Y-1090224D01*
X997300Y-1080700D01*
X978252Y-1071176D01*
X940157Y-1071176D01*
X921109Y-1080700D01*
X911586Y-1090224D01*
X902062Y-1109271D01*
X902062Y-1156890D01*
X911586Y-1175938D01*
X921109Y-1185462D01*
X940157Y-1194986D01*
X978252Y-1194986D01*
X997300Y-1185462D01*
X1006824Y-1175938D01*
X1016348Y-1156890D01*
X1102062Y-1271176D02*
X1102062Y-1137843D01*
X1102062Y-1156890D02*
X1111586Y-1147367D01*
X1130633Y-1137843D01*
X1159205Y-1137843D01*
X1178252Y-1147367D01*
X1187776Y-1166414D01*
X1187776Y-1271176D01*
X1187776Y-1166414D02*
X1197300Y-1147367D01*
X1216348Y-1137843D01*
X1244919Y-1137843D01*
X1263967Y-1147367D01*
X1273490Y-1166414D01*
X1273490Y-1271176D01*
X1368729Y-1271176D02*
X1368729Y-1137843D01*
X1368729Y-1156890D02*
X1378252Y-1147367D01*
X1397300Y-1137843D01*
X1425871Y-1137843D01*
X1444919Y-1147367D01*
X1454443Y-1166414D01*
X1454443Y-1271176D01*
X1454443Y-1166414D02*
X1463967Y-1147367D01*
X1483014Y-1137843D01*
X1511586Y-1137843D01*
X1530633Y-1147367D01*
X1540157Y-1166414D01*
X1540157Y-1271176D01*
X1930633Y-1061652D02*
X1759205Y-1318795D01*
X2187776Y-1071176D02*
X2206824Y-1071176D01*
X2225871Y-1080700D01*
X2235395Y-1090224D01*
X2244919Y-1109271D01*
X2254443Y-1147367D01*
X2254443Y-1194986D01*
X2244919Y-1233081D01*
X2235395Y-1252129D01*
X2225871Y-1261652D01*
X2206824Y-1271176D01*
X2187776Y-1271176D01*
X2168729Y-1261652D01*
X2159205Y-1252129D01*
X2149681Y-1233081D01*
X2140157Y-1194986D01*
X2140157Y-1147367D01*
X2149681Y-1109271D01*
X2159205Y-1090224D01*
X2168729Y-1080700D01*
X2187776Y-1071176D01*
X2340157Y-1252129D02*
X2349681Y-1261652D01*
X2340157Y-1271176D01*
X2330633Y-1261652D01*
X2340157Y-1252129D01*
X2340157Y-1271176D01*
X2473490Y-1071176D02*
X2492538Y-1071176D01*
X2511586Y-1080700D01*
X2521110Y-1090224D01*
X2530633Y-1109271D01*
X2540157Y-1147367D01*
X2540157Y-1194986D01*
X2530633Y-1233081D01*
X2521110Y-1252129D01*
X2511586Y-1261652D01*
X2492538Y-1271176D01*
X2473490Y-1271176D01*
X2454443Y-1261652D01*
X2444919Y-1252129D01*
X2435395Y-1233081D01*
X2425871Y-1194986D01*
X2425871Y-1147367D01*
X2435395Y-1109271D01*
X2444919Y-1090224D01*
X2454443Y-1080700D01*
X2473490Y-1071176D01*
X2616348Y-1090224D02*
X2625871Y-1080700D01*
X2644919Y-1071176D01*
X2692538Y-1071176D01*
X2711586Y-1080700D01*
X2721110Y-1090224D01*
X2730633Y-1109271D01*
X2730633Y-1128319D01*
X2721110Y-1156890D01*
X2606824Y-1271176D01*
X2730633Y-1271176D01*
X2797300Y-1071176D02*
X2930633Y-1071176D01*
X2844919Y-1271176D01*
X3102062Y-1071176D02*
X3006824Y-1071176D01*
X2997300Y-1166414D01*
X3006824Y-1156890D01*
X3025871Y-1147367D01*
X3073490Y-1147367D01*
X3092538Y-1156890D01*
X3102062Y-1166414D01*
X3111586Y-1185462D01*
X3111586Y-1233081D01*
X3102062Y-1252129D01*
X3092538Y-1261652D01*
X3073490Y-1271176D01*
X3025871Y-1271176D01*
X3006824Y-1261652D01*
X2997300Y-1252129D01*
X3187776Y-1071176D02*
X3187776Y-1109271D01*
X3263967Y-1071176D02*
X3263967Y-1109271D01*
X3559205Y-1347367D02*
X3549681Y-1337843D01*
X3530633Y-1309271D01*
X3521109Y-1290224D01*
X3511586Y-1261652D01*
X3502062Y-1214033D01*
X3502062Y-1175938D01*
X3511586Y-1128319D01*
X3521109Y-1099748D01*
X3530633Y-1080700D01*
X3549681Y-1052129D01*
X3559205Y-1042605D01*
X3616348Y-1071176D02*
X3740157Y-1071176D01*
X3673490Y-1147367D01*
X3702062Y-1147367D01*
X3721109Y-1156890D01*
X3730633Y-1166414D01*
X3740157Y-1185462D01*
X3740157Y-1233081D01*
X3730633Y-1252129D01*
X3721109Y-1261652D01*
X3702062Y-1271176D01*
X3644919Y-1271176D01*
X3625871Y-1261652D01*
X3616348Y-1252129D01*
X3978252Y-1271176D02*
X3978252Y-1071176D01*
X4063967Y-1271176D02*
X4063967Y-1166414D01*
X4054443Y-1147367D01*
X4035395Y-1137843D01*
X4006824Y-1137843D01*
X3987776Y-1147367D01*
X3978252Y-1156890D01*
X4187776Y-1271176D02*
X4168728Y-1261652D01*
X4159205Y-1252129D01*
X4149681Y-1233081D01*
X4149681Y-1175938D01*
X4159205Y-1156890D01*
X4168728Y-1147367D01*
X4187776Y-1137843D01*
X4216348Y-1137843D01*
X4235395Y-1147367D01*
X4244919Y-1156890D01*
X4254443Y-1175938D01*
X4254443Y-1233081D01*
X4244919Y-1252129D01*
X4235395Y-1261652D01*
X4216348Y-1271176D01*
X4187776Y-1271176D01*
X4368729Y-1271176D02*
X4349681Y-1261652D01*
X4340157Y-1242605D01*
X4340157Y-1071176D01*
X4521110Y-1261652D02*
X4502062Y-1271176D01*
X4463967Y-1271176D01*
X4444919Y-1261652D01*
X4435395Y-1242605D01*
X4435395Y-1166414D01*
X4444919Y-1147367D01*
X4463967Y-1137843D01*
X4502062Y-1137843D01*
X4521110Y-1147367D01*
X4530633Y-1166414D01*
X4530633Y-1185462D01*
X4435395Y-1204510D01*
X4606824Y-1261652D02*
X4625871Y-1271176D01*
X4663967Y-1271176D01*
X4683014Y-1261652D01*
X4692538Y-1242605D01*
X4692538Y-1233081D01*
X4683014Y-1214033D01*
X4663967Y-1204510D01*
X4635395Y-1204510D01*
X4616348Y-1194986D01*
X4606824Y-1175938D01*
X4606824Y-1166414D01*
X4616348Y-1147367D01*
X4635395Y-1137843D01*
X4663967Y-1137843D01*
X4683014Y-1147367D01*
X4759205Y-1347367D02*
X4768729Y-1337843D01*
X4787776Y-1309271D01*
X4797300Y-1290224D01*
X4806824Y-1261652D01*
X4816348Y-1214033D01*
X4816348Y-1175938D01*
X4806824Y-1128319D01*
X4797300Y-1099748D01*
X4787776Y-1080700D01*
X4768729Y-1052129D01*
X4759205Y-1042605D01*
D14*
X-25719Y-1476131D02*
X-25719Y-1413269D01*
X-88581Y-1413269D01*
X-88581Y-1476131D01*
X-25719Y-1476131D01*
D11*
X283014Y-1335176D02*
X302062Y-1335176D01*
X321110Y-1344700D01*
X330633Y-1354224D01*
X340157Y-1373271D01*
X349681Y-1411367D01*
X349681Y-1458986D01*
X340157Y-1497081D01*
X330633Y-1516128D01*
X321110Y-1525652D01*
X302062Y-1535176D01*
X283014Y-1535176D01*
X263967Y-1525652D01*
X254443Y-1516128D01*
X244919Y-1497081D01*
X235395Y-1458986D01*
X235395Y-1411367D01*
X244919Y-1373271D01*
X254443Y-1354224D01*
X263967Y-1344700D01*
X283014Y-1335176D01*
X435395Y-1516128D02*
X444919Y-1525652D01*
X435395Y-1535176D01*
X425871Y-1525652D01*
X435395Y-1516128D01*
X435395Y-1535176D01*
X559205Y-1420890D02*
X540157Y-1411367D01*
X530633Y-1401843D01*
X521109Y-1382795D01*
X521109Y-1373271D01*
X530633Y-1354224D01*
X540157Y-1344700D01*
X559205Y-1335176D01*
X597300Y-1335176D01*
X616348Y-1344700D01*
X625871Y-1354224D01*
X635395Y-1373271D01*
X635395Y-1382795D01*
X625871Y-1401843D01*
X616348Y-1411367D01*
X597300Y-1420890D01*
X559205Y-1420890D01*
X540157Y-1430414D01*
X530633Y-1439938D01*
X521109Y-1458986D01*
X521109Y-1497081D01*
X530633Y-1516128D01*
X540157Y-1525652D01*
X559205Y-1535176D01*
X597300Y-1535176D01*
X616348Y-1525652D01*
X625871Y-1516128D01*
X635395Y-1497081D01*
X635395Y-1458986D01*
X625871Y-1439938D01*
X616348Y-1430414D01*
X597300Y-1420890D01*
X749681Y-1420890D02*
X730633Y-1411367D01*
X721109Y-1401843D01*
X711586Y-1382795D01*
X711586Y-1373271D01*
X721109Y-1354224D01*
X730633Y-1344700D01*
X749681Y-1335176D01*
X787776Y-1335176D01*
X806824Y-1344700D01*
X816348Y-1354224D01*
X825871Y-1373271D01*
X825871Y-1382795D01*
X816348Y-1401843D01*
X806824Y-1411367D01*
X787776Y-1420890D01*
X749681Y-1420890D01*
X730633Y-1430414D01*
X721109Y-1439938D01*
X711586Y-1458986D01*
X711586Y-1497081D01*
X721109Y-1516128D01*
X730633Y-1525652D01*
X749681Y-1535176D01*
X787776Y-1535176D01*
X806824Y-1525652D01*
X816348Y-1516128D01*
X825871Y-1497081D01*
X825871Y-1458986D01*
X816348Y-1439938D01*
X806824Y-1430414D01*
X787776Y-1420890D01*
X921109Y-1535176D02*
X959205Y-1535176D01*
X978252Y-1525652D01*
X987776Y-1516128D01*
X1006824Y-1487557D01*
X1016348Y-1449462D01*
X1016348Y-1373271D01*
X1006824Y-1354224D01*
X997300Y-1344700D01*
X978252Y-1335176D01*
X940157Y-1335176D01*
X921109Y-1344700D01*
X911586Y-1354224D01*
X902062Y-1373271D01*
X902062Y-1420890D01*
X911586Y-1439938D01*
X921109Y-1449462D01*
X940157Y-1458986D01*
X978252Y-1458986D01*
X997300Y-1449462D01*
X1006824Y-1439938D01*
X1016348Y-1420890D01*
X1102062Y-1535176D02*
X1102062Y-1401843D01*
X1102062Y-1420890D02*
X1111586Y-1411367D01*
X1130633Y-1401843D01*
X1159205Y-1401843D01*
X1178252Y-1411367D01*
X1187776Y-1430414D01*
X1187776Y-1535176D01*
X1187776Y-1430414D02*
X1197300Y-1411367D01*
X1216348Y-1401843D01*
X1244919Y-1401843D01*
X1263967Y-1411367D01*
X1273490Y-1430414D01*
X1273490Y-1535176D01*
X1368729Y-1535176D02*
X1368729Y-1401843D01*
X1368729Y-1420890D02*
X1378252Y-1411367D01*
X1397300Y-1401843D01*
X1425871Y-1401843D01*
X1444919Y-1411367D01*
X1454443Y-1430414D01*
X1454443Y-1535176D01*
X1454443Y-1430414D02*
X1463967Y-1411367D01*
X1483014Y-1401843D01*
X1511586Y-1401843D01*
X1530633Y-1411367D01*
X1540157Y-1430414D01*
X1540157Y-1535176D01*
X1930633Y-1325652D02*
X1759205Y-1582795D01*
X2187776Y-1335176D02*
X2206824Y-1335176D01*
X2225871Y-1344700D01*
X2235395Y-1354224D01*
X2244919Y-1373271D01*
X2254443Y-1411367D01*
X2254443Y-1458986D01*
X2244919Y-1497081D01*
X2235395Y-1516128D01*
X2225871Y-1525652D01*
X2206824Y-1535176D01*
X2187776Y-1535176D01*
X2168729Y-1525652D01*
X2159205Y-1516128D01*
X2149681Y-1497081D01*
X2140157Y-1458986D01*
X2140157Y-1411367D01*
X2149681Y-1373271D01*
X2159205Y-1354224D01*
X2168729Y-1344700D01*
X2187776Y-1335176D01*
X2340157Y-1516128D02*
X2349681Y-1525652D01*
X2340157Y-1535176D01*
X2330633Y-1525652D01*
X2340157Y-1516128D01*
X2340157Y-1535176D01*
X2473490Y-1335176D02*
X2492538Y-1335176D01*
X2511586Y-1344700D01*
X2521110Y-1354224D01*
X2530633Y-1373271D01*
X2540157Y-1411367D01*
X2540157Y-1458986D01*
X2530633Y-1497081D01*
X2521110Y-1516128D01*
X2511586Y-1525652D01*
X2492538Y-1535176D01*
X2473490Y-1535176D01*
X2454443Y-1525652D01*
X2444919Y-1516128D01*
X2435395Y-1497081D01*
X2425871Y-1458986D01*
X2425871Y-1411367D01*
X2435395Y-1373271D01*
X2444919Y-1354224D01*
X2454443Y-1344700D01*
X2473490Y-1335176D01*
X2606824Y-1335176D02*
X2730633Y-1335176D01*
X2663967Y-1411367D01*
X2692538Y-1411367D01*
X2711586Y-1420890D01*
X2721110Y-1430414D01*
X2730633Y-1449462D01*
X2730633Y-1497081D01*
X2721110Y-1516128D01*
X2711586Y-1525652D01*
X2692538Y-1535176D01*
X2635395Y-1535176D01*
X2616348Y-1525652D01*
X2606824Y-1516128D01*
X2911586Y-1335176D02*
X2816348Y-1335176D01*
X2806824Y-1430414D01*
X2816348Y-1420890D01*
X2835395Y-1411367D01*
X2883014Y-1411367D01*
X2902062Y-1420890D01*
X2911586Y-1430414D01*
X2921109Y-1449462D01*
X2921109Y-1497081D01*
X2911586Y-1516128D01*
X2902062Y-1525652D01*
X2883014Y-1535176D01*
X2835395Y-1535176D01*
X2816348Y-1525652D01*
X2806824Y-1516128D01*
X3044919Y-1335176D02*
X3063967Y-1335176D01*
X3083014Y-1344700D01*
X3092538Y-1354224D01*
X3102062Y-1373271D01*
X3111586Y-1411367D01*
X3111586Y-1458986D01*
X3102062Y-1497081D01*
X3092538Y-1516128D01*
X3083014Y-1525652D01*
X3063967Y-1535176D01*
X3044919Y-1535176D01*
X3025871Y-1525652D01*
X3016348Y-1516128D01*
X3006824Y-1497081D01*
X2997300Y-1458986D01*
X2997300Y-1411367D01*
X3006824Y-1373271D01*
X3016348Y-1354224D01*
X3025871Y-1344700D01*
X3044919Y-1335176D01*
X3187776Y-1335176D02*
X3187776Y-1373271D01*
X3263967Y-1335176D02*
X3263967Y-1373271D01*
X3559205Y-1611367D02*
X3549681Y-1601843D01*
X3530633Y-1573271D01*
X3521109Y-1554224D01*
X3511586Y-1525652D01*
X3502062Y-1478033D01*
X3502062Y-1439938D01*
X3511586Y-1392319D01*
X3521109Y-1363748D01*
X3530633Y-1344700D01*
X3549681Y-1316129D01*
X3559205Y-1306605D01*
X3663967Y-1420890D02*
X3644919Y-1411367D01*
X3635395Y-1401843D01*
X3625871Y-1382795D01*
X3625871Y-1373271D01*
X3635395Y-1354224D01*
X3644919Y-1344700D01*
X3663967Y-1335176D01*
X3702062Y-1335176D01*
X3721109Y-1344700D01*
X3730633Y-1354224D01*
X3740157Y-1373271D01*
X3740157Y-1382795D01*
X3730633Y-1401843D01*
X3721109Y-1411367D01*
X3702062Y-1420890D01*
X3663967Y-1420890D01*
X3644919Y-1430414D01*
X3635395Y-1439938D01*
X3625871Y-1458986D01*
X3625871Y-1497081D01*
X3635395Y-1516128D01*
X3644919Y-1525652D01*
X3663967Y-1535176D01*
X3702062Y-1535176D01*
X3721109Y-1525652D01*
X3730633Y-1516128D01*
X3740157Y-1497081D01*
X3740157Y-1458986D01*
X3730633Y-1439938D01*
X3721109Y-1430414D01*
X3702062Y-1420890D01*
X3978252Y-1535176D02*
X3978252Y-1335176D01*
X4063967Y-1535176D02*
X4063967Y-1430414D01*
X4054443Y-1411367D01*
X4035395Y-1401843D01*
X4006824Y-1401843D01*
X3987776Y-1411367D01*
X3978252Y-1420890D01*
X4187776Y-1535176D02*
X4168728Y-1525652D01*
X4159205Y-1516128D01*
X4149681Y-1497081D01*
X4149681Y-1439938D01*
X4159205Y-1420890D01*
X4168728Y-1411367D01*
X4187776Y-1401843D01*
X4216348Y-1401843D01*
X4235395Y-1411367D01*
X4244919Y-1420890D01*
X4254443Y-1439938D01*
X4254443Y-1497081D01*
X4244919Y-1516128D01*
X4235395Y-1525652D01*
X4216348Y-1535176D01*
X4187776Y-1535176D01*
X4368729Y-1535176D02*
X4349681Y-1525652D01*
X4340157Y-1506605D01*
X4340157Y-1335176D01*
X4521110Y-1525652D02*
X4502062Y-1535176D01*
X4463967Y-1535176D01*
X4444919Y-1525652D01*
X4435395Y-1506605D01*
X4435395Y-1430414D01*
X4444919Y-1411367D01*
X4463967Y-1401843D01*
X4502062Y-1401843D01*
X4521110Y-1411367D01*
X4530633Y-1430414D01*
X4530633Y-1449462D01*
X4435395Y-1468509D01*
X4606824Y-1525652D02*
X4625871Y-1535176D01*
X4663967Y-1535176D01*
X4683014Y-1525652D01*
X4692538Y-1506605D01*
X4692538Y-1497081D01*
X4683014Y-1478033D01*
X4663967Y-1468509D01*
X4635395Y-1468509D01*
X4616348Y-1458986D01*
X4606824Y-1439938D01*
X4606824Y-1430414D01*
X4616348Y-1411367D01*
X4635395Y-1401843D01*
X4663967Y-1401843D01*
X4683014Y-1411367D01*
X4759205Y-1611367D02*
X4768729Y-1601843D01*
X4787776Y-1573271D01*
X4797300Y-1554224D01*
X4806824Y-1525652D01*
X4816348Y-1478033D01*
X4816348Y-1439938D01*
X4806824Y-1392319D01*
X4797300Y-1363748D01*
X4787776Y-1344700D01*
X4768729Y-1316129D01*
X4759205Y-1306605D01*
D15*
X-63500Y-1759500D02*
X-12700Y-1708700D01*
X-63500Y-1657900D01*
X-114300Y-1708700D01*
X-63500Y-1759500D01*
D11*
X349681Y-1799176D02*
X235395Y-1799176D01*
X292538Y-1799176D02*
X292538Y-1599176D01*
X273490Y-1627748D01*
X254443Y-1646795D01*
X235395Y-1656319D01*
X435395Y-1780128D02*
X444919Y-1789652D01*
X435395Y-1799176D01*
X425871Y-1789652D01*
X435395Y-1780128D01*
X435395Y-1799176D01*
X568729Y-1599176D02*
X587776Y-1599176D01*
X606824Y-1608700D01*
X616348Y-1618224D01*
X625871Y-1637271D01*
X635395Y-1675367D01*
X635395Y-1722986D01*
X625871Y-1761081D01*
X616348Y-1780128D01*
X606824Y-1789652D01*
X587776Y-1799176D01*
X568729Y-1799176D01*
X549681Y-1789652D01*
X540157Y-1780128D01*
X530633Y-1761081D01*
X521109Y-1722986D01*
X521109Y-1675367D01*
X530633Y-1637271D01*
X540157Y-1618224D01*
X549681Y-1608700D01*
X568729Y-1599176D01*
X825871Y-1799176D02*
X711586Y-1799176D01*
X768728Y-1799176D02*
X768728Y-1599176D01*
X749681Y-1627748D01*
X730633Y-1646795D01*
X711586Y-1656319D01*
X997300Y-1599176D02*
X959205Y-1599176D01*
X940157Y-1608700D01*
X930633Y-1618224D01*
X911586Y-1646795D01*
X902062Y-1684890D01*
X902062Y-1761081D01*
X911586Y-1780128D01*
X921109Y-1789652D01*
X940157Y-1799176D01*
X978252Y-1799176D01*
X997300Y-1789652D01*
X1006824Y-1780128D01*
X1016348Y-1761081D01*
X1016348Y-1713462D01*
X1006824Y-1694414D01*
X997300Y-1684890D01*
X978252Y-1675367D01*
X940157Y-1675367D01*
X921109Y-1684890D01*
X911586Y-1694414D01*
X902062Y-1713462D01*
X1102062Y-1799176D02*
X1102062Y-1665843D01*
X1102062Y-1684890D02*
X1111586Y-1675367D01*
X1130633Y-1665843D01*
X1159205Y-1665843D01*
X1178252Y-1675367D01*
X1187776Y-1694414D01*
X1187776Y-1799176D01*
X1187776Y-1694414D02*
X1197300Y-1675367D01*
X1216348Y-1665843D01*
X1244919Y-1665843D01*
X1263967Y-1675367D01*
X1273490Y-1694414D01*
X1273490Y-1799176D01*
X1368729Y-1799176D02*
X1368729Y-1665843D01*
X1368729Y-1684890D02*
X1378252Y-1675367D01*
X1397300Y-1665843D01*
X1425871Y-1665843D01*
X1444919Y-1675367D01*
X1454443Y-1694414D01*
X1454443Y-1799176D01*
X1454443Y-1694414D02*
X1463967Y-1675367D01*
X1483014Y-1665843D01*
X1511586Y-1665843D01*
X1530633Y-1675367D01*
X1540157Y-1694414D01*
X1540157Y-1799176D01*
X1930633Y-1589652D02*
X1759205Y-1846795D01*
X2187776Y-1599176D02*
X2206824Y-1599176D01*
X2225871Y-1608700D01*
X2235395Y-1618224D01*
X2244919Y-1637271D01*
X2254443Y-1675367D01*
X2254443Y-1722986D01*
X2244919Y-1761081D01*
X2235395Y-1780128D01*
X2225871Y-1789652D01*
X2206824Y-1799176D01*
X2187776Y-1799176D01*
X2168729Y-1789652D01*
X2159205Y-1780128D01*
X2149681Y-1761081D01*
X2140157Y-1722986D01*
X2140157Y-1675367D01*
X2149681Y-1637271D01*
X2159205Y-1618224D01*
X2168729Y-1608700D01*
X2187776Y-1599176D01*
X2340157Y-1780128D02*
X2349681Y-1789652D01*
X2340157Y-1799176D01*
X2330633Y-1789652D01*
X2340157Y-1780128D01*
X2340157Y-1799176D01*
X2473490Y-1599176D02*
X2492538Y-1599176D01*
X2511586Y-1608700D01*
X2521110Y-1618224D01*
X2530633Y-1637271D01*
X2540157Y-1675367D01*
X2540157Y-1722986D01*
X2530633Y-1761081D01*
X2521110Y-1780128D01*
X2511586Y-1789652D01*
X2492538Y-1799176D01*
X2473490Y-1799176D01*
X2454443Y-1789652D01*
X2444919Y-1780128D01*
X2435395Y-1761081D01*
X2425871Y-1722986D01*
X2425871Y-1675367D01*
X2435395Y-1637271D01*
X2444919Y-1618224D01*
X2454443Y-1608700D01*
X2473490Y-1599176D01*
X2711586Y-1665843D02*
X2711586Y-1799176D01*
X2663967Y-1589652D02*
X2616348Y-1732509D01*
X2740157Y-1732509D01*
X2854443Y-1599176D02*
X2873490Y-1599176D01*
X2892538Y-1608700D01*
X2902062Y-1618224D01*
X2911586Y-1637271D01*
X2921109Y-1675367D01*
X2921109Y-1722986D01*
X2911586Y-1761081D01*
X2902062Y-1780128D01*
X2892538Y-1789652D01*
X2873490Y-1799176D01*
X2854443Y-1799176D01*
X2835395Y-1789652D01*
X2825871Y-1780128D01*
X2816348Y-1761081D01*
X2806824Y-1722986D01*
X2806824Y-1675367D01*
X2816348Y-1637271D01*
X2825871Y-1618224D01*
X2835395Y-1608700D01*
X2854443Y-1599176D01*
X3044919Y-1599176D02*
X3063967Y-1599176D01*
X3083014Y-1608700D01*
X3092538Y-1618224D01*
X3102062Y-1637271D01*
X3111586Y-1675367D01*
X3111586Y-1722986D01*
X3102062Y-1761081D01*
X3092538Y-1780128D01*
X3083014Y-1789652D01*
X3063967Y-1799176D01*
X3044919Y-1799176D01*
X3025871Y-1789652D01*
X3016348Y-1780128D01*
X3006824Y-1761081D01*
X2997300Y-1722986D01*
X2997300Y-1675367D01*
X3006824Y-1637271D01*
X3016348Y-1618224D01*
X3025871Y-1608700D01*
X3044919Y-1599176D01*
X3187776Y-1599176D02*
X3187776Y-1637271D01*
X3263967Y-1599176D02*
X3263967Y-1637271D01*
X3559205Y-1875367D02*
X3549681Y-1865843D01*
X3530633Y-1837271D01*
X3521109Y-1818224D01*
X3511586Y-1789652D01*
X3502062Y-1742033D01*
X3502062Y-1703938D01*
X3511586Y-1656319D01*
X3521109Y-1627748D01*
X3530633Y-1608700D01*
X3549681Y-1580128D01*
X3559205Y-1570605D01*
X3625871Y-1618224D02*
X3635395Y-1608700D01*
X3654443Y-1599176D01*
X3702062Y-1599176D01*
X3721109Y-1608700D01*
X3730633Y-1618224D01*
X3740157Y-1637271D01*
X3740157Y-1656319D01*
X3730633Y-1684890D01*
X3616348Y-1799176D01*
X3740157Y-1799176D01*
X3854443Y-1684890D02*
X3835395Y-1675367D01*
X3825871Y-1665843D01*
X3816348Y-1646795D01*
X3816348Y-1637271D01*
X3825871Y-1618224D01*
X3835395Y-1608700D01*
X3854443Y-1599176D01*
X3892538Y-1599176D01*
X3911586Y-1608700D01*
X3921109Y-1618224D01*
X3930633Y-1637271D01*
X3930633Y-1646795D01*
X3921109Y-1665843D01*
X3911586Y-1675367D01*
X3892538Y-1684890D01*
X3854443Y-1684890D01*
X3835395Y-1694414D01*
X3825871Y-1703938D01*
X3816348Y-1722986D01*
X3816348Y-1761081D01*
X3825871Y-1780128D01*
X3835395Y-1789652D01*
X3854443Y-1799176D01*
X3892538Y-1799176D01*
X3911586Y-1789652D01*
X3921109Y-1780128D01*
X3930633Y-1761081D01*
X3930633Y-1722986D01*
X3921109Y-1703938D01*
X3911586Y-1694414D01*
X3892538Y-1684890D01*
X4168728Y-1799176D02*
X4168728Y-1599176D01*
X4254443Y-1799176D02*
X4254443Y-1694414D01*
X4244919Y-1675367D01*
X4225871Y-1665843D01*
X4197300Y-1665843D01*
X4178252Y-1675367D01*
X4168728Y-1684890D01*
X4378252Y-1799176D02*
X4359205Y-1789652D01*
X4349681Y-1780128D01*
X4340157Y-1761081D01*
X4340157Y-1703938D01*
X4349681Y-1684890D01*
X4359205Y-1675367D01*
X4378252Y-1665843D01*
X4406824Y-1665843D01*
X4425871Y-1675367D01*
X4435395Y-1684890D01*
X4444919Y-1703938D01*
X4444919Y-1761081D01*
X4435395Y-1780128D01*
X4425871Y-1789652D01*
X4406824Y-1799176D01*
X4378252Y-1799176D01*
X4559205Y-1799176D02*
X4540157Y-1789652D01*
X4530633Y-1770605D01*
X4530633Y-1599176D01*
X4711586Y-1789652D02*
X4692538Y-1799176D01*
X4654443Y-1799176D01*
X4635395Y-1789652D01*
X4625871Y-1770605D01*
X4625871Y-1694414D01*
X4635395Y-1675367D01*
X4654443Y-1665843D01*
X4692538Y-1665843D01*
X4711586Y-1675367D01*
X4721110Y-1694414D01*
X4721110Y-1713462D01*
X4625871Y-1732509D01*
X4797300Y-1789652D02*
X4816348Y-1799176D01*
X4854443Y-1799176D01*
X4873490Y-1789652D01*
X4883014Y-1770605D01*
X4883014Y-1761081D01*
X4873490Y-1742033D01*
X4854443Y-1732509D01*
X4825871Y-1732509D01*
X4806824Y-1722986D01*
X4797300Y-1703938D01*
X4797300Y-1694414D01*
X4806824Y-1675367D01*
X4825871Y-1665843D01*
X4854443Y-1665843D01*
X4873490Y-1675367D01*
X4949681Y-1875367D02*
X4959205Y-1865843D01*
X4978252Y-1837271D01*
X4987776Y-1818224D01*
X4997300Y-1789652D01*
X5006824Y-1742033D01*
X5006824Y-1703938D01*
X4997300Y-1656319D01*
X4987776Y-1627748D01*
X4978252Y-1608700D01*
X4959205Y-1580128D01*
X4949681Y-1570605D01*
D16*
X-139700Y-1909200D02*
X-12700Y-2036200D01*
X-12700Y-1909200D02*
X-139700Y-2036200D01*
X-12700Y-1972700D02*
G75*
G03*
X-12700Y-1972700I-63500J0D01*
G01*
D11*
X349681Y-2063176D02*
X235395Y-2063176D01*
X292538Y-2063176D02*
X292538Y-1863176D01*
X273490Y-1891748D01*
X254443Y-1910795D01*
X235395Y-1920319D01*
X435395Y-2044128D02*
X444919Y-2053652D01*
X435395Y-2063176D01*
X425871Y-2053652D01*
X435395Y-2044128D01*
X435395Y-2063176D01*
X521109Y-1882224D02*
X530633Y-1872700D01*
X549681Y-1863176D01*
X597300Y-1863176D01*
X616348Y-1872700D01*
X625871Y-1882224D01*
X635395Y-1901271D01*
X635395Y-1920319D01*
X625871Y-1948890D01*
X511586Y-2063176D01*
X635395Y-2063176D01*
X702062Y-1863176D02*
X835395Y-1863176D01*
X749681Y-2063176D01*
X949681Y-1863176D02*
X968728Y-1863176D01*
X987776Y-1872700D01*
X997300Y-1882224D01*
X1006824Y-1901271D01*
X1016348Y-1939367D01*
X1016348Y-1986986D01*
X1006824Y-2025081D01*
X997300Y-2044128D01*
X987776Y-2053652D01*
X968728Y-2063176D01*
X949681Y-2063176D01*
X930633Y-2053652D01*
X921109Y-2044128D01*
X911586Y-2025081D01*
X902062Y-1986986D01*
X902062Y-1939367D01*
X911586Y-1901271D01*
X921109Y-1882224D01*
X930633Y-1872700D01*
X949681Y-1863176D01*
X1102062Y-2063176D02*
X1102062Y-1929843D01*
X1102062Y-1948890D02*
X1111586Y-1939367D01*
X1130633Y-1929843D01*
X1159205Y-1929843D01*
X1178252Y-1939367D01*
X1187776Y-1958414D01*
X1187776Y-2063176D01*
X1187776Y-1958414D02*
X1197300Y-1939367D01*
X1216348Y-1929843D01*
X1244919Y-1929843D01*
X1263967Y-1939367D01*
X1273490Y-1958414D01*
X1273490Y-2063176D01*
X1368729Y-2063176D02*
X1368729Y-1929843D01*
X1368729Y-1948890D02*
X1378252Y-1939367D01*
X1397300Y-1929843D01*
X1425871Y-1929843D01*
X1444919Y-1939367D01*
X1454443Y-1958414D01*
X1454443Y-2063176D01*
X1454443Y-1958414D02*
X1463967Y-1939367D01*
X1483014Y-1929843D01*
X1511586Y-1929843D01*
X1530633Y-1939367D01*
X1540157Y-1958414D01*
X1540157Y-2063176D01*
X1930633Y-1853652D02*
X1759205Y-2110795D01*
X2187776Y-1863176D02*
X2206824Y-1863176D01*
X2225871Y-1872700D01*
X2235395Y-1882224D01*
X2244919Y-1901271D01*
X2254443Y-1939367D01*
X2254443Y-1986986D01*
X2244919Y-2025081D01*
X2235395Y-2044128D01*
X2225871Y-2053652D01*
X2206824Y-2063176D01*
X2187776Y-2063176D01*
X2168729Y-2053652D01*
X2159205Y-2044128D01*
X2149681Y-2025081D01*
X2140157Y-1986986D01*
X2140157Y-1939367D01*
X2149681Y-1901271D01*
X2159205Y-1882224D01*
X2168729Y-1872700D01*
X2187776Y-1863176D01*
X2340157Y-2044128D02*
X2349681Y-2053652D01*
X2340157Y-2063176D01*
X2330633Y-2053652D01*
X2340157Y-2044128D01*
X2340157Y-2063176D01*
X2473490Y-1863176D02*
X2492538Y-1863176D01*
X2511586Y-1872700D01*
X2521110Y-1882224D01*
X2530633Y-1901271D01*
X2540157Y-1939367D01*
X2540157Y-1986986D01*
X2530633Y-2025081D01*
X2521110Y-2044128D01*
X2511586Y-2053652D01*
X2492538Y-2063176D01*
X2473490Y-2063176D01*
X2454443Y-2053652D01*
X2444919Y-2044128D01*
X2435395Y-2025081D01*
X2425871Y-1986986D01*
X2425871Y-1939367D01*
X2435395Y-1901271D01*
X2444919Y-1882224D01*
X2454443Y-1872700D01*
X2473490Y-1863176D01*
X2721110Y-1863176D02*
X2625871Y-1863176D01*
X2616348Y-1958414D01*
X2625871Y-1948890D01*
X2644919Y-1939367D01*
X2692538Y-1939367D01*
X2711586Y-1948890D01*
X2721110Y-1958414D01*
X2730633Y-1977462D01*
X2730633Y-2025081D01*
X2721110Y-2044128D01*
X2711586Y-2053652D01*
X2692538Y-2063176D01*
X2644919Y-2063176D01*
X2625871Y-2053652D01*
X2616348Y-2044128D01*
X2854443Y-1863176D02*
X2873490Y-1863176D01*
X2892538Y-1872700D01*
X2902062Y-1882224D01*
X2911586Y-1901271D01*
X2921109Y-1939367D01*
X2921109Y-1986986D01*
X2911586Y-2025081D01*
X2902062Y-2044128D01*
X2892538Y-2053652D01*
X2873490Y-2063176D01*
X2854443Y-2063176D01*
X2835395Y-2053652D01*
X2825871Y-2044128D01*
X2816348Y-2025081D01*
X2806824Y-1986986D01*
X2806824Y-1939367D01*
X2816348Y-1901271D01*
X2825871Y-1882224D01*
X2835395Y-1872700D01*
X2854443Y-1863176D01*
X3044919Y-1863176D02*
X3063967Y-1863176D01*
X3083014Y-1872700D01*
X3092538Y-1882224D01*
X3102062Y-1901271D01*
X3111586Y-1939367D01*
X3111586Y-1986986D01*
X3102062Y-2025081D01*
X3092538Y-2044128D01*
X3083014Y-2053652D01*
X3063967Y-2063176D01*
X3044919Y-2063176D01*
X3025871Y-2053652D01*
X3016348Y-2044128D01*
X3006824Y-2025081D01*
X2997300Y-1986986D01*
X2997300Y-1939367D01*
X3006824Y-1901271D01*
X3016348Y-1882224D01*
X3025871Y-1872700D01*
X3044919Y-1863176D01*
X3187776Y-1863176D02*
X3187776Y-1901271D01*
X3263967Y-1863176D02*
X3263967Y-1901271D01*
X3559205Y-2139367D02*
X3549681Y-2129843D01*
X3530633Y-2101271D01*
X3521109Y-2082224D01*
X3511586Y-2053652D01*
X3502062Y-2006033D01*
X3502062Y-1967938D01*
X3511586Y-1920319D01*
X3521109Y-1891748D01*
X3530633Y-1872700D01*
X3549681Y-1844128D01*
X3559205Y-1834605D01*
X3673490Y-1863176D02*
X3692538Y-1863176D01*
X3711586Y-1872700D01*
X3721109Y-1882224D01*
X3730633Y-1901271D01*
X3740157Y-1939367D01*
X3740157Y-1986986D01*
X3730633Y-2025081D01*
X3721109Y-2044128D01*
X3711586Y-2053652D01*
X3692538Y-2063176D01*
X3673490Y-2063176D01*
X3654443Y-2053652D01*
X3644919Y-2044128D01*
X3635395Y-2025081D01*
X3625871Y-1986986D01*
X3625871Y-1939367D01*
X3635395Y-1901271D01*
X3644919Y-1882224D01*
X3654443Y-1872700D01*
X3673490Y-1863176D01*
X3978252Y-2063176D02*
X3978252Y-1863176D01*
X4063967Y-2063176D02*
X4063967Y-1958414D01*
X4054443Y-1939367D01*
X4035395Y-1929843D01*
X4006824Y-1929843D01*
X3987776Y-1939367D01*
X3978252Y-1948890D01*
X4187776Y-2063176D02*
X4168728Y-2053652D01*
X4159205Y-2044128D01*
X4149681Y-2025081D01*
X4149681Y-1967938D01*
X4159205Y-1948890D01*
X4168728Y-1939367D01*
X4187776Y-1929843D01*
X4216348Y-1929843D01*
X4235395Y-1939367D01*
X4244919Y-1948890D01*
X4254443Y-1967938D01*
X4254443Y-2025081D01*
X4244919Y-2044128D01*
X4235395Y-2053652D01*
X4216348Y-2063176D01*
X4187776Y-2063176D01*
X4368729Y-2063176D02*
X4349681Y-2053652D01*
X4340157Y-2034605D01*
X4340157Y-1863176D01*
X4521110Y-2053652D02*
X4502062Y-2063176D01*
X4463967Y-2063176D01*
X4444919Y-2053652D01*
X4435395Y-2034605D01*
X4435395Y-1958414D01*
X4444919Y-1939367D01*
X4463967Y-1929843D01*
X4502062Y-1929843D01*
X4521110Y-1939367D01*
X4530633Y-1958414D01*
X4530633Y-1977462D01*
X4435395Y-1996509D01*
X4606824Y-2053652D02*
X4625871Y-2063176D01*
X4663967Y-2063176D01*
X4683014Y-2053652D01*
X4692538Y-2034605D01*
X4692538Y-2025081D01*
X4683014Y-2006033D01*
X4663967Y-1996509D01*
X4635395Y-1996509D01*
X4616348Y-1986986D01*
X4606824Y-1967938D01*
X4606824Y-1958414D01*
X4616348Y-1939367D01*
X4635395Y-1929843D01*
X4663967Y-1929843D01*
X4683014Y-1939367D01*
X4930633Y-1986986D02*
X5083014Y-1986986D01*
X5006824Y-2063176D02*
X5006824Y-1910795D01*
X5321110Y-1882224D02*
X5330633Y-1872700D01*
X5349681Y-1863176D01*
X5397300Y-1863176D01*
X5416348Y-1872700D01*
X5425871Y-1882224D01*
X5435395Y-1901271D01*
X5435395Y-1920319D01*
X5425871Y-1948890D01*
X5311586Y-2063176D01*
X5435395Y-2063176D01*
X5663967Y-2053652D02*
X5683014Y-2063176D01*
X5721109Y-2063176D01*
X5740157Y-2053652D01*
X5749681Y-2034605D01*
X5749681Y-2025081D01*
X5740157Y-2006033D01*
X5721109Y-1996509D01*
X5692538Y-1996509D01*
X5673490Y-1986986D01*
X5663967Y-1967938D01*
X5663967Y-1958414D01*
X5673490Y-1939367D01*
X5692538Y-1929843D01*
X5721109Y-1929843D01*
X5740157Y-1939367D01*
X5863967Y-2063176D02*
X5844919Y-2053652D01*
X5835395Y-2034605D01*
X5835395Y-1863176D01*
X5968728Y-2063176D02*
X5949681Y-2053652D01*
X5940157Y-2044128D01*
X5930633Y-2025081D01*
X5930633Y-1967938D01*
X5940157Y-1948890D01*
X5949681Y-1939367D01*
X5968728Y-1929843D01*
X5997300Y-1929843D01*
X6016348Y-1939367D01*
X6025871Y-1948890D01*
X6035395Y-1967938D01*
X6035395Y-2025081D01*
X6025871Y-2044128D01*
X6016348Y-2053652D01*
X5997300Y-2063176D01*
X5968728Y-2063176D01*
X6092538Y-1929843D02*
X6168728Y-1929843D01*
X6121109Y-1863176D02*
X6121109Y-2034605D01*
X6130633Y-2053652D01*
X6149681Y-2063176D01*
X6168728Y-2063176D01*
X6225871Y-2053652D02*
X6244919Y-2063176D01*
X6283014Y-2063176D01*
X6302062Y-2053652D01*
X6311586Y-2034605D01*
X6311586Y-2025081D01*
X6302062Y-2006033D01*
X6283014Y-1996509D01*
X6254443Y-1996509D01*
X6235395Y-1986986D01*
X6225871Y-1967938D01*
X6225871Y-1958414D01*
X6235395Y-1939367D01*
X6254443Y-1929843D01*
X6283014Y-1929843D01*
X6302062Y-1939367D01*
X6378252Y-2139367D02*
X6387776Y-2129843D01*
X6406824Y-2101271D01*
X6416348Y-2082224D01*
X6425871Y-2053652D01*
X6435395Y-2006033D01*
X6435395Y-1967938D01*
X6425871Y-1920319D01*
X6416348Y-1891748D01*
X6406824Y-1872700D01*
X6387776Y-1844128D01*
X6378252Y-1834605D01*
M02*
