M48
; DRILL file {KiCad 6.0.5-a6ca702e91~116~ubuntu20.04.1} date Paz 03 Mar 2024 00:05:45
; FORMAT={-:-/ absolute / metric / decimal}
; #@! TF.CreationDate,2024-03-03T00:05:45+03:00
; #@! TF.GenerationSoftware,Kicad,Pcbnew,6.0.5-a6ca702e91~116~ubuntu20.04.1
; #@! TF.FileFunction,Plated,1,4,PTH
FMAT,2
METRIC
; #@! TA.AperFunction,Plated,PTH,ViaDrill
T1C0.305
; #@! TA.AperFunction,Plated,PTH,ComponentDrill
T2C0.305
; #@! TA.AperFunction,Plated,PTH,ComponentDrill
T3C0.699
; #@! TA.AperFunction,Plated,PTH,ComponentDrill
T4C0.889
; #@! TA.AperFunction,Plated,PTH,ComponentDrill
T5C1.016
; #@! TA.AperFunction,Plated,PTH,ComponentDrill
T6C1.270
%
G90
G05
T1
X0.889Y3.937
X1.016Y53.467
X1.016Y52.451
X1.016Y51.435
X1.27Y19.812
X1.27Y17.272
X1.27Y14.732
X1.524Y54.483
X2.032Y53.467
X2.032Y52.451
X2.54Y54.483
X2.921Y48.514
X2.921Y45.974
X2.921Y43.434
X2.921Y40.894
X2.997Y28.194
X3.023Y33.274
X3.048Y53.467
X3.048Y17.78
X3.175Y35.814
X3.175Y30.734
X3.302Y38.354
X3.429Y16.891
X3.556Y54.483
X3.556Y26.035
X3.912Y23.114
X3.937Y1.27
X4.394Y33.223
X4.47Y28.194
X4.508Y49.847
X4.521Y23.749
X4.572Y54.483
X4.75Y46.761
X4.75Y38.456
X4.826Y48.641
X4.826Y34.29
X4.889Y25.336
X4.902Y45.898
X4.902Y35.154
X4.953Y28.931
X4.953Y19.939
X5.588Y54.483
X5.588Y43.942
X5.791Y43.078
X5.791Y42.215
X5.791Y41.351
X5.969Y33.147
X5.994Y20.549
X6.096Y28.956
X6.223Y49.403
X6.299Y30.531
X6.299Y29.896
X6.35Y1.27
X6.604Y54.483
X6.68Y27.534
X6.883Y20.549
X6.985Y41.402
X7.366Y52.705
X7.366Y51.308
X7.62Y54.483
X7.62Y33.02
X7.747Y38.227
X7.874Y12.319
X7.874Y9.779
X7.874Y7.239
X8.255Y27.661
X8.255Y26.416
X8.306Y43.409
X8.611Y29.997
X8.636Y54.483
X8.712Y29.134
X8.865Y30.836
X8.89Y36.195
X8.89Y3.81
X8.89Y1.27
X8.941Y52.451
X8.941Y51.689
X9.017Y48.133
X9.195Y41.529
X9.195Y39.116
X9.296Y45.11
X9.627Y21.717
X9.652Y54.483
X9.652Y24.765
X9.804Y48.438
X9.881Y45.695
X9.906Y12.319
X9.982Y44.501
X10.211Y43.231
X10.287Y50.927
X10.516Y31.064
X10.566Y48.768
X10.617Y46.05
X10.668Y54.483
X10.668Y53.594
X10.668Y46.863
X10.668Y33.96
X10.922Y51.689
X11.176Y36.449
X11.278Y49.2
X11.379Y31.064
X11.43Y3.81
X11.43Y1.27
X11.684Y54.483
X11.684Y53.594
X11.684Y34.036
X11.684Y20.701
X11.709Y44.45
X11.811Y48.565
X11.811Y42.088
X11.887Y51.867
X11.938Y37.973
X11.938Y35.941
X11.938Y12.319
X11.938Y9.779
X11.938Y7.239
X11.963Y43.663
X12.116Y40.31
X12.548Y42.545
X12.624Y41.707
X12.7Y54.483
X12.7Y53.594
X12.7Y36.703
X12.7Y33.528
X12.751Y51.435
X12.751Y31.039
X12.954Y39.878
X13.208Y38.481
X13.335Y41.275
X13.411Y31.598
X13.589Y51.638
X13.589Y33.655
X13.716Y54.483
X13.843Y22.479
X13.97Y41.783
X13.97Y12.319
X13.97Y1.27
X14.478Y20.828
X14.58Y30.48
X14.605Y35.103
X14.732Y54.483
X14.732Y40.259
X14.91Y50.8
X14.986Y39.472
X15.037Y29.743
X15.291Y36.144
X15.723Y50.927
X15.748Y54.483
X15.748Y34.163
X15.824Y39.446
X15.875Y27.407
X15.9Y50.14
X16.002Y18.161
X16.002Y15.875
X16.256Y20.345
X16.383Y21.717
X16.485Y28.6
X16.51Y1.27
X16.637Y40.64
X16.764Y54.483
X16.764Y53.594
X16.764Y24.892
X17.018Y52.578
X17.145Y41.275
X17.272Y42.799
X17.272Y21.717
X17.399Y23.368
X17.526Y26.416
X17.653Y49.962
X17.653Y43.561
X17.907Y25.273
X18.034Y1.27
X18.161Y29.591
X18.288Y36.957
X18.415Y37.846
X18.415Y36.068
X18.415Y31.242
X18.491Y43.358
X18.542Y16.129
X18.644Y50.241
X18.923Y53.34
X19.05Y22.86
X19.05Y18.542
X19.05Y1.27
X19.304Y54.483
X19.304Y46.736
X19.304Y33.02
X19.304Y28.448
X19.304Y26.924
X19.406Y19.482
X19.482Y20.98
X19.609Y43.078
X19.685Y38.862
X19.685Y8.001
X19.812Y40.64
X19.914Y18.72
X20.066Y44.704
X20.066Y4.572
X20.32Y54.483
X20.32Y33.02
X20.574Y52.832
X20.574Y38.862
X20.701Y40.64
X20.701Y17.018
X20.828Y22.606
X20.828Y15.494
X20.828Y13.97
X20.955Y50.038
X20.955Y43.053
X20.955Y35.56
X20.955Y10.16
X21.336Y54.483
X21.336Y36.449
X21.336Y28.448
X21.336Y26.289
X21.463Y1.27
X21.59Y40.259
X21.793Y38.354
X21.844Y52.832
X21.895Y7.087
X22.047Y42.037
X22.098Y48.895
X22.352Y54.483
X22.479Y5.334
X22.606Y35.56
X22.606Y34.671
X22.606Y33.782
X22.86Y41.529
X22.86Y32.131
X23.114Y18.542
X23.114Y17.272
X23.368Y54.483
X23.597Y39.751
X23.622Y28.702
X23.622Y27.305
X23.622Y25.781
X23.622Y23.114
X23.622Y15.621
X23.622Y13.97
X23.622Y9.525
X23.698Y43.459
X23.876Y47.625
X23.876Y7.874
X23.876Y1.27
X23.927Y45.949
X23.927Y45.06
X24.13Y50.419
X24.384Y54.483
X24.511Y27.94
X24.638Y12.827
X24.765Y37.592
X24.892Y16.891
X24.892Y15.113
X25.273Y33.401
X25.4Y54.483
X25.578Y34.671
X25.654Y35.56
X25.908Y25.654
X25.908Y17.272
X25.908Y11.557
X26.035Y48.514
X26.035Y30.734
X26.035Y4.699
X26.162Y12.954
X26.289Y45.974
X26.289Y43.536
X26.289Y40.894
X26.289Y38.354
X26.289Y6.985
X26.289Y1.27
X26.416Y54.483
X26.416Y53.467
X26.797Y4.572
X27.178Y19.304
X27.178Y5.461
X27.432Y54.483
X27.432Y53.467
X27.432Y52.451
X27.94Y4.953
X28.448Y54.483
X28.448Y53.467
X28.448Y52.451
X28.448Y51.435
X28.448Y3.556
X28.448Y2.286
X28.575Y17.907
X28.575Y15.367
X28.575Y12.827
X28.575Y10.287
T2
X11.049Y28.702
X11.049Y27.432
X11.049Y26.162
X12.319Y28.702
X12.319Y27.432
X12.319Y26.162
X13.462Y47.752
X13.462Y46.482
X13.462Y45.212
X13.589Y28.702
X13.589Y27.432
X13.589Y26.162
X14.732Y47.752
X14.732Y46.482
X14.732Y45.212
X16.002Y47.752
X16.002Y46.482
X16.002Y45.212
T3
X22.098Y20.828
X23.368Y20.828
X24.638Y20.828
T4
X5.207Y15.621
X6.477Y18.161
X7.747Y15.621
X9.017Y18.161
X10.287Y15.621
X11.557Y18.161
X12.827Y15.621
X14.097Y18.161
T5
X2.032Y49.784
X2.032Y47.244
X2.032Y44.704
X2.032Y42.164
X2.032Y39.624
X2.032Y37.084
X2.032Y34.544
X2.032Y32.004
X2.032Y29.464
X2.032Y26.924
X2.032Y24.384
X2.032Y21.844
X3.048Y4.445
X5.588Y4.445
X13.716Y4.445
X16.256Y4.445
X27.432Y49.784
X27.432Y47.244
X27.432Y44.704
X27.432Y42.164
X27.432Y39.624
X27.432Y37.084
X27.432Y34.544
X27.432Y32.004
X27.432Y29.464
X27.432Y26.924
X27.432Y24.384
X27.432Y21.844
T6
G00X1.88Y12.573
M15
G01X1.88Y12.065
M16
G05
G00X17.424Y12.573
M15
G01X17.424Y12.065
M16
G05
T0
M30
