G04 #@! TF.GenerationSoftware,KiCad,Pcbnew,6.0.5-a6ca702e91~116~ubuntu20.04.1*
G04 #@! TF.CreationDate,2024-03-03T00:05:47+03:00*
G04 #@! TF.ProjectId,iot-esp-eth-com,696f742d-6573-4702-9d65-74682d636f6d,rev?*
G04 #@! TF.SameCoordinates,PX3072580PYa990340*
G04 #@! TF.FileFunction,Legend,Bot*
G04 #@! TF.FilePolarity,Positive*
%FSLAX46Y46*%
G04 Gerber Fmt 4.6, Leading zero omitted, Abs format (unit mm)*
G04 Created by KiCad (PCBNEW 6.0.5-a6ca702e91~116~ubuntu20.04.1) date 2024-03-03 00:05:47*
%MOMM*%
%LPD*%
G01*
G04 APERTURE LIST*
%ADD10C,0.127000*%
%ADD11C,0.508000*%
%ADD12O,1.016000X1.524000*%
%ADD13O,2.540000X1.524000*%
%ADD14C,3.175000*%
%ADD15O,1.778000X2.159000*%
%ADD16O,1.778000X2.209800*%
%ADD17O,1.778000X2.286000*%
%ADD18O,2.540000X3.048000*%
G04 APERTURE END LIST*
D10*
X2465311Y25366739D02*
X2676978Y25669120D01*
X2828169Y25366739D02*
X2828169Y26001739D01*
X2586264Y26001739D01*
X2525788Y25971500D01*
X2495550Y25941262D01*
X2465311Y25880786D01*
X2465311Y25790072D01*
X2495550Y25729596D01*
X2525788Y25699358D01*
X2586264Y25669120D01*
X2828169Y25669120D01*
X2223407Y25396977D02*
X2132692Y25366739D01*
X1981502Y25366739D01*
X1921026Y25396977D01*
X1890788Y25427215D01*
X1860550Y25487691D01*
X1860550Y25548167D01*
X1890788Y25608643D01*
X1921026Y25638881D01*
X1981502Y25669120D01*
X2102454Y25699358D01*
X2162930Y25729596D01*
X2193169Y25759834D01*
X2223407Y25820310D01*
X2223407Y25880786D01*
X2193169Y25941262D01*
X2162930Y25971500D01*
X2102454Y26001739D01*
X1951264Y26001739D01*
X1860550Y25971500D01*
X1679121Y26001739D02*
X1316264Y26001739D01*
X1497692Y25366739D02*
X1497692Y26001739D01*
X983645Y26001739D02*
X862692Y26001739D01*
X802216Y25971500D01*
X741740Y25911024D01*
X711502Y25790072D01*
X711502Y25578405D01*
X741740Y25457453D01*
X802216Y25396977D01*
X862692Y25366739D01*
X983645Y25366739D01*
X1044121Y25396977D01*
X1104597Y25457453D01*
X1134835Y25578405D01*
X1134835Y25790072D01*
X1104597Y25911024D01*
X1044121Y25971500D01*
X983645Y26001739D01*
X2102454Y22826739D02*
X2102454Y23461739D01*
X1890788Y23008167D01*
X1679121Y23461739D01*
X1679121Y22826739D01*
X1013883Y22826739D02*
X1225550Y23129120D01*
X1376740Y22826739D02*
X1376740Y23461739D01*
X1134835Y23461739D01*
X1074359Y23431500D01*
X1044121Y23401262D01*
X1013883Y23340786D01*
X1013883Y23250072D01*
X1044121Y23189596D01*
X1074359Y23159358D01*
X1134835Y23129120D01*
X1376740Y23129120D01*
X741740Y22826739D02*
X741740Y23461739D01*
X28389640Y20891500D02*
X28450116Y20921739D01*
X28540830Y20921739D01*
X28631545Y20891500D01*
X28692021Y20831024D01*
X28722259Y20770548D01*
X28752497Y20649596D01*
X28752497Y20558881D01*
X28722259Y20437929D01*
X28692021Y20377453D01*
X28631545Y20316977D01*
X28540830Y20286739D01*
X28480354Y20286739D01*
X28389640Y20316977D01*
X28359402Y20347215D01*
X28359402Y20558881D01*
X28480354Y20558881D01*
X28087259Y20286739D02*
X28087259Y20921739D01*
X27724402Y20286739D01*
X27724402Y20921739D01*
X27422021Y20286739D02*
X27422021Y20921739D01*
X27270830Y20921739D01*
X27180116Y20891500D01*
X27119640Y20831024D01*
X27089402Y20770548D01*
X27059164Y20649596D01*
X27059164Y20558881D01*
X27089402Y20437929D01*
X27119640Y20377453D01*
X27180116Y20316977D01*
X27270830Y20286739D01*
X27422021Y20286739D01*
X2041978Y20891500D02*
X2102454Y20921739D01*
X2193169Y20921739D01*
X2283883Y20891500D01*
X2344359Y20831024D01*
X2374597Y20770548D01*
X2404835Y20649596D01*
X2404835Y20558881D01*
X2374597Y20437929D01*
X2344359Y20377453D01*
X2283883Y20316977D01*
X2193169Y20286739D01*
X2132692Y20286739D01*
X2041978Y20316977D01*
X2011740Y20347215D01*
X2011740Y20558881D01*
X2132692Y20558881D01*
X1739597Y20286739D02*
X1739597Y20921739D01*
X1376740Y20286739D01*
X1376740Y20921739D01*
X1074359Y20286739D02*
X1074359Y20921739D01*
X923169Y20921739D01*
X832454Y20891500D01*
X771978Y20831024D01*
X741740Y20770548D01*
X711502Y20649596D01*
X711502Y20558881D01*
X741740Y20437929D01*
X771978Y20377453D01*
X832454Y20316977D01*
X923169Y20286739D01*
X1074359Y20286739D01*
X28359402Y27906739D02*
X28571069Y28209120D01*
X28722259Y27906739D02*
X28722259Y28541739D01*
X28480354Y28541739D01*
X28419878Y28511500D01*
X28389640Y28481262D01*
X28359402Y28420786D01*
X28359402Y28330072D01*
X28389640Y28269596D01*
X28419878Y28239358D01*
X28480354Y28209120D01*
X28722259Y28209120D01*
X28147735Y28541739D02*
X27724402Y27906739D01*
X27724402Y28541739D02*
X28147735Y27906739D01*
X27482497Y27906739D02*
X27482497Y28541739D01*
X27331307Y28541739D01*
X27240592Y28511500D01*
X27180116Y28451024D01*
X27149878Y28390548D01*
X27119640Y28269596D01*
X27119640Y28178881D01*
X27149878Y28057929D01*
X27180116Y27997453D01*
X27240592Y27936977D01*
X27331307Y27906739D01*
X27482497Y27906739D01*
X26726545Y28541739D02*
X26666069Y28541739D01*
X26605592Y28511500D01*
X26575354Y28481262D01*
X26545116Y28420786D01*
X26514878Y28299834D01*
X26514878Y28148643D01*
X26545116Y28027691D01*
X26575354Y27967215D01*
X26605592Y27936977D01*
X26666069Y27906739D01*
X26726545Y27906739D01*
X26787021Y27936977D01*
X26817259Y27967215D01*
X26847497Y28027691D01*
X26877735Y28148643D01*
X26877735Y28299834D01*
X26847497Y28420786D01*
X26817259Y28481262D01*
X26787021Y28511500D01*
X26726545Y28541739D01*
X2616502Y32986739D02*
X2616502Y33621739D01*
X2193169Y33621739D02*
X2072216Y33621739D01*
X2011740Y33591500D01*
X1951264Y33531024D01*
X1921026Y33410072D01*
X1921026Y33198405D01*
X1951264Y33077453D01*
X2011740Y33016977D01*
X2072216Y32986739D01*
X2193169Y32986739D01*
X2253645Y33016977D01*
X2314121Y33077453D01*
X2344359Y33198405D01*
X2344359Y33410072D01*
X2314121Y33531024D01*
X2253645Y33591500D01*
X2193169Y33621739D01*
X1316264Y32986739D02*
X1679121Y32986739D01*
X1497692Y32986739D02*
X1497692Y33621739D01*
X1558169Y33531024D01*
X1618645Y33470548D01*
X1679121Y33440310D01*
X771978Y33621739D02*
X892930Y33621739D01*
X953407Y33591500D01*
X983645Y33561262D01*
X1044121Y33470548D01*
X1074359Y33349596D01*
X1074359Y33107691D01*
X1044121Y33047215D01*
X1013883Y33016977D01*
X953407Y32986739D01*
X832454Y32986739D01*
X771978Y33016977D01*
X741740Y33047215D01*
X711502Y33107691D01*
X711502Y33258881D01*
X741740Y33319358D01*
X771978Y33349596D01*
X832454Y33379834D01*
X953407Y33379834D01*
X1013883Y33349596D01*
X1044121Y33319358D01*
X1074359Y33258881D01*
X28722259Y35526739D02*
X28722259Y36161739D01*
X28298926Y36161739D02*
X28177973Y36161739D01*
X28117497Y36131500D01*
X28057021Y36071024D01*
X28026783Y35950072D01*
X28026783Y35738405D01*
X28057021Y35617453D01*
X28117497Y35556977D01*
X28177973Y35526739D01*
X28298926Y35526739D01*
X28359402Y35556977D01*
X28419878Y35617453D01*
X28450116Y35738405D01*
X28450116Y35950072D01*
X28419878Y36071024D01*
X28359402Y36131500D01*
X28298926Y36161739D01*
X27815116Y36161739D02*
X27422021Y36161739D01*
X27633688Y35919834D01*
X27542973Y35919834D01*
X27482497Y35889596D01*
X27452259Y35859358D01*
X27422021Y35798881D01*
X27422021Y35647691D01*
X27452259Y35587215D01*
X27482497Y35556977D01*
X27542973Y35526739D01*
X27724402Y35526739D01*
X27784878Y35556977D01*
X27815116Y35587215D01*
X26847497Y36161739D02*
X27149878Y36161739D01*
X27180116Y35859358D01*
X27149878Y35889596D01*
X27089402Y35919834D01*
X26938211Y35919834D01*
X26877735Y35889596D01*
X26847497Y35859358D01*
X26817259Y35798881D01*
X26817259Y35647691D01*
X26847497Y35587215D01*
X26877735Y35556977D01*
X26938211Y35526739D01*
X27089402Y35526739D01*
X27149878Y35556977D01*
X27180116Y35587215D01*
X28782735Y26001739D02*
X28389640Y26001739D01*
X28601307Y25759834D01*
X28510592Y25759834D01*
X28450116Y25729596D01*
X28419878Y25699358D01*
X28389640Y25638881D01*
X28389640Y25487691D01*
X28419878Y25427215D01*
X28450116Y25396977D01*
X28510592Y25366739D01*
X28692021Y25366739D01*
X28752497Y25396977D01*
X28782735Y25427215D01*
X28117497Y25427215D02*
X28087259Y25396977D01*
X28117497Y25366739D01*
X28147735Y25396977D01*
X28117497Y25427215D01*
X28117497Y25366739D01*
X27875592Y26001739D02*
X27482497Y26001739D01*
X27694164Y25759834D01*
X27603450Y25759834D01*
X27542973Y25729596D01*
X27512735Y25699358D01*
X27482497Y25638881D01*
X27482497Y25487691D01*
X27512735Y25427215D01*
X27542973Y25396977D01*
X27603450Y25366739D01*
X27784878Y25366739D01*
X27845354Y25396977D01*
X27875592Y25427215D01*
X27301069Y26001739D02*
X27089402Y25366739D01*
X26877735Y26001739D01*
X2616502Y38066739D02*
X2616502Y38701739D01*
X2193169Y38701739D02*
X2072216Y38701739D01*
X2011740Y38671500D01*
X1951264Y38611024D01*
X1921026Y38490072D01*
X1921026Y38278405D01*
X1951264Y38157453D01*
X2011740Y38096977D01*
X2072216Y38066739D01*
X2193169Y38066739D01*
X2253645Y38096977D01*
X2314121Y38157453D01*
X2344359Y38278405D01*
X2344359Y38490072D01*
X2314121Y38611024D01*
X2253645Y38671500D01*
X2193169Y38701739D01*
X1316264Y38066739D02*
X1679121Y38066739D01*
X1497692Y38066739D02*
X1497692Y38701739D01*
X1558169Y38611024D01*
X1618645Y38550548D01*
X1679121Y38520310D01*
X741740Y38701739D02*
X1044121Y38701739D01*
X1074359Y38399358D01*
X1044121Y38429596D01*
X983645Y38459834D01*
X832454Y38459834D01*
X771978Y38429596D01*
X741740Y38399358D01*
X711502Y38338881D01*
X711502Y38187691D01*
X741740Y38127215D01*
X771978Y38096977D01*
X832454Y38066739D01*
X983645Y38066739D01*
X1044121Y38096977D01*
X1074359Y38127215D01*
X2616502Y43146739D02*
X2616502Y43781739D01*
X2193169Y43781739D02*
X2072216Y43781739D01*
X2011740Y43751500D01*
X1951264Y43691024D01*
X1921026Y43570072D01*
X1921026Y43358405D01*
X1951264Y43237453D01*
X2011740Y43176977D01*
X2072216Y43146739D01*
X2193169Y43146739D01*
X2253645Y43176977D01*
X2314121Y43237453D01*
X2344359Y43358405D01*
X2344359Y43570072D01*
X2314121Y43691024D01*
X2253645Y43751500D01*
X2193169Y43781739D01*
X1316264Y43146739D02*
X1679121Y43146739D01*
X1497692Y43146739D02*
X1497692Y43781739D01*
X1558169Y43691024D01*
X1618645Y43630548D01*
X1679121Y43600310D01*
X1074359Y43721262D02*
X1044121Y43751500D01*
X983645Y43781739D01*
X832454Y43781739D01*
X771978Y43751500D01*
X741740Y43721262D01*
X711502Y43660786D01*
X711502Y43600310D01*
X741740Y43509596D01*
X1104597Y43146739D01*
X711502Y43146739D01*
X2616502Y40606739D02*
X2616502Y41241739D01*
X2193169Y41241739D02*
X2072216Y41241739D01*
X2011740Y41211500D01*
X1951264Y41151024D01*
X1921026Y41030072D01*
X1921026Y40818405D01*
X1951264Y40697453D01*
X2011740Y40636977D01*
X2072216Y40606739D01*
X2193169Y40606739D01*
X2253645Y40636977D01*
X2314121Y40697453D01*
X2344359Y40818405D01*
X2344359Y41030072D01*
X2314121Y41151024D01*
X2253645Y41211500D01*
X2193169Y41241739D01*
X1316264Y40606739D02*
X1679121Y40606739D01*
X1497692Y40606739D02*
X1497692Y41241739D01*
X1558169Y41151024D01*
X1618645Y41090548D01*
X1679121Y41060310D01*
X1104597Y41241739D02*
X711502Y41241739D01*
X923169Y40999834D01*
X832454Y40999834D01*
X771978Y40969596D01*
X741740Y40939358D01*
X711502Y40878881D01*
X711502Y40727691D01*
X741740Y40667215D01*
X771978Y40636977D01*
X832454Y40606739D01*
X1013883Y40606739D01*
X1074359Y40636977D01*
X1104597Y40667215D01*
X28722259Y38066739D02*
X28722259Y38701739D01*
X28298926Y38701739D02*
X28177973Y38701739D01*
X28117497Y38671500D01*
X28057021Y38611024D01*
X28026783Y38490072D01*
X28026783Y38278405D01*
X28057021Y38157453D01*
X28117497Y38096977D01*
X28177973Y38066739D01*
X28298926Y38066739D01*
X28359402Y38096977D01*
X28419878Y38157453D01*
X28450116Y38278405D01*
X28450116Y38490072D01*
X28419878Y38611024D01*
X28359402Y38671500D01*
X28298926Y38701739D01*
X27815116Y38701739D02*
X27422021Y38701739D01*
X27633688Y38459834D01*
X27542973Y38459834D01*
X27482497Y38429596D01*
X27452259Y38399358D01*
X27422021Y38338881D01*
X27422021Y38187691D01*
X27452259Y38127215D01*
X27482497Y38096977D01*
X27542973Y38066739D01*
X27724402Y38066739D01*
X27784878Y38096977D01*
X27815116Y38127215D01*
X26877735Y38701739D02*
X26998688Y38701739D01*
X27059164Y38671500D01*
X27089402Y38641262D01*
X27149878Y38550548D01*
X27180116Y38429596D01*
X27180116Y38187691D01*
X27149878Y38127215D01*
X27119640Y38096977D01*
X27059164Y38066739D01*
X26938211Y38066739D01*
X26877735Y38096977D01*
X26847497Y38127215D01*
X26817259Y38187691D01*
X26817259Y38338881D01*
X26847497Y38399358D01*
X26877735Y38429596D01*
X26938211Y38459834D01*
X27059164Y38459834D01*
X27119640Y38429596D01*
X27149878Y38399358D01*
X27180116Y38338881D01*
X28812973Y31081739D02*
X28450116Y31081739D01*
X28631545Y30446739D02*
X28631545Y31081739D01*
X28298926Y31081739D02*
X27875592Y30446739D01*
X27875592Y31081739D02*
X28298926Y30446739D01*
X27633688Y30446739D02*
X27633688Y31081739D01*
X27482497Y31081739D01*
X27391783Y31051500D01*
X27331307Y30991024D01*
X27301069Y30930548D01*
X27270830Y30809596D01*
X27270830Y30718881D01*
X27301069Y30597929D01*
X27331307Y30537453D01*
X27391783Y30476977D01*
X27482497Y30446739D01*
X27633688Y30446739D01*
X26877735Y31081739D02*
X26817259Y31081739D01*
X26756783Y31051500D01*
X26726545Y31021262D01*
X26696307Y30960786D01*
X26666069Y30839834D01*
X26666069Y30688643D01*
X26696307Y30567691D01*
X26726545Y30507215D01*
X26756783Y30476977D01*
X26817259Y30446739D01*
X26877735Y30446739D01*
X26938211Y30476977D01*
X26968450Y30507215D01*
X26998688Y30567691D01*
X27028926Y30688643D01*
X27028926Y30839834D01*
X26998688Y30960786D01*
X26968450Y31021262D01*
X26938211Y31051500D01*
X26877735Y31081739D01*
X28389640Y48831500D02*
X28450116Y48861739D01*
X28540830Y48861739D01*
X28631545Y48831500D01*
X28692021Y48771024D01*
X28722259Y48710548D01*
X28752497Y48589596D01*
X28752497Y48498881D01*
X28722259Y48377929D01*
X28692021Y48317453D01*
X28631545Y48256977D01*
X28540830Y48226739D01*
X28480354Y48226739D01*
X28389640Y48256977D01*
X28359402Y48287215D01*
X28359402Y48498881D01*
X28480354Y48498881D01*
X28087259Y48226739D02*
X28087259Y48861739D01*
X27724402Y48226739D01*
X27724402Y48861739D01*
X27422021Y48226739D02*
X27422021Y48861739D01*
X27270830Y48861739D01*
X27180116Y48831500D01*
X27119640Y48771024D01*
X27089402Y48710548D01*
X27059164Y48589596D01*
X27059164Y48498881D01*
X27089402Y48377929D01*
X27119640Y48317453D01*
X27180116Y48256977D01*
X27270830Y48226739D01*
X27422021Y48226739D01*
X28419878Y23461739D02*
X28722259Y23461739D01*
X28752497Y23159358D01*
X28722259Y23189596D01*
X28661783Y23219834D01*
X28510592Y23219834D01*
X28450116Y23189596D01*
X28419878Y23159358D01*
X28389640Y23098881D01*
X28389640Y22947691D01*
X28419878Y22887215D01*
X28450116Y22856977D01*
X28510592Y22826739D01*
X28661783Y22826739D01*
X28722259Y22856977D01*
X28752497Y22887215D01*
X28208211Y23461739D02*
X27996545Y22826739D01*
X27784878Y23461739D01*
X28722259Y40606739D02*
X28722259Y41241739D01*
X28298926Y41241739D02*
X28177973Y41241739D01*
X28117497Y41211500D01*
X28057021Y41151024D01*
X28026783Y41030072D01*
X28026783Y40818405D01*
X28057021Y40697453D01*
X28117497Y40636977D01*
X28177973Y40606739D01*
X28298926Y40606739D01*
X28359402Y40636977D01*
X28419878Y40697453D01*
X28450116Y40818405D01*
X28450116Y41030072D01*
X28419878Y41151024D01*
X28359402Y41211500D01*
X28298926Y41241739D01*
X27815116Y41241739D02*
X27422021Y41241739D01*
X27633688Y40999834D01*
X27542973Y40999834D01*
X27482497Y40969596D01*
X27452259Y40939358D01*
X27422021Y40878881D01*
X27422021Y40727691D01*
X27452259Y40667215D01*
X27482497Y40636977D01*
X27542973Y40606739D01*
X27724402Y40606739D01*
X27784878Y40636977D01*
X27815116Y40667215D01*
X27210354Y41241739D02*
X26787021Y41241739D01*
X27059164Y40606739D01*
X28722259Y45686739D02*
X28722259Y46321739D01*
X28298926Y46321739D02*
X28177973Y46321739D01*
X28117497Y46291500D01*
X28057021Y46231024D01*
X28026783Y46110072D01*
X28026783Y45898405D01*
X28057021Y45777453D01*
X28117497Y45716977D01*
X28177973Y45686739D01*
X28298926Y45686739D01*
X28359402Y45716977D01*
X28419878Y45777453D01*
X28450116Y45898405D01*
X28450116Y46110072D01*
X28419878Y46231024D01*
X28359402Y46291500D01*
X28298926Y46321739D01*
X27815116Y46321739D02*
X27422021Y46321739D01*
X27633688Y46079834D01*
X27542973Y46079834D01*
X27482497Y46049596D01*
X27452259Y46019358D01*
X27422021Y45958881D01*
X27422021Y45807691D01*
X27452259Y45747215D01*
X27482497Y45716977D01*
X27542973Y45686739D01*
X27724402Y45686739D01*
X27784878Y45716977D01*
X27815116Y45747215D01*
X27119640Y45686739D02*
X26998688Y45686739D01*
X26938211Y45716977D01*
X26907973Y45747215D01*
X26847497Y45837929D01*
X26817259Y45958881D01*
X26817259Y46200786D01*
X26847497Y46261262D01*
X26877735Y46291500D01*
X26938211Y46321739D01*
X27059164Y46321739D01*
X27119640Y46291500D01*
X27149878Y46261262D01*
X27180116Y46200786D01*
X27180116Y46049596D01*
X27149878Y45989120D01*
X27119640Y45958881D01*
X27059164Y45928643D01*
X26938211Y45928643D01*
X26877735Y45958881D01*
X26847497Y45989120D01*
X26817259Y46049596D01*
X2011740Y27906739D02*
X2011740Y28541739D01*
X1588407Y28541739D02*
X1467454Y28541739D01*
X1406978Y28511500D01*
X1346502Y28451024D01*
X1316264Y28330072D01*
X1316264Y28118405D01*
X1346502Y27997453D01*
X1406978Y27936977D01*
X1467454Y27906739D01*
X1588407Y27906739D01*
X1648883Y27936977D01*
X1709359Y27997453D01*
X1739597Y28118405D01*
X1739597Y28330072D01*
X1709359Y28451024D01*
X1648883Y28511500D01*
X1588407Y28541739D01*
X741740Y28541739D02*
X1044121Y28541739D01*
X1074359Y28239358D01*
X1044121Y28269596D01*
X983645Y28299834D01*
X832454Y28299834D01*
X771978Y28269596D01*
X741740Y28239358D01*
X711502Y28178881D01*
X711502Y28027691D01*
X741740Y27967215D01*
X771978Y27936977D01*
X832454Y27906739D01*
X983645Y27906739D01*
X1044121Y27936977D01*
X1074359Y27967215D01*
X28722259Y43146739D02*
X28722259Y43781739D01*
X28298926Y43781739D02*
X28177973Y43781739D01*
X28117497Y43751500D01*
X28057021Y43691024D01*
X28026783Y43570072D01*
X28026783Y43358405D01*
X28057021Y43237453D01*
X28117497Y43176977D01*
X28177973Y43146739D01*
X28298926Y43146739D01*
X28359402Y43176977D01*
X28419878Y43237453D01*
X28450116Y43358405D01*
X28450116Y43570072D01*
X28419878Y43691024D01*
X28359402Y43751500D01*
X28298926Y43781739D01*
X27815116Y43781739D02*
X27422021Y43781739D01*
X27633688Y43539834D01*
X27542973Y43539834D01*
X27482497Y43509596D01*
X27452259Y43479358D01*
X27422021Y43418881D01*
X27422021Y43267691D01*
X27452259Y43207215D01*
X27482497Y43176977D01*
X27542973Y43146739D01*
X27724402Y43146739D01*
X27784878Y43176977D01*
X27815116Y43207215D01*
X27059164Y43509596D02*
X27119640Y43539834D01*
X27149878Y43570072D01*
X27180116Y43630548D01*
X27180116Y43660786D01*
X27149878Y43721262D01*
X27119640Y43751500D01*
X27059164Y43781739D01*
X26938211Y43781739D01*
X26877735Y43751500D01*
X26847497Y43721262D01*
X26817259Y43660786D01*
X26817259Y43630548D01*
X26847497Y43570072D01*
X26877735Y43539834D01*
X26938211Y43509596D01*
X27059164Y43509596D01*
X27119640Y43479358D01*
X27149878Y43449120D01*
X27180116Y43388643D01*
X27180116Y43267691D01*
X27149878Y43207215D01*
X27119640Y43176977D01*
X27059164Y43146739D01*
X26938211Y43146739D01*
X26877735Y43176977D01*
X26847497Y43207215D01*
X26817259Y43267691D01*
X26817259Y43388643D01*
X26847497Y43449120D01*
X26877735Y43479358D01*
X26938211Y43509596D01*
X2616502Y45686739D02*
X2616502Y46321739D01*
X2193169Y46321739D02*
X2072216Y46321739D01*
X2011740Y46291500D01*
X1951264Y46231024D01*
X1921026Y46110072D01*
X1921026Y45898405D01*
X1951264Y45777453D01*
X2011740Y45716977D01*
X2072216Y45686739D01*
X2193169Y45686739D01*
X2253645Y45716977D01*
X2314121Y45777453D01*
X2344359Y45898405D01*
X2344359Y46110072D01*
X2314121Y46231024D01*
X2253645Y46291500D01*
X2193169Y46321739D01*
X1316264Y45686739D02*
X1679121Y45686739D01*
X1497692Y45686739D02*
X1497692Y46321739D01*
X1558169Y46231024D01*
X1618645Y46170548D01*
X1679121Y46140310D01*
X771978Y46110072D02*
X771978Y45686739D01*
X923169Y46351977D02*
X1074359Y45898405D01*
X681264Y45898405D01*
X28722259Y32986739D02*
X28722259Y33621739D01*
X28298926Y33621739D02*
X28177973Y33621739D01*
X28117497Y33591500D01*
X28057021Y33531024D01*
X28026783Y33410072D01*
X28026783Y33198405D01*
X28057021Y33077453D01*
X28117497Y33016977D01*
X28177973Y32986739D01*
X28298926Y32986739D01*
X28359402Y33016977D01*
X28419878Y33077453D01*
X28450116Y33198405D01*
X28450116Y33410072D01*
X28419878Y33531024D01*
X28359402Y33591500D01*
X28298926Y33621739D01*
X27815116Y33621739D02*
X27422021Y33621739D01*
X27633688Y33379834D01*
X27542973Y33379834D01*
X27482497Y33349596D01*
X27452259Y33319358D01*
X27422021Y33258881D01*
X27422021Y33107691D01*
X27452259Y33047215D01*
X27482497Y33016977D01*
X27542973Y32986739D01*
X27724402Y32986739D01*
X27784878Y33016977D01*
X27815116Y33047215D01*
X26877735Y33410072D02*
X26877735Y32986739D01*
X27028926Y33651977D02*
X27180116Y33198405D01*
X26787021Y33198405D01*
X2011740Y35526739D02*
X2011740Y36161739D01*
X1588407Y36161739D02*
X1467454Y36161739D01*
X1406978Y36131500D01*
X1346502Y36071024D01*
X1316264Y35950072D01*
X1316264Y35738405D01*
X1346502Y35617453D01*
X1406978Y35556977D01*
X1467454Y35526739D01*
X1588407Y35526739D01*
X1648883Y35556977D01*
X1709359Y35617453D01*
X1739597Y35738405D01*
X1739597Y35950072D01*
X1709359Y36071024D01*
X1648883Y36131500D01*
X1588407Y36161739D01*
X1074359Y36101262D02*
X1044121Y36131500D01*
X983645Y36161739D01*
X832454Y36161739D01*
X771978Y36131500D01*
X741740Y36101262D01*
X711502Y36040786D01*
X711502Y35980310D01*
X741740Y35889596D01*
X1104597Y35526739D01*
X711502Y35526739D01*
X2041978Y48831500D02*
X2102454Y48861739D01*
X2193169Y48861739D01*
X2283883Y48831500D01*
X2344359Y48771024D01*
X2374597Y48710548D01*
X2404835Y48589596D01*
X2404835Y48498881D01*
X2374597Y48377929D01*
X2344359Y48317453D01*
X2283883Y48256977D01*
X2193169Y48226739D01*
X2132692Y48226739D01*
X2041978Y48256977D01*
X2011740Y48287215D01*
X2011740Y48498881D01*
X2132692Y48498881D01*
X1739597Y48226739D02*
X1739597Y48861739D01*
X1376740Y48226739D01*
X1376740Y48861739D01*
X1074359Y48226739D02*
X1074359Y48861739D01*
X923169Y48861739D01*
X832454Y48831500D01*
X771978Y48771024D01*
X741740Y48710548D01*
X711502Y48589596D01*
X711502Y48498881D01*
X741740Y48377929D01*
X771978Y48317453D01*
X832454Y48256977D01*
X923169Y48226739D01*
X1074359Y48226739D01*
X2616502Y30446739D02*
X2616502Y31081739D01*
X2193169Y31081739D02*
X2072216Y31081739D01*
X2011740Y31051500D01*
X1951264Y30991024D01*
X1921026Y30870072D01*
X1921026Y30658405D01*
X1951264Y30537453D01*
X2011740Y30476977D01*
X2072216Y30446739D01*
X2193169Y30446739D01*
X2253645Y30476977D01*
X2314121Y30537453D01*
X2344359Y30658405D01*
X2344359Y30870072D01*
X2314121Y30991024D01*
X2253645Y31051500D01*
X2193169Y31081739D01*
X1316264Y30446739D02*
X1679121Y30446739D01*
X1497692Y30446739D02*
X1497692Y31081739D01*
X1558169Y30991024D01*
X1618645Y30930548D01*
X1679121Y30900310D01*
X1104597Y31081739D02*
X681264Y31081739D01*
X953407Y30446739D01*
G04 #@! TO.C,C22*
X11457214Y52478215D02*
X11487452Y52447977D01*
X11578166Y52417739D01*
X11638642Y52417739D01*
X11729357Y52447977D01*
X11789833Y52508453D01*
X11820071Y52568929D01*
X11850309Y52689881D01*
X11850309Y52780596D01*
X11820071Y52901548D01*
X11789833Y52962024D01*
X11729357Y53022500D01*
X11638642Y53052739D01*
X11578166Y53052739D01*
X11487452Y53022500D01*
X11457214Y52992262D01*
X11215309Y52992262D02*
X11185071Y53022500D01*
X11124595Y53052739D01*
X10973404Y53052739D01*
X10912928Y53022500D01*
X10882690Y52992262D01*
X10852452Y52931786D01*
X10852452Y52871310D01*
X10882690Y52780596D01*
X11245547Y52417739D01*
X10852452Y52417739D01*
X10610547Y52992262D02*
X10580309Y53022500D01*
X10519833Y53052739D01*
X10368642Y53052739D01*
X10308166Y53022500D01*
X10277928Y52992262D01*
X10247690Y52931786D01*
X10247690Y52871310D01*
X10277928Y52780596D01*
X10640785Y52417739D01*
X10247690Y52417739D01*
G04 #@! TO.C,L81*
X18950214Y16603739D02*
X19252595Y16603739D01*
X19252595Y17238739D01*
X18647833Y16966596D02*
X18708309Y16996834D01*
X18738547Y17027072D01*
X18768785Y17087548D01*
X18768785Y17117786D01*
X18738547Y17178262D01*
X18708309Y17208500D01*
X18647833Y17238739D01*
X18526880Y17238739D01*
X18466404Y17208500D01*
X18436166Y17178262D01*
X18405928Y17117786D01*
X18405928Y17087548D01*
X18436166Y17027072D01*
X18466404Y16996834D01*
X18526880Y16966596D01*
X18647833Y16966596D01*
X18708309Y16936358D01*
X18738547Y16906120D01*
X18768785Y16845643D01*
X18768785Y16724691D01*
X18738547Y16664215D01*
X18708309Y16633977D01*
X18647833Y16603739D01*
X18526880Y16603739D01*
X18466404Y16633977D01*
X18436166Y16664215D01*
X18405928Y16724691D01*
X18405928Y16845643D01*
X18436166Y16906120D01*
X18466404Y16936358D01*
X18526880Y16966596D01*
X17801166Y16603739D02*
X18164023Y16603739D01*
X17982595Y16603739D02*
X17982595Y17238739D01*
X18043071Y17148024D01*
X18103547Y17087548D01*
X18164023Y17057310D01*
G04 #@! TO.C,L2*
X9630833Y42003739D02*
X9933214Y42003739D01*
X9933214Y42638739D01*
X9449404Y42578262D02*
X9419166Y42608500D01*
X9358690Y42638739D01*
X9207500Y42638739D01*
X9147023Y42608500D01*
X9116785Y42578262D01*
X9086547Y42517786D01*
X9086547Y42457310D01*
X9116785Y42366596D01*
X9479642Y42003739D01*
X9086547Y42003739D01*
G04 #@! TO.C,C87*
X20855214Y14378215D02*
X20885452Y14347977D01*
X20976166Y14317739D01*
X21036642Y14317739D01*
X21127357Y14347977D01*
X21187833Y14408453D01*
X21218071Y14468929D01*
X21248309Y14589881D01*
X21248309Y14680596D01*
X21218071Y14801548D01*
X21187833Y14862024D01*
X21127357Y14922500D01*
X21036642Y14952739D01*
X20976166Y14952739D01*
X20885452Y14922500D01*
X20855214Y14892262D01*
X20492357Y14680596D02*
X20552833Y14710834D01*
X20583071Y14741072D01*
X20613309Y14801548D01*
X20613309Y14831786D01*
X20583071Y14892262D01*
X20552833Y14922500D01*
X20492357Y14952739D01*
X20371404Y14952739D01*
X20310928Y14922500D01*
X20280690Y14892262D01*
X20250452Y14831786D01*
X20250452Y14801548D01*
X20280690Y14741072D01*
X20310928Y14710834D01*
X20371404Y14680596D01*
X20492357Y14680596D01*
X20552833Y14650358D01*
X20583071Y14620120D01*
X20613309Y14559643D01*
X20613309Y14438691D01*
X20583071Y14378215D01*
X20552833Y14347977D01*
X20492357Y14317739D01*
X20371404Y14317739D01*
X20310928Y14347977D01*
X20280690Y14378215D01*
X20250452Y14438691D01*
X20250452Y14559643D01*
X20280690Y14620120D01*
X20310928Y14650358D01*
X20371404Y14680596D01*
X20038785Y14952739D02*
X19615452Y14952739D01*
X19887595Y14317739D01*
G04 #@! TO.C,U81*
X25805190Y14444739D02*
X25805190Y13930691D01*
X25774952Y13870215D01*
X25744714Y13839977D01*
X25684238Y13809739D01*
X25563285Y13809739D01*
X25502809Y13839977D01*
X25472571Y13870215D01*
X25442333Y13930691D01*
X25442333Y14444739D01*
X25049238Y14172596D02*
X25109714Y14202834D01*
X25139952Y14233072D01*
X25170190Y14293548D01*
X25170190Y14323786D01*
X25139952Y14384262D01*
X25109714Y14414500D01*
X25049238Y14444739D01*
X24928285Y14444739D01*
X24867809Y14414500D01*
X24837571Y14384262D01*
X24807333Y14323786D01*
X24807333Y14293548D01*
X24837571Y14233072D01*
X24867809Y14202834D01*
X24928285Y14172596D01*
X25049238Y14172596D01*
X25109714Y14142358D01*
X25139952Y14112120D01*
X25170190Y14051643D01*
X25170190Y13930691D01*
X25139952Y13870215D01*
X25109714Y13839977D01*
X25049238Y13809739D01*
X24928285Y13809739D01*
X24867809Y13839977D01*
X24837571Y13870215D01*
X24807333Y13930691D01*
X24807333Y14051643D01*
X24837571Y14112120D01*
X24867809Y14142358D01*
X24928285Y14172596D01*
X24202571Y13809739D02*
X24565428Y13809739D01*
X24384000Y13809739D02*
X24384000Y14444739D01*
X24444476Y14354024D01*
X24504952Y14293548D01*
X24565428Y14263310D01*
G04 #@! TO.C,C7*
X21689785Y51667834D02*
X21720023Y51698072D01*
X21750261Y51788786D01*
X21750261Y51849262D01*
X21720023Y51939977D01*
X21659547Y52000453D01*
X21599071Y52030691D01*
X21478119Y52060929D01*
X21387404Y52060929D01*
X21266452Y52030691D01*
X21205976Y52000453D01*
X21145500Y51939977D01*
X21115261Y51849262D01*
X21115261Y51788786D01*
X21145500Y51698072D01*
X21175738Y51667834D01*
X21115261Y51456167D02*
X21115261Y51032834D01*
X21750261Y51304977D01*
G04 #@! TO.C,R72*
X8796261Y32412215D02*
X8493880Y32623881D01*
X8796261Y32775072D02*
X8161261Y32775072D01*
X8161261Y32533167D01*
X8191500Y32472691D01*
X8221738Y32442453D01*
X8282214Y32412215D01*
X8372928Y32412215D01*
X8433404Y32442453D01*
X8463642Y32472691D01*
X8493880Y32533167D01*
X8493880Y32775072D01*
X8161261Y32200548D02*
X8161261Y31777215D01*
X8796261Y32049358D01*
X8221738Y31565548D02*
X8191500Y31535310D01*
X8161261Y31474834D01*
X8161261Y31323643D01*
X8191500Y31263167D01*
X8221738Y31232929D01*
X8282214Y31202691D01*
X8342690Y31202691D01*
X8433404Y31232929D01*
X8796261Y31595786D01*
X8796261Y31202691D01*
G04 #@! TO.C,C24*
X8735785Y39270215D02*
X8766023Y39300453D01*
X8796261Y39391167D01*
X8796261Y39451643D01*
X8766023Y39542358D01*
X8705547Y39602834D01*
X8645071Y39633072D01*
X8524119Y39663310D01*
X8433404Y39663310D01*
X8312452Y39633072D01*
X8251976Y39602834D01*
X8191500Y39542358D01*
X8161261Y39451643D01*
X8161261Y39391167D01*
X8191500Y39300453D01*
X8221738Y39270215D01*
X8221738Y39028310D02*
X8191500Y38998072D01*
X8161261Y38937596D01*
X8161261Y38786405D01*
X8191500Y38725929D01*
X8221738Y38695691D01*
X8282214Y38665453D01*
X8342690Y38665453D01*
X8433404Y38695691D01*
X8796261Y39058548D01*
X8796261Y38665453D01*
X8372928Y38121167D02*
X8796261Y38121167D01*
X8131023Y38272358D02*
X8584595Y38423548D01*
X8584595Y38030453D01*
G04 #@! TO.C,U41*
X23011190Y27779739D02*
X23011190Y27265691D01*
X22980952Y27205215D01*
X22950714Y27174977D01*
X22890238Y27144739D01*
X22769285Y27144739D01*
X22708809Y27174977D01*
X22678571Y27205215D01*
X22648333Y27265691D01*
X22648333Y27779739D01*
X22073809Y27568072D02*
X22073809Y27144739D01*
X22225000Y27809977D02*
X22376190Y27356405D01*
X21983095Y27356405D01*
X21408571Y27144739D02*
X21771428Y27144739D01*
X21590000Y27144739D02*
X21590000Y27779739D01*
X21650476Y27689024D01*
X21710952Y27628548D01*
X21771428Y27598310D01*
G04 #@! TO.C,D42*
X24774071Y38701739D02*
X24774071Y39336739D01*
X24622880Y39336739D01*
X24532166Y39306500D01*
X24471690Y39246024D01*
X24441452Y39185548D01*
X24411214Y39064596D01*
X24411214Y38973881D01*
X24441452Y38852929D01*
X24471690Y38792453D01*
X24532166Y38731977D01*
X24622880Y38701739D01*
X24774071Y38701739D01*
X23866928Y39125072D02*
X23866928Y38701739D01*
X24018119Y39366977D02*
X24169309Y38913405D01*
X23776214Y38913405D01*
X23564547Y39276262D02*
X23534309Y39306500D01*
X23473833Y39336739D01*
X23322642Y39336739D01*
X23262166Y39306500D01*
X23231928Y39276262D01*
X23201690Y39215786D01*
X23201690Y39155310D01*
X23231928Y39064596D01*
X23594785Y38701739D01*
X23201690Y38701739D01*
G04 #@! TO.C,C18*
X8282214Y43969215D02*
X8312452Y43938977D01*
X8403166Y43908739D01*
X8463642Y43908739D01*
X8554357Y43938977D01*
X8614833Y43999453D01*
X8645071Y44059929D01*
X8675309Y44180881D01*
X8675309Y44271596D01*
X8645071Y44392548D01*
X8614833Y44453024D01*
X8554357Y44513500D01*
X8463642Y44543739D01*
X8403166Y44543739D01*
X8312452Y44513500D01*
X8282214Y44483262D01*
X7677452Y43908739D02*
X8040309Y43908739D01*
X7858880Y43908739D02*
X7858880Y44543739D01*
X7919357Y44453024D01*
X7979833Y44392548D01*
X8040309Y44362310D01*
X7314595Y44271596D02*
X7375071Y44301834D01*
X7405309Y44332072D01*
X7435547Y44392548D01*
X7435547Y44422786D01*
X7405309Y44483262D01*
X7375071Y44513500D01*
X7314595Y44543739D01*
X7193642Y44543739D01*
X7133166Y44513500D01*
X7102928Y44483262D01*
X7072690Y44422786D01*
X7072690Y44392548D01*
X7102928Y44332072D01*
X7133166Y44301834D01*
X7193642Y44271596D01*
X7314595Y44271596D01*
X7375071Y44241358D01*
X7405309Y44211120D01*
X7435547Y44150643D01*
X7435547Y44029691D01*
X7405309Y43969215D01*
X7375071Y43938977D01*
X7314595Y43908739D01*
X7193642Y43908739D01*
X7133166Y43938977D01*
X7102928Y43969215D01*
X7072690Y44029691D01*
X7072690Y44150643D01*
X7102928Y44211120D01*
X7133166Y44241358D01*
X7193642Y44271596D01*
G04 #@! TO.C,C62*
X5433785Y22379215D02*
X5464023Y22409453D01*
X5494261Y22500167D01*
X5494261Y22560643D01*
X5464023Y22651358D01*
X5403547Y22711834D01*
X5343071Y22742072D01*
X5222119Y22772310D01*
X5131404Y22772310D01*
X5010452Y22742072D01*
X4949976Y22711834D01*
X4889500Y22651358D01*
X4859261Y22560643D01*
X4859261Y22500167D01*
X4889500Y22409453D01*
X4919738Y22379215D01*
X4859261Y21834929D02*
X4859261Y21955881D01*
X4889500Y22016358D01*
X4919738Y22046596D01*
X5010452Y22107072D01*
X5131404Y22137310D01*
X5373309Y22137310D01*
X5433785Y22107072D01*
X5464023Y22076834D01*
X5494261Y22016358D01*
X5494261Y21895405D01*
X5464023Y21834929D01*
X5433785Y21804691D01*
X5373309Y21774453D01*
X5222119Y21774453D01*
X5161642Y21804691D01*
X5131404Y21834929D01*
X5101166Y21895405D01*
X5101166Y22016358D01*
X5131404Y22076834D01*
X5161642Y22107072D01*
X5222119Y22137310D01*
X4919738Y21532548D02*
X4889500Y21502310D01*
X4859261Y21441834D01*
X4859261Y21290643D01*
X4889500Y21230167D01*
X4919738Y21199929D01*
X4980214Y21169691D01*
X5040690Y21169691D01*
X5131404Y21199929D01*
X5494261Y21562786D01*
X5494261Y21169691D01*
G04 #@! TO.C,X81*
X20501428Y7459739D02*
X20078095Y6824739D01*
X20078095Y7459739D02*
X20501428Y6824739D01*
X19745476Y7187596D02*
X19805952Y7217834D01*
X19836190Y7248072D01*
X19866428Y7308548D01*
X19866428Y7338786D01*
X19836190Y7399262D01*
X19805952Y7429500D01*
X19745476Y7459739D01*
X19624523Y7459739D01*
X19564047Y7429500D01*
X19533809Y7399262D01*
X19503571Y7338786D01*
X19503571Y7308548D01*
X19533809Y7248072D01*
X19564047Y7217834D01*
X19624523Y7187596D01*
X19745476Y7187596D01*
X19805952Y7157358D01*
X19836190Y7127120D01*
X19866428Y7066643D01*
X19866428Y6945691D01*
X19836190Y6885215D01*
X19805952Y6854977D01*
X19745476Y6824739D01*
X19624523Y6824739D01*
X19564047Y6854977D01*
X19533809Y6885215D01*
X19503571Y6945691D01*
X19503571Y7066643D01*
X19533809Y7127120D01*
X19564047Y7157358D01*
X19624523Y7187596D01*
X18898809Y6824739D02*
X19261666Y6824739D01*
X19080238Y6824739D02*
X19080238Y7459739D01*
X19140714Y7369024D01*
X19201190Y7308548D01*
X19261666Y7278310D01*
G04 #@! TO.C,C12*
X21236214Y48668215D02*
X21266452Y48637977D01*
X21357166Y48607739D01*
X21417642Y48607739D01*
X21508357Y48637977D01*
X21568833Y48698453D01*
X21599071Y48758929D01*
X21629309Y48879881D01*
X21629309Y48970596D01*
X21599071Y49091548D01*
X21568833Y49152024D01*
X21508357Y49212500D01*
X21417642Y49242739D01*
X21357166Y49242739D01*
X21266452Y49212500D01*
X21236214Y49182262D01*
X20631452Y48607739D02*
X20994309Y48607739D01*
X20812880Y48607739D02*
X20812880Y49242739D01*
X20873357Y49152024D01*
X20933833Y49091548D01*
X20994309Y49061310D01*
X20389547Y49182262D02*
X20359309Y49212500D01*
X20298833Y49242739D01*
X20147642Y49242739D01*
X20087166Y49212500D01*
X20056928Y49182262D01*
X20026690Y49121786D01*
X20026690Y49061310D01*
X20056928Y48970596D01*
X20419785Y48607739D01*
X20026690Y48607739D01*
G04 #@! TO.C,C25*
X10132785Y39270215D02*
X10163023Y39300453D01*
X10193261Y39391167D01*
X10193261Y39451643D01*
X10163023Y39542358D01*
X10102547Y39602834D01*
X10042071Y39633072D01*
X9921119Y39663310D01*
X9830404Y39663310D01*
X9709452Y39633072D01*
X9648976Y39602834D01*
X9588500Y39542358D01*
X9558261Y39451643D01*
X9558261Y39391167D01*
X9588500Y39300453D01*
X9618738Y39270215D01*
X9618738Y39028310D02*
X9588500Y38998072D01*
X9558261Y38937596D01*
X9558261Y38786405D01*
X9588500Y38725929D01*
X9618738Y38695691D01*
X9679214Y38665453D01*
X9739690Y38665453D01*
X9830404Y38695691D01*
X10193261Y39058548D01*
X10193261Y38665453D01*
X9558261Y38090929D02*
X9558261Y38393310D01*
X9860642Y38423548D01*
X9830404Y38393310D01*
X9800166Y38332834D01*
X9800166Y38181643D01*
X9830404Y38121167D01*
X9860642Y38090929D01*
X9921119Y38060691D01*
X10072309Y38060691D01*
X10132785Y38090929D01*
X10163023Y38121167D01*
X10193261Y38181643D01*
X10193261Y38332834D01*
X10163023Y38393310D01*
X10132785Y38423548D01*
G04 #@! TO.C,C10*
X20165785Y42242015D02*
X20196023Y42272253D01*
X20226261Y42362967D01*
X20226261Y42423443D01*
X20196023Y42514158D01*
X20135547Y42574634D01*
X20075071Y42604872D01*
X19954119Y42635110D01*
X19863404Y42635110D01*
X19742452Y42604872D01*
X19681976Y42574634D01*
X19621500Y42514158D01*
X19591261Y42423443D01*
X19591261Y42362967D01*
X19621500Y42272253D01*
X19651738Y42242015D01*
X20226261Y41637253D02*
X20226261Y42000110D01*
X20226261Y41818681D02*
X19591261Y41818681D01*
X19681976Y41879158D01*
X19742452Y41939634D01*
X19772690Y42000110D01*
X19591261Y41244158D02*
X19591261Y41183681D01*
X19621500Y41123205D01*
X19651738Y41092967D01*
X19712214Y41062729D01*
X19833166Y41032491D01*
X19984357Y41032491D01*
X20105309Y41062729D01*
X20165785Y41092967D01*
X20196023Y41123205D01*
X20226261Y41183681D01*
X20226261Y41244158D01*
X20196023Y41304634D01*
X20165785Y41334872D01*
X20105309Y41365110D01*
X19984357Y41395348D01*
X19833166Y41395348D01*
X19712214Y41365110D01*
X19651738Y41334872D01*
X19621500Y41304634D01*
X19591261Y41244158D01*
G04 #@! TO.C,X61*
X7293428Y26001739D02*
X6870095Y25366739D01*
X6870095Y26001739D02*
X7293428Y25366739D01*
X6356047Y26001739D02*
X6477000Y26001739D01*
X6537476Y25971500D01*
X6567714Y25941262D01*
X6628190Y25850548D01*
X6658428Y25729596D01*
X6658428Y25487691D01*
X6628190Y25427215D01*
X6597952Y25396977D01*
X6537476Y25366739D01*
X6416523Y25366739D01*
X6356047Y25396977D01*
X6325809Y25427215D01*
X6295571Y25487691D01*
X6295571Y25638881D01*
X6325809Y25699358D01*
X6356047Y25729596D01*
X6416523Y25759834D01*
X6537476Y25759834D01*
X6597952Y25729596D01*
X6628190Y25699358D01*
X6658428Y25638881D01*
X5690809Y25366739D02*
X6053666Y25366739D01*
X5872238Y25366739D02*
X5872238Y26001739D01*
X5932714Y25911024D01*
X5993190Y25850548D01*
X6053666Y25820310D01*
G04 #@! TO.C,C3*
X19022785Y51286834D02*
X19053023Y51317072D01*
X19083261Y51407786D01*
X19083261Y51468262D01*
X19053023Y51558977D01*
X18992547Y51619453D01*
X18932071Y51649691D01*
X18811119Y51679929D01*
X18720404Y51679929D01*
X18599452Y51649691D01*
X18538976Y51619453D01*
X18478500Y51558977D01*
X18448261Y51468262D01*
X18448261Y51407786D01*
X18478500Y51317072D01*
X18508738Y51286834D01*
X18448261Y51075167D02*
X18448261Y50682072D01*
X18690166Y50893739D01*
X18690166Y50803024D01*
X18720404Y50742548D01*
X18750642Y50712310D01*
X18811119Y50682072D01*
X18962309Y50682072D01*
X19022785Y50712310D01*
X19053023Y50742548D01*
X19083261Y50803024D01*
X19083261Y50984453D01*
X19053023Y51044929D01*
X19022785Y51075167D01*
G04 #@! TO.C,C65*
X14831785Y23014215D02*
X14862023Y23044453D01*
X14892261Y23135167D01*
X14892261Y23195643D01*
X14862023Y23286358D01*
X14801547Y23346834D01*
X14741071Y23377072D01*
X14620119Y23407310D01*
X14529404Y23407310D01*
X14408452Y23377072D01*
X14347976Y23346834D01*
X14287500Y23286358D01*
X14257261Y23195643D01*
X14257261Y23135167D01*
X14287500Y23044453D01*
X14317738Y23014215D01*
X14257261Y22469929D02*
X14257261Y22590881D01*
X14287500Y22651358D01*
X14317738Y22681596D01*
X14408452Y22742072D01*
X14529404Y22772310D01*
X14771309Y22772310D01*
X14831785Y22742072D01*
X14862023Y22711834D01*
X14892261Y22651358D01*
X14892261Y22530405D01*
X14862023Y22469929D01*
X14831785Y22439691D01*
X14771309Y22409453D01*
X14620119Y22409453D01*
X14559642Y22439691D01*
X14529404Y22469929D01*
X14499166Y22530405D01*
X14499166Y22651358D01*
X14529404Y22711834D01*
X14559642Y22742072D01*
X14620119Y22772310D01*
X14257261Y21834929D02*
X14257261Y22137310D01*
X14559642Y22167548D01*
X14529404Y22137310D01*
X14499166Y22076834D01*
X14499166Y21925643D01*
X14529404Y21865167D01*
X14559642Y21834929D01*
X14620119Y21804691D01*
X14771309Y21804691D01*
X14831785Y21834929D01*
X14862023Y21865167D01*
X14892261Y21925643D01*
X14892261Y22076834D01*
X14862023Y22137310D01*
X14831785Y22167548D01*
G04 #@! TO.C,R51*
X24671261Y42318215D02*
X24368880Y42529881D01*
X24671261Y42681072D02*
X24036261Y42681072D01*
X24036261Y42439167D01*
X24066500Y42378691D01*
X24096738Y42348453D01*
X24157214Y42318215D01*
X24247928Y42318215D01*
X24308404Y42348453D01*
X24338642Y42378691D01*
X24368880Y42439167D01*
X24368880Y42681072D01*
X24036261Y41743691D02*
X24036261Y42046072D01*
X24338642Y42076310D01*
X24308404Y42046072D01*
X24278166Y41985596D01*
X24278166Y41834405D01*
X24308404Y41773929D01*
X24338642Y41743691D01*
X24399119Y41713453D01*
X24550309Y41713453D01*
X24610785Y41743691D01*
X24641023Y41773929D01*
X24671261Y41834405D01*
X24671261Y41985596D01*
X24641023Y42046072D01*
X24610785Y42076310D01*
X24671261Y41108691D02*
X24671261Y41471548D01*
X24671261Y41290120D02*
X24036261Y41290120D01*
X24126976Y41350596D01*
X24187452Y41411072D01*
X24217690Y41471548D01*
G04 #@! TO.C,R69*
X16156214Y26128739D02*
X16367880Y26431120D01*
X16519071Y26128739D02*
X16519071Y26763739D01*
X16277166Y26763739D01*
X16216690Y26733500D01*
X16186452Y26703262D01*
X16156214Y26642786D01*
X16156214Y26552072D01*
X16186452Y26491596D01*
X16216690Y26461358D01*
X16277166Y26431120D01*
X16519071Y26431120D01*
X15611928Y26763739D02*
X15732880Y26763739D01*
X15793357Y26733500D01*
X15823595Y26703262D01*
X15884071Y26612548D01*
X15914309Y26491596D01*
X15914309Y26249691D01*
X15884071Y26189215D01*
X15853833Y26158977D01*
X15793357Y26128739D01*
X15672404Y26128739D01*
X15611928Y26158977D01*
X15581690Y26189215D01*
X15551452Y26249691D01*
X15551452Y26400881D01*
X15581690Y26461358D01*
X15611928Y26491596D01*
X15672404Y26521834D01*
X15793357Y26521834D01*
X15853833Y26491596D01*
X15884071Y26461358D01*
X15914309Y26400881D01*
X15249071Y26128739D02*
X15128119Y26128739D01*
X15067642Y26158977D01*
X15037404Y26189215D01*
X14976928Y26279929D01*
X14946690Y26400881D01*
X14946690Y26642786D01*
X14976928Y26703262D01*
X15007166Y26733500D01*
X15067642Y26763739D01*
X15188595Y26763739D01*
X15249071Y26733500D01*
X15279309Y26703262D01*
X15309547Y26642786D01*
X15309547Y26491596D01*
X15279309Y26431120D01*
X15249071Y26400881D01*
X15188595Y26370643D01*
X15067642Y26370643D01*
X15007166Y26400881D01*
X14976928Y26431120D01*
X14946690Y26491596D01*
G04 #@! TO.C,X2*
X9023047Y49369739D02*
X8599714Y48734739D01*
X8599714Y49369739D02*
X9023047Y48734739D01*
X8388047Y49309262D02*
X8357809Y49339500D01*
X8297333Y49369739D01*
X8146142Y49369739D01*
X8085666Y49339500D01*
X8055428Y49309262D01*
X8025190Y49248786D01*
X8025190Y49188310D01*
X8055428Y49097596D01*
X8418285Y48734739D01*
X8025190Y48734739D01*
G04 #@! TO.C,R31*
X10060214Y33113739D02*
X10271880Y33416120D01*
X10423071Y33113739D02*
X10423071Y33748739D01*
X10181166Y33748739D01*
X10120690Y33718500D01*
X10090452Y33688262D01*
X10060214Y33627786D01*
X10060214Y33537072D01*
X10090452Y33476596D01*
X10120690Y33446358D01*
X10181166Y33416120D01*
X10423071Y33416120D01*
X9848547Y33748739D02*
X9455452Y33748739D01*
X9667119Y33506834D01*
X9576404Y33506834D01*
X9515928Y33476596D01*
X9485690Y33446358D01*
X9455452Y33385881D01*
X9455452Y33234691D01*
X9485690Y33174215D01*
X9515928Y33143977D01*
X9576404Y33113739D01*
X9757833Y33113739D01*
X9818309Y33143977D01*
X9848547Y33174215D01*
X8850690Y33113739D02*
X9213547Y33113739D01*
X9032119Y33113739D02*
X9032119Y33748739D01*
X9092595Y33658024D01*
X9153071Y33597548D01*
X9213547Y33567310D01*
G04 #@! TO.C,C73*
X7846785Y32158215D02*
X7877023Y32188453D01*
X7907261Y32279167D01*
X7907261Y32339643D01*
X7877023Y32430358D01*
X7816547Y32490834D01*
X7756071Y32521072D01*
X7635119Y32551310D01*
X7544404Y32551310D01*
X7423452Y32521072D01*
X7362976Y32490834D01*
X7302500Y32430358D01*
X7272261Y32339643D01*
X7272261Y32279167D01*
X7302500Y32188453D01*
X7332738Y32158215D01*
X7272261Y31946548D02*
X7272261Y31523215D01*
X7907261Y31795358D01*
X7272261Y31341786D02*
X7272261Y30948691D01*
X7514166Y31160358D01*
X7514166Y31069643D01*
X7544404Y31009167D01*
X7574642Y30978929D01*
X7635119Y30948691D01*
X7786309Y30948691D01*
X7846785Y30978929D01*
X7877023Y31009167D01*
X7907261Y31069643D01*
X7907261Y31251072D01*
X7877023Y31311548D01*
X7846785Y31341786D01*
G04 #@! TO.C,C11*
X9497785Y44096215D02*
X9528023Y44126453D01*
X9558261Y44217167D01*
X9558261Y44277643D01*
X9528023Y44368358D01*
X9467547Y44428834D01*
X9407071Y44459072D01*
X9286119Y44489310D01*
X9195404Y44489310D01*
X9074452Y44459072D01*
X9013976Y44428834D01*
X8953500Y44368358D01*
X8923261Y44277643D01*
X8923261Y44217167D01*
X8953500Y44126453D01*
X8983738Y44096215D01*
X9558261Y43491453D02*
X9558261Y43854310D01*
X9558261Y43672881D02*
X8923261Y43672881D01*
X9013976Y43733358D01*
X9074452Y43793834D01*
X9104690Y43854310D01*
X9558261Y42886691D02*
X9558261Y43249548D01*
X9558261Y43068120D02*
X8923261Y43068120D01*
X9013976Y43128596D01*
X9074452Y43189072D01*
X9104690Y43249548D01*
G04 #@! TO.C,U61*
X13105190Y29938739D02*
X13105190Y29424691D01*
X13074952Y29364215D01*
X13044714Y29333977D01*
X12984238Y29303739D01*
X12863285Y29303739D01*
X12802809Y29333977D01*
X12772571Y29364215D01*
X12742333Y29424691D01*
X12742333Y29938739D01*
X12167809Y29938739D02*
X12288761Y29938739D01*
X12349238Y29908500D01*
X12379476Y29878262D01*
X12439952Y29787548D01*
X12470190Y29666596D01*
X12470190Y29424691D01*
X12439952Y29364215D01*
X12409714Y29333977D01*
X12349238Y29303739D01*
X12228285Y29303739D01*
X12167809Y29333977D01*
X12137571Y29364215D01*
X12107333Y29424691D01*
X12107333Y29575881D01*
X12137571Y29636358D01*
X12167809Y29666596D01*
X12228285Y29696834D01*
X12349238Y29696834D01*
X12409714Y29666596D01*
X12439952Y29636358D01*
X12470190Y29575881D01*
X11502571Y29303739D02*
X11865428Y29303739D01*
X11684000Y29303739D02*
X11684000Y29938739D01*
X11744476Y29848024D01*
X11804952Y29787548D01*
X11865428Y29757310D01*
G04 #@! TO.C,C23*
X15140214Y52224215D02*
X15170452Y52193977D01*
X15261166Y52163739D01*
X15321642Y52163739D01*
X15412357Y52193977D01*
X15472833Y52254453D01*
X15503071Y52314929D01*
X15533309Y52435881D01*
X15533309Y52526596D01*
X15503071Y52647548D01*
X15472833Y52708024D01*
X15412357Y52768500D01*
X15321642Y52798739D01*
X15261166Y52798739D01*
X15170452Y52768500D01*
X15140214Y52738262D01*
X14898309Y52738262D02*
X14868071Y52768500D01*
X14807595Y52798739D01*
X14656404Y52798739D01*
X14595928Y52768500D01*
X14565690Y52738262D01*
X14535452Y52677786D01*
X14535452Y52617310D01*
X14565690Y52526596D01*
X14928547Y52163739D01*
X14535452Y52163739D01*
X14323785Y52798739D02*
X13930690Y52798739D01*
X14142357Y52556834D01*
X14051642Y52556834D01*
X13991166Y52526596D01*
X13960928Y52496358D01*
X13930690Y52435881D01*
X13930690Y52284691D01*
X13960928Y52224215D01*
X13991166Y52193977D01*
X14051642Y52163739D01*
X14233071Y52163739D01*
X14293547Y52193977D01*
X14323785Y52224215D01*
G04 #@! TO.C,C15*
X8663214Y45747215D02*
X8693452Y45716977D01*
X8784166Y45686739D01*
X8844642Y45686739D01*
X8935357Y45716977D01*
X8995833Y45777453D01*
X9026071Y45837929D01*
X9056309Y45958881D01*
X9056309Y46049596D01*
X9026071Y46170548D01*
X8995833Y46231024D01*
X8935357Y46291500D01*
X8844642Y46321739D01*
X8784166Y46321739D01*
X8693452Y46291500D01*
X8663214Y46261262D01*
X8058452Y45686739D02*
X8421309Y45686739D01*
X8239880Y45686739D02*
X8239880Y46321739D01*
X8300357Y46231024D01*
X8360833Y46170548D01*
X8421309Y46140310D01*
X7483928Y46321739D02*
X7786309Y46321739D01*
X7816547Y46019358D01*
X7786309Y46049596D01*
X7725833Y46079834D01*
X7574642Y46079834D01*
X7514166Y46049596D01*
X7483928Y46019358D01*
X7453690Y45958881D01*
X7453690Y45807691D01*
X7483928Y45747215D01*
X7514166Y45716977D01*
X7574642Y45686739D01*
X7725833Y45686739D01*
X7786309Y45716977D01*
X7816547Y45747215D01*
G04 #@! TO.C,C66*
X15775214Y27840215D02*
X15805452Y27809977D01*
X15896166Y27779739D01*
X15956642Y27779739D01*
X16047357Y27809977D01*
X16107833Y27870453D01*
X16138071Y27930929D01*
X16168309Y28051881D01*
X16168309Y28142596D01*
X16138071Y28263548D01*
X16107833Y28324024D01*
X16047357Y28384500D01*
X15956642Y28414739D01*
X15896166Y28414739D01*
X15805452Y28384500D01*
X15775214Y28354262D01*
X15230928Y28414739D02*
X15351880Y28414739D01*
X15412357Y28384500D01*
X15442595Y28354262D01*
X15503071Y28263548D01*
X15533309Y28142596D01*
X15533309Y27900691D01*
X15503071Y27840215D01*
X15472833Y27809977D01*
X15412357Y27779739D01*
X15291404Y27779739D01*
X15230928Y27809977D01*
X15200690Y27840215D01*
X15170452Y27900691D01*
X15170452Y28051881D01*
X15200690Y28112358D01*
X15230928Y28142596D01*
X15291404Y28172834D01*
X15412357Y28172834D01*
X15472833Y28142596D01*
X15503071Y28112358D01*
X15533309Y28051881D01*
X14626166Y28414739D02*
X14747119Y28414739D01*
X14807595Y28384500D01*
X14837833Y28354262D01*
X14898309Y28263548D01*
X14928547Y28142596D01*
X14928547Y27900691D01*
X14898309Y27840215D01*
X14868071Y27809977D01*
X14807595Y27779739D01*
X14686642Y27779739D01*
X14626166Y27809977D01*
X14595928Y27840215D01*
X14565690Y27900691D01*
X14565690Y28051881D01*
X14595928Y28112358D01*
X14626166Y28142596D01*
X14686642Y28172834D01*
X14807595Y28172834D01*
X14868071Y28142596D01*
X14898309Y28112358D01*
X14928547Y28051881D01*
G04 #@! TO.C,C5*
X10107385Y47019634D02*
X10137623Y47049872D01*
X10167861Y47140586D01*
X10167861Y47201062D01*
X10137623Y47291777D01*
X10077147Y47352253D01*
X10016671Y47382491D01*
X9895719Y47412729D01*
X9805004Y47412729D01*
X9684052Y47382491D01*
X9623576Y47352253D01*
X9563100Y47291777D01*
X9532861Y47201062D01*
X9532861Y47140586D01*
X9563100Y47049872D01*
X9593338Y47019634D01*
X9532861Y46445110D02*
X9532861Y46747491D01*
X9835242Y46777729D01*
X9805004Y46747491D01*
X9774766Y46687015D01*
X9774766Y46535824D01*
X9805004Y46475348D01*
X9835242Y46445110D01*
X9895719Y46414872D01*
X10046909Y46414872D01*
X10107385Y46445110D01*
X10137623Y46475348D01*
X10167861Y46535824D01*
X10167861Y46687015D01*
X10137623Y46747491D01*
X10107385Y46777729D01*
G04 #@! TO.C,C21*
X8354785Y52605215D02*
X8385023Y52635453D01*
X8415261Y52726167D01*
X8415261Y52786643D01*
X8385023Y52877358D01*
X8324547Y52937834D01*
X8264071Y52968072D01*
X8143119Y52998310D01*
X8052404Y52998310D01*
X7931452Y52968072D01*
X7870976Y52937834D01*
X7810500Y52877358D01*
X7780261Y52786643D01*
X7780261Y52726167D01*
X7810500Y52635453D01*
X7840738Y52605215D01*
X7840738Y52363310D02*
X7810500Y52333072D01*
X7780261Y52272596D01*
X7780261Y52121405D01*
X7810500Y52060929D01*
X7840738Y52030691D01*
X7901214Y52000453D01*
X7961690Y52000453D01*
X8052404Y52030691D01*
X8415261Y52393548D01*
X8415261Y52000453D01*
X8415261Y51395691D02*
X8415261Y51758548D01*
X8415261Y51577120D02*
X7780261Y51577120D01*
X7870976Y51637596D01*
X7931452Y51698072D01*
X7961690Y51758548D01*
G04 #@! TO.C,C8*
X21943785Y50143834D02*
X21974023Y50174072D01*
X22004261Y50264786D01*
X22004261Y50325262D01*
X21974023Y50415977D01*
X21913547Y50476453D01*
X21853071Y50506691D01*
X21732119Y50536929D01*
X21641404Y50536929D01*
X21520452Y50506691D01*
X21459976Y50476453D01*
X21399500Y50415977D01*
X21369261Y50325262D01*
X21369261Y50264786D01*
X21399500Y50174072D01*
X21429738Y50143834D01*
X21641404Y49780977D02*
X21611166Y49841453D01*
X21580928Y49871691D01*
X21520452Y49901929D01*
X21490214Y49901929D01*
X21429738Y49871691D01*
X21399500Y49841453D01*
X21369261Y49780977D01*
X21369261Y49660024D01*
X21399500Y49599548D01*
X21429738Y49569310D01*
X21490214Y49539072D01*
X21520452Y49539072D01*
X21580928Y49569310D01*
X21611166Y49599548D01*
X21641404Y49660024D01*
X21641404Y49780977D01*
X21671642Y49841453D01*
X21701880Y49871691D01*
X21762357Y49901929D01*
X21883309Y49901929D01*
X21943785Y49871691D01*
X21974023Y49841453D01*
X22004261Y49780977D01*
X22004261Y49660024D01*
X21974023Y49599548D01*
X21943785Y49569310D01*
X21883309Y49539072D01*
X21762357Y49539072D01*
X21701880Y49569310D01*
X21671642Y49599548D01*
X21641404Y49660024D01*
G04 #@! TO.C,D107*
X25711452Y31589739D02*
X25711452Y32224739D01*
X25560261Y32224739D01*
X25469547Y32194500D01*
X25409071Y32134024D01*
X25378833Y32073548D01*
X25348595Y31952596D01*
X25348595Y31861881D01*
X25378833Y31740929D01*
X25409071Y31680453D01*
X25469547Y31619977D01*
X25560261Y31589739D01*
X25711452Y31589739D01*
X24743833Y31589739D02*
X25106690Y31589739D01*
X24925261Y31589739D02*
X24925261Y32224739D01*
X24985738Y32134024D01*
X25046214Y32073548D01*
X25106690Y32043310D01*
X24350738Y32224739D02*
X24290261Y32224739D01*
X24229785Y32194500D01*
X24199547Y32164262D01*
X24169309Y32103786D01*
X24139071Y31982834D01*
X24139071Y31831643D01*
X24169309Y31710691D01*
X24199547Y31650215D01*
X24229785Y31619977D01*
X24290261Y31589739D01*
X24350738Y31589739D01*
X24411214Y31619977D01*
X24441452Y31650215D01*
X24471690Y31710691D01*
X24501928Y31831643D01*
X24501928Y31982834D01*
X24471690Y32103786D01*
X24441452Y32164262D01*
X24411214Y32194500D01*
X24350738Y32224739D01*
X23927404Y32224739D02*
X23504071Y32224739D01*
X23776214Y31589739D01*
G04 #@! TO.C,R56*
X24671261Y49176215D02*
X24368880Y49387881D01*
X24671261Y49539072D02*
X24036261Y49539072D01*
X24036261Y49297167D01*
X24066500Y49236691D01*
X24096738Y49206453D01*
X24157214Y49176215D01*
X24247928Y49176215D01*
X24308404Y49206453D01*
X24338642Y49236691D01*
X24368880Y49297167D01*
X24368880Y49539072D01*
X24036261Y48601691D02*
X24036261Y48904072D01*
X24338642Y48934310D01*
X24308404Y48904072D01*
X24278166Y48843596D01*
X24278166Y48692405D01*
X24308404Y48631929D01*
X24338642Y48601691D01*
X24399119Y48571453D01*
X24550309Y48571453D01*
X24610785Y48601691D01*
X24641023Y48631929D01*
X24671261Y48692405D01*
X24671261Y48843596D01*
X24641023Y48904072D01*
X24610785Y48934310D01*
X24036261Y48027167D02*
X24036261Y48148120D01*
X24066500Y48208596D01*
X24096738Y48238834D01*
X24187452Y48299310D01*
X24308404Y48329548D01*
X24550309Y48329548D01*
X24610785Y48299310D01*
X24641023Y48269072D01*
X24671261Y48208596D01*
X24671261Y48087643D01*
X24641023Y48027167D01*
X24610785Y47996929D01*
X24550309Y47966691D01*
X24399119Y47966691D01*
X24338642Y47996929D01*
X24308404Y48027167D01*
X24278166Y48087643D01*
X24278166Y48208596D01*
X24308404Y48269072D01*
X24338642Y48299310D01*
X24399119Y48329548D01*
G04 #@! TO.C,D82*
X18626061Y27695072D02*
X17991061Y27695072D01*
X17991061Y27543881D01*
X18021300Y27453167D01*
X18081776Y27392691D01*
X18142252Y27362453D01*
X18263204Y27332215D01*
X18353919Y27332215D01*
X18474871Y27362453D01*
X18535347Y27392691D01*
X18595823Y27453167D01*
X18626061Y27543881D01*
X18626061Y27695072D01*
X18263204Y26969358D02*
X18232966Y27029834D01*
X18202728Y27060072D01*
X18142252Y27090310D01*
X18112014Y27090310D01*
X18051538Y27060072D01*
X18021300Y27029834D01*
X17991061Y26969358D01*
X17991061Y26848405D01*
X18021300Y26787929D01*
X18051538Y26757691D01*
X18112014Y26727453D01*
X18142252Y26727453D01*
X18202728Y26757691D01*
X18232966Y26787929D01*
X18263204Y26848405D01*
X18263204Y26969358D01*
X18293442Y27029834D01*
X18323680Y27060072D01*
X18384157Y27090310D01*
X18505109Y27090310D01*
X18565585Y27060072D01*
X18595823Y27029834D01*
X18626061Y26969358D01*
X18626061Y26848405D01*
X18595823Y26787929D01*
X18565585Y26757691D01*
X18505109Y26727453D01*
X18384157Y26727453D01*
X18323680Y26757691D01*
X18293442Y26787929D01*
X18263204Y26848405D01*
X18051538Y26485548D02*
X18021300Y26455310D01*
X17991061Y26394834D01*
X17991061Y26243643D01*
X18021300Y26183167D01*
X18051538Y26152929D01*
X18112014Y26122691D01*
X18172490Y26122691D01*
X18263204Y26152929D01*
X18626061Y26515786D01*
X18626061Y26122691D01*
G04 #@! TO.C,R64*
X8028214Y22064739D02*
X8239880Y22367120D01*
X8391071Y22064739D02*
X8391071Y22699739D01*
X8149166Y22699739D01*
X8088690Y22669500D01*
X8058452Y22639262D01*
X8028214Y22578786D01*
X8028214Y22488072D01*
X8058452Y22427596D01*
X8088690Y22397358D01*
X8149166Y22367120D01*
X8391071Y22367120D01*
X7483928Y22699739D02*
X7604880Y22699739D01*
X7665357Y22669500D01*
X7695595Y22639262D01*
X7756071Y22548548D01*
X7786309Y22427596D01*
X7786309Y22185691D01*
X7756071Y22125215D01*
X7725833Y22094977D01*
X7665357Y22064739D01*
X7544404Y22064739D01*
X7483928Y22094977D01*
X7453690Y22125215D01*
X7423452Y22185691D01*
X7423452Y22336881D01*
X7453690Y22397358D01*
X7483928Y22427596D01*
X7544404Y22457834D01*
X7665357Y22457834D01*
X7725833Y22427596D01*
X7756071Y22397358D01*
X7786309Y22336881D01*
X6879166Y22488072D02*
X6879166Y22064739D01*
X7030357Y22729977D02*
X7181547Y22276405D01*
X6788452Y22276405D01*
G04 #@! TO.C,D95*
X4351261Y37601072D02*
X3716261Y37601072D01*
X3716261Y37449881D01*
X3746500Y37359167D01*
X3806976Y37298691D01*
X3867452Y37268453D01*
X3988404Y37238215D01*
X4079119Y37238215D01*
X4200071Y37268453D01*
X4260547Y37298691D01*
X4321023Y37359167D01*
X4351261Y37449881D01*
X4351261Y37601072D01*
X4351261Y36935834D02*
X4351261Y36814881D01*
X4321023Y36754405D01*
X4290785Y36724167D01*
X4200071Y36663691D01*
X4079119Y36633453D01*
X3837214Y36633453D01*
X3776738Y36663691D01*
X3746500Y36693929D01*
X3716261Y36754405D01*
X3716261Y36875358D01*
X3746500Y36935834D01*
X3776738Y36966072D01*
X3837214Y36996310D01*
X3988404Y36996310D01*
X4048880Y36966072D01*
X4079119Y36935834D01*
X4109357Y36875358D01*
X4109357Y36754405D01*
X4079119Y36693929D01*
X4048880Y36663691D01*
X3988404Y36633453D01*
X3716261Y36058929D02*
X3716261Y36361310D01*
X4018642Y36391548D01*
X3988404Y36361310D01*
X3958166Y36300834D01*
X3958166Y36149643D01*
X3988404Y36089167D01*
X4018642Y36058929D01*
X4079119Y36028691D01*
X4230309Y36028691D01*
X4290785Y36058929D01*
X4321023Y36089167D01*
X4351261Y36149643D01*
X4351261Y36300834D01*
X4321023Y36361310D01*
X4290785Y36391548D01*
G04 #@! TO.C,C81*
X21617214Y5234215D02*
X21647452Y5203977D01*
X21738166Y5173739D01*
X21798642Y5173739D01*
X21889357Y5203977D01*
X21949833Y5264453D01*
X21980071Y5324929D01*
X22010309Y5445881D01*
X22010309Y5536596D01*
X21980071Y5657548D01*
X21949833Y5718024D01*
X21889357Y5778500D01*
X21798642Y5808739D01*
X21738166Y5808739D01*
X21647452Y5778500D01*
X21617214Y5748262D01*
X21254357Y5536596D02*
X21314833Y5566834D01*
X21345071Y5597072D01*
X21375309Y5657548D01*
X21375309Y5687786D01*
X21345071Y5748262D01*
X21314833Y5778500D01*
X21254357Y5808739D01*
X21133404Y5808739D01*
X21072928Y5778500D01*
X21042690Y5748262D01*
X21012452Y5687786D01*
X21012452Y5657548D01*
X21042690Y5597072D01*
X21072928Y5566834D01*
X21133404Y5536596D01*
X21254357Y5536596D01*
X21314833Y5506358D01*
X21345071Y5476120D01*
X21375309Y5415643D01*
X21375309Y5294691D01*
X21345071Y5234215D01*
X21314833Y5203977D01*
X21254357Y5173739D01*
X21133404Y5173739D01*
X21072928Y5203977D01*
X21042690Y5234215D01*
X21012452Y5294691D01*
X21012452Y5415643D01*
X21042690Y5476120D01*
X21072928Y5506358D01*
X21133404Y5536596D01*
X20407690Y5173739D02*
X20770547Y5173739D01*
X20589119Y5173739D02*
X20589119Y5808739D01*
X20649595Y5718024D01*
X20710071Y5657548D01*
X20770547Y5627310D01*
G04 #@! TO.C,C69*
X6123214Y23141215D02*
X6153452Y23110977D01*
X6244166Y23080739D01*
X6304642Y23080739D01*
X6395357Y23110977D01*
X6455833Y23171453D01*
X6486071Y23231929D01*
X6516309Y23352881D01*
X6516309Y23443596D01*
X6486071Y23564548D01*
X6455833Y23625024D01*
X6395357Y23685500D01*
X6304642Y23715739D01*
X6244166Y23715739D01*
X6153452Y23685500D01*
X6123214Y23655262D01*
X5578928Y23715739D02*
X5699880Y23715739D01*
X5760357Y23685500D01*
X5790595Y23655262D01*
X5851071Y23564548D01*
X5881309Y23443596D01*
X5881309Y23201691D01*
X5851071Y23141215D01*
X5820833Y23110977D01*
X5760357Y23080739D01*
X5639404Y23080739D01*
X5578928Y23110977D01*
X5548690Y23141215D01*
X5518452Y23201691D01*
X5518452Y23352881D01*
X5548690Y23413358D01*
X5578928Y23443596D01*
X5639404Y23473834D01*
X5760357Y23473834D01*
X5820833Y23443596D01*
X5851071Y23413358D01*
X5881309Y23352881D01*
X5216071Y23080739D02*
X5095119Y23080739D01*
X5034642Y23110977D01*
X5004404Y23141215D01*
X4943928Y23231929D01*
X4913690Y23352881D01*
X4913690Y23594786D01*
X4943928Y23655262D01*
X4974166Y23685500D01*
X5034642Y23715739D01*
X5155595Y23715739D01*
X5216071Y23685500D01*
X5246309Y23655262D01*
X5276547Y23594786D01*
X5276547Y23443596D01*
X5246309Y23383120D01*
X5216071Y23352881D01*
X5155595Y23322643D01*
X5034642Y23322643D01*
X4974166Y23352881D01*
X4943928Y23383120D01*
X4913690Y23443596D01*
G04 #@! TO.C,C89*
X21109214Y23014215D02*
X21139452Y22983977D01*
X21230166Y22953739D01*
X21290642Y22953739D01*
X21381357Y22983977D01*
X21441833Y23044453D01*
X21472071Y23104929D01*
X21502309Y23225881D01*
X21502309Y23316596D01*
X21472071Y23437548D01*
X21441833Y23498024D01*
X21381357Y23558500D01*
X21290642Y23588739D01*
X21230166Y23588739D01*
X21139452Y23558500D01*
X21109214Y23528262D01*
X20746357Y23316596D02*
X20806833Y23346834D01*
X20837071Y23377072D01*
X20867309Y23437548D01*
X20867309Y23467786D01*
X20837071Y23528262D01*
X20806833Y23558500D01*
X20746357Y23588739D01*
X20625404Y23588739D01*
X20564928Y23558500D01*
X20534690Y23528262D01*
X20504452Y23467786D01*
X20504452Y23437548D01*
X20534690Y23377072D01*
X20564928Y23346834D01*
X20625404Y23316596D01*
X20746357Y23316596D01*
X20806833Y23286358D01*
X20837071Y23256120D01*
X20867309Y23195643D01*
X20867309Y23074691D01*
X20837071Y23014215D01*
X20806833Y22983977D01*
X20746357Y22953739D01*
X20625404Y22953739D01*
X20564928Y22983977D01*
X20534690Y23014215D01*
X20504452Y23074691D01*
X20504452Y23195643D01*
X20534690Y23256120D01*
X20564928Y23286358D01*
X20625404Y23316596D01*
X20202071Y22953739D02*
X20081119Y22953739D01*
X20020642Y22983977D01*
X19990404Y23014215D01*
X19929928Y23104929D01*
X19899690Y23225881D01*
X19899690Y23467786D01*
X19929928Y23528262D01*
X19960166Y23558500D01*
X20020642Y23588739D01*
X20141595Y23588739D01*
X20202071Y23558500D01*
X20232309Y23528262D01*
X20262547Y23467786D01*
X20262547Y23316596D01*
X20232309Y23256120D01*
X20202071Y23225881D01*
X20141595Y23195643D01*
X20020642Y23195643D01*
X19960166Y23225881D01*
X19929928Y23256120D01*
X19899690Y23316596D01*
G04 #@! TO.C,C70*
X6123214Y27840215D02*
X6153452Y27809977D01*
X6244166Y27779739D01*
X6304642Y27779739D01*
X6395357Y27809977D01*
X6455833Y27870453D01*
X6486071Y27930929D01*
X6516309Y28051881D01*
X6516309Y28142596D01*
X6486071Y28263548D01*
X6455833Y28324024D01*
X6395357Y28384500D01*
X6304642Y28414739D01*
X6244166Y28414739D01*
X6153452Y28384500D01*
X6123214Y28354262D01*
X5911547Y28414739D02*
X5488214Y28414739D01*
X5760357Y27779739D01*
X5125357Y28414739D02*
X5064880Y28414739D01*
X5004404Y28384500D01*
X4974166Y28354262D01*
X4943928Y28293786D01*
X4913690Y28172834D01*
X4913690Y28021643D01*
X4943928Y27900691D01*
X4974166Y27840215D01*
X5004404Y27809977D01*
X5064880Y27779739D01*
X5125357Y27779739D01*
X5185833Y27809977D01*
X5216071Y27840215D01*
X5246309Y27900691D01*
X5276547Y28021643D01*
X5276547Y28172834D01*
X5246309Y28293786D01*
X5216071Y28354262D01*
X5185833Y28384500D01*
X5125357Y28414739D01*
G04 #@! TO.C,R7*
X19718261Y39856834D02*
X19415880Y40068500D01*
X19718261Y40219691D02*
X19083261Y40219691D01*
X19083261Y39977786D01*
X19113500Y39917310D01*
X19143738Y39887072D01*
X19204214Y39856834D01*
X19294928Y39856834D01*
X19355404Y39887072D01*
X19385642Y39917310D01*
X19415880Y39977786D01*
X19415880Y40219691D01*
X19083261Y39645167D02*
X19083261Y39221834D01*
X19718261Y39493977D01*
G04 #@! TO.C,C68*
X7719785Y27967215D02*
X7750023Y27997453D01*
X7780261Y28088167D01*
X7780261Y28148643D01*
X7750023Y28239358D01*
X7689547Y28299834D01*
X7629071Y28330072D01*
X7508119Y28360310D01*
X7417404Y28360310D01*
X7296452Y28330072D01*
X7235976Y28299834D01*
X7175500Y28239358D01*
X7145261Y28148643D01*
X7145261Y28088167D01*
X7175500Y27997453D01*
X7205738Y27967215D01*
X7145261Y27422929D02*
X7145261Y27543881D01*
X7175500Y27604358D01*
X7205738Y27634596D01*
X7296452Y27695072D01*
X7417404Y27725310D01*
X7659309Y27725310D01*
X7719785Y27695072D01*
X7750023Y27664834D01*
X7780261Y27604358D01*
X7780261Y27483405D01*
X7750023Y27422929D01*
X7719785Y27392691D01*
X7659309Y27362453D01*
X7508119Y27362453D01*
X7447642Y27392691D01*
X7417404Y27422929D01*
X7387166Y27483405D01*
X7387166Y27604358D01*
X7417404Y27664834D01*
X7447642Y27695072D01*
X7508119Y27725310D01*
X7417404Y26999596D02*
X7387166Y27060072D01*
X7356928Y27090310D01*
X7296452Y27120548D01*
X7266214Y27120548D01*
X7205738Y27090310D01*
X7175500Y27060072D01*
X7145261Y26999596D01*
X7145261Y26878643D01*
X7175500Y26818167D01*
X7205738Y26787929D01*
X7266214Y26757691D01*
X7296452Y26757691D01*
X7356928Y26787929D01*
X7387166Y26818167D01*
X7417404Y26878643D01*
X7417404Y26999596D01*
X7447642Y27060072D01*
X7477880Y27090310D01*
X7538357Y27120548D01*
X7659309Y27120548D01*
X7719785Y27090310D01*
X7750023Y27060072D01*
X7780261Y26999596D01*
X7780261Y26878643D01*
X7750023Y26818167D01*
X7719785Y26787929D01*
X7659309Y26757691D01*
X7538357Y26757691D01*
X7477880Y26787929D01*
X7447642Y26818167D01*
X7417404Y26878643D01*
G04 #@! TO.C,D81*
X24647071Y6570739D02*
X24647071Y7205739D01*
X24495880Y7205739D01*
X24405166Y7175500D01*
X24344690Y7115024D01*
X24314452Y7054548D01*
X24284214Y6933596D01*
X24284214Y6842881D01*
X24314452Y6721929D01*
X24344690Y6661453D01*
X24405166Y6600977D01*
X24495880Y6570739D01*
X24647071Y6570739D01*
X23921357Y6933596D02*
X23981833Y6963834D01*
X24012071Y6994072D01*
X24042309Y7054548D01*
X24042309Y7084786D01*
X24012071Y7145262D01*
X23981833Y7175500D01*
X23921357Y7205739D01*
X23800404Y7205739D01*
X23739928Y7175500D01*
X23709690Y7145262D01*
X23679452Y7084786D01*
X23679452Y7054548D01*
X23709690Y6994072D01*
X23739928Y6963834D01*
X23800404Y6933596D01*
X23921357Y6933596D01*
X23981833Y6903358D01*
X24012071Y6873120D01*
X24042309Y6812643D01*
X24042309Y6691691D01*
X24012071Y6631215D01*
X23981833Y6600977D01*
X23921357Y6570739D01*
X23800404Y6570739D01*
X23739928Y6600977D01*
X23709690Y6631215D01*
X23679452Y6691691D01*
X23679452Y6812643D01*
X23709690Y6873120D01*
X23739928Y6903358D01*
X23800404Y6933596D01*
X23074690Y6570739D02*
X23437547Y6570739D01*
X23256119Y6570739D02*
X23256119Y7205739D01*
X23316595Y7115024D01*
X23377071Y7054548D01*
X23437547Y7024310D01*
G04 #@! TO.C,C2*
X16355785Y52175834D02*
X16386023Y52206072D01*
X16416261Y52296786D01*
X16416261Y52357262D01*
X16386023Y52447977D01*
X16325547Y52508453D01*
X16265071Y52538691D01*
X16144119Y52568929D01*
X16053404Y52568929D01*
X15932452Y52538691D01*
X15871976Y52508453D01*
X15811500Y52447977D01*
X15781261Y52357262D01*
X15781261Y52296786D01*
X15811500Y52206072D01*
X15841738Y52175834D01*
X15841738Y51933929D02*
X15811500Y51903691D01*
X15781261Y51843215D01*
X15781261Y51692024D01*
X15811500Y51631548D01*
X15841738Y51601310D01*
X15902214Y51571072D01*
X15962690Y51571072D01*
X16053404Y51601310D01*
X16416261Y51964167D01*
X16416261Y51571072D01*
G04 #@! TO.C,R6*
X16742833Y29100539D02*
X16954500Y29402920D01*
X17105690Y29100539D02*
X17105690Y29735539D01*
X16863785Y29735539D01*
X16803309Y29705300D01*
X16773071Y29675062D01*
X16742833Y29614586D01*
X16742833Y29523872D01*
X16773071Y29463396D01*
X16803309Y29433158D01*
X16863785Y29402920D01*
X17105690Y29402920D01*
X16198547Y29735539D02*
X16319500Y29735539D01*
X16379976Y29705300D01*
X16410214Y29675062D01*
X16470690Y29584348D01*
X16500928Y29463396D01*
X16500928Y29221491D01*
X16470690Y29161015D01*
X16440452Y29130777D01*
X16379976Y29100539D01*
X16259023Y29100539D01*
X16198547Y29130777D01*
X16168309Y29161015D01*
X16138071Y29221491D01*
X16138071Y29372681D01*
X16168309Y29433158D01*
X16198547Y29463396D01*
X16259023Y29493634D01*
X16379976Y29493634D01*
X16440452Y29463396D01*
X16470690Y29433158D01*
X16500928Y29372681D01*
G04 #@! TO.C,C1*
X17631833Y51462215D02*
X17662071Y51431977D01*
X17752785Y51401739D01*
X17813261Y51401739D01*
X17903976Y51431977D01*
X17964452Y51492453D01*
X17994690Y51552929D01*
X18024928Y51673881D01*
X18024928Y51764596D01*
X17994690Y51885548D01*
X17964452Y51946024D01*
X17903976Y52006500D01*
X17813261Y52036739D01*
X17752785Y52036739D01*
X17662071Y52006500D01*
X17631833Y51976262D01*
X17027071Y51401739D02*
X17389928Y51401739D01*
X17208500Y51401739D02*
X17208500Y52036739D01*
X17268976Y51946024D01*
X17329452Y51885548D01*
X17389928Y51855310D01*
G04 #@! TO.C,T81*
X27465261Y7771191D02*
X27465261Y7408334D01*
X28100261Y7589762D02*
X27465261Y7589762D01*
X27737404Y7105953D02*
X27707166Y7166429D01*
X27676928Y7196667D01*
X27616452Y7226905D01*
X27586214Y7226905D01*
X27525738Y7196667D01*
X27495500Y7166429D01*
X27465261Y7105953D01*
X27465261Y6985000D01*
X27495500Y6924524D01*
X27525738Y6894286D01*
X27586214Y6864048D01*
X27616452Y6864048D01*
X27676928Y6894286D01*
X27707166Y6924524D01*
X27737404Y6985000D01*
X27737404Y7105953D01*
X27767642Y7166429D01*
X27797880Y7196667D01*
X27858357Y7226905D01*
X27979309Y7226905D01*
X28039785Y7196667D01*
X28070023Y7166429D01*
X28100261Y7105953D01*
X28100261Y6985000D01*
X28070023Y6924524D01*
X28039785Y6894286D01*
X27979309Y6864048D01*
X27858357Y6864048D01*
X27797880Y6894286D01*
X27767642Y6924524D01*
X27737404Y6985000D01*
X28100261Y6259286D02*
X28100261Y6622143D01*
X28100261Y6440715D02*
X27465261Y6440715D01*
X27555976Y6501191D01*
X27616452Y6561667D01*
X27646690Y6622143D01*
G04 #@! TO.C,D41*
X22207461Y33156072D02*
X21572461Y33156072D01*
X21572461Y33004881D01*
X21602700Y32914167D01*
X21663176Y32853691D01*
X21723652Y32823453D01*
X21844604Y32793215D01*
X21935319Y32793215D01*
X22056271Y32823453D01*
X22116747Y32853691D01*
X22177223Y32914167D01*
X22207461Y33004881D01*
X22207461Y33156072D01*
X21784128Y32248929D02*
X22207461Y32248929D01*
X21542223Y32400120D02*
X21995795Y32551310D01*
X21995795Y32158215D01*
X22207461Y31583691D02*
X22207461Y31946548D01*
X22207461Y31765120D02*
X21572461Y31765120D01*
X21663176Y31825596D01*
X21723652Y31886072D01*
X21753890Y31946548D01*
G04 #@! TO.C,Q81*
X19920857Y17432262D02*
X19981333Y17462500D01*
X20041809Y17522977D01*
X20132523Y17613691D01*
X20193000Y17643929D01*
X20253476Y17643929D01*
X20223238Y17492739D02*
X20283714Y17522977D01*
X20344190Y17583453D01*
X20374428Y17704405D01*
X20374428Y17916072D01*
X20344190Y18037024D01*
X20283714Y18097500D01*
X20223238Y18127739D01*
X20102285Y18127739D01*
X20041809Y18097500D01*
X19981333Y18037024D01*
X19951095Y17916072D01*
X19951095Y17704405D01*
X19981333Y17583453D01*
X20041809Y17522977D01*
X20102285Y17492739D01*
X20223238Y17492739D01*
X19588238Y17855596D02*
X19648714Y17885834D01*
X19678952Y17916072D01*
X19709190Y17976548D01*
X19709190Y18006786D01*
X19678952Y18067262D01*
X19648714Y18097500D01*
X19588238Y18127739D01*
X19467285Y18127739D01*
X19406809Y18097500D01*
X19376571Y18067262D01*
X19346333Y18006786D01*
X19346333Y17976548D01*
X19376571Y17916072D01*
X19406809Y17885834D01*
X19467285Y17855596D01*
X19588238Y17855596D01*
X19648714Y17825358D01*
X19678952Y17795120D01*
X19709190Y17734643D01*
X19709190Y17613691D01*
X19678952Y17553215D01*
X19648714Y17522977D01*
X19588238Y17492739D01*
X19467285Y17492739D01*
X19406809Y17522977D01*
X19376571Y17553215D01*
X19346333Y17613691D01*
X19346333Y17734643D01*
X19376571Y17795120D01*
X19406809Y17825358D01*
X19467285Y17855596D01*
X18741571Y17492739D02*
X19104428Y17492739D01*
X18923000Y17492739D02*
X18923000Y18127739D01*
X18983476Y18037024D01*
X19043952Y17976548D01*
X19104428Y17946310D01*
G04 #@! TO.C,R4*
X19464261Y47984834D02*
X19161880Y48196500D01*
X19464261Y48347691D02*
X18829261Y48347691D01*
X18829261Y48105786D01*
X18859500Y48045310D01*
X18889738Y48015072D01*
X18950214Y47984834D01*
X19040928Y47984834D01*
X19101404Y48015072D01*
X19131642Y48045310D01*
X19161880Y48105786D01*
X19161880Y48347691D01*
X19040928Y47440548D02*
X19464261Y47440548D01*
X18799023Y47591739D02*
X19252595Y47742929D01*
X19252595Y47349834D01*
G04 #@! TO.C,C17*
X8282214Y41810215D02*
X8312452Y41779977D01*
X8403166Y41749739D01*
X8463642Y41749739D01*
X8554357Y41779977D01*
X8614833Y41840453D01*
X8645071Y41900929D01*
X8675309Y42021881D01*
X8675309Y42112596D01*
X8645071Y42233548D01*
X8614833Y42294024D01*
X8554357Y42354500D01*
X8463642Y42384739D01*
X8403166Y42384739D01*
X8312452Y42354500D01*
X8282214Y42324262D01*
X7677452Y41749739D02*
X8040309Y41749739D01*
X7858880Y41749739D02*
X7858880Y42384739D01*
X7919357Y42294024D01*
X7979833Y42233548D01*
X8040309Y42203310D01*
X7465785Y42384739D02*
X7042452Y42384739D01*
X7314595Y41749739D01*
G04 #@! TO.C,C9*
X21314833Y43842215D02*
X21345071Y43811977D01*
X21435785Y43781739D01*
X21496261Y43781739D01*
X21586976Y43811977D01*
X21647452Y43872453D01*
X21677690Y43932929D01*
X21707928Y44053881D01*
X21707928Y44144596D01*
X21677690Y44265548D01*
X21647452Y44326024D01*
X21586976Y44386500D01*
X21496261Y44416739D01*
X21435785Y44416739D01*
X21345071Y44386500D01*
X21314833Y44356262D01*
X21012452Y43781739D02*
X20891500Y43781739D01*
X20831023Y43811977D01*
X20800785Y43842215D01*
X20740309Y43932929D01*
X20710071Y44053881D01*
X20710071Y44295786D01*
X20740309Y44356262D01*
X20770547Y44386500D01*
X20831023Y44416739D01*
X20951976Y44416739D01*
X21012452Y44386500D01*
X21042690Y44356262D01*
X21072928Y44295786D01*
X21072928Y44144596D01*
X21042690Y44084120D01*
X21012452Y44053881D01*
X20951976Y44023643D01*
X20831023Y44023643D01*
X20770547Y44053881D01*
X20740309Y44084120D01*
X20710071Y44144596D01*
G04 #@! TO.C,R2*
X22004261Y39348834D02*
X21701880Y39560500D01*
X22004261Y39711691D02*
X21369261Y39711691D01*
X21369261Y39469786D01*
X21399500Y39409310D01*
X21429738Y39379072D01*
X21490214Y39348834D01*
X21580928Y39348834D01*
X21641404Y39379072D01*
X21671642Y39409310D01*
X21701880Y39469786D01*
X21701880Y39711691D01*
X21429738Y39106929D02*
X21399500Y39076691D01*
X21369261Y39016215D01*
X21369261Y38865024D01*
X21399500Y38804548D01*
X21429738Y38774310D01*
X21490214Y38744072D01*
X21550690Y38744072D01*
X21641404Y38774310D01*
X22004261Y39137167D01*
X22004261Y38744072D01*
G04 #@! TO.C,D96*
X4351261Y35696072D02*
X3716261Y35696072D01*
X3716261Y35544881D01*
X3746500Y35454167D01*
X3806976Y35393691D01*
X3867452Y35363453D01*
X3988404Y35333215D01*
X4079119Y35333215D01*
X4200071Y35363453D01*
X4260547Y35393691D01*
X4321023Y35454167D01*
X4351261Y35544881D01*
X4351261Y35696072D01*
X4351261Y35030834D02*
X4351261Y34909881D01*
X4321023Y34849405D01*
X4290785Y34819167D01*
X4200071Y34758691D01*
X4079119Y34728453D01*
X3837214Y34728453D01*
X3776738Y34758691D01*
X3746500Y34788929D01*
X3716261Y34849405D01*
X3716261Y34970358D01*
X3746500Y35030834D01*
X3776738Y35061072D01*
X3837214Y35091310D01*
X3988404Y35091310D01*
X4048880Y35061072D01*
X4079119Y35030834D01*
X4109357Y34970358D01*
X4109357Y34849405D01*
X4079119Y34788929D01*
X4048880Y34758691D01*
X3988404Y34728453D01*
X3716261Y34184167D02*
X3716261Y34305120D01*
X3746500Y34365596D01*
X3776738Y34395834D01*
X3867452Y34456310D01*
X3988404Y34486548D01*
X4230309Y34486548D01*
X4290785Y34456310D01*
X4321023Y34426072D01*
X4351261Y34365596D01*
X4351261Y34244643D01*
X4321023Y34184167D01*
X4290785Y34153929D01*
X4230309Y34123691D01*
X4079119Y34123691D01*
X4018642Y34153929D01*
X3988404Y34184167D01*
X3958166Y34244643D01*
X3958166Y34365596D01*
X3988404Y34426072D01*
X4018642Y34456310D01*
X4079119Y34486548D01*
G04 #@! TO.C,C63*
X6322785Y22379215D02*
X6353023Y22409453D01*
X6383261Y22500167D01*
X6383261Y22560643D01*
X6353023Y22651358D01*
X6292547Y22711834D01*
X6232071Y22742072D01*
X6111119Y22772310D01*
X6020404Y22772310D01*
X5899452Y22742072D01*
X5838976Y22711834D01*
X5778500Y22651358D01*
X5748261Y22560643D01*
X5748261Y22500167D01*
X5778500Y22409453D01*
X5808738Y22379215D01*
X5748261Y21834929D02*
X5748261Y21955881D01*
X5778500Y22016358D01*
X5808738Y22046596D01*
X5899452Y22107072D01*
X6020404Y22137310D01*
X6262309Y22137310D01*
X6322785Y22107072D01*
X6353023Y22076834D01*
X6383261Y22016358D01*
X6383261Y21895405D01*
X6353023Y21834929D01*
X6322785Y21804691D01*
X6262309Y21774453D01*
X6111119Y21774453D01*
X6050642Y21804691D01*
X6020404Y21834929D01*
X5990166Y21895405D01*
X5990166Y22016358D01*
X6020404Y22076834D01*
X6050642Y22107072D01*
X6111119Y22137310D01*
X5748261Y21562786D02*
X5748261Y21169691D01*
X5990166Y21381358D01*
X5990166Y21290643D01*
X6020404Y21230167D01*
X6050642Y21199929D01*
X6111119Y21169691D01*
X6262309Y21169691D01*
X6322785Y21199929D01*
X6353023Y21230167D01*
X6383261Y21290643D01*
X6383261Y21472072D01*
X6353023Y21532548D01*
X6322785Y21562786D01*
G04 #@! TO.C,C43*
X21562785Y25046215D02*
X21593023Y25076453D01*
X21623261Y25167167D01*
X21623261Y25227643D01*
X21593023Y25318358D01*
X21532547Y25378834D01*
X21472071Y25409072D01*
X21351119Y25439310D01*
X21260404Y25439310D01*
X21139452Y25409072D01*
X21078976Y25378834D01*
X21018500Y25318358D01*
X20988261Y25227643D01*
X20988261Y25167167D01*
X21018500Y25076453D01*
X21048738Y25046215D01*
X21199928Y24501929D02*
X21623261Y24501929D01*
X20958023Y24653120D02*
X21411595Y24804310D01*
X21411595Y24411215D01*
X20988261Y24229786D02*
X20988261Y23836691D01*
X21230166Y24048358D01*
X21230166Y23957643D01*
X21260404Y23897167D01*
X21290642Y23866929D01*
X21351119Y23836691D01*
X21502309Y23836691D01*
X21562785Y23866929D01*
X21593023Y23897167D01*
X21623261Y23957643D01*
X21623261Y24139072D01*
X21593023Y24199548D01*
X21562785Y24229786D01*
G04 #@! TO.C,C19*
X8155214Y40413215D02*
X8185452Y40382977D01*
X8276166Y40352739D01*
X8336642Y40352739D01*
X8427357Y40382977D01*
X8487833Y40443453D01*
X8518071Y40503929D01*
X8548309Y40624881D01*
X8548309Y40715596D01*
X8518071Y40836548D01*
X8487833Y40897024D01*
X8427357Y40957500D01*
X8336642Y40987739D01*
X8276166Y40987739D01*
X8185452Y40957500D01*
X8155214Y40927262D01*
X7550452Y40352739D02*
X7913309Y40352739D01*
X7731880Y40352739D02*
X7731880Y40987739D01*
X7792357Y40897024D01*
X7852833Y40836548D01*
X7913309Y40806310D01*
X7248071Y40352739D02*
X7127119Y40352739D01*
X7066642Y40382977D01*
X7036404Y40413215D01*
X6975928Y40503929D01*
X6945690Y40624881D01*
X6945690Y40866786D01*
X6975928Y40927262D01*
X7006166Y40957500D01*
X7066642Y40987739D01*
X7187595Y40987739D01*
X7248071Y40957500D01*
X7278309Y40927262D01*
X7308547Y40866786D01*
X7308547Y40715596D01*
X7278309Y40655120D01*
X7248071Y40624881D01*
X7187595Y40594643D01*
X7066642Y40594643D01*
X7006166Y40624881D01*
X6975928Y40655120D01*
X6945690Y40715596D01*
G04 #@! TO.C,C4*
X5687785Y49508834D02*
X5718023Y49539072D01*
X5748261Y49629786D01*
X5748261Y49690262D01*
X5718023Y49780977D01*
X5657547Y49841453D01*
X5597071Y49871691D01*
X5476119Y49901929D01*
X5385404Y49901929D01*
X5264452Y49871691D01*
X5203976Y49841453D01*
X5143500Y49780977D01*
X5113261Y49690262D01*
X5113261Y49629786D01*
X5143500Y49539072D01*
X5173738Y49508834D01*
X5324928Y48964548D02*
X5748261Y48964548D01*
X5083023Y49115739D02*
X5536595Y49266929D01*
X5536595Y48873834D01*
G04 #@! TO.C,D94*
X4351261Y41665072D02*
X3716261Y41665072D01*
X3716261Y41513881D01*
X3746500Y41423167D01*
X3806976Y41362691D01*
X3867452Y41332453D01*
X3988404Y41302215D01*
X4079119Y41302215D01*
X4200071Y41332453D01*
X4260547Y41362691D01*
X4321023Y41423167D01*
X4351261Y41513881D01*
X4351261Y41665072D01*
X4351261Y40999834D02*
X4351261Y40878881D01*
X4321023Y40818405D01*
X4290785Y40788167D01*
X4200071Y40727691D01*
X4079119Y40697453D01*
X3837214Y40697453D01*
X3776738Y40727691D01*
X3746500Y40757929D01*
X3716261Y40818405D01*
X3716261Y40939358D01*
X3746500Y40999834D01*
X3776738Y41030072D01*
X3837214Y41060310D01*
X3988404Y41060310D01*
X4048880Y41030072D01*
X4079119Y40999834D01*
X4109357Y40939358D01*
X4109357Y40818405D01*
X4079119Y40757929D01*
X4048880Y40727691D01*
X3988404Y40697453D01*
X3927928Y40153167D02*
X4351261Y40153167D01*
X3686023Y40304358D02*
X4139595Y40455548D01*
X4139595Y40062453D01*
G04 #@! TO.C,C90*
X18569214Y28602215D02*
X18599452Y28571977D01*
X18690166Y28541739D01*
X18750642Y28541739D01*
X18841357Y28571977D01*
X18901833Y28632453D01*
X18932071Y28692929D01*
X18962309Y28813881D01*
X18962309Y28904596D01*
X18932071Y29025548D01*
X18901833Y29086024D01*
X18841357Y29146500D01*
X18750642Y29176739D01*
X18690166Y29176739D01*
X18599452Y29146500D01*
X18569214Y29116262D01*
X18266833Y28541739D02*
X18145880Y28541739D01*
X18085404Y28571977D01*
X18055166Y28602215D01*
X17994690Y28692929D01*
X17964452Y28813881D01*
X17964452Y29055786D01*
X17994690Y29116262D01*
X18024928Y29146500D01*
X18085404Y29176739D01*
X18206357Y29176739D01*
X18266833Y29146500D01*
X18297071Y29116262D01*
X18327309Y29055786D01*
X18327309Y28904596D01*
X18297071Y28844120D01*
X18266833Y28813881D01*
X18206357Y28783643D01*
X18085404Y28783643D01*
X18024928Y28813881D01*
X17994690Y28844120D01*
X17964452Y28904596D01*
X17571357Y29176739D02*
X17510880Y29176739D01*
X17450404Y29146500D01*
X17420166Y29116262D01*
X17389928Y29055786D01*
X17359690Y28934834D01*
X17359690Y28783643D01*
X17389928Y28662691D01*
X17420166Y28602215D01*
X17450404Y28571977D01*
X17510880Y28541739D01*
X17571357Y28541739D01*
X17631833Y28571977D01*
X17662071Y28602215D01*
X17692309Y28662691D01*
X17722547Y28783643D01*
X17722547Y28934834D01*
X17692309Y29055786D01*
X17662071Y29116262D01*
X17631833Y29146500D01*
X17571357Y29176739D01*
G04 #@! TO.C,C14*
X8917214Y50573215D02*
X8947452Y50542977D01*
X9038166Y50512739D01*
X9098642Y50512739D01*
X9189357Y50542977D01*
X9249833Y50603453D01*
X9280071Y50663929D01*
X9310309Y50784881D01*
X9310309Y50875596D01*
X9280071Y50996548D01*
X9249833Y51057024D01*
X9189357Y51117500D01*
X9098642Y51147739D01*
X9038166Y51147739D01*
X8947452Y51117500D01*
X8917214Y51087262D01*
X8312452Y50512739D02*
X8675309Y50512739D01*
X8493880Y50512739D02*
X8493880Y51147739D01*
X8554357Y51057024D01*
X8614833Y50996548D01*
X8675309Y50966310D01*
X7768166Y50936072D02*
X7768166Y50512739D01*
X7919357Y51177977D02*
X8070547Y50724405D01*
X7677452Y50724405D01*
G04 #@! TO.C,C6*
X19911785Y52048834D02*
X19942023Y52079072D01*
X19972261Y52169786D01*
X19972261Y52230262D01*
X19942023Y52320977D01*
X19881547Y52381453D01*
X19821071Y52411691D01*
X19700119Y52441929D01*
X19609404Y52441929D01*
X19488452Y52411691D01*
X19427976Y52381453D01*
X19367500Y52320977D01*
X19337261Y52230262D01*
X19337261Y52169786D01*
X19367500Y52079072D01*
X19397738Y52048834D01*
X19337261Y51504548D02*
X19337261Y51625500D01*
X19367500Y51685977D01*
X19397738Y51716215D01*
X19488452Y51776691D01*
X19609404Y51806929D01*
X19851309Y51806929D01*
X19911785Y51776691D01*
X19942023Y51746453D01*
X19972261Y51685977D01*
X19972261Y51565024D01*
X19942023Y51504548D01*
X19911785Y51474310D01*
X19851309Y51444072D01*
X19700119Y51444072D01*
X19639642Y51474310D01*
X19609404Y51504548D01*
X19579166Y51565024D01*
X19579166Y51685977D01*
X19609404Y51746453D01*
X19639642Y51776691D01*
X19700119Y51806929D01*
G04 #@! TO.C,D83*
X16519071Y23842739D02*
X16519071Y24477739D01*
X16367880Y24477739D01*
X16277166Y24447500D01*
X16216690Y24387024D01*
X16186452Y24326548D01*
X16156214Y24205596D01*
X16156214Y24114881D01*
X16186452Y23993929D01*
X16216690Y23933453D01*
X16277166Y23872977D01*
X16367880Y23842739D01*
X16519071Y23842739D01*
X15793357Y24205596D02*
X15853833Y24235834D01*
X15884071Y24266072D01*
X15914309Y24326548D01*
X15914309Y24356786D01*
X15884071Y24417262D01*
X15853833Y24447500D01*
X15793357Y24477739D01*
X15672404Y24477739D01*
X15611928Y24447500D01*
X15581690Y24417262D01*
X15551452Y24356786D01*
X15551452Y24326548D01*
X15581690Y24266072D01*
X15611928Y24235834D01*
X15672404Y24205596D01*
X15793357Y24205596D01*
X15853833Y24175358D01*
X15884071Y24145120D01*
X15914309Y24084643D01*
X15914309Y23963691D01*
X15884071Y23903215D01*
X15853833Y23872977D01*
X15793357Y23842739D01*
X15672404Y23842739D01*
X15611928Y23872977D01*
X15581690Y23903215D01*
X15551452Y23963691D01*
X15551452Y24084643D01*
X15581690Y24145120D01*
X15611928Y24175358D01*
X15672404Y24205596D01*
X15339785Y24477739D02*
X14946690Y24477739D01*
X15158357Y24235834D01*
X15067642Y24235834D01*
X15007166Y24205596D01*
X14976928Y24175358D01*
X14946690Y24114881D01*
X14946690Y23963691D01*
X14976928Y23903215D01*
X15007166Y23872977D01*
X15067642Y23842739D01*
X15249071Y23842739D01*
X15309547Y23872977D01*
X15339785Y23903215D01*
G04 #@! TO.C,D31*
X6129261Y36204072D02*
X5494261Y36204072D01*
X5494261Y36052881D01*
X5524500Y35962167D01*
X5584976Y35901691D01*
X5645452Y35871453D01*
X5766404Y35841215D01*
X5857119Y35841215D01*
X5978071Y35871453D01*
X6038547Y35901691D01*
X6099023Y35962167D01*
X6129261Y36052881D01*
X6129261Y36204072D01*
X5494261Y35629548D02*
X5494261Y35236453D01*
X5736166Y35448120D01*
X5736166Y35357405D01*
X5766404Y35296929D01*
X5796642Y35266691D01*
X5857119Y35236453D01*
X6008309Y35236453D01*
X6068785Y35266691D01*
X6099023Y35296929D01*
X6129261Y35357405D01*
X6129261Y35538834D01*
X6099023Y35599310D01*
X6068785Y35629548D01*
X6129261Y34631691D02*
X6129261Y34994548D01*
X6129261Y34813120D02*
X5494261Y34813120D01*
X5584976Y34873596D01*
X5645452Y34934072D01*
X5675690Y34994548D01*
G04 #@! TO.C,D101*
X25560261Y49587453D02*
X24925261Y49587453D01*
X24925261Y49436262D01*
X24955500Y49345548D01*
X25015976Y49285072D01*
X25076452Y49254834D01*
X25197404Y49224596D01*
X25288119Y49224596D01*
X25409071Y49254834D01*
X25469547Y49285072D01*
X25530023Y49345548D01*
X25560261Y49436262D01*
X25560261Y49587453D01*
X25560261Y48619834D02*
X25560261Y48982691D01*
X25560261Y48801262D02*
X24925261Y48801262D01*
X25015976Y48861739D01*
X25076452Y48922215D01*
X25106690Y48982691D01*
X24925261Y48226739D02*
X24925261Y48166262D01*
X24955500Y48105786D01*
X24985738Y48075548D01*
X25046214Y48045310D01*
X25167166Y48015072D01*
X25318357Y48015072D01*
X25439309Y48045310D01*
X25499785Y48075548D01*
X25530023Y48105786D01*
X25560261Y48166262D01*
X25560261Y48226739D01*
X25530023Y48287215D01*
X25499785Y48317453D01*
X25439309Y48347691D01*
X25318357Y48377929D01*
X25167166Y48377929D01*
X25046214Y48347691D01*
X24985738Y48317453D01*
X24955500Y48287215D01*
X24925261Y48226739D01*
X25560261Y47410310D02*
X25560261Y47773167D01*
X25560261Y47591739D02*
X24925261Y47591739D01*
X25015976Y47652215D01*
X25076452Y47712691D01*
X25106690Y47773167D01*
G04 #@! TO.C,S31*
X11327190Y35048977D02*
X11236476Y35018739D01*
X11085285Y35018739D01*
X11024809Y35048977D01*
X10994571Y35079215D01*
X10964333Y35139691D01*
X10964333Y35200167D01*
X10994571Y35260643D01*
X11024809Y35290881D01*
X11085285Y35321120D01*
X11206238Y35351358D01*
X11266714Y35381596D01*
X11296952Y35411834D01*
X11327190Y35472310D01*
X11327190Y35532786D01*
X11296952Y35593262D01*
X11266714Y35623500D01*
X11206238Y35653739D01*
X11055047Y35653739D01*
X10964333Y35623500D01*
X10752666Y35653739D02*
X10359571Y35653739D01*
X10571238Y35411834D01*
X10480523Y35411834D01*
X10420047Y35381596D01*
X10389809Y35351358D01*
X10359571Y35290881D01*
X10359571Y35139691D01*
X10389809Y35079215D01*
X10420047Y35048977D01*
X10480523Y35018739D01*
X10661952Y35018739D01*
X10722428Y35048977D01*
X10752666Y35079215D01*
X9754809Y35018739D02*
X10117666Y35018739D01*
X9936238Y35018739D02*
X9936238Y35653739D01*
X9996714Y35563024D01*
X10057190Y35502548D01*
X10117666Y35472310D01*
G04 #@! TO.C,C83*
X20165785Y16664215D02*
X20196023Y16694453D01*
X20226261Y16785167D01*
X20226261Y16845643D01*
X20196023Y16936358D01*
X20135547Y16996834D01*
X20075071Y17027072D01*
X19954119Y17057310D01*
X19863404Y17057310D01*
X19742452Y17027072D01*
X19681976Y16996834D01*
X19621500Y16936358D01*
X19591261Y16845643D01*
X19591261Y16785167D01*
X19621500Y16694453D01*
X19651738Y16664215D01*
X19863404Y16301358D02*
X19833166Y16361834D01*
X19802928Y16392072D01*
X19742452Y16422310D01*
X19712214Y16422310D01*
X19651738Y16392072D01*
X19621500Y16361834D01*
X19591261Y16301358D01*
X19591261Y16180405D01*
X19621500Y16119929D01*
X19651738Y16089691D01*
X19712214Y16059453D01*
X19742452Y16059453D01*
X19802928Y16089691D01*
X19833166Y16119929D01*
X19863404Y16180405D01*
X19863404Y16301358D01*
X19893642Y16361834D01*
X19923880Y16392072D01*
X19984357Y16422310D01*
X20105309Y16422310D01*
X20165785Y16392072D01*
X20196023Y16361834D01*
X20226261Y16301358D01*
X20226261Y16180405D01*
X20196023Y16119929D01*
X20165785Y16089691D01*
X20105309Y16059453D01*
X19984357Y16059453D01*
X19923880Y16089691D01*
X19893642Y16119929D01*
X19863404Y16180405D01*
X19591261Y15847786D02*
X19591261Y15454691D01*
X19833166Y15666358D01*
X19833166Y15575643D01*
X19863404Y15515167D01*
X19893642Y15484929D01*
X19954119Y15454691D01*
X20105309Y15454691D01*
X20165785Y15484929D01*
X20196023Y15515167D01*
X20226261Y15575643D01*
X20226261Y15757072D01*
X20196023Y15817548D01*
X20165785Y15847786D01*
G04 #@! TO.C,D1*
X18883690Y52290739D02*
X18883690Y52925739D01*
X18732500Y52925739D01*
X18641785Y52895500D01*
X18581309Y52835024D01*
X18551071Y52774548D01*
X18520833Y52653596D01*
X18520833Y52562881D01*
X18551071Y52441929D01*
X18581309Y52381453D01*
X18641785Y52320977D01*
X18732500Y52290739D01*
X18883690Y52290739D01*
X17916071Y52290739D02*
X18278928Y52290739D01*
X18097500Y52290739D02*
X18097500Y52925739D01*
X18157976Y52835024D01*
X18218452Y52774548D01*
X18278928Y52744310D01*
G04 #@! TO.C,D99*
X5216071Y26763739D02*
X5216071Y27398739D01*
X5064880Y27398739D01*
X4974166Y27368500D01*
X4913690Y27308024D01*
X4883452Y27247548D01*
X4853214Y27126596D01*
X4853214Y27035881D01*
X4883452Y26914929D01*
X4913690Y26854453D01*
X4974166Y26793977D01*
X5064880Y26763739D01*
X5216071Y26763739D01*
X4550833Y26763739D02*
X4429880Y26763739D01*
X4369404Y26793977D01*
X4339166Y26824215D01*
X4278690Y26914929D01*
X4248452Y27035881D01*
X4248452Y27277786D01*
X4278690Y27338262D01*
X4308928Y27368500D01*
X4369404Y27398739D01*
X4490357Y27398739D01*
X4550833Y27368500D01*
X4581071Y27338262D01*
X4611309Y27277786D01*
X4611309Y27126596D01*
X4581071Y27066120D01*
X4550833Y27035881D01*
X4490357Y27005643D01*
X4369404Y27005643D01*
X4308928Y27035881D01*
X4278690Y27066120D01*
X4248452Y27126596D01*
X3946071Y26763739D02*
X3825119Y26763739D01*
X3764642Y26793977D01*
X3734404Y26824215D01*
X3673928Y26914929D01*
X3643690Y27035881D01*
X3643690Y27277786D01*
X3673928Y27338262D01*
X3704166Y27368500D01*
X3764642Y27398739D01*
X3885595Y27398739D01*
X3946071Y27368500D01*
X3976309Y27338262D01*
X4006547Y27277786D01*
X4006547Y27126596D01*
X3976309Y27066120D01*
X3946071Y27035881D01*
X3885595Y27005643D01*
X3764642Y27005643D01*
X3704166Y27035881D01*
X3673928Y27066120D01*
X3643690Y27126596D01*
G04 #@! TO.C,L4*
X7907261Y39729834D02*
X7907261Y40032215D01*
X7272261Y40032215D01*
X7483928Y39246024D02*
X7907261Y39246024D01*
X7242023Y39397215D02*
X7695595Y39548405D01*
X7695595Y39155310D01*
G04 #@! TO.C,R32*
X5742214Y36415739D02*
X5953880Y36718120D01*
X6105071Y36415739D02*
X6105071Y37050739D01*
X5863166Y37050739D01*
X5802690Y37020500D01*
X5772452Y36990262D01*
X5742214Y36929786D01*
X5742214Y36839072D01*
X5772452Y36778596D01*
X5802690Y36748358D01*
X5863166Y36718120D01*
X6105071Y36718120D01*
X5530547Y37050739D02*
X5137452Y37050739D01*
X5349119Y36808834D01*
X5258404Y36808834D01*
X5197928Y36778596D01*
X5167690Y36748358D01*
X5137452Y36687881D01*
X5137452Y36536691D01*
X5167690Y36476215D01*
X5197928Y36445977D01*
X5258404Y36415739D01*
X5439833Y36415739D01*
X5500309Y36445977D01*
X5530547Y36476215D01*
X4895547Y36990262D02*
X4865309Y37020500D01*
X4804833Y37050739D01*
X4653642Y37050739D01*
X4593166Y37020500D01*
X4562928Y36990262D01*
X4532690Y36929786D01*
X4532690Y36869310D01*
X4562928Y36778596D01*
X4925785Y36415739D01*
X4532690Y36415739D01*
G04 #@! TO.C,C13*
X21744214Y44731215D02*
X21774452Y44700977D01*
X21865166Y44670739D01*
X21925642Y44670739D01*
X22016357Y44700977D01*
X22076833Y44761453D01*
X22107071Y44821929D01*
X22137309Y44942881D01*
X22137309Y45033596D01*
X22107071Y45154548D01*
X22076833Y45215024D01*
X22016357Y45275500D01*
X21925642Y45305739D01*
X21865166Y45305739D01*
X21774452Y45275500D01*
X21744214Y45245262D01*
X21139452Y44670739D02*
X21502309Y44670739D01*
X21320880Y44670739D02*
X21320880Y45305739D01*
X21381357Y45215024D01*
X21441833Y45154548D01*
X21502309Y45124310D01*
X20927785Y45305739D02*
X20534690Y45305739D01*
X20746357Y45063834D01*
X20655642Y45063834D01*
X20595166Y45033596D01*
X20564928Y45003358D01*
X20534690Y44942881D01*
X20534690Y44791691D01*
X20564928Y44731215D01*
X20595166Y44700977D01*
X20655642Y44670739D01*
X20837071Y44670739D01*
X20897547Y44700977D01*
X20927785Y44731215D01*
G04 #@! TO.C,R84*
X19337261Y24919215D02*
X19034880Y25130881D01*
X19337261Y25282072D02*
X18702261Y25282072D01*
X18702261Y25040167D01*
X18732500Y24979691D01*
X18762738Y24949453D01*
X18823214Y24919215D01*
X18913928Y24919215D01*
X18974404Y24949453D01*
X19004642Y24979691D01*
X19034880Y25040167D01*
X19034880Y25282072D01*
X18974404Y24556358D02*
X18944166Y24616834D01*
X18913928Y24647072D01*
X18853452Y24677310D01*
X18823214Y24677310D01*
X18762738Y24647072D01*
X18732500Y24616834D01*
X18702261Y24556358D01*
X18702261Y24435405D01*
X18732500Y24374929D01*
X18762738Y24344691D01*
X18823214Y24314453D01*
X18853452Y24314453D01*
X18913928Y24344691D01*
X18944166Y24374929D01*
X18974404Y24435405D01*
X18974404Y24556358D01*
X19004642Y24616834D01*
X19034880Y24647072D01*
X19095357Y24677310D01*
X19216309Y24677310D01*
X19276785Y24647072D01*
X19307023Y24616834D01*
X19337261Y24556358D01*
X19337261Y24435405D01*
X19307023Y24374929D01*
X19276785Y24344691D01*
X19216309Y24314453D01*
X19095357Y24314453D01*
X19034880Y24344691D01*
X19004642Y24374929D01*
X18974404Y24435405D01*
X18913928Y23770167D02*
X19337261Y23770167D01*
X18672023Y23921358D02*
X19125595Y24072548D01*
X19125595Y23679453D01*
G04 #@! TO.C,C86*
X21054785Y21617215D02*
X21085023Y21647453D01*
X21115261Y21738167D01*
X21115261Y21798643D01*
X21085023Y21889358D01*
X21024547Y21949834D01*
X20964071Y21980072D01*
X20843119Y22010310D01*
X20752404Y22010310D01*
X20631452Y21980072D01*
X20570976Y21949834D01*
X20510500Y21889358D01*
X20480261Y21798643D01*
X20480261Y21738167D01*
X20510500Y21647453D01*
X20540738Y21617215D01*
X20752404Y21254358D02*
X20722166Y21314834D01*
X20691928Y21345072D01*
X20631452Y21375310D01*
X20601214Y21375310D01*
X20540738Y21345072D01*
X20510500Y21314834D01*
X20480261Y21254358D01*
X20480261Y21133405D01*
X20510500Y21072929D01*
X20540738Y21042691D01*
X20601214Y21012453D01*
X20631452Y21012453D01*
X20691928Y21042691D01*
X20722166Y21072929D01*
X20752404Y21133405D01*
X20752404Y21254358D01*
X20782642Y21314834D01*
X20812880Y21345072D01*
X20873357Y21375310D01*
X20994309Y21375310D01*
X21054785Y21345072D01*
X21085023Y21314834D01*
X21115261Y21254358D01*
X21115261Y21133405D01*
X21085023Y21072929D01*
X21054785Y21042691D01*
X20994309Y21012453D01*
X20873357Y21012453D01*
X20812880Y21042691D01*
X20782642Y21072929D01*
X20752404Y21133405D01*
X20480261Y20468167D02*
X20480261Y20589120D01*
X20510500Y20649596D01*
X20540738Y20679834D01*
X20631452Y20740310D01*
X20752404Y20770548D01*
X20994309Y20770548D01*
X21054785Y20740310D01*
X21085023Y20710072D01*
X21115261Y20649596D01*
X21115261Y20528643D01*
X21085023Y20468167D01*
X21054785Y20437929D01*
X20994309Y20407691D01*
X20843119Y20407691D01*
X20782642Y20437929D01*
X20752404Y20468167D01*
X20722166Y20528643D01*
X20722166Y20649596D01*
X20752404Y20710072D01*
X20782642Y20740310D01*
X20843119Y20770548D01*
G04 #@! TO.C,U62*
X16280190Y32478739D02*
X16280190Y31964691D01*
X16249952Y31904215D01*
X16219714Y31873977D01*
X16159238Y31843739D01*
X16038285Y31843739D01*
X15977809Y31873977D01*
X15947571Y31904215D01*
X15917333Y31964691D01*
X15917333Y32478739D01*
X15342809Y32478739D02*
X15463761Y32478739D01*
X15524238Y32448500D01*
X15554476Y32418262D01*
X15614952Y32327548D01*
X15645190Y32206596D01*
X15645190Y31964691D01*
X15614952Y31904215D01*
X15584714Y31873977D01*
X15524238Y31843739D01*
X15403285Y31843739D01*
X15342809Y31873977D01*
X15312571Y31904215D01*
X15282333Y31964691D01*
X15282333Y32115881D01*
X15312571Y32176358D01*
X15342809Y32206596D01*
X15403285Y32236834D01*
X15524238Y32236834D01*
X15584714Y32206596D01*
X15614952Y32176358D01*
X15645190Y32115881D01*
X15040428Y32418262D02*
X15010190Y32448500D01*
X14949714Y32478739D01*
X14798523Y32478739D01*
X14738047Y32448500D01*
X14707809Y32418262D01*
X14677571Y32357786D01*
X14677571Y32297310D01*
X14707809Y32206596D01*
X15070666Y31843739D01*
X14677571Y31843739D01*
G04 #@! TO.C,D109*
X25711452Y29811739D02*
X25711452Y30446739D01*
X25560261Y30446739D01*
X25469547Y30416500D01*
X25409071Y30356024D01*
X25378833Y30295548D01*
X25348595Y30174596D01*
X25348595Y30083881D01*
X25378833Y29962929D01*
X25409071Y29902453D01*
X25469547Y29841977D01*
X25560261Y29811739D01*
X25711452Y29811739D01*
X24743833Y29811739D02*
X25106690Y29811739D01*
X24925261Y29811739D02*
X24925261Y30446739D01*
X24985738Y30356024D01*
X25046214Y30295548D01*
X25106690Y30265310D01*
X24350738Y30446739D02*
X24290261Y30446739D01*
X24229785Y30416500D01*
X24199547Y30386262D01*
X24169309Y30325786D01*
X24139071Y30204834D01*
X24139071Y30053643D01*
X24169309Y29932691D01*
X24199547Y29872215D01*
X24229785Y29841977D01*
X24290261Y29811739D01*
X24350738Y29811739D01*
X24411214Y29841977D01*
X24441452Y29872215D01*
X24471690Y29932691D01*
X24501928Y30053643D01*
X24501928Y30204834D01*
X24471690Y30325786D01*
X24441452Y30386262D01*
X24411214Y30416500D01*
X24350738Y30446739D01*
X23836690Y29811739D02*
X23715738Y29811739D01*
X23655261Y29841977D01*
X23625023Y29872215D01*
X23564547Y29962929D01*
X23534309Y30083881D01*
X23534309Y30325786D01*
X23564547Y30386262D01*
X23594785Y30416500D01*
X23655261Y30446739D01*
X23776214Y30446739D01*
X23836690Y30416500D01*
X23866928Y30386262D01*
X23897166Y30325786D01*
X23897166Y30174596D01*
X23866928Y30114120D01*
X23836690Y30083881D01*
X23776214Y30053643D01*
X23655261Y30053643D01*
X23594785Y30083881D01*
X23564547Y30114120D01*
X23534309Y30174596D01*
G04 #@! TO.C,R41*
X24290261Y38000215D02*
X23987880Y38211881D01*
X24290261Y38363072D02*
X23655261Y38363072D01*
X23655261Y38121167D01*
X23685500Y38060691D01*
X23715738Y38030453D01*
X23776214Y38000215D01*
X23866928Y38000215D01*
X23927404Y38030453D01*
X23957642Y38060691D01*
X23987880Y38121167D01*
X23987880Y38363072D01*
X23866928Y37455929D02*
X24290261Y37455929D01*
X23625023Y37607120D02*
X24078595Y37758310D01*
X24078595Y37365215D01*
X24290261Y36790691D02*
X24290261Y37153548D01*
X24290261Y36972120D02*
X23655261Y36972120D01*
X23745976Y37032596D01*
X23806452Y37093072D01*
X23836690Y37153548D01*
G04 #@! TO.C,C32*
X5615214Y39016215D02*
X5645452Y38985977D01*
X5736166Y38955739D01*
X5796642Y38955739D01*
X5887357Y38985977D01*
X5947833Y39046453D01*
X5978071Y39106929D01*
X6008309Y39227881D01*
X6008309Y39318596D01*
X5978071Y39439548D01*
X5947833Y39500024D01*
X5887357Y39560500D01*
X5796642Y39590739D01*
X5736166Y39590739D01*
X5645452Y39560500D01*
X5615214Y39530262D01*
X5403547Y39590739D02*
X5010452Y39590739D01*
X5222119Y39348834D01*
X5131404Y39348834D01*
X5070928Y39318596D01*
X5040690Y39288358D01*
X5010452Y39227881D01*
X5010452Y39076691D01*
X5040690Y39016215D01*
X5070928Y38985977D01*
X5131404Y38955739D01*
X5312833Y38955739D01*
X5373309Y38985977D01*
X5403547Y39016215D01*
X4768547Y39530262D02*
X4738309Y39560500D01*
X4677833Y39590739D01*
X4526642Y39590739D01*
X4466166Y39560500D01*
X4435928Y39530262D01*
X4405690Y39469786D01*
X4405690Y39409310D01*
X4435928Y39318596D01*
X4798785Y38955739D01*
X4405690Y38955739D01*
G04 #@! TO.C,D108*
X25584452Y30700739D02*
X25584452Y31335739D01*
X25433261Y31335739D01*
X25342547Y31305500D01*
X25282071Y31245024D01*
X25251833Y31184548D01*
X25221595Y31063596D01*
X25221595Y30972881D01*
X25251833Y30851929D01*
X25282071Y30791453D01*
X25342547Y30730977D01*
X25433261Y30700739D01*
X25584452Y30700739D01*
X24616833Y30700739D02*
X24979690Y30700739D01*
X24798261Y30700739D02*
X24798261Y31335739D01*
X24858738Y31245024D01*
X24919214Y31184548D01*
X24979690Y31154310D01*
X24223738Y31335739D02*
X24163261Y31335739D01*
X24102785Y31305500D01*
X24072547Y31275262D01*
X24042309Y31214786D01*
X24012071Y31093834D01*
X24012071Y30942643D01*
X24042309Y30821691D01*
X24072547Y30761215D01*
X24102785Y30730977D01*
X24163261Y30700739D01*
X24223738Y30700739D01*
X24284214Y30730977D01*
X24314452Y30761215D01*
X24344690Y30821691D01*
X24374928Y30942643D01*
X24374928Y31093834D01*
X24344690Y31214786D01*
X24314452Y31275262D01*
X24284214Y31305500D01*
X24223738Y31335739D01*
X23649214Y31063596D02*
X23709690Y31093834D01*
X23739928Y31124072D01*
X23770166Y31184548D01*
X23770166Y31214786D01*
X23739928Y31275262D01*
X23709690Y31305500D01*
X23649214Y31335739D01*
X23528261Y31335739D01*
X23467785Y31305500D01*
X23437547Y31275262D01*
X23407309Y31214786D01*
X23407309Y31184548D01*
X23437547Y31124072D01*
X23467785Y31093834D01*
X23528261Y31063596D01*
X23649214Y31063596D01*
X23709690Y31033358D01*
X23739928Y31003120D01*
X23770166Y30942643D01*
X23770166Y30821691D01*
X23739928Y30761215D01*
X23709690Y30730977D01*
X23649214Y30700739D01*
X23528261Y30700739D01*
X23467785Y30730977D01*
X23437547Y30761215D01*
X23407309Y30821691D01*
X23407309Y30942643D01*
X23437547Y31003120D01*
X23467785Y31033358D01*
X23528261Y31063596D01*
G04 #@! TO.C,D102*
X25814261Y46920453D02*
X25179261Y46920453D01*
X25179261Y46769262D01*
X25209500Y46678548D01*
X25269976Y46618072D01*
X25330452Y46587834D01*
X25451404Y46557596D01*
X25542119Y46557596D01*
X25663071Y46587834D01*
X25723547Y46618072D01*
X25784023Y46678548D01*
X25814261Y46769262D01*
X25814261Y46920453D01*
X25814261Y45952834D02*
X25814261Y46315691D01*
X25814261Y46134262D02*
X25179261Y46134262D01*
X25269976Y46194739D01*
X25330452Y46255215D01*
X25360690Y46315691D01*
X25179261Y45559739D02*
X25179261Y45499262D01*
X25209500Y45438786D01*
X25239738Y45408548D01*
X25300214Y45378310D01*
X25421166Y45348072D01*
X25572357Y45348072D01*
X25693309Y45378310D01*
X25753785Y45408548D01*
X25784023Y45438786D01*
X25814261Y45499262D01*
X25814261Y45559739D01*
X25784023Y45620215D01*
X25753785Y45650453D01*
X25693309Y45680691D01*
X25572357Y45710929D01*
X25421166Y45710929D01*
X25300214Y45680691D01*
X25239738Y45650453D01*
X25209500Y45620215D01*
X25179261Y45559739D01*
X25239738Y45106167D02*
X25209500Y45075929D01*
X25179261Y45015453D01*
X25179261Y44864262D01*
X25209500Y44803786D01*
X25239738Y44773548D01*
X25300214Y44743310D01*
X25360690Y44743310D01*
X25451404Y44773548D01*
X25814261Y45136405D01*
X25814261Y44743310D01*
G04 #@! TO.C,C67*
X7774214Y28729215D02*
X7804452Y28698977D01*
X7895166Y28668739D01*
X7955642Y28668739D01*
X8046357Y28698977D01*
X8106833Y28759453D01*
X8137071Y28819929D01*
X8167309Y28940881D01*
X8167309Y29031596D01*
X8137071Y29152548D01*
X8106833Y29213024D01*
X8046357Y29273500D01*
X7955642Y29303739D01*
X7895166Y29303739D01*
X7804452Y29273500D01*
X7774214Y29243262D01*
X7229928Y29303739D02*
X7350880Y29303739D01*
X7411357Y29273500D01*
X7441595Y29243262D01*
X7502071Y29152548D01*
X7532309Y29031596D01*
X7532309Y28789691D01*
X7502071Y28729215D01*
X7471833Y28698977D01*
X7411357Y28668739D01*
X7290404Y28668739D01*
X7229928Y28698977D01*
X7199690Y28729215D01*
X7169452Y28789691D01*
X7169452Y28940881D01*
X7199690Y29001358D01*
X7229928Y29031596D01*
X7290404Y29061834D01*
X7411357Y29061834D01*
X7471833Y29031596D01*
X7502071Y29001358D01*
X7532309Y28940881D01*
X6957785Y29303739D02*
X6534452Y29303739D01*
X6806595Y28668739D01*
G04 #@! TO.C,C64*
X8028214Y21236215D02*
X8058452Y21205977D01*
X8149166Y21175739D01*
X8209642Y21175739D01*
X8300357Y21205977D01*
X8360833Y21266453D01*
X8391071Y21326929D01*
X8421309Y21447881D01*
X8421309Y21538596D01*
X8391071Y21659548D01*
X8360833Y21720024D01*
X8300357Y21780500D01*
X8209642Y21810739D01*
X8149166Y21810739D01*
X8058452Y21780500D01*
X8028214Y21750262D01*
X7483928Y21810739D02*
X7604880Y21810739D01*
X7665357Y21780500D01*
X7695595Y21750262D01*
X7756071Y21659548D01*
X7786309Y21538596D01*
X7786309Y21296691D01*
X7756071Y21236215D01*
X7725833Y21205977D01*
X7665357Y21175739D01*
X7544404Y21175739D01*
X7483928Y21205977D01*
X7453690Y21236215D01*
X7423452Y21296691D01*
X7423452Y21447881D01*
X7453690Y21508358D01*
X7483928Y21538596D01*
X7544404Y21568834D01*
X7665357Y21568834D01*
X7725833Y21538596D01*
X7756071Y21508358D01*
X7786309Y21447881D01*
X6879166Y21599072D02*
X6879166Y21175739D01*
X7030357Y21840977D02*
X7181547Y21387405D01*
X6788452Y21387405D01*
G04 #@! TO.C,R67*
X11463261Y32412215D02*
X11160880Y32623881D01*
X11463261Y32775072D02*
X10828261Y32775072D01*
X10828261Y32533167D01*
X10858500Y32472691D01*
X10888738Y32442453D01*
X10949214Y32412215D01*
X11039928Y32412215D01*
X11100404Y32442453D01*
X11130642Y32472691D01*
X11160880Y32533167D01*
X11160880Y32775072D01*
X10828261Y31867929D02*
X10828261Y31988881D01*
X10858500Y32049358D01*
X10888738Y32079596D01*
X10979452Y32140072D01*
X11100404Y32170310D01*
X11342309Y32170310D01*
X11402785Y32140072D01*
X11433023Y32109834D01*
X11463261Y32049358D01*
X11463261Y31928405D01*
X11433023Y31867929D01*
X11402785Y31837691D01*
X11342309Y31807453D01*
X11191119Y31807453D01*
X11130642Y31837691D01*
X11100404Y31867929D01*
X11070166Y31928405D01*
X11070166Y32049358D01*
X11100404Y32109834D01*
X11130642Y32140072D01*
X11191119Y32170310D01*
X10828261Y31595786D02*
X10828261Y31172453D01*
X11463261Y31444596D01*
G04 #@! TO.C,U82*
X19455190Y32351739D02*
X19455190Y31837691D01*
X19424952Y31777215D01*
X19394714Y31746977D01*
X19334238Y31716739D01*
X19213285Y31716739D01*
X19152809Y31746977D01*
X19122571Y31777215D01*
X19092333Y31837691D01*
X19092333Y32351739D01*
X18699238Y32079596D02*
X18759714Y32109834D01*
X18789952Y32140072D01*
X18820190Y32200548D01*
X18820190Y32230786D01*
X18789952Y32291262D01*
X18759714Y32321500D01*
X18699238Y32351739D01*
X18578285Y32351739D01*
X18517809Y32321500D01*
X18487571Y32291262D01*
X18457333Y32230786D01*
X18457333Y32200548D01*
X18487571Y32140072D01*
X18517809Y32109834D01*
X18578285Y32079596D01*
X18699238Y32079596D01*
X18759714Y32049358D01*
X18789952Y32019120D01*
X18820190Y31958643D01*
X18820190Y31837691D01*
X18789952Y31777215D01*
X18759714Y31746977D01*
X18699238Y31716739D01*
X18578285Y31716739D01*
X18517809Y31746977D01*
X18487571Y31777215D01*
X18457333Y31837691D01*
X18457333Y31958643D01*
X18487571Y32019120D01*
X18517809Y32049358D01*
X18578285Y32079596D01*
X18215428Y32291262D02*
X18185190Y32321500D01*
X18124714Y32351739D01*
X17973523Y32351739D01*
X17913047Y32321500D01*
X17882809Y32291262D01*
X17852571Y32230786D01*
X17852571Y32170310D01*
X17882809Y32079596D01*
X18245666Y31716739D01*
X17852571Y31716739D01*
G04 #@! TO.C,R81*
X18829261Y20728215D02*
X18526880Y20939881D01*
X18829261Y21091072D02*
X18194261Y21091072D01*
X18194261Y20849167D01*
X18224500Y20788691D01*
X18254738Y20758453D01*
X18315214Y20728215D01*
X18405928Y20728215D01*
X18466404Y20758453D01*
X18496642Y20788691D01*
X18526880Y20849167D01*
X18526880Y21091072D01*
X18466404Y20365358D02*
X18436166Y20425834D01*
X18405928Y20456072D01*
X18345452Y20486310D01*
X18315214Y20486310D01*
X18254738Y20456072D01*
X18224500Y20425834D01*
X18194261Y20365358D01*
X18194261Y20244405D01*
X18224500Y20183929D01*
X18254738Y20153691D01*
X18315214Y20123453D01*
X18345452Y20123453D01*
X18405928Y20153691D01*
X18436166Y20183929D01*
X18466404Y20244405D01*
X18466404Y20365358D01*
X18496642Y20425834D01*
X18526880Y20456072D01*
X18587357Y20486310D01*
X18708309Y20486310D01*
X18768785Y20456072D01*
X18799023Y20425834D01*
X18829261Y20365358D01*
X18829261Y20244405D01*
X18799023Y20183929D01*
X18768785Y20153691D01*
X18708309Y20123453D01*
X18587357Y20123453D01*
X18526880Y20153691D01*
X18496642Y20183929D01*
X18466404Y20244405D01*
X18829261Y19518691D02*
X18829261Y19881548D01*
X18829261Y19700120D02*
X18194261Y19700120D01*
X18284976Y19760596D01*
X18345452Y19821072D01*
X18375690Y19881548D01*
G04 #@! TO.C,C31*
X11965214Y33047215D02*
X11995452Y33016977D01*
X12086166Y32986739D01*
X12146642Y32986739D01*
X12237357Y33016977D01*
X12297833Y33077453D01*
X12328071Y33137929D01*
X12358309Y33258881D01*
X12358309Y33349596D01*
X12328071Y33470548D01*
X12297833Y33531024D01*
X12237357Y33591500D01*
X12146642Y33621739D01*
X12086166Y33621739D01*
X11995452Y33591500D01*
X11965214Y33561262D01*
X11753547Y33621739D02*
X11360452Y33621739D01*
X11572119Y33379834D01*
X11481404Y33379834D01*
X11420928Y33349596D01*
X11390690Y33319358D01*
X11360452Y33258881D01*
X11360452Y33107691D01*
X11390690Y33047215D01*
X11420928Y33016977D01*
X11481404Y32986739D01*
X11662833Y32986739D01*
X11723309Y33016977D01*
X11753547Y33047215D01*
X10755690Y32986739D02*
X11118547Y32986739D01*
X10937119Y32986739D02*
X10937119Y33621739D01*
X10997595Y33531024D01*
X11058071Y33470548D01*
X11118547Y33440310D01*
G04 #@! TO.C,C42*
X22070785Y35333215D02*
X22101023Y35363453D01*
X22131261Y35454167D01*
X22131261Y35514643D01*
X22101023Y35605358D01*
X22040547Y35665834D01*
X21980071Y35696072D01*
X21859119Y35726310D01*
X21768404Y35726310D01*
X21647452Y35696072D01*
X21586976Y35665834D01*
X21526500Y35605358D01*
X21496261Y35514643D01*
X21496261Y35454167D01*
X21526500Y35363453D01*
X21556738Y35333215D01*
X21707928Y34788929D02*
X22131261Y34788929D01*
X21466023Y34940120D02*
X21919595Y35091310D01*
X21919595Y34698215D01*
X21556738Y34486548D02*
X21526500Y34456310D01*
X21496261Y34395834D01*
X21496261Y34244643D01*
X21526500Y34184167D01*
X21556738Y34153929D01*
X21617214Y34123691D01*
X21677690Y34123691D01*
X21768404Y34153929D01*
X22131261Y34516786D01*
X22131261Y34123691D01*
G04 #@! TO.C,R70*
X8028214Y22953739D02*
X8239880Y23256120D01*
X8391071Y22953739D02*
X8391071Y23588739D01*
X8149166Y23588739D01*
X8088690Y23558500D01*
X8058452Y23528262D01*
X8028214Y23467786D01*
X8028214Y23377072D01*
X8058452Y23316596D01*
X8088690Y23286358D01*
X8149166Y23256120D01*
X8391071Y23256120D01*
X7816547Y23588739D02*
X7393214Y23588739D01*
X7665357Y22953739D01*
X7030357Y23588739D02*
X6969880Y23588739D01*
X6909404Y23558500D01*
X6879166Y23528262D01*
X6848928Y23467786D01*
X6818690Y23346834D01*
X6818690Y23195643D01*
X6848928Y23074691D01*
X6879166Y23014215D01*
X6909404Y22983977D01*
X6969880Y22953739D01*
X7030357Y22953739D01*
X7090833Y22983977D01*
X7121071Y23014215D01*
X7151309Y23074691D01*
X7181547Y23195643D01*
X7181547Y23346834D01*
X7151309Y23467786D01*
X7121071Y23528262D01*
X7090833Y23558500D01*
X7030357Y23588739D01*
G04 #@! TO.C,D100*
X5772452Y24223739D02*
X5772452Y24858739D01*
X5621261Y24858739D01*
X5530547Y24828500D01*
X5470071Y24768024D01*
X5439833Y24707548D01*
X5409595Y24586596D01*
X5409595Y24495881D01*
X5439833Y24374929D01*
X5470071Y24314453D01*
X5530547Y24253977D01*
X5621261Y24223739D01*
X5772452Y24223739D01*
X4804833Y24223739D02*
X5167690Y24223739D01*
X4986261Y24223739D02*
X4986261Y24858739D01*
X5046738Y24768024D01*
X5107214Y24707548D01*
X5167690Y24677310D01*
X4411738Y24858739D02*
X4351261Y24858739D01*
X4290785Y24828500D01*
X4260547Y24798262D01*
X4230309Y24737786D01*
X4200071Y24616834D01*
X4200071Y24465643D01*
X4230309Y24344691D01*
X4260547Y24284215D01*
X4290785Y24253977D01*
X4351261Y24223739D01*
X4411738Y24223739D01*
X4472214Y24253977D01*
X4502452Y24284215D01*
X4532690Y24344691D01*
X4562928Y24465643D01*
X4562928Y24616834D01*
X4532690Y24737786D01*
X4502452Y24798262D01*
X4472214Y24828500D01*
X4411738Y24858739D01*
X3806976Y24858739D02*
X3746500Y24858739D01*
X3686023Y24828500D01*
X3655785Y24798262D01*
X3625547Y24737786D01*
X3595309Y24616834D01*
X3595309Y24465643D01*
X3625547Y24344691D01*
X3655785Y24284215D01*
X3686023Y24253977D01*
X3746500Y24223739D01*
X3806976Y24223739D01*
X3867452Y24253977D01*
X3897690Y24284215D01*
X3927928Y24344691D01*
X3958166Y24465643D01*
X3958166Y24616834D01*
X3927928Y24737786D01*
X3897690Y24798262D01*
X3867452Y24828500D01*
X3806976Y24858739D01*
G04 #@! TO.C,D110*
X26576261Y20377453D02*
X25941261Y20377453D01*
X25941261Y20226262D01*
X25971500Y20135548D01*
X26031976Y20075072D01*
X26092452Y20044834D01*
X26213404Y20014596D01*
X26304119Y20014596D01*
X26425071Y20044834D01*
X26485547Y20075072D01*
X26546023Y20135548D01*
X26576261Y20226262D01*
X26576261Y20377453D01*
X26576261Y19409834D02*
X26576261Y19772691D01*
X26576261Y19591262D02*
X25941261Y19591262D01*
X26031976Y19651739D01*
X26092452Y19712215D01*
X26122690Y19772691D01*
X26576261Y18805072D02*
X26576261Y19167929D01*
X26576261Y18986500D02*
X25941261Y18986500D01*
X26031976Y19046977D01*
X26092452Y19107453D01*
X26122690Y19167929D01*
X25941261Y18411977D02*
X25941261Y18351500D01*
X25971500Y18291024D01*
X26001738Y18260786D01*
X26062214Y18230548D01*
X26183166Y18200310D01*
X26334357Y18200310D01*
X26455309Y18230548D01*
X26515785Y18260786D01*
X26546023Y18291024D01*
X26576261Y18351500D01*
X26576261Y18411977D01*
X26546023Y18472453D01*
X26515785Y18502691D01*
X26455309Y18532929D01*
X26334357Y18563167D01*
X26183166Y18563167D01*
X26062214Y18532929D01*
X26001738Y18502691D01*
X25971500Y18472453D01*
X25941261Y18411977D01*
G04 #@! TO.C,U2*
X15215809Y41368739D02*
X15215809Y40854691D01*
X15185571Y40794215D01*
X15155333Y40763977D01*
X15094857Y40733739D01*
X14973904Y40733739D01*
X14913428Y40763977D01*
X14883190Y40794215D01*
X14852952Y40854691D01*
X14852952Y41368739D01*
X14580809Y41308262D02*
X14550571Y41338500D01*
X14490095Y41368739D01*
X14338904Y41368739D01*
X14278428Y41338500D01*
X14248190Y41308262D01*
X14217952Y41247786D01*
X14217952Y41187310D01*
X14248190Y41096596D01*
X14611047Y40733739D01*
X14217952Y40733739D01*
G04 #@! TO.C,R1*
X20861261Y51667834D02*
X20558880Y51879500D01*
X20861261Y52030691D02*
X20226261Y52030691D01*
X20226261Y51788786D01*
X20256500Y51728310D01*
X20286738Y51698072D01*
X20347214Y51667834D01*
X20437928Y51667834D01*
X20498404Y51698072D01*
X20528642Y51728310D01*
X20558880Y51788786D01*
X20558880Y52030691D01*
X20861261Y51063072D02*
X20861261Y51425929D01*
X20861261Y51244500D02*
X20226261Y51244500D01*
X20316976Y51304977D01*
X20377452Y51365453D01*
X20407690Y51425929D01*
G04 #@! TO.C,R71*
X15908261Y23141215D02*
X15605880Y23352881D01*
X15908261Y23504072D02*
X15273261Y23504072D01*
X15273261Y23262167D01*
X15303500Y23201691D01*
X15333738Y23171453D01*
X15394214Y23141215D01*
X15484928Y23141215D01*
X15545404Y23171453D01*
X15575642Y23201691D01*
X15605880Y23262167D01*
X15605880Y23504072D01*
X15273261Y22929548D02*
X15273261Y22506215D01*
X15908261Y22778358D01*
X15908261Y21931691D02*
X15908261Y22294548D01*
X15908261Y22113120D02*
X15273261Y22113120D01*
X15363976Y22173596D01*
X15424452Y22234072D01*
X15454690Y22294548D01*
G04 #@! TO.C,C74*
X6957785Y32412215D02*
X6988023Y32442453D01*
X7018261Y32533167D01*
X7018261Y32593643D01*
X6988023Y32684358D01*
X6927547Y32744834D01*
X6867071Y32775072D01*
X6746119Y32805310D01*
X6655404Y32805310D01*
X6534452Y32775072D01*
X6473976Y32744834D01*
X6413500Y32684358D01*
X6383261Y32593643D01*
X6383261Y32533167D01*
X6413500Y32442453D01*
X6443738Y32412215D01*
X6383261Y32200548D02*
X6383261Y31777215D01*
X7018261Y32049358D01*
X6594928Y31263167D02*
X7018261Y31263167D01*
X6353023Y31414358D02*
X6806595Y31565548D01*
X6806595Y31172453D01*
G04 #@! TO.C,R82*
X15781261Y21363215D02*
X15478880Y21574881D01*
X15781261Y21726072D02*
X15146261Y21726072D01*
X15146261Y21484167D01*
X15176500Y21423691D01*
X15206738Y21393453D01*
X15267214Y21363215D01*
X15357928Y21363215D01*
X15418404Y21393453D01*
X15448642Y21423691D01*
X15478880Y21484167D01*
X15478880Y21726072D01*
X15418404Y21000358D02*
X15388166Y21060834D01*
X15357928Y21091072D01*
X15297452Y21121310D01*
X15267214Y21121310D01*
X15206738Y21091072D01*
X15176500Y21060834D01*
X15146261Y21000358D01*
X15146261Y20879405D01*
X15176500Y20818929D01*
X15206738Y20788691D01*
X15267214Y20758453D01*
X15297452Y20758453D01*
X15357928Y20788691D01*
X15388166Y20818929D01*
X15418404Y20879405D01*
X15418404Y21000358D01*
X15448642Y21060834D01*
X15478880Y21091072D01*
X15539357Y21121310D01*
X15660309Y21121310D01*
X15720785Y21091072D01*
X15751023Y21060834D01*
X15781261Y21000358D01*
X15781261Y20879405D01*
X15751023Y20818929D01*
X15720785Y20788691D01*
X15660309Y20758453D01*
X15539357Y20758453D01*
X15478880Y20788691D01*
X15448642Y20818929D01*
X15418404Y20879405D01*
X15206738Y20516548D02*
X15176500Y20486310D01*
X15146261Y20425834D01*
X15146261Y20274643D01*
X15176500Y20214167D01*
X15206738Y20183929D01*
X15267214Y20153691D01*
X15327690Y20153691D01*
X15418404Y20183929D01*
X15781261Y20546786D01*
X15781261Y20153691D01*
G04 #@! TO.C,R63*
X4605261Y22379215D02*
X4302880Y22590881D01*
X4605261Y22742072D02*
X3970261Y22742072D01*
X3970261Y22500167D01*
X4000500Y22439691D01*
X4030738Y22409453D01*
X4091214Y22379215D01*
X4181928Y22379215D01*
X4242404Y22409453D01*
X4272642Y22439691D01*
X4302880Y22500167D01*
X4302880Y22742072D01*
X3970261Y21834929D02*
X3970261Y21955881D01*
X4000500Y22016358D01*
X4030738Y22046596D01*
X4121452Y22107072D01*
X4242404Y22137310D01*
X4484309Y22137310D01*
X4544785Y22107072D01*
X4575023Y22076834D01*
X4605261Y22016358D01*
X4605261Y21895405D01*
X4575023Y21834929D01*
X4544785Y21804691D01*
X4484309Y21774453D01*
X4333119Y21774453D01*
X4272642Y21804691D01*
X4242404Y21834929D01*
X4212166Y21895405D01*
X4212166Y22016358D01*
X4242404Y22076834D01*
X4272642Y22107072D01*
X4333119Y22137310D01*
X3970261Y21562786D02*
X3970261Y21169691D01*
X4212166Y21381358D01*
X4212166Y21290643D01*
X4242404Y21230167D01*
X4272642Y21199929D01*
X4333119Y21169691D01*
X4484309Y21169691D01*
X4544785Y21199929D01*
X4575023Y21230167D01*
X4605261Y21290643D01*
X4605261Y21472072D01*
X4575023Y21532548D01*
X4544785Y21562786D01*
G04 #@! TO.C,L82*
X19966214Y21429739D02*
X20268595Y21429739D01*
X20268595Y22064739D01*
X19663833Y21792596D02*
X19724309Y21822834D01*
X19754547Y21853072D01*
X19784785Y21913548D01*
X19784785Y21943786D01*
X19754547Y22004262D01*
X19724309Y22034500D01*
X19663833Y22064739D01*
X19542880Y22064739D01*
X19482404Y22034500D01*
X19452166Y22004262D01*
X19421928Y21943786D01*
X19421928Y21913548D01*
X19452166Y21853072D01*
X19482404Y21822834D01*
X19542880Y21792596D01*
X19663833Y21792596D01*
X19724309Y21762358D01*
X19754547Y21732120D01*
X19784785Y21671643D01*
X19784785Y21550691D01*
X19754547Y21490215D01*
X19724309Y21459977D01*
X19663833Y21429739D01*
X19542880Y21429739D01*
X19482404Y21459977D01*
X19452166Y21490215D01*
X19421928Y21550691D01*
X19421928Y21671643D01*
X19452166Y21732120D01*
X19482404Y21762358D01*
X19542880Y21792596D01*
X19180023Y22004262D02*
X19149785Y22034500D01*
X19089309Y22064739D01*
X18938119Y22064739D01*
X18877642Y22034500D01*
X18847404Y22004262D01*
X18817166Y21943786D01*
X18817166Y21883310D01*
X18847404Y21792596D01*
X19210261Y21429739D01*
X18817166Y21429739D01*
G04 #@! TO.C,R68*
X17045214Y25239739D02*
X17256880Y25542120D01*
X17408071Y25239739D02*
X17408071Y25874739D01*
X17166166Y25874739D01*
X17105690Y25844500D01*
X17075452Y25814262D01*
X17045214Y25753786D01*
X17045214Y25663072D01*
X17075452Y25602596D01*
X17105690Y25572358D01*
X17166166Y25542120D01*
X17408071Y25542120D01*
X16500928Y25874739D02*
X16621880Y25874739D01*
X16682357Y25844500D01*
X16712595Y25814262D01*
X16773071Y25723548D01*
X16803309Y25602596D01*
X16803309Y25360691D01*
X16773071Y25300215D01*
X16742833Y25269977D01*
X16682357Y25239739D01*
X16561404Y25239739D01*
X16500928Y25269977D01*
X16470690Y25300215D01*
X16440452Y25360691D01*
X16440452Y25511881D01*
X16470690Y25572358D01*
X16500928Y25602596D01*
X16561404Y25632834D01*
X16682357Y25632834D01*
X16742833Y25602596D01*
X16773071Y25572358D01*
X16803309Y25511881D01*
X16077595Y25602596D02*
X16138071Y25632834D01*
X16168309Y25663072D01*
X16198547Y25723548D01*
X16198547Y25753786D01*
X16168309Y25814262D01*
X16138071Y25844500D01*
X16077595Y25874739D01*
X15956642Y25874739D01*
X15896166Y25844500D01*
X15865928Y25814262D01*
X15835690Y25753786D01*
X15835690Y25723548D01*
X15865928Y25663072D01*
X15896166Y25632834D01*
X15956642Y25602596D01*
X16077595Y25602596D01*
X16138071Y25572358D01*
X16168309Y25542120D01*
X16198547Y25481643D01*
X16198547Y25360691D01*
X16168309Y25300215D01*
X16138071Y25269977D01*
X16077595Y25239739D01*
X15956642Y25239739D01*
X15896166Y25269977D01*
X15865928Y25300215D01*
X15835690Y25360691D01*
X15835690Y25481643D01*
X15865928Y25542120D01*
X15896166Y25572358D01*
X15956642Y25602596D01*
G04 #@! TO.C,R52*
X25814261Y38762215D02*
X25511880Y38973881D01*
X25814261Y39125072D02*
X25179261Y39125072D01*
X25179261Y38883167D01*
X25209500Y38822691D01*
X25239738Y38792453D01*
X25300214Y38762215D01*
X25390928Y38762215D01*
X25451404Y38792453D01*
X25481642Y38822691D01*
X25511880Y38883167D01*
X25511880Y39125072D01*
X25179261Y38187691D02*
X25179261Y38490072D01*
X25481642Y38520310D01*
X25451404Y38490072D01*
X25421166Y38429596D01*
X25421166Y38278405D01*
X25451404Y38217929D01*
X25481642Y38187691D01*
X25542119Y38157453D01*
X25693309Y38157453D01*
X25753785Y38187691D01*
X25784023Y38217929D01*
X25814261Y38278405D01*
X25814261Y38429596D01*
X25784023Y38490072D01*
X25753785Y38520310D01*
X25239738Y37915548D02*
X25209500Y37885310D01*
X25179261Y37824834D01*
X25179261Y37673643D01*
X25209500Y37613167D01*
X25239738Y37582929D01*
X25300214Y37552691D01*
X25360690Y37552691D01*
X25451404Y37582929D01*
X25814261Y37945786D01*
X25814261Y37552691D01*
G04 #@! TO.C,C72*
X5433785Y30634215D02*
X5464023Y30664453D01*
X5494261Y30755167D01*
X5494261Y30815643D01*
X5464023Y30906358D01*
X5403547Y30966834D01*
X5343071Y30997072D01*
X5222119Y31027310D01*
X5131404Y31027310D01*
X5010452Y30997072D01*
X4949976Y30966834D01*
X4889500Y30906358D01*
X4859261Y30815643D01*
X4859261Y30755167D01*
X4889500Y30664453D01*
X4919738Y30634215D01*
X4859261Y30422548D02*
X4859261Y29999215D01*
X5494261Y30271358D01*
X4919738Y29787548D02*
X4889500Y29757310D01*
X4859261Y29696834D01*
X4859261Y29545643D01*
X4889500Y29485167D01*
X4919738Y29454929D01*
X4980214Y29424691D01*
X5040690Y29424691D01*
X5131404Y29454929D01*
X5494261Y29817786D01*
X5494261Y29424691D01*
G04 #@! TO.C,R54*
X25300214Y43019739D02*
X25511880Y43322120D01*
X25663071Y43019739D02*
X25663071Y43654739D01*
X25421166Y43654739D01*
X25360690Y43624500D01*
X25330452Y43594262D01*
X25300214Y43533786D01*
X25300214Y43443072D01*
X25330452Y43382596D01*
X25360690Y43352358D01*
X25421166Y43322120D01*
X25663071Y43322120D01*
X24725690Y43654739D02*
X25028071Y43654739D01*
X25058309Y43352358D01*
X25028071Y43382596D01*
X24967595Y43412834D01*
X24816404Y43412834D01*
X24755928Y43382596D01*
X24725690Y43352358D01*
X24695452Y43291881D01*
X24695452Y43140691D01*
X24725690Y43080215D01*
X24755928Y43049977D01*
X24816404Y43019739D01*
X24967595Y43019739D01*
X25028071Y43049977D01*
X25058309Y43080215D01*
X24151166Y43443072D02*
X24151166Y43019739D01*
X24302357Y43684977D02*
X24453547Y43231405D01*
X24060452Y43231405D01*
G04 #@! TO.C,U31*
X8279190Y34891739D02*
X8279190Y34377691D01*
X8248952Y34317215D01*
X8218714Y34286977D01*
X8158238Y34256739D01*
X8037285Y34256739D01*
X7976809Y34286977D01*
X7946571Y34317215D01*
X7916333Y34377691D01*
X7916333Y34891739D01*
X7674428Y34891739D02*
X7281333Y34891739D01*
X7493000Y34649834D01*
X7402285Y34649834D01*
X7341809Y34619596D01*
X7311571Y34589358D01*
X7281333Y34528881D01*
X7281333Y34377691D01*
X7311571Y34317215D01*
X7341809Y34286977D01*
X7402285Y34256739D01*
X7583714Y34256739D01*
X7644190Y34286977D01*
X7674428Y34317215D01*
X6676571Y34256739D02*
X7039428Y34256739D01*
X6858000Y34256739D02*
X6858000Y34891739D01*
X6918476Y34801024D01*
X6978952Y34740548D01*
X7039428Y34710310D01*
G04 #@! TO.C,R3*
X5748261Y47857834D02*
X5445880Y48069500D01*
X5748261Y48220691D02*
X5113261Y48220691D01*
X5113261Y47978786D01*
X5143500Y47918310D01*
X5173738Y47888072D01*
X5234214Y47857834D01*
X5324928Y47857834D01*
X5385404Y47888072D01*
X5415642Y47918310D01*
X5445880Y47978786D01*
X5445880Y48220691D01*
X5113261Y47646167D02*
X5113261Y47253072D01*
X5355166Y47464739D01*
X5355166Y47374024D01*
X5385404Y47313548D01*
X5415642Y47283310D01*
X5476119Y47253072D01*
X5627309Y47253072D01*
X5687785Y47283310D01*
X5718023Y47313548D01*
X5748261Y47374024D01*
X5748261Y47555453D01*
X5718023Y47615929D01*
X5687785Y47646167D01*
G04 #@! TO.C,R85*
X23909261Y25046215D02*
X23606880Y25257881D01*
X23909261Y25409072D02*
X23274261Y25409072D01*
X23274261Y25167167D01*
X23304500Y25106691D01*
X23334738Y25076453D01*
X23395214Y25046215D01*
X23485928Y25046215D01*
X23546404Y25076453D01*
X23576642Y25106691D01*
X23606880Y25167167D01*
X23606880Y25409072D01*
X23546404Y24683358D02*
X23516166Y24743834D01*
X23485928Y24774072D01*
X23425452Y24804310D01*
X23395214Y24804310D01*
X23334738Y24774072D01*
X23304500Y24743834D01*
X23274261Y24683358D01*
X23274261Y24562405D01*
X23304500Y24501929D01*
X23334738Y24471691D01*
X23395214Y24441453D01*
X23425452Y24441453D01*
X23485928Y24471691D01*
X23516166Y24501929D01*
X23546404Y24562405D01*
X23546404Y24683358D01*
X23576642Y24743834D01*
X23606880Y24774072D01*
X23667357Y24804310D01*
X23788309Y24804310D01*
X23848785Y24774072D01*
X23879023Y24743834D01*
X23909261Y24683358D01*
X23909261Y24562405D01*
X23879023Y24501929D01*
X23848785Y24471691D01*
X23788309Y24441453D01*
X23667357Y24441453D01*
X23606880Y24471691D01*
X23576642Y24501929D01*
X23546404Y24562405D01*
X23274261Y23866929D02*
X23274261Y24169310D01*
X23576642Y24199548D01*
X23546404Y24169310D01*
X23516166Y24108834D01*
X23516166Y23957643D01*
X23546404Y23897167D01*
X23576642Y23866929D01*
X23637119Y23836691D01*
X23788309Y23836691D01*
X23848785Y23866929D01*
X23879023Y23897167D01*
X23909261Y23957643D01*
X23909261Y24108834D01*
X23879023Y24169310D01*
X23848785Y24199548D01*
G04 #@! TO.C,D104*
X25711452Y40225739D02*
X25711452Y40860739D01*
X25560261Y40860739D01*
X25469547Y40830500D01*
X25409071Y40770024D01*
X25378833Y40709548D01*
X25348595Y40588596D01*
X25348595Y40497881D01*
X25378833Y40376929D01*
X25409071Y40316453D01*
X25469547Y40255977D01*
X25560261Y40225739D01*
X25711452Y40225739D01*
X24743833Y40225739D02*
X25106690Y40225739D01*
X24925261Y40225739D02*
X24925261Y40860739D01*
X24985738Y40770024D01*
X25046214Y40709548D01*
X25106690Y40679310D01*
X24350738Y40860739D02*
X24290261Y40860739D01*
X24229785Y40830500D01*
X24199547Y40800262D01*
X24169309Y40739786D01*
X24139071Y40618834D01*
X24139071Y40467643D01*
X24169309Y40346691D01*
X24199547Y40286215D01*
X24229785Y40255977D01*
X24290261Y40225739D01*
X24350738Y40225739D01*
X24411214Y40255977D01*
X24441452Y40286215D01*
X24471690Y40346691D01*
X24501928Y40467643D01*
X24501928Y40618834D01*
X24471690Y40739786D01*
X24441452Y40800262D01*
X24411214Y40830500D01*
X24350738Y40860739D01*
X23594785Y40649072D02*
X23594785Y40225739D01*
X23745976Y40890977D02*
X23897166Y40437405D01*
X23504071Y40437405D01*
G04 #@! TO.C,D91*
X4351261Y48523072D02*
X3716261Y48523072D01*
X3716261Y48371881D01*
X3746500Y48281167D01*
X3806976Y48220691D01*
X3867452Y48190453D01*
X3988404Y48160215D01*
X4079119Y48160215D01*
X4200071Y48190453D01*
X4260547Y48220691D01*
X4321023Y48281167D01*
X4351261Y48371881D01*
X4351261Y48523072D01*
X4351261Y47857834D02*
X4351261Y47736881D01*
X4321023Y47676405D01*
X4290785Y47646167D01*
X4200071Y47585691D01*
X4079119Y47555453D01*
X3837214Y47555453D01*
X3776738Y47585691D01*
X3746500Y47615929D01*
X3716261Y47676405D01*
X3716261Y47797358D01*
X3746500Y47857834D01*
X3776738Y47888072D01*
X3837214Y47918310D01*
X3988404Y47918310D01*
X4048880Y47888072D01*
X4079119Y47857834D01*
X4109357Y47797358D01*
X4109357Y47676405D01*
X4079119Y47615929D01*
X4048880Y47585691D01*
X3988404Y47555453D01*
X4351261Y46950691D02*
X4351261Y47313548D01*
X4351261Y47132120D02*
X3716261Y47132120D01*
X3806976Y47192596D01*
X3867452Y47253072D01*
X3897690Y47313548D01*
G04 #@! TO.C,D105*
X25179261Y37141453D02*
X24544261Y37141453D01*
X24544261Y36990262D01*
X24574500Y36899548D01*
X24634976Y36839072D01*
X24695452Y36808834D01*
X24816404Y36778596D01*
X24907119Y36778596D01*
X25028071Y36808834D01*
X25088547Y36839072D01*
X25149023Y36899548D01*
X25179261Y36990262D01*
X25179261Y37141453D01*
X25179261Y36173834D02*
X25179261Y36536691D01*
X25179261Y36355262D02*
X24544261Y36355262D01*
X24634976Y36415739D01*
X24695452Y36476215D01*
X24725690Y36536691D01*
X24544261Y35780739D02*
X24544261Y35720262D01*
X24574500Y35659786D01*
X24604738Y35629548D01*
X24665214Y35599310D01*
X24786166Y35569072D01*
X24937357Y35569072D01*
X25058309Y35599310D01*
X25118785Y35629548D01*
X25149023Y35659786D01*
X25179261Y35720262D01*
X25179261Y35780739D01*
X25149023Y35841215D01*
X25118785Y35871453D01*
X25058309Y35901691D01*
X24937357Y35931929D01*
X24786166Y35931929D01*
X24665214Y35901691D01*
X24604738Y35871453D01*
X24574500Y35841215D01*
X24544261Y35780739D01*
X24544261Y34994548D02*
X24544261Y35296929D01*
X24846642Y35327167D01*
X24816404Y35296929D01*
X24786166Y35236453D01*
X24786166Y35085262D01*
X24816404Y35024786D01*
X24846642Y34994548D01*
X24907119Y34964310D01*
X25058309Y34964310D01*
X25118785Y34994548D01*
X25149023Y35024786D01*
X25179261Y35085262D01*
X25179261Y35236453D01*
X25149023Y35296929D01*
X25118785Y35327167D01*
G04 #@! TO.C,D103*
X25711452Y43908739D02*
X25711452Y44543739D01*
X25560261Y44543739D01*
X25469547Y44513500D01*
X25409071Y44453024D01*
X25378833Y44392548D01*
X25348595Y44271596D01*
X25348595Y44180881D01*
X25378833Y44059929D01*
X25409071Y43999453D01*
X25469547Y43938977D01*
X25560261Y43908739D01*
X25711452Y43908739D01*
X24743833Y43908739D02*
X25106690Y43908739D01*
X24925261Y43908739D02*
X24925261Y44543739D01*
X24985738Y44453024D01*
X25046214Y44392548D01*
X25106690Y44362310D01*
X24350738Y44543739D02*
X24290261Y44543739D01*
X24229785Y44513500D01*
X24199547Y44483262D01*
X24169309Y44422786D01*
X24139071Y44301834D01*
X24139071Y44150643D01*
X24169309Y44029691D01*
X24199547Y43969215D01*
X24229785Y43938977D01*
X24290261Y43908739D01*
X24350738Y43908739D01*
X24411214Y43938977D01*
X24441452Y43969215D01*
X24471690Y44029691D01*
X24501928Y44150643D01*
X24501928Y44301834D01*
X24471690Y44422786D01*
X24441452Y44483262D01*
X24411214Y44513500D01*
X24350738Y44543739D01*
X23927404Y44543739D02*
X23534309Y44543739D01*
X23745976Y44301834D01*
X23655261Y44301834D01*
X23594785Y44271596D01*
X23564547Y44241358D01*
X23534309Y44180881D01*
X23534309Y44029691D01*
X23564547Y43969215D01*
X23594785Y43938977D01*
X23655261Y43908739D01*
X23836690Y43908739D01*
X23897166Y43938977D01*
X23927404Y43969215D01*
G04 #@! TO.C,Q82*
X18536466Y22870691D02*
X18557848Y22934836D01*
X18557848Y23020362D01*
X18557848Y23148652D01*
X18579229Y23212796D01*
X18621992Y23255559D01*
X18707519Y23127270D02*
X18728900Y23191415D01*
X18728900Y23276941D01*
X18664756Y23383849D01*
X18515085Y23533520D01*
X18408177Y23597664D01*
X18322651Y23597664D01*
X18258506Y23576283D01*
X18172980Y23490757D01*
X18151598Y23426612D01*
X18151598Y23341086D01*
X18215743Y23234178D01*
X18365414Y23084507D01*
X18472322Y23020362D01*
X18557848Y23020362D01*
X18621992Y23041744D01*
X18707519Y23127270D01*
X18001927Y22934836D02*
X18023309Y22998981D01*
X18023309Y23041744D01*
X18001927Y23105888D01*
X17980546Y23127270D01*
X17916401Y23148652D01*
X17873638Y23148652D01*
X17809493Y23127270D01*
X17723967Y23041744D01*
X17702585Y22977599D01*
X17702585Y22934836D01*
X17723967Y22870691D01*
X17745348Y22849310D01*
X17809493Y22827928D01*
X17852256Y22827928D01*
X17916401Y22849310D01*
X18001927Y22934836D01*
X18066072Y22956218D01*
X18108835Y22956218D01*
X18172980Y22934836D01*
X18258506Y22849310D01*
X18279887Y22785165D01*
X18279887Y22742402D01*
X18258506Y22678257D01*
X18172980Y22592731D01*
X18108835Y22571349D01*
X18066072Y22571349D01*
X18001927Y22592731D01*
X17916401Y22678257D01*
X17895019Y22742402D01*
X17895019Y22785165D01*
X17916401Y22849310D01*
X17510151Y22742402D02*
X17467388Y22742402D01*
X17403243Y22721020D01*
X17296336Y22614113D01*
X17274954Y22549968D01*
X17274954Y22507205D01*
X17296336Y22443060D01*
X17339099Y22400297D01*
X17424625Y22357534D01*
X17937782Y22357534D01*
X17659822Y22079573D01*
G04 #@! TO.C,R8*
X20679833Y39463739D02*
X20891500Y39766120D01*
X21042690Y39463739D02*
X21042690Y40098739D01*
X20800785Y40098739D01*
X20740309Y40068500D01*
X20710071Y40038262D01*
X20679833Y39977786D01*
X20679833Y39887072D01*
X20710071Y39826596D01*
X20740309Y39796358D01*
X20800785Y39766120D01*
X21042690Y39766120D01*
X20316976Y39826596D02*
X20377452Y39856834D01*
X20407690Y39887072D01*
X20437928Y39947548D01*
X20437928Y39977786D01*
X20407690Y40038262D01*
X20377452Y40068500D01*
X20316976Y40098739D01*
X20196023Y40098739D01*
X20135547Y40068500D01*
X20105309Y40038262D01*
X20075071Y39977786D01*
X20075071Y39947548D01*
X20105309Y39887072D01*
X20135547Y39856834D01*
X20196023Y39826596D01*
X20316976Y39826596D01*
X20377452Y39796358D01*
X20407690Y39766120D01*
X20437928Y39705643D01*
X20437928Y39584691D01*
X20407690Y39524215D01*
X20377452Y39493977D01*
X20316976Y39463739D01*
X20196023Y39463739D01*
X20135547Y39493977D01*
X20105309Y39524215D01*
X20075071Y39584691D01*
X20075071Y39705643D01*
X20105309Y39766120D01*
X20135547Y39796358D01*
X20196023Y39826596D01*
G04 #@! TO.C,R62*
X5081814Y20286739D02*
X5293480Y20589120D01*
X5444671Y20286739D02*
X5444671Y20921739D01*
X5202766Y20921739D01*
X5142290Y20891500D01*
X5112052Y20861262D01*
X5081814Y20800786D01*
X5081814Y20710072D01*
X5112052Y20649596D01*
X5142290Y20619358D01*
X5202766Y20589120D01*
X5444671Y20589120D01*
X4537528Y20921739D02*
X4658480Y20921739D01*
X4718957Y20891500D01*
X4749195Y20861262D01*
X4809671Y20770548D01*
X4839909Y20649596D01*
X4839909Y20407691D01*
X4809671Y20347215D01*
X4779433Y20316977D01*
X4718957Y20286739D01*
X4598004Y20286739D01*
X4537528Y20316977D01*
X4507290Y20347215D01*
X4477052Y20407691D01*
X4477052Y20558881D01*
X4507290Y20619358D01*
X4537528Y20649596D01*
X4598004Y20679834D01*
X4718957Y20679834D01*
X4779433Y20649596D01*
X4809671Y20619358D01*
X4839909Y20558881D01*
X4235147Y20861262D02*
X4204909Y20891500D01*
X4144433Y20921739D01*
X3993242Y20921739D01*
X3932766Y20891500D01*
X3902528Y20861262D01*
X3872290Y20800786D01*
X3872290Y20740310D01*
X3902528Y20649596D01*
X4265385Y20286739D01*
X3872290Y20286739D01*
G04 #@! TO.C,X1*
X21342047Y47464739D02*
X20918714Y46829739D01*
X20918714Y47464739D02*
X21342047Y46829739D01*
X20344190Y46829739D02*
X20707047Y46829739D01*
X20525619Y46829739D02*
X20525619Y47464739D01*
X20586095Y47374024D01*
X20646571Y47313548D01*
X20707047Y47283310D01*
G04 #@! TO.C,L1*
X17631833Y50512739D02*
X17934214Y50512739D01*
X17934214Y51147739D01*
X17087547Y50512739D02*
X17450404Y50512739D01*
X17268976Y50512739D02*
X17268976Y51147739D01*
X17329452Y51057024D01*
X17389928Y50996548D01*
X17450404Y50966310D01*
G04 #@! TO.C,R83*
X17559261Y27967215D02*
X17256880Y28178881D01*
X17559261Y28330072D02*
X16924261Y28330072D01*
X16924261Y28088167D01*
X16954500Y28027691D01*
X16984738Y27997453D01*
X17045214Y27967215D01*
X17135928Y27967215D01*
X17196404Y27997453D01*
X17226642Y28027691D01*
X17256880Y28088167D01*
X17256880Y28330072D01*
X17196404Y27604358D02*
X17166166Y27664834D01*
X17135928Y27695072D01*
X17075452Y27725310D01*
X17045214Y27725310D01*
X16984738Y27695072D01*
X16954500Y27664834D01*
X16924261Y27604358D01*
X16924261Y27483405D01*
X16954500Y27422929D01*
X16984738Y27392691D01*
X17045214Y27362453D01*
X17075452Y27362453D01*
X17135928Y27392691D01*
X17166166Y27422929D01*
X17196404Y27483405D01*
X17196404Y27604358D01*
X17226642Y27664834D01*
X17256880Y27695072D01*
X17317357Y27725310D01*
X17438309Y27725310D01*
X17498785Y27695072D01*
X17529023Y27664834D01*
X17559261Y27604358D01*
X17559261Y27483405D01*
X17529023Y27422929D01*
X17498785Y27392691D01*
X17438309Y27362453D01*
X17317357Y27362453D01*
X17256880Y27392691D01*
X17226642Y27422929D01*
X17196404Y27483405D01*
X16924261Y27150786D02*
X16924261Y26757691D01*
X17166166Y26969358D01*
X17166166Y26878643D01*
X17196404Y26818167D01*
X17226642Y26787929D01*
X17287119Y26757691D01*
X17438309Y26757691D01*
X17498785Y26787929D01*
X17529023Y26818167D01*
X17559261Y26878643D01*
X17559261Y27060072D01*
X17529023Y27120548D01*
X17498785Y27150786D01*
G04 #@! TO.C,D98*
X4351261Y30743072D02*
X3716261Y30743072D01*
X3716261Y30591881D01*
X3746500Y30501167D01*
X3806976Y30440691D01*
X3867452Y30410453D01*
X3988404Y30380215D01*
X4079119Y30380215D01*
X4200071Y30410453D01*
X4260547Y30440691D01*
X4321023Y30501167D01*
X4351261Y30591881D01*
X4351261Y30743072D01*
X4351261Y30077834D02*
X4351261Y29956881D01*
X4321023Y29896405D01*
X4290785Y29866167D01*
X4200071Y29805691D01*
X4079119Y29775453D01*
X3837214Y29775453D01*
X3776738Y29805691D01*
X3746500Y29835929D01*
X3716261Y29896405D01*
X3716261Y30017358D01*
X3746500Y30077834D01*
X3776738Y30108072D01*
X3837214Y30138310D01*
X3988404Y30138310D01*
X4048880Y30108072D01*
X4079119Y30077834D01*
X4109357Y30017358D01*
X4109357Y29896405D01*
X4079119Y29835929D01*
X4048880Y29805691D01*
X3988404Y29775453D01*
X3988404Y29412596D02*
X3958166Y29473072D01*
X3927928Y29503310D01*
X3867452Y29533548D01*
X3837214Y29533548D01*
X3776738Y29503310D01*
X3746500Y29473072D01*
X3716261Y29412596D01*
X3716261Y29291643D01*
X3746500Y29231167D01*
X3776738Y29200929D01*
X3837214Y29170691D01*
X3867452Y29170691D01*
X3927928Y29200929D01*
X3958166Y29231167D01*
X3988404Y29291643D01*
X3988404Y29412596D01*
X4018642Y29473072D01*
X4048880Y29503310D01*
X4109357Y29533548D01*
X4230309Y29533548D01*
X4290785Y29503310D01*
X4321023Y29473072D01*
X4351261Y29412596D01*
X4351261Y29291643D01*
X4321023Y29231167D01*
X4290785Y29200929D01*
X4230309Y29170691D01*
X4109357Y29170691D01*
X4048880Y29200929D01*
X4018642Y29231167D01*
X3988404Y29291643D01*
G04 #@! TO.C,D93*
X4351261Y43570072D02*
X3716261Y43570072D01*
X3716261Y43418881D01*
X3746500Y43328167D01*
X3806976Y43267691D01*
X3867452Y43237453D01*
X3988404Y43207215D01*
X4079119Y43207215D01*
X4200071Y43237453D01*
X4260547Y43267691D01*
X4321023Y43328167D01*
X4351261Y43418881D01*
X4351261Y43570072D01*
X4351261Y42904834D02*
X4351261Y42783881D01*
X4321023Y42723405D01*
X4290785Y42693167D01*
X4200071Y42632691D01*
X4079119Y42602453D01*
X3837214Y42602453D01*
X3776738Y42632691D01*
X3746500Y42662929D01*
X3716261Y42723405D01*
X3716261Y42844358D01*
X3746500Y42904834D01*
X3776738Y42935072D01*
X3837214Y42965310D01*
X3988404Y42965310D01*
X4048880Y42935072D01*
X4079119Y42904834D01*
X4109357Y42844358D01*
X4109357Y42723405D01*
X4079119Y42662929D01*
X4048880Y42632691D01*
X3988404Y42602453D01*
X3716261Y42390786D02*
X3716261Y41997691D01*
X3958166Y42209358D01*
X3958166Y42118643D01*
X3988404Y42058167D01*
X4018642Y42027929D01*
X4079119Y41997691D01*
X4230309Y41997691D01*
X4290785Y42027929D01*
X4321023Y42058167D01*
X4351261Y42118643D01*
X4351261Y42300072D01*
X4321023Y42360548D01*
X4290785Y42390786D01*
G04 #@! TO.C,C85*
X19712214Y5361215D02*
X19742452Y5330977D01*
X19833166Y5300739D01*
X19893642Y5300739D01*
X19984357Y5330977D01*
X20044833Y5391453D01*
X20075071Y5451929D01*
X20105309Y5572881D01*
X20105309Y5663596D01*
X20075071Y5784548D01*
X20044833Y5845024D01*
X19984357Y5905500D01*
X19893642Y5935739D01*
X19833166Y5935739D01*
X19742452Y5905500D01*
X19712214Y5875262D01*
X19349357Y5663596D02*
X19409833Y5693834D01*
X19440071Y5724072D01*
X19470309Y5784548D01*
X19470309Y5814786D01*
X19440071Y5875262D01*
X19409833Y5905500D01*
X19349357Y5935739D01*
X19228404Y5935739D01*
X19167928Y5905500D01*
X19137690Y5875262D01*
X19107452Y5814786D01*
X19107452Y5784548D01*
X19137690Y5724072D01*
X19167928Y5693834D01*
X19228404Y5663596D01*
X19349357Y5663596D01*
X19409833Y5633358D01*
X19440071Y5603120D01*
X19470309Y5542643D01*
X19470309Y5421691D01*
X19440071Y5361215D01*
X19409833Y5330977D01*
X19349357Y5300739D01*
X19228404Y5300739D01*
X19167928Y5330977D01*
X19137690Y5361215D01*
X19107452Y5421691D01*
X19107452Y5542643D01*
X19137690Y5603120D01*
X19167928Y5633358D01*
X19228404Y5663596D01*
X18532928Y5935739D02*
X18835309Y5935739D01*
X18865547Y5633358D01*
X18835309Y5663596D01*
X18774833Y5693834D01*
X18623642Y5693834D01*
X18563166Y5663596D01*
X18532928Y5633358D01*
X18502690Y5572881D01*
X18502690Y5421691D01*
X18532928Y5361215D01*
X18563166Y5330977D01*
X18623642Y5300739D01*
X18774833Y5300739D01*
X18835309Y5330977D01*
X18865547Y5361215D01*
G04 #@! TO.C,C16*
X10695214Y39905215D02*
X10725452Y39874977D01*
X10816166Y39844739D01*
X10876642Y39844739D01*
X10967357Y39874977D01*
X11027833Y39935453D01*
X11058071Y39995929D01*
X11088309Y40116881D01*
X11088309Y40207596D01*
X11058071Y40328548D01*
X11027833Y40389024D01*
X10967357Y40449500D01*
X10876642Y40479739D01*
X10816166Y40479739D01*
X10725452Y40449500D01*
X10695214Y40419262D01*
X10090452Y39844739D02*
X10453309Y39844739D01*
X10271880Y39844739D02*
X10271880Y40479739D01*
X10332357Y40389024D01*
X10392833Y40328548D01*
X10453309Y40298310D01*
X9546166Y40479739D02*
X9667119Y40479739D01*
X9727595Y40449500D01*
X9757833Y40419262D01*
X9818309Y40328548D01*
X9848547Y40207596D01*
X9848547Y39965691D01*
X9818309Y39905215D01*
X9788071Y39874977D01*
X9727595Y39844739D01*
X9606642Y39844739D01*
X9546166Y39874977D01*
X9515928Y39905215D01*
X9485690Y39965691D01*
X9485690Y40116881D01*
X9515928Y40177358D01*
X9546166Y40207596D01*
X9606642Y40237834D01*
X9727595Y40237834D01*
X9788071Y40207596D01*
X9818309Y40177358D01*
X9848547Y40116881D01*
G04 #@! TO.C,C88*
X28166785Y19331215D02*
X28197023Y19361453D01*
X28227261Y19452167D01*
X28227261Y19512643D01*
X28197023Y19603358D01*
X28136547Y19663834D01*
X28076071Y19694072D01*
X27955119Y19724310D01*
X27864404Y19724310D01*
X27743452Y19694072D01*
X27682976Y19663834D01*
X27622500Y19603358D01*
X27592261Y19512643D01*
X27592261Y19452167D01*
X27622500Y19361453D01*
X27652738Y19331215D01*
X27864404Y18968358D02*
X27834166Y19028834D01*
X27803928Y19059072D01*
X27743452Y19089310D01*
X27713214Y19089310D01*
X27652738Y19059072D01*
X27622500Y19028834D01*
X27592261Y18968358D01*
X27592261Y18847405D01*
X27622500Y18786929D01*
X27652738Y18756691D01*
X27713214Y18726453D01*
X27743452Y18726453D01*
X27803928Y18756691D01*
X27834166Y18786929D01*
X27864404Y18847405D01*
X27864404Y18968358D01*
X27894642Y19028834D01*
X27924880Y19059072D01*
X27985357Y19089310D01*
X28106309Y19089310D01*
X28166785Y19059072D01*
X28197023Y19028834D01*
X28227261Y18968358D01*
X28227261Y18847405D01*
X28197023Y18786929D01*
X28166785Y18756691D01*
X28106309Y18726453D01*
X27985357Y18726453D01*
X27924880Y18756691D01*
X27894642Y18786929D01*
X27864404Y18847405D01*
X27864404Y18363596D02*
X27834166Y18424072D01*
X27803928Y18454310D01*
X27743452Y18484548D01*
X27713214Y18484548D01*
X27652738Y18454310D01*
X27622500Y18424072D01*
X27592261Y18363596D01*
X27592261Y18242643D01*
X27622500Y18182167D01*
X27652738Y18151929D01*
X27713214Y18121691D01*
X27743452Y18121691D01*
X27803928Y18151929D01*
X27834166Y18182167D01*
X27864404Y18242643D01*
X27864404Y18363596D01*
X27894642Y18424072D01*
X27924880Y18454310D01*
X27985357Y18484548D01*
X28106309Y18484548D01*
X28166785Y18454310D01*
X28197023Y18424072D01*
X28227261Y18363596D01*
X28227261Y18242643D01*
X28197023Y18182167D01*
X28166785Y18151929D01*
X28106309Y18121691D01*
X27985357Y18121691D01*
X27924880Y18151929D01*
X27894642Y18182167D01*
X27864404Y18242643D01*
G04 #@! TO.C,L3*
X14837833Y51300139D02*
X15140214Y51300139D01*
X15140214Y51935139D01*
X14686642Y51935139D02*
X14293547Y51935139D01*
X14505214Y51693234D01*
X14414500Y51693234D01*
X14354023Y51662996D01*
X14323785Y51632758D01*
X14293547Y51572281D01*
X14293547Y51421091D01*
X14323785Y51360615D01*
X14354023Y51330377D01*
X14414500Y51300139D01*
X14595928Y51300139D01*
X14656404Y51330377D01*
X14686642Y51360615D01*
G04 #@! TO.C,U1*
X15215809Y49115739D02*
X15215809Y48601691D01*
X15185571Y48541215D01*
X15155333Y48510977D01*
X15094857Y48480739D01*
X14973904Y48480739D01*
X14913428Y48510977D01*
X14883190Y48541215D01*
X14852952Y48601691D01*
X14852952Y49115739D01*
X14217952Y48480739D02*
X14580809Y48480739D01*
X14399380Y48480739D02*
X14399380Y49115739D01*
X14459857Y49025024D01*
X14520333Y48964548D01*
X14580809Y48934310D01*
G04 #@! TO.C,R65*
X12352261Y32412215D02*
X12049880Y32623881D01*
X12352261Y32775072D02*
X11717261Y32775072D01*
X11717261Y32533167D01*
X11747500Y32472691D01*
X11777738Y32442453D01*
X11838214Y32412215D01*
X11928928Y32412215D01*
X11989404Y32442453D01*
X12019642Y32472691D01*
X12049880Y32533167D01*
X12049880Y32775072D01*
X11717261Y31867929D02*
X11717261Y31988881D01*
X11747500Y32049358D01*
X11777738Y32079596D01*
X11868452Y32140072D01*
X11989404Y32170310D01*
X12231309Y32170310D01*
X12291785Y32140072D01*
X12322023Y32109834D01*
X12352261Y32049358D01*
X12352261Y31928405D01*
X12322023Y31867929D01*
X12291785Y31837691D01*
X12231309Y31807453D01*
X12080119Y31807453D01*
X12019642Y31837691D01*
X11989404Y31867929D01*
X11959166Y31928405D01*
X11959166Y32049358D01*
X11989404Y32109834D01*
X12019642Y32140072D01*
X12080119Y32170310D01*
X11717261Y31232929D02*
X11717261Y31535310D01*
X12019642Y31565548D01*
X11989404Y31535310D01*
X11959166Y31474834D01*
X11959166Y31323643D01*
X11989404Y31263167D01*
X12019642Y31232929D01*
X12080119Y31202691D01*
X12231309Y31202691D01*
X12291785Y31232929D01*
X12322023Y31263167D01*
X12352261Y31323643D01*
X12352261Y31474834D01*
X12322023Y31535310D01*
X12291785Y31565548D01*
G04 #@! TO.C,L61*
X6129261Y32412215D02*
X6129261Y32714596D01*
X5494261Y32714596D01*
X5494261Y31928405D02*
X5494261Y32049358D01*
X5524500Y32109834D01*
X5554738Y32140072D01*
X5645452Y32200548D01*
X5766404Y32230786D01*
X6008309Y32230786D01*
X6068785Y32200548D01*
X6099023Y32170310D01*
X6129261Y32109834D01*
X6129261Y31988881D01*
X6099023Y31928405D01*
X6068785Y31898167D01*
X6008309Y31867929D01*
X5857119Y31867929D01*
X5796642Y31898167D01*
X5766404Y31928405D01*
X5736166Y31988881D01*
X5736166Y32109834D01*
X5766404Y32170310D01*
X5796642Y32200548D01*
X5857119Y32230786D01*
X6129261Y31263167D02*
X6129261Y31626024D01*
X6129261Y31444596D02*
X5494261Y31444596D01*
X5584976Y31505072D01*
X5645452Y31565548D01*
X5675690Y31626024D01*
G04 #@! TO.C,C82*
X18823214Y14378215D02*
X18853452Y14347977D01*
X18944166Y14317739D01*
X19004642Y14317739D01*
X19095357Y14347977D01*
X19155833Y14408453D01*
X19186071Y14468929D01*
X19216309Y14589881D01*
X19216309Y14680596D01*
X19186071Y14801548D01*
X19155833Y14862024D01*
X19095357Y14922500D01*
X19004642Y14952739D01*
X18944166Y14952739D01*
X18853452Y14922500D01*
X18823214Y14892262D01*
X18460357Y14680596D02*
X18520833Y14710834D01*
X18551071Y14741072D01*
X18581309Y14801548D01*
X18581309Y14831786D01*
X18551071Y14892262D01*
X18520833Y14922500D01*
X18460357Y14952739D01*
X18339404Y14952739D01*
X18278928Y14922500D01*
X18248690Y14892262D01*
X18218452Y14831786D01*
X18218452Y14801548D01*
X18248690Y14741072D01*
X18278928Y14710834D01*
X18339404Y14680596D01*
X18460357Y14680596D01*
X18520833Y14650358D01*
X18551071Y14620120D01*
X18581309Y14559643D01*
X18581309Y14438691D01*
X18551071Y14378215D01*
X18520833Y14347977D01*
X18460357Y14317739D01*
X18339404Y14317739D01*
X18278928Y14347977D01*
X18248690Y14378215D01*
X18218452Y14438691D01*
X18218452Y14559643D01*
X18248690Y14620120D01*
X18278928Y14650358D01*
X18339404Y14680596D01*
X17976547Y14892262D02*
X17946309Y14922500D01*
X17885833Y14952739D01*
X17734642Y14952739D01*
X17674166Y14922500D01*
X17643928Y14892262D01*
X17613690Y14831786D01*
X17613690Y14771310D01*
X17643928Y14680596D01*
X18006785Y14317739D01*
X17613690Y14317739D01*
G04 #@! TO.C,C75*
X18133785Y34190215D02*
X18164023Y34220453D01*
X18194261Y34311167D01*
X18194261Y34371643D01*
X18164023Y34462358D01*
X18103547Y34522834D01*
X18043071Y34553072D01*
X17922119Y34583310D01*
X17831404Y34583310D01*
X17710452Y34553072D01*
X17649976Y34522834D01*
X17589500Y34462358D01*
X17559261Y34371643D01*
X17559261Y34311167D01*
X17589500Y34220453D01*
X17619738Y34190215D01*
X17559261Y33978548D02*
X17559261Y33555215D01*
X18194261Y33827358D01*
X17559261Y33010929D02*
X17559261Y33313310D01*
X17861642Y33343548D01*
X17831404Y33313310D01*
X17801166Y33252834D01*
X17801166Y33101643D01*
X17831404Y33041167D01*
X17861642Y33010929D01*
X17922119Y32980691D01*
X18073309Y32980691D01*
X18133785Y33010929D01*
X18164023Y33041167D01*
X18194261Y33101643D01*
X18194261Y33252834D01*
X18164023Y33313310D01*
X18133785Y33343548D01*
G04 #@! TO.C,D97*
X4351261Y32775072D02*
X3716261Y32775072D01*
X3716261Y32623881D01*
X3746500Y32533167D01*
X3806976Y32472691D01*
X3867452Y32442453D01*
X3988404Y32412215D01*
X4079119Y32412215D01*
X4200071Y32442453D01*
X4260547Y32472691D01*
X4321023Y32533167D01*
X4351261Y32623881D01*
X4351261Y32775072D01*
X4351261Y32109834D02*
X4351261Y31988881D01*
X4321023Y31928405D01*
X4290785Y31898167D01*
X4200071Y31837691D01*
X4079119Y31807453D01*
X3837214Y31807453D01*
X3776738Y31837691D01*
X3746500Y31867929D01*
X3716261Y31928405D01*
X3716261Y32049358D01*
X3746500Y32109834D01*
X3776738Y32140072D01*
X3837214Y32170310D01*
X3988404Y32170310D01*
X4048880Y32140072D01*
X4079119Y32109834D01*
X4109357Y32049358D01*
X4109357Y31928405D01*
X4079119Y31867929D01*
X4048880Y31837691D01*
X3988404Y31807453D01*
X3716261Y31595786D02*
X3716261Y31172453D01*
X4351261Y31444596D01*
G04 #@! TO.C,C71*
X5179785Y32412215D02*
X5210023Y32442453D01*
X5240261Y32533167D01*
X5240261Y32593643D01*
X5210023Y32684358D01*
X5149547Y32744834D01*
X5089071Y32775072D01*
X4968119Y32805310D01*
X4877404Y32805310D01*
X4756452Y32775072D01*
X4695976Y32744834D01*
X4635500Y32684358D01*
X4605261Y32593643D01*
X4605261Y32533167D01*
X4635500Y32442453D01*
X4665738Y32412215D01*
X4605261Y32200548D02*
X4605261Y31777215D01*
X5240261Y32049358D01*
X5240261Y31202691D02*
X5240261Y31565548D01*
X5240261Y31384120D02*
X4605261Y31384120D01*
X4695976Y31444596D01*
X4756452Y31505072D01*
X4786690Y31565548D01*
G04 #@! TO.C,S1*
X15977809Y35048977D02*
X15887095Y35018739D01*
X15735904Y35018739D01*
X15675428Y35048977D01*
X15645190Y35079215D01*
X15614952Y35139691D01*
X15614952Y35200167D01*
X15645190Y35260643D01*
X15675428Y35290881D01*
X15735904Y35321120D01*
X15856857Y35351358D01*
X15917333Y35381596D01*
X15947571Y35411834D01*
X15977809Y35472310D01*
X15977809Y35532786D01*
X15947571Y35593262D01*
X15917333Y35623500D01*
X15856857Y35653739D01*
X15705666Y35653739D01*
X15614952Y35623500D01*
X15010190Y35018739D02*
X15373047Y35018739D01*
X15191619Y35018739D02*
X15191619Y35653739D01*
X15252095Y35563024D01*
X15312571Y35502548D01*
X15373047Y35472310D01*
G04 #@! TO.C,R73*
X7901214Y29938739D02*
X8112880Y30241120D01*
X8264071Y29938739D02*
X8264071Y30573739D01*
X8022166Y30573739D01*
X7961690Y30543500D01*
X7931452Y30513262D01*
X7901214Y30452786D01*
X7901214Y30362072D01*
X7931452Y30301596D01*
X7961690Y30271358D01*
X8022166Y30241120D01*
X8264071Y30241120D01*
X7689547Y30573739D02*
X7266214Y30573739D01*
X7538357Y29938739D01*
X7084785Y30573739D02*
X6691690Y30573739D01*
X6903357Y30331834D01*
X6812642Y30331834D01*
X6752166Y30301596D01*
X6721928Y30271358D01*
X6691690Y30210881D01*
X6691690Y30059691D01*
X6721928Y29999215D01*
X6752166Y29968977D01*
X6812642Y29938739D01*
X6994071Y29938739D01*
X7054547Y29968977D01*
X7084785Y29999215D01*
G04 #@! TO.C,R66*
X10447261Y32539215D02*
X10144880Y32750881D01*
X10447261Y32902072D02*
X9812261Y32902072D01*
X9812261Y32660167D01*
X9842500Y32599691D01*
X9872738Y32569453D01*
X9933214Y32539215D01*
X10023928Y32539215D01*
X10084404Y32569453D01*
X10114642Y32599691D01*
X10144880Y32660167D01*
X10144880Y32902072D01*
X9812261Y31994929D02*
X9812261Y32115881D01*
X9842500Y32176358D01*
X9872738Y32206596D01*
X9963452Y32267072D01*
X10084404Y32297310D01*
X10326309Y32297310D01*
X10386785Y32267072D01*
X10417023Y32236834D01*
X10447261Y32176358D01*
X10447261Y32055405D01*
X10417023Y31994929D01*
X10386785Y31964691D01*
X10326309Y31934453D01*
X10175119Y31934453D01*
X10114642Y31964691D01*
X10084404Y31994929D01*
X10054166Y32055405D01*
X10054166Y32176358D01*
X10084404Y32236834D01*
X10114642Y32267072D01*
X10175119Y32297310D01*
X9812261Y31390167D02*
X9812261Y31511120D01*
X9842500Y31571596D01*
X9872738Y31601834D01*
X9963452Y31662310D01*
X10084404Y31692548D01*
X10326309Y31692548D01*
X10386785Y31662310D01*
X10417023Y31632072D01*
X10447261Y31571596D01*
X10447261Y31450643D01*
X10417023Y31390167D01*
X10386785Y31359929D01*
X10326309Y31329691D01*
X10175119Y31329691D01*
X10114642Y31359929D01*
X10084404Y31390167D01*
X10054166Y31450643D01*
X10054166Y31571596D01*
X10084404Y31632072D01*
X10114642Y31662310D01*
X10175119Y31692548D01*
G04 #@! TO.C,D106*
X25711452Y32478739D02*
X25711452Y33113739D01*
X25560261Y33113739D01*
X25469547Y33083500D01*
X25409071Y33023024D01*
X25378833Y32962548D01*
X25348595Y32841596D01*
X25348595Y32750881D01*
X25378833Y32629929D01*
X25409071Y32569453D01*
X25469547Y32508977D01*
X25560261Y32478739D01*
X25711452Y32478739D01*
X24743833Y32478739D02*
X25106690Y32478739D01*
X24925261Y32478739D02*
X24925261Y33113739D01*
X24985738Y33023024D01*
X25046214Y32962548D01*
X25106690Y32932310D01*
X24350738Y33113739D02*
X24290261Y33113739D01*
X24229785Y33083500D01*
X24199547Y33053262D01*
X24169309Y32992786D01*
X24139071Y32871834D01*
X24139071Y32720643D01*
X24169309Y32599691D01*
X24199547Y32539215D01*
X24229785Y32508977D01*
X24290261Y32478739D01*
X24350738Y32478739D01*
X24411214Y32508977D01*
X24441452Y32539215D01*
X24471690Y32599691D01*
X24501928Y32720643D01*
X24501928Y32871834D01*
X24471690Y32992786D01*
X24441452Y33053262D01*
X24411214Y33083500D01*
X24350738Y33113739D01*
X23594785Y33113739D02*
X23715738Y33113739D01*
X23776214Y33083500D01*
X23806452Y33053262D01*
X23866928Y32962548D01*
X23897166Y32841596D01*
X23897166Y32599691D01*
X23866928Y32539215D01*
X23836690Y32508977D01*
X23776214Y32478739D01*
X23655261Y32478739D01*
X23594785Y32508977D01*
X23564547Y32539215D01*
X23534309Y32599691D01*
X23534309Y32750881D01*
X23564547Y32811358D01*
X23594785Y32841596D01*
X23655261Y32871834D01*
X23776214Y32871834D01*
X23836690Y32841596D01*
X23866928Y32811358D01*
X23897166Y32750881D01*
G04 #@! TO.C,D61*
X12455071Y21556739D02*
X12455071Y22191739D01*
X12303880Y22191739D01*
X12213166Y22161500D01*
X12152690Y22101024D01*
X12122452Y22040548D01*
X12092214Y21919596D01*
X12092214Y21828881D01*
X12122452Y21707929D01*
X12152690Y21647453D01*
X12213166Y21586977D01*
X12303880Y21556739D01*
X12455071Y21556739D01*
X11547928Y22191739D02*
X11668880Y22191739D01*
X11729357Y22161500D01*
X11759595Y22131262D01*
X11820071Y22040548D01*
X11850309Y21919596D01*
X11850309Y21677691D01*
X11820071Y21617215D01*
X11789833Y21586977D01*
X11729357Y21556739D01*
X11608404Y21556739D01*
X11547928Y21586977D01*
X11517690Y21617215D01*
X11487452Y21677691D01*
X11487452Y21828881D01*
X11517690Y21889358D01*
X11547928Y21919596D01*
X11608404Y21949834D01*
X11729357Y21949834D01*
X11789833Y21919596D01*
X11820071Y21889358D01*
X11850309Y21828881D01*
X10882690Y21556739D02*
X11245547Y21556739D01*
X11064119Y21556739D02*
X11064119Y22191739D01*
X11124595Y22101024D01*
X11185071Y22040548D01*
X11245547Y22010310D01*
G04 #@! TO.C,D92*
X4351261Y45983072D02*
X3716261Y45983072D01*
X3716261Y45831881D01*
X3746500Y45741167D01*
X3806976Y45680691D01*
X3867452Y45650453D01*
X3988404Y45620215D01*
X4079119Y45620215D01*
X4200071Y45650453D01*
X4260547Y45680691D01*
X4321023Y45741167D01*
X4351261Y45831881D01*
X4351261Y45983072D01*
X4351261Y45317834D02*
X4351261Y45196881D01*
X4321023Y45136405D01*
X4290785Y45106167D01*
X4200071Y45045691D01*
X4079119Y45015453D01*
X3837214Y45015453D01*
X3776738Y45045691D01*
X3746500Y45075929D01*
X3716261Y45136405D01*
X3716261Y45257358D01*
X3746500Y45317834D01*
X3776738Y45348072D01*
X3837214Y45378310D01*
X3988404Y45378310D01*
X4048880Y45348072D01*
X4079119Y45317834D01*
X4109357Y45257358D01*
X4109357Y45136405D01*
X4079119Y45075929D01*
X4048880Y45045691D01*
X3988404Y45015453D01*
X3776738Y44773548D02*
X3746500Y44743310D01*
X3716261Y44682834D01*
X3716261Y44531643D01*
X3746500Y44471167D01*
X3776738Y44440929D01*
X3837214Y44410691D01*
X3897690Y44410691D01*
X3988404Y44440929D01*
X4351261Y44803786D01*
X4351261Y44410691D01*
G04 #@! TO.C,SH1*
X15548428Y43684977D02*
X15457714Y43654739D01*
X15306523Y43654739D01*
X15246047Y43684977D01*
X15215809Y43715215D01*
X15185571Y43775691D01*
X15185571Y43836167D01*
X15215809Y43896643D01*
X15246047Y43926881D01*
X15306523Y43957120D01*
X15427476Y43987358D01*
X15487952Y44017596D01*
X15518190Y44047834D01*
X15548428Y44108310D01*
X15548428Y44168786D01*
X15518190Y44229262D01*
X15487952Y44259500D01*
X15427476Y44289739D01*
X15276285Y44289739D01*
X15185571Y44259500D01*
X14913428Y43654739D02*
X14913428Y44289739D01*
X14913428Y43987358D02*
X14550571Y43987358D01*
X14550571Y43654739D02*
X14550571Y44289739D01*
X13915571Y43654739D02*
X14278428Y43654739D01*
X14097000Y43654739D02*
X14097000Y44289739D01*
X14157476Y44199024D01*
X14217952Y44138548D01*
X14278428Y44108310D01*
G04 #@! TO.C,C84*
X19839214Y10187215D02*
X19869452Y10156977D01*
X19960166Y10126739D01*
X20020642Y10126739D01*
X20111357Y10156977D01*
X20171833Y10217453D01*
X20202071Y10277929D01*
X20232309Y10398881D01*
X20232309Y10489596D01*
X20202071Y10610548D01*
X20171833Y10671024D01*
X20111357Y10731500D01*
X20020642Y10761739D01*
X19960166Y10761739D01*
X19869452Y10731500D01*
X19839214Y10701262D01*
X19476357Y10489596D02*
X19536833Y10519834D01*
X19567071Y10550072D01*
X19597309Y10610548D01*
X19597309Y10640786D01*
X19567071Y10701262D01*
X19536833Y10731500D01*
X19476357Y10761739D01*
X19355404Y10761739D01*
X19294928Y10731500D01*
X19264690Y10701262D01*
X19234452Y10640786D01*
X19234452Y10610548D01*
X19264690Y10550072D01*
X19294928Y10519834D01*
X19355404Y10489596D01*
X19476357Y10489596D01*
X19536833Y10459358D01*
X19567071Y10429120D01*
X19597309Y10368643D01*
X19597309Y10247691D01*
X19567071Y10187215D01*
X19536833Y10156977D01*
X19476357Y10126739D01*
X19355404Y10126739D01*
X19294928Y10156977D01*
X19264690Y10187215D01*
X19234452Y10247691D01*
X19234452Y10368643D01*
X19264690Y10429120D01*
X19294928Y10459358D01*
X19355404Y10489596D01*
X18690166Y10550072D02*
X18690166Y10126739D01*
X18841357Y10791977D02*
X18992547Y10338405D01*
X18599452Y10338405D01*
G04 #@! TO.C,R55*
X24925261Y46509215D02*
X24622880Y46720881D01*
X24925261Y46872072D02*
X24290261Y46872072D01*
X24290261Y46630167D01*
X24320500Y46569691D01*
X24350738Y46539453D01*
X24411214Y46509215D01*
X24501928Y46509215D01*
X24562404Y46539453D01*
X24592642Y46569691D01*
X24622880Y46630167D01*
X24622880Y46872072D01*
X24290261Y45934691D02*
X24290261Y46237072D01*
X24592642Y46267310D01*
X24562404Y46237072D01*
X24532166Y46176596D01*
X24532166Y46025405D01*
X24562404Y45964929D01*
X24592642Y45934691D01*
X24653119Y45904453D01*
X24804309Y45904453D01*
X24864785Y45934691D01*
X24895023Y45964929D01*
X24925261Y46025405D01*
X24925261Y46176596D01*
X24895023Y46237072D01*
X24864785Y46267310D01*
X24290261Y45329929D02*
X24290261Y45632310D01*
X24592642Y45662548D01*
X24562404Y45632310D01*
X24532166Y45571834D01*
X24532166Y45420643D01*
X24562404Y45360167D01*
X24592642Y45329929D01*
X24653119Y45299691D01*
X24804309Y45299691D01*
X24864785Y45329929D01*
X24895023Y45360167D01*
X24925261Y45420643D01*
X24925261Y45571834D01*
X24895023Y45632310D01*
X24864785Y45662548D01*
G04 #@! TO.C,R53*
X25661861Y42318215D02*
X25359480Y42529881D01*
X25661861Y42681072D02*
X25026861Y42681072D01*
X25026861Y42439167D01*
X25057100Y42378691D01*
X25087338Y42348453D01*
X25147814Y42318215D01*
X25238528Y42318215D01*
X25299004Y42348453D01*
X25329242Y42378691D01*
X25359480Y42439167D01*
X25359480Y42681072D01*
X25026861Y41743691D02*
X25026861Y42046072D01*
X25329242Y42076310D01*
X25299004Y42046072D01*
X25268766Y41985596D01*
X25268766Y41834405D01*
X25299004Y41773929D01*
X25329242Y41743691D01*
X25389719Y41713453D01*
X25540909Y41713453D01*
X25601385Y41743691D01*
X25631623Y41773929D01*
X25661861Y41834405D01*
X25661861Y41985596D01*
X25631623Y42046072D01*
X25601385Y42076310D01*
X25026861Y41501786D02*
X25026861Y41108691D01*
X25268766Y41320358D01*
X25268766Y41229643D01*
X25299004Y41169167D01*
X25329242Y41138929D01*
X25389719Y41108691D01*
X25540909Y41108691D01*
X25601385Y41138929D01*
X25631623Y41169167D01*
X25661861Y41229643D01*
X25661861Y41411072D01*
X25631623Y41471548D01*
X25601385Y41501786D01*
G04 #@! TO.C,C41*
X24284214Y22125215D02*
X24314452Y22094977D01*
X24405166Y22064739D01*
X24465642Y22064739D01*
X24556357Y22094977D01*
X24616833Y22155453D01*
X24647071Y22215929D01*
X24677309Y22336881D01*
X24677309Y22427596D01*
X24647071Y22548548D01*
X24616833Y22609024D01*
X24556357Y22669500D01*
X24465642Y22699739D01*
X24405166Y22699739D01*
X24314452Y22669500D01*
X24284214Y22639262D01*
X23739928Y22488072D02*
X23739928Y22064739D01*
X23891119Y22729977D02*
X24042309Y22276405D01*
X23649214Y22276405D01*
X23074690Y22064739D02*
X23437547Y22064739D01*
X23256119Y22064739D02*
X23256119Y22699739D01*
X23316595Y22609024D01*
X23377071Y22548548D01*
X23437547Y22518310D01*
G04 #@! TO.C,R5*
X10320261Y49889834D02*
X10017880Y50101500D01*
X10320261Y50252691D02*
X9685261Y50252691D01*
X9685261Y50010786D01*
X9715500Y49950310D01*
X9745738Y49920072D01*
X9806214Y49889834D01*
X9896928Y49889834D01*
X9957404Y49920072D01*
X9987642Y49950310D01*
X10017880Y50010786D01*
X10017880Y50252691D01*
X9685261Y49315310D02*
X9685261Y49617691D01*
X9987642Y49647929D01*
X9957404Y49617691D01*
X9927166Y49557215D01*
X9927166Y49406024D01*
X9957404Y49345548D01*
X9987642Y49315310D01*
X10048119Y49285072D01*
X10199309Y49285072D01*
X10259785Y49315310D01*
X10290023Y49345548D01*
X10320261Y49406024D01*
X10320261Y49557215D01*
X10290023Y49617691D01*
X10259785Y49647929D01*
G04 #@! TO.C,C20*
X13235214Y52351215D02*
X13265452Y52320977D01*
X13356166Y52290739D01*
X13416642Y52290739D01*
X13507357Y52320977D01*
X13567833Y52381453D01*
X13598071Y52441929D01*
X13628309Y52562881D01*
X13628309Y52653596D01*
X13598071Y52774548D01*
X13567833Y52835024D01*
X13507357Y52895500D01*
X13416642Y52925739D01*
X13356166Y52925739D01*
X13265452Y52895500D01*
X13235214Y52865262D01*
X12993309Y52865262D02*
X12963071Y52895500D01*
X12902595Y52925739D01*
X12751404Y52925739D01*
X12690928Y52895500D01*
X12660690Y52865262D01*
X12630452Y52804786D01*
X12630452Y52744310D01*
X12660690Y52653596D01*
X13023547Y52290739D01*
X12630452Y52290739D01*
X12237357Y52925739D02*
X12176880Y52925739D01*
X12116404Y52895500D01*
X12086166Y52865262D01*
X12055928Y52804786D01*
X12025690Y52683834D01*
X12025690Y52532643D01*
X12055928Y52411691D01*
X12086166Y52351215D01*
X12116404Y52320977D01*
X12176880Y52290739D01*
X12237357Y52290739D01*
X12297833Y52320977D01*
X12328071Y52351215D01*
X12358309Y52411691D01*
X12388547Y52532643D01*
X12388547Y52683834D01*
X12358309Y52804786D01*
X12328071Y52865262D01*
X12297833Y52895500D01*
X12237357Y52925739D01*
G04 #@! TD*
%LPC*%
D11*
G04 #@! TO.C,J81*
X21869400Y3556000D03*
X25882600Y3556000D03*
G04 #@! TD*
D12*
G04 #@! TO.C,J41*
X22098000Y20828000D03*
X23368000Y20828000D03*
X24638000Y20828000D03*
G04 #@! TD*
D13*
G04 #@! TO.C,J52*
X27432000Y49784000D03*
X27432000Y47244000D03*
X27432000Y44704000D03*
X27432000Y42164000D03*
X27432000Y39624000D03*
X27432000Y37084000D03*
X27432000Y34544000D03*
X27432000Y32004000D03*
X27432000Y29464000D03*
X27432000Y26924000D03*
X27432000Y24384000D03*
X27432000Y21844000D03*
G04 #@! TD*
G04 #@! TO.C,J51*
X2032000Y49784000D03*
X2032000Y47244000D03*
X2032000Y44704000D03*
X2032000Y42164000D03*
X2032000Y39624000D03*
X2032000Y37084000D03*
X2032000Y34544000D03*
X2032000Y32004000D03*
X2032000Y29464000D03*
X2032000Y26924000D03*
X2032000Y24384000D03*
X2032000Y21844000D03*
G04 #@! TD*
D14*
G04 #@! TO.C,J61*
X15367000Y9271000D03*
X3937000Y9271000D03*
D15*
X5207000Y15621000D03*
X6477000Y18161000D03*
X7747000Y15621000D03*
X9017000Y18161000D03*
X10287000Y15621000D03*
X11557000Y18161000D03*
X12827000Y15621000D03*
X14097000Y18161000D03*
D16*
X3048000Y4445000D03*
D17*
X5588000Y4445000D03*
X13716000Y4445000D03*
X16256000Y4445000D03*
D18*
X17424400Y12319000D03*
X1879600Y12319000D03*
G04 #@! TD*
M02*
