G04 #@! TF.GenerationSoftware,KiCad,Pcbnew,6.0.5-a6ca702e91~116~ubuntu20.04.1*
G04 #@! TF.CreationDate,2024-03-03T00:05:47+03:00*
G04 #@! TF.ProjectId,iot-esp-eth-com,696f742d-6573-4702-9d65-74682d636f6d,rev?*
G04 #@! TF.SameCoordinates,PX3072580PYa990340*
G04 #@! TF.FileFunction,Legend,Top*
G04 #@! TF.FilePolarity,Positive*
%FSLAX46Y46*%
G04 Gerber Fmt 4.6, Leading zero omitted, Abs format (unit mm)*
G04 Created by KiCad (PCBNEW 6.0.5-a6ca702e91~116~ubuntu20.04.1) date 2024-03-03 00:05:47*
%MOMM*%
%LPD*%
G01*
G04 APERTURE LIST*
G04 Aperture macros list*
%AMRoundRect*
0 Rectangle with rounded corners*
0 $1 Rounding radius*
0 $2 $3 $4 $5 $6 $7 $8 $9 X,Y pos of 4 corners*
0 Add a 4 corners polygon primitive as box body*
4,1,4,$2,$3,$4,$5,$6,$7,$8,$9,$2,$3,0*
0 Add four circle primitives for the rounded corners*
1,1,$1+$1,$2,$3*
1,1,$1+$1,$4,$5*
1,1,$1+$1,$6,$7*
1,1,$1+$1,$8,$9*
0 Add four rect primitives between the rounded corners*
20,1,$1+$1,$2,$3,$4,$5,0*
20,1,$1+$1,$4,$5,$6,$7,0*
20,1,$1+$1,$6,$7,$8,$9,0*
20,1,$1+$1,$8,$9,$2,$3,0*%
%AMHorizOval*
0 Thick line with rounded ends*
0 $1 width*
0 $2 $3 position (X,Y) of the first rounded end (center of the circle)*
0 $4 $5 position (X,Y) of the second rounded end (center of the circle)*
0 Add line between two ends*
20,1,$1,$2,$3,$4,$5,0*
0 Add two circle primitives to create the rounded ends*
1,1,$1,$2,$3*
1,1,$1,$4,$5*%
G04 Aperture macros list end*
%ADD10C,0.101600*%
%ADD11C,0.127000*%
%ADD12C,0.177800*%
%ADD13C,0.076200*%
%ADD14C,0.152400*%
%ADD15C,0.149860*%
%ADD16C,0.203200*%
%ADD17C,0.120000*%
%ADD18O,1.016000X1.524000*%
%ADD19O,2.540000X1.524000*%
%ADD20C,3.175000*%
%ADD21O,1.778000X2.159000*%
%ADD22O,1.778000X2.209800*%
%ADD23O,1.778000X2.286000*%
%ADD24O,2.540000X3.048000*%
%ADD25RoundRect,0.254000X-0.254000X0.063500X-0.254000X-0.063500X0.254000X-0.063500X0.254000X0.063500X0*%
%ADD26RoundRect,0.254000X0.254000X-0.063500X0.254000X0.063500X-0.254000X0.063500X-0.254000X-0.063500X0*%
%ADD27RoundRect,0.152400X0.038100X0.165100X-0.038100X0.165100X-0.038100X-0.165100X0.038100X-0.165100X0*%
%ADD28O,1.399540X0.599440*%
%ADD29RoundRect,0.152400X-0.165100X0.038100X-0.165100X-0.038100X0.165100X-0.038100X0.165100X0.038100X0*%
%ADD30O,1.016000X2.032000*%
%ADD31RoundRect,0.539750X-1.111250X0.539750X-1.111250X-0.539750X1.111250X-0.539750X1.111250X0.539750X0*%
%ADD32RoundRect,0.152400X0.165100X-0.038100X0.165100X0.038100X-0.165100X0.038100X-0.165100X-0.038100X0*%
%ADD33RoundRect,0.508000X-0.127000X0.190500X-0.127000X-0.190500X0.127000X-0.190500X0.127000X0.190500X0*%
%ADD34RoundRect,0.152400X-0.038100X-0.165100X0.038100X-0.165100X0.038100X0.165100X-0.038100X0.165100X0*%
%ADD35RoundRect,0.508000X0.127000X-0.190500X0.127000X0.190500X-0.127000X0.190500X-0.127000X-0.190500X0*%
%ADD36C,0.508000*%
%ADD37O,0.381000X1.270000*%
%ADD38RoundRect,0.444500X-0.444500X0.508000X-0.444500X-0.508000X0.444500X-0.508000X0.444500X0.508000X0*%
%ADD39RoundRect,0.476250X-0.476250X0.476250X-0.476250X-0.476250X0.476250X-0.476250X0.476250X0.476250X0*%
%ADD40RoundRect,0.254000X-0.381000X0.254000X-0.381000X-0.254000X0.381000X-0.254000X0.381000X0.254000X0*%
%ADD41RoundRect,0.406400X-0.482600X0.101600X-0.482600X-0.101600X0.482600X-0.101600X0.482600X0.101600X0*%
%ADD42RoundRect,0.254000X0.063500X0.254000X-0.063500X0.254000X-0.063500X-0.254000X0.063500X-0.254000X0*%
%ADD43O,0.254000X1.016000*%
%ADD44O,1.016000X0.254000*%
%ADD45RoundRect,0.330200X-1.320800X-1.320800X1.320800X-1.320800X1.320800X1.320800X-1.320800X1.320800X0*%
%ADD46RoundRect,0.335280X0.083820X0.363220X-0.083820X0.363220X-0.083820X-0.363220X0.083820X-0.363220X0*%
%ADD47C,3.048000*%
%ADD48RoundRect,0.254000X-0.063500X-0.254000X0.063500X-0.254000X0.063500X0.254000X-0.063500X0.254000X0*%
%ADD49RoundRect,0.203200X-0.050800X-0.114300X0.050800X-0.114300X0.050800X0.114300X-0.050800X0.114300X0*%
%ADD50O,0.762000X0.914400*%
%ADD51RoundRect,0.203200X0.114300X-0.050800X0.114300X0.050800X-0.114300X0.050800X-0.114300X-0.050800X0*%
%ADD52RoundRect,0.335280X-0.083820X-0.363220X0.083820X-0.363220X0.083820X0.363220X-0.083820X0.363220X0*%
%ADD53O,1.320800X0.508000*%
%ADD54O,0.406400X0.914400*%
%ADD55O,0.914400X0.762000*%
%ADD56O,1.016000X0.812800*%
%ADD57RoundRect,0.203200X-0.114300X0.050800X-0.114300X-0.050800X0.114300X-0.050800X0.114300X0.050800X0*%
%ADD58O,0.762000X0.558800*%
%ADD59O,0.355600X0.635000*%
%ADD60RoundRect,0.914400X-0.228600X-0.292100X0.228600X-0.292100X0.228600X0.292100X-0.228600X0.292100X0*%
%ADD61RoundRect,0.203200X0.050800X0.114300X-0.050800X0.114300X-0.050800X-0.114300X0.050800X-0.114300X0*%
%ADD62O,1.371600X0.558800*%
%ADD63O,1.143000X1.270000*%
%ADD64O,1.143000X0.838200*%
%ADD65HorizOval,0.812800X-0.071842X0.071842X0.071842X-0.071842X0*%
%ADD66RoundRect,0.406400X-0.101600X0.165100X-0.101600X-0.165100X0.101600X-0.165100X0.101600X0.165100X0*%
%ADD67O,0.177800X0.889000*%
%ADD68O,0.889000X0.177800*%
%ADD69RoundRect,0.355600X1.422400X1.422400X-1.422400X1.422400X-1.422400X-1.422400X1.422400X-1.422400X0*%
%ADD70O,4.318000X1.016000*%
%ADD71O,1.016000X4.318000*%
%ADD72O,1.016000X3.302000*%
%ADD73O,3.302000X1.016000*%
G04 APERTURE END LIST*
D10*
X9398000Y36703000D02*
X9652000Y36449000D01*
X8763000Y36703000D02*
X9398000Y36703000D01*
D11*
X741740Y38066739D02*
X741740Y38701739D01*
X1165073Y38701739D02*
X1286026Y38701739D01*
X1346502Y38671500D01*
X1406978Y38611024D01*
X1437216Y38490072D01*
X1437216Y38278405D01*
X1406978Y38157453D01*
X1346502Y38096977D01*
X1286026Y38066739D01*
X1165073Y38066739D01*
X1104597Y38096977D01*
X1044121Y38157453D01*
X1013883Y38278405D01*
X1013883Y38490072D01*
X1044121Y38611024D01*
X1104597Y38671500D01*
X1165073Y38701739D01*
X2041978Y38066739D02*
X1679121Y38066739D01*
X1860550Y38066739D02*
X1860550Y38701739D01*
X1800073Y38611024D01*
X1739597Y38550548D01*
X1679121Y38520310D01*
X2616502Y38701739D02*
X2314121Y38701739D01*
X2283883Y38399358D01*
X2314121Y38429596D01*
X2374597Y38459834D01*
X2525788Y38459834D01*
X2586264Y38429596D01*
X2616502Y38399358D01*
X2646740Y38338881D01*
X2646740Y38187691D01*
X2616502Y38127215D01*
X2586264Y38096977D01*
X2525788Y38066739D01*
X2374597Y38066739D01*
X2314121Y38096977D01*
X2283883Y38127215D01*
X26907973Y27926373D02*
X26696307Y28228754D01*
X26545116Y27926373D02*
X26545116Y28561373D01*
X26787021Y28561373D01*
X26847497Y28531134D01*
X26877735Y28500896D01*
X26907973Y28440420D01*
X26907973Y28349706D01*
X26877735Y28289230D01*
X26847497Y28258992D01*
X26787021Y28228754D01*
X26545116Y28228754D01*
X27119640Y28561373D02*
X27542973Y27926373D01*
X27542973Y28561373D02*
X27119640Y27926373D01*
X27784878Y27926373D02*
X27784878Y28561373D01*
X27936069Y28561373D01*
X28026783Y28531134D01*
X28087259Y28470658D01*
X28117497Y28410182D01*
X28147735Y28289230D01*
X28147735Y28198515D01*
X28117497Y28077563D01*
X28087259Y28017087D01*
X28026783Y27956611D01*
X27936069Y27926373D01*
X27784878Y27926373D01*
X28540830Y28561373D02*
X28601307Y28561373D01*
X28661783Y28531134D01*
X28692021Y28500896D01*
X28722259Y28440420D01*
X28752497Y28319468D01*
X28752497Y28168277D01*
X28722259Y28047325D01*
X28692021Y27986849D01*
X28661783Y27956611D01*
X28601307Y27926373D01*
X28540830Y27926373D01*
X28480354Y27956611D01*
X28450116Y27986849D01*
X28419878Y28047325D01*
X28389640Y28168277D01*
X28389640Y28319468D01*
X28419878Y28440420D01*
X28450116Y28500896D01*
X28480354Y28531134D01*
X28540830Y28561373D01*
X1104597Y25366739D02*
X892930Y25669120D01*
X741740Y25366739D02*
X741740Y26001739D01*
X983645Y26001739D01*
X1044121Y25971500D01*
X1074359Y25941262D01*
X1104597Y25880786D01*
X1104597Y25790072D01*
X1074359Y25729596D01*
X1044121Y25699358D01*
X983645Y25669120D01*
X741740Y25669120D01*
X1346502Y25396977D02*
X1437216Y25366739D01*
X1588407Y25366739D01*
X1648883Y25396977D01*
X1679121Y25427215D01*
X1709359Y25487691D01*
X1709359Y25548167D01*
X1679121Y25608643D01*
X1648883Y25638881D01*
X1588407Y25669120D01*
X1467454Y25699358D01*
X1406978Y25729596D01*
X1376740Y25759834D01*
X1346502Y25820310D01*
X1346502Y25880786D01*
X1376740Y25941262D01*
X1406978Y25971500D01*
X1467454Y26001739D01*
X1618645Y26001739D01*
X1709359Y25971500D01*
X1890788Y26001739D02*
X2253645Y26001739D01*
X2072216Y25366739D02*
X2072216Y26001739D01*
X2586264Y26001739D02*
X2707216Y26001739D01*
X2767692Y25971500D01*
X2828169Y25911024D01*
X2858407Y25790072D01*
X2858407Y25578405D01*
X2828169Y25457453D01*
X2767692Y25396977D01*
X2707216Y25366739D01*
X2586264Y25366739D01*
X2525788Y25396977D01*
X2465311Y25457453D01*
X2435073Y25578405D01*
X2435073Y25790072D01*
X2465311Y25911024D01*
X2525788Y25971500D01*
X2586264Y26001739D01*
X26847497Y40626373D02*
X26847497Y41261373D01*
X27270830Y41261373D02*
X27391783Y41261373D01*
X27452259Y41231134D01*
X27512735Y41170658D01*
X27542973Y41049706D01*
X27542973Y40838039D01*
X27512735Y40717087D01*
X27452259Y40656611D01*
X27391783Y40626373D01*
X27270830Y40626373D01*
X27210354Y40656611D01*
X27149878Y40717087D01*
X27119640Y40838039D01*
X27119640Y41049706D01*
X27149878Y41170658D01*
X27210354Y41231134D01*
X27270830Y41261373D01*
X27754640Y41261373D02*
X28147735Y41261373D01*
X27936069Y41019468D01*
X28026783Y41019468D01*
X28087259Y40989230D01*
X28117497Y40958992D01*
X28147735Y40898515D01*
X28147735Y40747325D01*
X28117497Y40686849D01*
X28087259Y40656611D01*
X28026783Y40626373D01*
X27845354Y40626373D01*
X27784878Y40656611D01*
X27754640Y40686849D01*
X28359402Y41261373D02*
X28782735Y41261373D01*
X28510592Y40626373D01*
X26847497Y43166373D02*
X26847497Y43801373D01*
X27270830Y43801373D02*
X27391783Y43801373D01*
X27452259Y43771134D01*
X27512735Y43710658D01*
X27542973Y43589706D01*
X27542973Y43378039D01*
X27512735Y43257087D01*
X27452259Y43196611D01*
X27391783Y43166373D01*
X27270830Y43166373D01*
X27210354Y43196611D01*
X27149878Y43257087D01*
X27119640Y43378039D01*
X27119640Y43589706D01*
X27149878Y43710658D01*
X27210354Y43771134D01*
X27270830Y43801373D01*
X27754640Y43801373D02*
X28147735Y43801373D01*
X27936069Y43559468D01*
X28026783Y43559468D01*
X28087259Y43529230D01*
X28117497Y43498992D01*
X28147735Y43438515D01*
X28147735Y43287325D01*
X28117497Y43226849D01*
X28087259Y43196611D01*
X28026783Y43166373D01*
X27845354Y43166373D01*
X27784878Y43196611D01*
X27754640Y43226849D01*
X28510592Y43529230D02*
X28450116Y43559468D01*
X28419878Y43589706D01*
X28389640Y43650182D01*
X28389640Y43680420D01*
X28419878Y43740896D01*
X28450116Y43771134D01*
X28510592Y43801373D01*
X28631545Y43801373D01*
X28692021Y43771134D01*
X28722259Y43740896D01*
X28752497Y43680420D01*
X28752497Y43650182D01*
X28722259Y43589706D01*
X28692021Y43559468D01*
X28631545Y43529230D01*
X28510592Y43529230D01*
X28450116Y43498992D01*
X28419878Y43468754D01*
X28389640Y43408277D01*
X28389640Y43287325D01*
X28419878Y43226849D01*
X28450116Y43196611D01*
X28510592Y43166373D01*
X28631545Y43166373D01*
X28692021Y43196611D01*
X28722259Y43226849D01*
X28752497Y43287325D01*
X28752497Y43408277D01*
X28722259Y43468754D01*
X28692021Y43498992D01*
X28631545Y43529230D01*
D10*
X6755190Y36219191D02*
X6585857Y36461096D01*
X6464904Y36219191D02*
X6464904Y36727191D01*
X6658428Y36727191D01*
X6706809Y36703000D01*
X6731000Y36678810D01*
X6755190Y36630429D01*
X6755190Y36557858D01*
X6731000Y36509477D01*
X6706809Y36485286D01*
X6658428Y36461096D01*
X6464904Y36461096D01*
X6972904Y36485286D02*
X7142238Y36485286D01*
X7214809Y36219191D02*
X6972904Y36219191D01*
X6972904Y36727191D01*
X7214809Y36727191D01*
X7408333Y36243381D02*
X7480904Y36219191D01*
X7601857Y36219191D01*
X7650238Y36243381D01*
X7674428Y36267572D01*
X7698619Y36315953D01*
X7698619Y36364334D01*
X7674428Y36412715D01*
X7650238Y36436905D01*
X7601857Y36461096D01*
X7505095Y36485286D01*
X7456714Y36509477D01*
X7432523Y36533667D01*
X7408333Y36582048D01*
X7408333Y36630429D01*
X7432523Y36678810D01*
X7456714Y36703000D01*
X7505095Y36727191D01*
X7626047Y36727191D01*
X7698619Y36703000D01*
X7916333Y36485286D02*
X8085666Y36485286D01*
X8158238Y36219191D02*
X7916333Y36219191D01*
X7916333Y36727191D01*
X8158238Y36727191D01*
X8303380Y36727191D02*
X8593666Y36727191D01*
X8448523Y36219191D02*
X8448523Y36727191D01*
D11*
X741740Y40606739D02*
X741740Y41241739D01*
X1165073Y41241739D02*
X1286026Y41241739D01*
X1346502Y41211500D01*
X1406978Y41151024D01*
X1437216Y41030072D01*
X1437216Y40818405D01*
X1406978Y40697453D01*
X1346502Y40636977D01*
X1286026Y40606739D01*
X1165073Y40606739D01*
X1104597Y40636977D01*
X1044121Y40697453D01*
X1013883Y40818405D01*
X1013883Y41030072D01*
X1044121Y41151024D01*
X1104597Y41211500D01*
X1165073Y41241739D01*
X2041978Y40606739D02*
X1679121Y40606739D01*
X1860550Y40606739D02*
X1860550Y41241739D01*
X1800073Y41151024D01*
X1739597Y41090548D01*
X1679121Y41060310D01*
X2253645Y41241739D02*
X2646740Y41241739D01*
X2435073Y40999834D01*
X2525788Y40999834D01*
X2586264Y40969596D01*
X2616502Y40939358D01*
X2646740Y40878881D01*
X2646740Y40727691D01*
X2616502Y40667215D01*
X2586264Y40636977D01*
X2525788Y40606739D01*
X2344359Y40606739D01*
X2283883Y40636977D01*
X2253645Y40667215D01*
D10*
X17743714Y34997572D02*
X17767904Y35070143D01*
X17792095Y35094334D01*
X17840476Y35118524D01*
X17913047Y35118524D01*
X17961428Y35094334D01*
X17985619Y35070143D01*
X18009809Y35021762D01*
X18009809Y34828239D01*
X17501809Y34828239D01*
X17501809Y34997572D01*
X17526000Y35045953D01*
X17550190Y35070143D01*
X17598571Y35094334D01*
X17646952Y35094334D01*
X17695333Y35070143D01*
X17719523Y35045953D01*
X17743714Y34997572D01*
X17743714Y34828239D01*
X17501809Y35433000D02*
X17501809Y35529762D01*
X17526000Y35578143D01*
X17574380Y35626524D01*
X17671142Y35650715D01*
X17840476Y35650715D01*
X17937238Y35626524D01*
X17985619Y35578143D01*
X18009809Y35529762D01*
X18009809Y35433000D01*
X17985619Y35384620D01*
X17937238Y35336239D01*
X17840476Y35312048D01*
X17671142Y35312048D01*
X17574380Y35336239D01*
X17526000Y35384620D01*
X17501809Y35433000D01*
X17501809Y35965191D02*
X17501809Y36061953D01*
X17526000Y36110334D01*
X17574380Y36158715D01*
X17671142Y36182905D01*
X17840476Y36182905D01*
X17937238Y36158715D01*
X17985619Y36110334D01*
X18009809Y36061953D01*
X18009809Y35965191D01*
X17985619Y35916810D01*
X17937238Y35868429D01*
X17840476Y35844239D01*
X17671142Y35844239D01*
X17574380Y35868429D01*
X17526000Y35916810D01*
X17501809Y35965191D01*
X17501809Y36328048D02*
X17501809Y36618334D01*
X18009809Y36473191D02*
X17501809Y36473191D01*
D12*
X5596466Y3026834D02*
X5596466Y2391834D01*
X5554133Y2264834D01*
X5469466Y2180167D01*
X5342466Y2137834D01*
X5257800Y2137834D01*
X6443133Y2137834D02*
X6019800Y2137834D01*
X6019800Y3026834D01*
X7247466Y2222500D02*
X7205133Y2180167D01*
X7078133Y2137834D01*
X6993466Y2137834D01*
X6866466Y2180167D01*
X6781800Y2264834D01*
X6739466Y2349500D01*
X6697133Y2518834D01*
X6697133Y2645834D01*
X6739466Y2815167D01*
X6781800Y2899834D01*
X6866466Y2984500D01*
X6993466Y3026834D01*
X7078133Y3026834D01*
X7205133Y2984500D01*
X7247466Y2942167D01*
X7882466Y3026834D02*
X7882466Y2391834D01*
X7840133Y2264834D01*
X7755466Y2180167D01*
X7628466Y2137834D01*
X7543800Y2137834D01*
X8729133Y2137834D02*
X8305800Y2137834D01*
X8305800Y3026834D01*
X9533466Y2222500D02*
X9491133Y2180167D01*
X9364133Y2137834D01*
X9279466Y2137834D01*
X9152466Y2180167D01*
X9067800Y2264834D01*
X9025466Y2349500D01*
X8983133Y2518834D01*
X8983133Y2645834D01*
X9025466Y2815167D01*
X9067800Y2899834D01*
X9152466Y2984500D01*
X9279466Y3026834D01*
X9364133Y3026834D01*
X9491133Y2984500D01*
X9533466Y2942167D01*
X10168466Y3026834D02*
X10168466Y2391834D01*
X10126133Y2264834D01*
X10041466Y2180167D01*
X9914466Y2137834D01*
X9829800Y2137834D01*
X11015133Y2137834D02*
X10591800Y2137834D01*
X10591800Y3026834D01*
X11819466Y2222500D02*
X11777133Y2180167D01*
X11650133Y2137834D01*
X11565466Y2137834D01*
X11438466Y2180167D01*
X11353800Y2264834D01*
X11311466Y2349500D01*
X11269133Y2518834D01*
X11269133Y2645834D01*
X11311466Y2815167D01*
X11353800Y2899834D01*
X11438466Y2984500D01*
X11565466Y3026834D01*
X11650133Y3026834D01*
X11777133Y2984500D01*
X11819466Y2942167D01*
X12454466Y3026834D02*
X12454466Y2391834D01*
X12412133Y2264834D01*
X12327466Y2180167D01*
X12200466Y2137834D01*
X12115800Y2137834D01*
X13301133Y2137834D02*
X12877800Y2137834D01*
X12877800Y3026834D01*
X14105466Y2222500D02*
X14063133Y2180167D01*
X13936133Y2137834D01*
X13851466Y2137834D01*
X13724466Y2180167D01*
X13639800Y2264834D01*
X13597466Y2349500D01*
X13555133Y2518834D01*
X13555133Y2645834D01*
X13597466Y2815167D01*
X13639800Y2899834D01*
X13724466Y2984500D01*
X13851466Y3026834D01*
X13936133Y3026834D01*
X14063133Y2984500D01*
X14105466Y2942167D01*
X5596466Y3026834D02*
X5596466Y2391834D01*
X5554133Y2264834D01*
X5469466Y2180167D01*
X5342466Y2137834D01*
X5257800Y2137834D01*
X6443133Y2137834D02*
X6019800Y2137834D01*
X6019800Y3026834D01*
X7247466Y2222500D02*
X7205133Y2180167D01*
X7078133Y2137834D01*
X6993466Y2137834D01*
X6866466Y2180167D01*
X6781800Y2264834D01*
X6739466Y2349500D01*
X6697133Y2518834D01*
X6697133Y2645834D01*
X6739466Y2815167D01*
X6781800Y2899834D01*
X6866466Y2984500D01*
X6993466Y3026834D01*
X7078133Y3026834D01*
X7205133Y2984500D01*
X7247466Y2942167D01*
X7882466Y3026834D02*
X7882466Y2391834D01*
X7840133Y2264834D01*
X7755466Y2180167D01*
X7628466Y2137834D01*
X7543800Y2137834D01*
X8729133Y2137834D02*
X8305800Y2137834D01*
X8305800Y3026834D01*
X9533466Y2222500D02*
X9491133Y2180167D01*
X9364133Y2137834D01*
X9279466Y2137834D01*
X9152466Y2180167D01*
X9067800Y2264834D01*
X9025466Y2349500D01*
X8983133Y2518834D01*
X8983133Y2645834D01*
X9025466Y2815167D01*
X9067800Y2899834D01*
X9152466Y2984500D01*
X9279466Y3026834D01*
X9364133Y3026834D01*
X9491133Y2984500D01*
X9533466Y2942167D01*
X10168466Y3026834D02*
X10168466Y2391834D01*
X10126133Y2264834D01*
X10041466Y2180167D01*
X9914466Y2137834D01*
X9829800Y2137834D01*
X11015133Y2137834D02*
X10591800Y2137834D01*
X10591800Y3026834D01*
X11819466Y2222500D02*
X11777133Y2180167D01*
X11650133Y2137834D01*
X11565466Y2137834D01*
X11438466Y2180167D01*
X11353800Y2264834D01*
X11311466Y2349500D01*
X11269133Y2518834D01*
X11269133Y2645834D01*
X11311466Y2815167D01*
X11353800Y2899834D01*
X11438466Y2984500D01*
X11565466Y3026834D01*
X11650133Y3026834D01*
X11777133Y2984500D01*
X11819466Y2942167D01*
X12454466Y3026834D02*
X12454466Y2391834D01*
X12412133Y2264834D01*
X12327466Y2180167D01*
X12200466Y2137834D01*
X12115800Y2137834D01*
X13301133Y2137834D02*
X12877800Y2137834D01*
X12877800Y3026834D01*
X14105466Y2222500D02*
X14063133Y2180167D01*
X13936133Y2137834D01*
X13851466Y2137834D01*
X13724466Y2180167D01*
X13639800Y2264834D01*
X13597466Y2349500D01*
X13555133Y2518834D01*
X13555133Y2645834D01*
X13597466Y2815167D01*
X13639800Y2899834D01*
X13724466Y2984500D01*
X13851466Y3026834D01*
X13936133Y3026834D01*
X14063133Y2984500D01*
X14105466Y2942167D01*
D11*
X741740Y45686739D02*
X741740Y46321739D01*
X1165073Y46321739D02*
X1286026Y46321739D01*
X1346502Y46291500D01*
X1406978Y46231024D01*
X1437216Y46110072D01*
X1437216Y45898405D01*
X1406978Y45777453D01*
X1346502Y45716977D01*
X1286026Y45686739D01*
X1165073Y45686739D01*
X1104597Y45716977D01*
X1044121Y45777453D01*
X1013883Y45898405D01*
X1013883Y46110072D01*
X1044121Y46231024D01*
X1104597Y46291500D01*
X1165073Y46321739D01*
X2041978Y45686739D02*
X1679121Y45686739D01*
X1860550Y45686739D02*
X1860550Y46321739D01*
X1800073Y46231024D01*
X1739597Y46170548D01*
X1679121Y46140310D01*
X2586264Y46110072D02*
X2586264Y45686739D01*
X2435073Y46351977D02*
X2283883Y45898405D01*
X2676978Y45898405D01*
X741740Y27906739D02*
X741740Y28541739D01*
X1165073Y28541739D02*
X1286026Y28541739D01*
X1346502Y28511500D01*
X1406978Y28451024D01*
X1437216Y28330072D01*
X1437216Y28118405D01*
X1406978Y27997453D01*
X1346502Y27936977D01*
X1286026Y27906739D01*
X1165073Y27906739D01*
X1104597Y27936977D01*
X1044121Y27997453D01*
X1013883Y28118405D01*
X1013883Y28330072D01*
X1044121Y28451024D01*
X1104597Y28511500D01*
X1165073Y28541739D01*
X2011740Y28541739D02*
X1709359Y28541739D01*
X1679121Y28239358D01*
X1709359Y28269596D01*
X1769835Y28299834D01*
X1921026Y28299834D01*
X1981502Y28269596D01*
X2011740Y28239358D01*
X2041978Y28178881D01*
X2041978Y28027691D01*
X2011740Y27967215D01*
X1981502Y27936977D01*
X1921026Y27906739D01*
X1769835Y27906739D01*
X1709359Y27936977D01*
X1679121Y27967215D01*
X26605592Y31101373D02*
X26968450Y31101373D01*
X26787021Y30466373D02*
X26787021Y31101373D01*
X27119640Y31101373D02*
X27542973Y30466373D01*
X27542973Y31101373D02*
X27119640Y30466373D01*
X27784878Y30466373D02*
X27784878Y31101373D01*
X27936069Y31101373D01*
X28026783Y31071134D01*
X28087259Y31010658D01*
X28117497Y30950182D01*
X28147735Y30829230D01*
X28147735Y30738515D01*
X28117497Y30617563D01*
X28087259Y30557087D01*
X28026783Y30496611D01*
X27936069Y30466373D01*
X27784878Y30466373D01*
X28540830Y31101373D02*
X28601307Y31101373D01*
X28661783Y31071134D01*
X28692021Y31040896D01*
X28722259Y30980420D01*
X28752497Y30859468D01*
X28752497Y30708277D01*
X28722259Y30587325D01*
X28692021Y30526849D01*
X28661783Y30496611D01*
X28601307Y30466373D01*
X28540830Y30466373D01*
X28480354Y30496611D01*
X28450116Y30526849D01*
X28419878Y30587325D01*
X28389640Y30708277D01*
X28389640Y30859468D01*
X28419878Y30980420D01*
X28450116Y31040896D01*
X28480354Y31071134D01*
X28540830Y31101373D01*
X741740Y22826739D02*
X741740Y23461739D01*
X953407Y23008167D01*
X1165073Y23461739D01*
X1165073Y22826739D01*
X1830311Y22826739D02*
X1618645Y23129120D01*
X1467454Y22826739D02*
X1467454Y23461739D01*
X1709359Y23461739D01*
X1769835Y23431500D01*
X1800073Y23401262D01*
X1830311Y23340786D01*
X1830311Y23250072D01*
X1800073Y23189596D01*
X1769835Y23159358D01*
X1709359Y23129120D01*
X1467454Y23129120D01*
X2102454Y22826739D02*
X2102454Y23461739D01*
X26907973Y26021373D02*
X27301069Y26021373D01*
X27089402Y25779468D01*
X27180116Y25779468D01*
X27240592Y25749230D01*
X27270830Y25718992D01*
X27301069Y25658515D01*
X27301069Y25507325D01*
X27270830Y25446849D01*
X27240592Y25416611D01*
X27180116Y25386373D01*
X26998688Y25386373D01*
X26938211Y25416611D01*
X26907973Y25446849D01*
X27573211Y25446849D02*
X27603450Y25416611D01*
X27573211Y25386373D01*
X27542973Y25416611D01*
X27573211Y25446849D01*
X27573211Y25386373D01*
X27815116Y26021373D02*
X28208211Y26021373D01*
X27996545Y25779468D01*
X28087259Y25779468D01*
X28147735Y25749230D01*
X28177973Y25718992D01*
X28208211Y25658515D01*
X28208211Y25507325D01*
X28177973Y25446849D01*
X28147735Y25416611D01*
X28087259Y25386373D01*
X27905830Y25386373D01*
X27845354Y25416611D01*
X27815116Y25446849D01*
X28389640Y26021373D02*
X28601307Y25386373D01*
X28812973Y26021373D01*
X741740Y43146739D02*
X741740Y43781739D01*
X1165073Y43781739D02*
X1286026Y43781739D01*
X1346502Y43751500D01*
X1406978Y43691024D01*
X1437216Y43570072D01*
X1437216Y43358405D01*
X1406978Y43237453D01*
X1346502Y43176977D01*
X1286026Y43146739D01*
X1165073Y43146739D01*
X1104597Y43176977D01*
X1044121Y43237453D01*
X1013883Y43358405D01*
X1013883Y43570072D01*
X1044121Y43691024D01*
X1104597Y43751500D01*
X1165073Y43781739D01*
X2041978Y43146739D02*
X1679121Y43146739D01*
X1860550Y43146739D02*
X1860550Y43781739D01*
X1800073Y43691024D01*
X1739597Y43630548D01*
X1679121Y43600310D01*
X2283883Y43721262D02*
X2314121Y43751500D01*
X2374597Y43781739D01*
X2525788Y43781739D01*
X2586264Y43751500D01*
X2616502Y43721262D01*
X2646740Y43660786D01*
X2646740Y43600310D01*
X2616502Y43509596D01*
X2253645Y43146739D01*
X2646740Y43146739D01*
X26847497Y33006373D02*
X26847497Y33641373D01*
X27270830Y33641373D02*
X27391783Y33641373D01*
X27452259Y33611134D01*
X27512735Y33550658D01*
X27542973Y33429706D01*
X27542973Y33218039D01*
X27512735Y33097087D01*
X27452259Y33036611D01*
X27391783Y33006373D01*
X27270830Y33006373D01*
X27210354Y33036611D01*
X27149878Y33097087D01*
X27119640Y33218039D01*
X27119640Y33429706D01*
X27149878Y33550658D01*
X27210354Y33611134D01*
X27270830Y33641373D01*
X27754640Y33641373D02*
X28147735Y33641373D01*
X27936069Y33399468D01*
X28026783Y33399468D01*
X28087259Y33369230D01*
X28117497Y33338992D01*
X28147735Y33278515D01*
X28147735Y33127325D01*
X28117497Y33066849D01*
X28087259Y33036611D01*
X28026783Y33006373D01*
X27845354Y33006373D01*
X27784878Y33036611D01*
X27754640Y33066849D01*
X28692021Y33429706D02*
X28692021Y33006373D01*
X28540830Y33671611D02*
X28389640Y33218039D01*
X28782735Y33218039D01*
X28177973Y23481373D02*
X27875592Y23481373D01*
X27845354Y23178992D01*
X27875592Y23209230D01*
X27936069Y23239468D01*
X28087259Y23239468D01*
X28147735Y23209230D01*
X28177973Y23178992D01*
X28208211Y23118515D01*
X28208211Y22967325D01*
X28177973Y22906849D01*
X28147735Y22876611D01*
X28087259Y22846373D01*
X27936069Y22846373D01*
X27875592Y22876611D01*
X27845354Y22906849D01*
X28389640Y23481373D02*
X28601307Y22846373D01*
X28812973Y23481373D01*
X26847497Y45706373D02*
X26847497Y46341373D01*
X27270830Y46341373D02*
X27391783Y46341373D01*
X27452259Y46311134D01*
X27512735Y46250658D01*
X27542973Y46129706D01*
X27542973Y45918039D01*
X27512735Y45797087D01*
X27452259Y45736611D01*
X27391783Y45706373D01*
X27270830Y45706373D01*
X27210354Y45736611D01*
X27149878Y45797087D01*
X27119640Y45918039D01*
X27119640Y46129706D01*
X27149878Y46250658D01*
X27210354Y46311134D01*
X27270830Y46341373D01*
X27754640Y46341373D02*
X28147735Y46341373D01*
X27936069Y46099468D01*
X28026783Y46099468D01*
X28087259Y46069230D01*
X28117497Y46038992D01*
X28147735Y45978515D01*
X28147735Y45827325D01*
X28117497Y45766849D01*
X28087259Y45736611D01*
X28026783Y45706373D01*
X27845354Y45706373D01*
X27784878Y45736611D01*
X27754640Y45766849D01*
X28450116Y45706373D02*
X28571069Y45706373D01*
X28631545Y45736611D01*
X28661783Y45766849D01*
X28722259Y45857563D01*
X28752497Y45978515D01*
X28752497Y46220420D01*
X28722259Y46280896D01*
X28692021Y46311134D01*
X28631545Y46341373D01*
X28510592Y46341373D01*
X28450116Y46311134D01*
X28419878Y46280896D01*
X28389640Y46220420D01*
X28389640Y46069230D01*
X28419878Y46008754D01*
X28450116Y45978515D01*
X28510592Y45948277D01*
X28631545Y45948277D01*
X28692021Y45978515D01*
X28722259Y46008754D01*
X28752497Y46069230D01*
X741740Y32986739D02*
X741740Y33621739D01*
X1165073Y33621739D02*
X1286026Y33621739D01*
X1346502Y33591500D01*
X1406978Y33531024D01*
X1437216Y33410072D01*
X1437216Y33198405D01*
X1406978Y33077453D01*
X1346502Y33016977D01*
X1286026Y32986739D01*
X1165073Y32986739D01*
X1104597Y33016977D01*
X1044121Y33077453D01*
X1013883Y33198405D01*
X1013883Y33410072D01*
X1044121Y33531024D01*
X1104597Y33591500D01*
X1165073Y33621739D01*
X2041978Y32986739D02*
X1679121Y32986739D01*
X1860550Y32986739D02*
X1860550Y33621739D01*
X1800073Y33531024D01*
X1739597Y33470548D01*
X1679121Y33440310D01*
X2586264Y33621739D02*
X2465311Y33621739D01*
X2404835Y33591500D01*
X2374597Y33561262D01*
X2314121Y33470548D01*
X2283883Y33349596D01*
X2283883Y33107691D01*
X2314121Y33047215D01*
X2344359Y33016977D01*
X2404835Y32986739D01*
X2525788Y32986739D01*
X2586264Y33016977D01*
X2616502Y33047215D01*
X2646740Y33107691D01*
X2646740Y33258881D01*
X2616502Y33319358D01*
X2586264Y33349596D01*
X2525788Y33379834D01*
X2404835Y33379834D01*
X2344359Y33349596D01*
X2314121Y33319358D01*
X2283883Y33258881D01*
X26847497Y38086373D02*
X26847497Y38721373D01*
X27270830Y38721373D02*
X27391783Y38721373D01*
X27452259Y38691134D01*
X27512735Y38630658D01*
X27542973Y38509706D01*
X27542973Y38298039D01*
X27512735Y38177087D01*
X27452259Y38116611D01*
X27391783Y38086373D01*
X27270830Y38086373D01*
X27210354Y38116611D01*
X27149878Y38177087D01*
X27119640Y38298039D01*
X27119640Y38509706D01*
X27149878Y38630658D01*
X27210354Y38691134D01*
X27270830Y38721373D01*
X27754640Y38721373D02*
X28147735Y38721373D01*
X27936069Y38479468D01*
X28026783Y38479468D01*
X28087259Y38449230D01*
X28117497Y38418992D01*
X28147735Y38358515D01*
X28147735Y38207325D01*
X28117497Y38146849D01*
X28087259Y38116611D01*
X28026783Y38086373D01*
X27845354Y38086373D01*
X27784878Y38116611D01*
X27754640Y38146849D01*
X28692021Y38721373D02*
X28571069Y38721373D01*
X28510592Y38691134D01*
X28480354Y38660896D01*
X28419878Y38570182D01*
X28389640Y38449230D01*
X28389640Y38207325D01*
X28419878Y38146849D01*
X28450116Y38116611D01*
X28510592Y38086373D01*
X28631545Y38086373D01*
X28692021Y38116611D01*
X28722259Y38146849D01*
X28752497Y38207325D01*
X28752497Y38358515D01*
X28722259Y38418992D01*
X28692021Y38449230D01*
X28631545Y38479468D01*
X28510592Y38479468D01*
X28450116Y38449230D01*
X28419878Y38418992D01*
X28389640Y38358515D01*
X26847497Y35546373D02*
X26847497Y36181373D01*
X27270830Y36181373D02*
X27391783Y36181373D01*
X27452259Y36151134D01*
X27512735Y36090658D01*
X27542973Y35969706D01*
X27542973Y35758039D01*
X27512735Y35637087D01*
X27452259Y35576611D01*
X27391783Y35546373D01*
X27270830Y35546373D01*
X27210354Y35576611D01*
X27149878Y35637087D01*
X27119640Y35758039D01*
X27119640Y35969706D01*
X27149878Y36090658D01*
X27210354Y36151134D01*
X27270830Y36181373D01*
X27754640Y36181373D02*
X28147735Y36181373D01*
X27936069Y35939468D01*
X28026783Y35939468D01*
X28087259Y35909230D01*
X28117497Y35878992D01*
X28147735Y35818515D01*
X28147735Y35667325D01*
X28117497Y35606849D01*
X28087259Y35576611D01*
X28026783Y35546373D01*
X27845354Y35546373D01*
X27784878Y35576611D01*
X27754640Y35606849D01*
X28722259Y36181373D02*
X28419878Y36181373D01*
X28389640Y35878992D01*
X28419878Y35909230D01*
X28480354Y35939468D01*
X28631545Y35939468D01*
X28692021Y35909230D01*
X28722259Y35878992D01*
X28752497Y35818515D01*
X28752497Y35667325D01*
X28722259Y35606849D01*
X28692021Y35576611D01*
X28631545Y35546373D01*
X28480354Y35546373D01*
X28419878Y35576611D01*
X28389640Y35606849D01*
X741740Y30446739D02*
X741740Y31081739D01*
X1165073Y31081739D02*
X1286026Y31081739D01*
X1346502Y31051500D01*
X1406978Y30991024D01*
X1437216Y30870072D01*
X1437216Y30658405D01*
X1406978Y30537453D01*
X1346502Y30476977D01*
X1286026Y30446739D01*
X1165073Y30446739D01*
X1104597Y30476977D01*
X1044121Y30537453D01*
X1013883Y30658405D01*
X1013883Y30870072D01*
X1044121Y30991024D01*
X1104597Y31051500D01*
X1165073Y31081739D01*
X2041978Y30446739D02*
X1679121Y30446739D01*
X1860550Y30446739D02*
X1860550Y31081739D01*
X1800073Y30991024D01*
X1739597Y30930548D01*
X1679121Y30900310D01*
X2253645Y31081739D02*
X2676978Y31081739D01*
X2404835Y30446739D01*
X741740Y35526739D02*
X741740Y36161739D01*
X1165073Y36161739D02*
X1286026Y36161739D01*
X1346502Y36131500D01*
X1406978Y36071024D01*
X1437216Y35950072D01*
X1437216Y35738405D01*
X1406978Y35617453D01*
X1346502Y35556977D01*
X1286026Y35526739D01*
X1165073Y35526739D01*
X1104597Y35556977D01*
X1044121Y35617453D01*
X1013883Y35738405D01*
X1013883Y35950072D01*
X1044121Y36071024D01*
X1104597Y36131500D01*
X1165073Y36161739D01*
X1679121Y36101262D02*
X1709359Y36131500D01*
X1769835Y36161739D01*
X1921026Y36161739D01*
X1981502Y36131500D01*
X2011740Y36101262D01*
X2041978Y36040786D01*
X2041978Y35980310D01*
X2011740Y35889596D01*
X1648883Y35526739D01*
X2041978Y35526739D01*
G04 #@! TO.C,J81*
X27933952Y4538739D02*
X27933952Y4085167D01*
X27903714Y3994453D01*
X27843238Y3933977D01*
X27752523Y3903739D01*
X27692047Y3903739D01*
X28327047Y4266596D02*
X28266571Y4296834D01*
X28236333Y4327072D01*
X28206095Y4387548D01*
X28206095Y4417786D01*
X28236333Y4478262D01*
X28266571Y4508500D01*
X28327047Y4538739D01*
X28448000Y4538739D01*
X28508476Y4508500D01*
X28538714Y4478262D01*
X28568952Y4417786D01*
X28568952Y4387548D01*
X28538714Y4327072D01*
X28508476Y4296834D01*
X28448000Y4266596D01*
X28327047Y4266596D01*
X28266571Y4236358D01*
X28236333Y4206120D01*
X28206095Y4145643D01*
X28206095Y4024691D01*
X28236333Y3964215D01*
X28266571Y3933977D01*
X28327047Y3903739D01*
X28448000Y3903739D01*
X28508476Y3933977D01*
X28538714Y3964215D01*
X28568952Y4024691D01*
X28568952Y4145643D01*
X28538714Y4206120D01*
X28508476Y4236358D01*
X28448000Y4266596D01*
X29173714Y3903739D02*
X28810857Y3903739D01*
X28992285Y3903739D02*
X28992285Y4538739D01*
X28931809Y4448024D01*
X28871333Y4387548D01*
X28810857Y4357310D01*
G04 #@! TO.C,J41*
X21456952Y19575539D02*
X21456952Y19121967D01*
X21426714Y19031253D01*
X21366238Y18970777D01*
X21275523Y18940539D01*
X21215047Y18940539D01*
X22031476Y19363872D02*
X22031476Y18940539D01*
X21880285Y19605777D02*
X21729095Y19152205D01*
X22122190Y19152205D01*
X22696714Y18940539D02*
X22333857Y18940539D01*
X22515285Y18940539D02*
X22515285Y19575539D01*
X22454809Y19484824D01*
X22394333Y19424348D01*
X22333857Y19394110D01*
G04 #@! TO.C,J52*
X26663952Y52163739D02*
X26663952Y51710167D01*
X26633714Y51619453D01*
X26573238Y51558977D01*
X26482523Y51528739D01*
X26422047Y51528739D01*
X27268714Y52163739D02*
X26966333Y52163739D01*
X26936095Y51861358D01*
X26966333Y51891596D01*
X27026809Y51921834D01*
X27178000Y51921834D01*
X27238476Y51891596D01*
X27268714Y51861358D01*
X27298952Y51800881D01*
X27298952Y51649691D01*
X27268714Y51589215D01*
X27238476Y51558977D01*
X27178000Y51528739D01*
X27026809Y51528739D01*
X26966333Y51558977D01*
X26936095Y51589215D01*
X27540857Y52103262D02*
X27571095Y52133500D01*
X27631571Y52163739D01*
X27782761Y52163739D01*
X27843238Y52133500D01*
X27873476Y52103262D01*
X27903714Y52042786D01*
X27903714Y51982310D01*
X27873476Y51891596D01*
X27510619Y51528739D01*
X27903714Y51528739D01*
G04 #@! TO.C,C42*
X18284095Y32939643D02*
X18767904Y32939643D01*
X18526000Y32697739D02*
X18526000Y33181548D01*
G04 #@! TO.C,J51*
X1644952Y52163739D02*
X1644952Y51710167D01*
X1614714Y51619453D01*
X1554238Y51558977D01*
X1463523Y51528739D01*
X1403047Y51528739D01*
X2249714Y52163739D02*
X1947333Y52163739D01*
X1917095Y51861358D01*
X1947333Y51891596D01*
X2007809Y51921834D01*
X2159000Y51921834D01*
X2219476Y51891596D01*
X2249714Y51861358D01*
X2279952Y51800881D01*
X2279952Y51649691D01*
X2249714Y51589215D01*
X2219476Y51558977D01*
X2159000Y51528739D01*
X2007809Y51528739D01*
X1947333Y51558977D01*
X1917095Y51589215D01*
X2884714Y51528739D02*
X2521857Y51528739D01*
X2703285Y51528739D02*
X2703285Y52163739D01*
X2642809Y52073024D01*
X2582333Y52012548D01*
X2521857Y51982310D01*
G04 #@! TO.C,J61*
X795261Y18027953D02*
X1248833Y18027953D01*
X1339547Y17997715D01*
X1400023Y17937239D01*
X1430261Y17846524D01*
X1430261Y17786048D01*
X795261Y18602477D02*
X795261Y18481524D01*
X825500Y18421048D01*
X855738Y18390810D01*
X946452Y18330334D01*
X1067404Y18300096D01*
X1309309Y18300096D01*
X1369785Y18330334D01*
X1400023Y18360572D01*
X1430261Y18421048D01*
X1430261Y18542000D01*
X1400023Y18602477D01*
X1369785Y18632715D01*
X1309309Y18662953D01*
X1158119Y18662953D01*
X1097642Y18632715D01*
X1067404Y18602477D01*
X1037166Y18542000D01*
X1037166Y18421048D01*
X1067404Y18360572D01*
X1097642Y18330334D01*
X1158119Y18300096D01*
X1430261Y19267715D02*
X1430261Y18904858D01*
X1430261Y19086286D02*
X795261Y19086286D01*
X885976Y19025810D01*
X946452Y18965334D01*
X976690Y18904858D01*
D10*
G04 #@! TO.C,C22*
X11938000Y53098700D02*
X10668000Y53098700D01*
X11938000Y52336700D02*
X11938000Y53098700D01*
X11938000Y50685700D02*
X11938000Y51447700D01*
X11938000Y50685700D02*
X10668000Y50685700D01*
X10668000Y53098700D02*
X10668000Y52336700D01*
X10668000Y50685700D02*
X10668000Y51447700D01*
X10731500Y53098700D02*
G75*
G03*
X10731500Y53098700I-63500J0D01*
G01*
G04 #@! TO.C,L81*
X17907000Y17462500D02*
X19177000Y17462500D01*
X19177000Y17462500D02*
X19177000Y16700500D01*
X17907000Y17462500D02*
X17907000Y16700500D01*
X17907000Y15049500D02*
X19177000Y15049500D01*
X17907000Y15811500D02*
X17907000Y15049500D01*
X19177000Y15049500D02*
X19177000Y15811500D01*
X19240500Y15049500D02*
G75*
G03*
X19240500Y15049500I-63500J0D01*
G01*
G04 #@! TO.C,L2*
X10160000Y42989500D02*
X10160000Y42227500D01*
X8890000Y42989500D02*
X10160000Y42989500D01*
X8890000Y42989500D02*
X8890000Y42227500D01*
X10160000Y40576500D02*
X10160000Y41338500D01*
X8890000Y41338500D02*
X8890000Y40576500D01*
X8890000Y40576500D02*
X10160000Y40576500D01*
X10223500Y40576500D02*
G75*
G03*
X10223500Y40576500I-63500J0D01*
G01*
D13*
G04 #@! TO.C,C87*
X20066000Y14224000D02*
X19558000Y14224000D01*
X19558000Y14224000D02*
X19558000Y14986000D01*
X21082000Y14986000D02*
X20574000Y14986000D01*
X20574000Y14224000D02*
X21082000Y14224000D01*
X19558000Y14986000D02*
X20066000Y14986000D01*
X21082000Y14224000D02*
X21082000Y14986000D01*
X21145500Y14986000D02*
G75*
G03*
X21145500Y14986000I-63500J0D01*
G01*
D11*
G04 #@! TO.C,U81*
X25273000Y18923000D02*
X24257000Y18923000D01*
X24257000Y18923000D02*
X24257000Y19431000D01*
X26670000Y19431000D02*
X22860000Y19431000D01*
X25273000Y19431000D02*
X25273000Y18923000D01*
X22860000Y19431000D02*
X22860000Y8763000D01*
X26670000Y8763000D02*
X22860000Y8763000D01*
X26670000Y8763000D02*
X26670000Y19431000D01*
D14*
X21463000Y18161000D02*
G75*
G03*
X21463000Y18161000I-127000J0D01*
G01*
D13*
G04 #@! TO.C,C7*
X21844000Y52324000D02*
X21082000Y52324000D01*
X21844000Y50800000D02*
X21082000Y50800000D01*
X21844000Y51308000D02*
X21844000Y50800000D01*
X21082000Y52324000D02*
X21082000Y51816000D01*
X21082000Y50800000D02*
X21082000Y51308000D01*
X21844000Y51816000D02*
X21844000Y52324000D01*
X21145500Y52324000D02*
G75*
G03*
X21145500Y52324000I-63500J0D01*
G01*
G04 #@! TO.C,R72*
X8890000Y32766000D02*
X8128000Y32766000D01*
X8890000Y31750000D02*
X8890000Y31242000D01*
X8890000Y31242000D02*
X8128000Y31242000D01*
X8128000Y31242000D02*
X8128000Y31750000D01*
X8890000Y32258000D02*
X8890000Y32766000D01*
X8128000Y32766000D02*
X8128000Y32258000D01*
X8191500Y32766000D02*
G75*
G03*
X8191500Y32766000I-63500J0D01*
G01*
G04 #@! TO.C,C24*
X9144000Y39624000D02*
X8382000Y39624000D01*
X9144000Y39116000D02*
X9144000Y39624000D01*
X9144000Y38100000D02*
X8382000Y38100000D01*
X8382000Y38100000D02*
X8382000Y38608000D01*
X8382000Y39624000D02*
X8382000Y39116000D01*
X9144000Y38608000D02*
X9144000Y38100000D01*
X8445500Y39624000D02*
G75*
G03*
X8445500Y39624000I-63500J0D01*
G01*
D11*
G04 #@! TO.C,U41*
X22098000Y25908000D02*
X20574000Y25908000D01*
X20701000Y29464000D02*
X19177000Y29464000D01*
X25146000Y25908000D02*
X25781000Y25908000D01*
X24384000Y25908000D02*
X22860000Y25908000D01*
X19177000Y29464000D02*
X19177000Y25908000D01*
X25781000Y29464000D02*
X24257000Y29464000D01*
X25781000Y29464000D02*
X25781000Y25908000D01*
X19812000Y25908000D02*
X19177000Y25908000D01*
D10*
G04 #@! TO.C,D42*
X23622000Y38544500D02*
X23622000Y39306500D01*
X24765000Y39497000D02*
X23749000Y39497000D01*
X24904700Y40703500D02*
X25031700Y40703500D01*
X23609300Y40703500D02*
X23482300Y40703500D01*
X24892000Y38544500D02*
X23622000Y38544500D01*
X24892000Y40195500D02*
X24892000Y40957500D01*
X23876000Y40005000D02*
X24638000Y40005000D01*
X24257000Y39497000D02*
X24257000Y39370000D01*
X23622000Y40957500D02*
X23622000Y40195500D01*
X24892000Y40957500D02*
X23622000Y40957500D01*
X23749000Y39497000D02*
X24257000Y40005000D01*
X24892000Y38544500D02*
X24892000Y39306500D01*
X24257000Y40005000D02*
X24765000Y39497000D01*
X24257000Y40005000D02*
X24257000Y40132000D01*
G04 #@! TO.C,C18*
X7493000Y44792900D02*
X8763000Y44792900D01*
X8763000Y42379900D02*
X8763000Y43141900D01*
X8763000Y44792900D02*
X8763000Y44030900D01*
X7493000Y43141900D02*
X7493000Y42379900D01*
X7493000Y42379900D02*
X8763000Y42379900D01*
X7493000Y44792900D02*
X7493000Y44030900D01*
X8826500Y42379900D02*
G75*
G03*
X8826500Y42379900I-63500J0D01*
G01*
D13*
G04 #@! TO.C,C62*
X5588000Y22733000D02*
X5588000Y22225000D01*
X5588000Y21209000D02*
X5588000Y21717000D01*
X4826000Y21209000D02*
X5588000Y21209000D01*
X4826000Y22733000D02*
X5588000Y22733000D01*
X4826000Y21717000D02*
X4826000Y21209000D01*
X4826000Y22225000D02*
X4826000Y22733000D01*
X5651500Y21209000D02*
G75*
G03*
X5651500Y21209000I-63500J0D01*
G01*
D11*
G04 #@! TO.C,X81*
X20955000Y7747000D02*
X20955000Y8255000D01*
X19748500Y6413500D02*
X19621500Y6413500D01*
X19748500Y9588500D02*
X19621500Y9588500D01*
X18415000Y8255000D02*
X18415000Y7747000D01*
D15*
X18224159Y10002520D02*
G75*
G03*
X18224159Y10002520I-141899J0D01*
G01*
D13*
G04 #@! TO.C,C12*
X21336000Y49276000D02*
X21844000Y49276000D01*
X20828000Y49276000D02*
X20320000Y49276000D01*
X21844000Y48514000D02*
X21336000Y48514000D01*
X20320000Y48514000D02*
X20828000Y48514000D01*
X21844000Y49276000D02*
X21844000Y48514000D01*
X20320000Y49276000D02*
X20320000Y48514000D01*
X20383500Y48514000D02*
G75*
G03*
X20383500Y48514000I-63500J0D01*
G01*
G04 #@! TO.C,C25*
X10033000Y38100000D02*
X9271000Y38100000D01*
X9271000Y39624000D02*
X9271000Y39116000D01*
X10033000Y39624000D02*
X9271000Y39624000D01*
X10033000Y39116000D02*
X10033000Y39624000D01*
X9271000Y38100000D02*
X9271000Y38608000D01*
X10033000Y38608000D02*
X10033000Y38100000D01*
X9334500Y39624000D02*
G75*
G03*
X9334500Y39624000I-63500J0D01*
G01*
G04 #@! TO.C,C10*
X20320000Y41579800D02*
X20320000Y41071800D01*
X19558000Y42595800D02*
X19558000Y42087800D01*
X19558000Y41071800D02*
X19558000Y41579800D01*
X20320000Y42087800D02*
X20320000Y42595800D01*
X20320000Y41071800D02*
X19558000Y41071800D01*
X20320000Y42595800D02*
X19558000Y42595800D01*
X19621500Y42595800D02*
G75*
G03*
X19621500Y42595800I-63500J0D01*
G01*
D11*
G04 #@! TO.C,X61*
X6413500Y27241500D02*
X6540500Y27241500D01*
X7747000Y25400000D02*
X7747000Y25908000D01*
X5207000Y25908000D02*
X5207000Y25400000D01*
X6413500Y24066500D02*
X6540500Y24066500D01*
D15*
X8221639Y23652480D02*
G75*
G03*
X8221639Y23652480I-141899J0D01*
G01*
D13*
G04 #@! TO.C,C3*
X18415000Y51943000D02*
X18415000Y51435000D01*
X19177000Y51435000D02*
X19177000Y51943000D01*
X19177000Y50927000D02*
X19177000Y50419000D01*
X19177000Y50419000D02*
X18415000Y50419000D01*
X19177000Y51943000D02*
X18415000Y51943000D01*
X18415000Y50419000D02*
X18415000Y50927000D01*
X18478500Y51943000D02*
G75*
G03*
X18478500Y51943000I-63500J0D01*
G01*
G04 #@! TO.C,C65*
X14986000Y23241000D02*
X14224000Y23241000D01*
X14986000Y22733000D02*
X14986000Y23241000D01*
X14986000Y21717000D02*
X14224000Y21717000D01*
X14986000Y22225000D02*
X14986000Y21717000D01*
X14224000Y23241000D02*
X14224000Y22733000D01*
X14224000Y21717000D02*
X14224000Y22225000D01*
X14287500Y23241000D02*
G75*
G03*
X14287500Y23241000I-63500J0D01*
G01*
D10*
G04 #@! TO.C,J81*
X27559000Y-889000D02*
X27940000Y-1524000D01*
X27559000Y-889000D02*
X27559000Y127000D01*
X27559000Y-254000D02*
X27178000Y-254000D01*
X27559000Y-889000D02*
X20193000Y-889000D01*
X20574000Y-254000D02*
X20193000Y-254000D01*
X27940000Y-1524000D02*
X19812000Y-1524000D01*
X27559000Y2413000D02*
X27559000Y3175000D01*
X20193000Y-889000D02*
X20193000Y127000D01*
X20193000Y-889000D02*
X19812000Y-1524000D01*
X20193000Y2413000D02*
X20193000Y3175000D01*
X26289000Y4191000D02*
X25527000Y4191000D01*
X21463000Y4191000D02*
X22225000Y4191000D01*
X22098000Y4572000D02*
G75*
G03*
X22098000Y4572000I-127000J0D01*
G01*
D13*
G04 #@! TO.C,R51*
X24130000Y42672000D02*
X24130000Y42164000D01*
X24892000Y42672000D02*
X24130000Y42672000D01*
X24892000Y41148000D02*
X24130000Y41148000D01*
X24892000Y42164000D02*
X24892000Y42672000D01*
X24892000Y41656000D02*
X24892000Y41148000D01*
X24130000Y41148000D02*
X24130000Y41656000D01*
X24193500Y42672000D02*
G75*
G03*
X24193500Y42672000I-63500J0D01*
G01*
G04 #@! TO.C,R69*
X16383000Y26797000D02*
X15875000Y26797000D01*
X15875000Y26797000D02*
X15875000Y26035000D01*
X17399000Y26035000D02*
X16891000Y26035000D01*
X17399000Y26797000D02*
X17399000Y26035000D01*
X16891000Y26797000D02*
X17399000Y26797000D01*
X15875000Y26035000D02*
X16383000Y26035000D01*
X15938500Y26035000D02*
G75*
G03*
X15938500Y26035000I-63500J0D01*
G01*
D10*
G04 #@! TO.C,X2*
X7556500Y50228500D02*
X7556500Y49149000D01*
X9461500Y50228500D02*
X9461500Y49149000D01*
X9461500Y50228500D02*
X7556500Y50228500D01*
X7556500Y47625000D02*
X7556500Y46545500D01*
X9461500Y46545500D02*
X9461500Y47625000D01*
X7556500Y46545500D02*
X9461500Y46545500D01*
D13*
G04 #@! TO.C,R31*
X9271000Y33655000D02*
X9271000Y32893000D01*
X9779000Y33655000D02*
X9271000Y33655000D01*
X10795000Y33655000D02*
X10795000Y32893000D01*
X9271000Y32893000D02*
X9779000Y32893000D01*
X10795000Y32893000D02*
X10287000Y32893000D01*
X10287000Y33655000D02*
X10795000Y33655000D01*
X9334500Y32893000D02*
G75*
G03*
X9334500Y32893000I-63500J0D01*
G01*
G04 #@! TO.C,C73*
X7239000Y32258000D02*
X7239000Y32766000D01*
X8001000Y31242000D02*
X8001000Y31750000D01*
X7239000Y31750000D02*
X7239000Y31242000D01*
X7239000Y32766000D02*
X8001000Y32766000D01*
X7239000Y31242000D02*
X8001000Y31242000D01*
X8001000Y32766000D02*
X8001000Y32258000D01*
X8064500Y31242000D02*
G75*
G03*
X8064500Y31242000I-63500J0D01*
G01*
D10*
G04 #@! TO.C,C11*
X11366500Y44323000D02*
X10604500Y44323000D01*
X8953500Y43053000D02*
X9715500Y43053000D01*
X11366500Y43053000D02*
X11366500Y44323000D01*
X8953500Y43053000D02*
X8953500Y44323000D01*
X10604500Y43053000D02*
X11366500Y43053000D01*
X8953500Y44323000D02*
X9715500Y44323000D01*
X11430000Y44323000D02*
G75*
G03*
X11430000Y44323000I-63500J0D01*
G01*
D16*
G04 #@! TO.C,U61*
X9779000Y29591000D02*
X9779000Y29972000D01*
X14859000Y29591000D02*
X14859000Y29972000D01*
X14859000Y24892000D02*
X14859000Y25273000D01*
X10160000Y29972000D02*
X9779000Y29972000D01*
X14478000Y24892000D02*
X14859000Y24892000D01*
X14859000Y29972000D02*
X14478000Y29972000D01*
X9779000Y25273000D02*
X10160000Y24892000D01*
X10339605Y24130000D02*
G75*
G03*
X10339605Y24130000I-179605J0D01*
G01*
D13*
G04 #@! TO.C,C23*
X14986000Y52832000D02*
X15494000Y52832000D01*
X15494000Y52832000D02*
X15494000Y52070000D01*
X13970000Y52070000D02*
X14478000Y52070000D01*
X15494000Y52070000D02*
X14986000Y52070000D01*
X14478000Y52832000D02*
X13970000Y52832000D01*
X13970000Y52832000D02*
X13970000Y52070000D01*
X14033500Y52070000D02*
G75*
G03*
X14033500Y52070000I-63500J0D01*
G01*
G04 #@! TO.C,C15*
X9144000Y45593000D02*
X8636000Y45593000D01*
X8128000Y46355000D02*
X7620000Y46355000D01*
X7620000Y46355000D02*
X7620000Y45593000D01*
X9144000Y46355000D02*
X9144000Y45593000D01*
X8636000Y46355000D02*
X9144000Y46355000D01*
X7620000Y45593000D02*
X8128000Y45593000D01*
X7683500Y45593000D02*
G75*
G03*
X7683500Y45593000I-63500J0D01*
G01*
G04 #@! TO.C,C66*
X15875000Y28448000D02*
X15875000Y27940000D01*
X15875000Y26924000D02*
X15875000Y27432000D01*
X16637000Y27940000D02*
X16637000Y28448000D01*
X16637000Y28448000D02*
X15875000Y28448000D01*
X16637000Y27432000D02*
X16637000Y26924000D01*
X16637000Y26924000D02*
X15875000Y26924000D01*
X15938500Y28448000D02*
G75*
G03*
X15938500Y28448000I-63500J0D01*
G01*
G04 #@! TO.C,C5*
X9550400Y46151800D02*
X9550400Y46659800D01*
X9550400Y47675800D02*
X9550400Y47167800D01*
X10312400Y46659800D02*
X10312400Y46151800D01*
X10312400Y47167800D02*
X10312400Y47675800D01*
X10312400Y47675800D02*
X9550400Y47675800D01*
X10312400Y46151800D02*
X9550400Y46151800D01*
X9613900Y47675800D02*
G75*
G03*
X9613900Y47675800I-63500J0D01*
G01*
D10*
G04 #@! TO.C,C21*
X8382000Y51308000D02*
X7442200Y51308000D01*
X10337800Y52832000D02*
X10337800Y51308000D01*
X10337800Y51308000D02*
X9398000Y51308000D01*
X9398000Y52832000D02*
X10337800Y52832000D01*
X7442200Y51308000D02*
X7442200Y52832000D01*
X7442200Y52832000D02*
X8382000Y52832000D01*
X10439400Y52832000D02*
G75*
G03*
X10439400Y52832000I-101600J0D01*
G01*
G04 #@! TO.C,C8*
X22288500Y50673000D02*
X21526500Y50673000D01*
X20637500Y50673000D02*
X19875500Y50673000D01*
X19875500Y50673000D02*
X19875500Y49403000D01*
X19875500Y49403000D02*
X20637500Y49403000D01*
X22288500Y49403000D02*
X21526500Y49403000D01*
X22288500Y50673000D02*
X22288500Y49403000D01*
X19939000Y49403000D02*
G75*
G03*
X19939000Y49403000I-63500J0D01*
G01*
D13*
G04 #@! TO.C,D107*
X24257000Y32258000D02*
X24257000Y31496000D01*
X24257000Y31496000D02*
X24765000Y31496000D01*
X24765000Y32258000D02*
X24257000Y32258000D01*
X25781000Y31496000D02*
X25273000Y31496000D01*
X25781000Y32258000D02*
X25781000Y31496000D01*
X25273000Y32258000D02*
X25781000Y32258000D01*
X24320500Y31496000D02*
G75*
G03*
X24320500Y31496000I-63500J0D01*
G01*
G04 #@! TO.C,R56*
X24130000Y46990000D02*
X24130000Y47498000D01*
X24892000Y47498000D02*
X24892000Y46990000D01*
X24892000Y48006000D02*
X24892000Y48514000D01*
X24892000Y48514000D02*
X24130000Y48514000D01*
X24130000Y48514000D02*
X24130000Y48006000D01*
X24892000Y46990000D02*
X24130000Y46990000D01*
X24193500Y48514000D02*
G75*
G03*
X24193500Y48514000I-63500J0D01*
G01*
D10*
G04 #@! TO.C,D82*
X17627600Y25908000D02*
X17627600Y27940000D01*
X19050000Y27940000D02*
X19050000Y25908000D01*
X18338800Y26543000D02*
X18719800Y27114500D01*
X18338800Y27114500D02*
X18719800Y27114500D01*
X17957800Y27114500D02*
X18338800Y26543000D01*
X18084800Y26263600D02*
X17526000Y26263600D01*
X18592800Y26263600D02*
X19151600Y26263600D01*
X19050000Y25908000D02*
X18796000Y25908000D01*
X18338800Y27114500D02*
X17957800Y27114500D01*
X18338800Y26543000D02*
X18338800Y26352500D01*
X18338800Y27482800D02*
X18338800Y27114500D01*
X17627600Y27940000D02*
X17881600Y27940000D01*
X17526000Y26162000D02*
X17983200Y26162000D01*
X17627600Y25908000D02*
X17881600Y25908000D01*
X18796000Y27940000D02*
X19050000Y27940000D01*
X17526000Y26365200D02*
X19151600Y26365200D01*
X18694400Y26162000D02*
X19151600Y26162000D01*
D13*
G04 #@! TO.C,R64*
X7620000Y21971000D02*
X8128000Y21971000D01*
X6604000Y21971000D02*
X6604000Y22733000D01*
X6604000Y22733000D02*
X7112000Y22733000D01*
X8128000Y22733000D02*
X7620000Y22733000D01*
X8128000Y21971000D02*
X8128000Y22733000D01*
X7112000Y21971000D02*
X6604000Y21971000D01*
X8191500Y22733000D02*
G75*
G03*
X8191500Y22733000I-63500J0D01*
G01*
G04 #@! TO.C,D95*
X3683000Y35941000D02*
X4445000Y35941000D01*
X3683000Y36957000D02*
X3683000Y37465000D01*
X4445000Y35941000D02*
X4445000Y36449000D01*
X3683000Y36449000D02*
X3683000Y35941000D01*
X3683000Y37465000D02*
X4445000Y37465000D01*
X4445000Y37465000D02*
X4445000Y36957000D01*
X4508500Y35941000D02*
G75*
G03*
X4508500Y35941000I-63500J0D01*
G01*
G04 #@! TO.C,C81*
X20447000Y4826000D02*
X20447000Y5588000D01*
X20955000Y4826000D02*
X20447000Y4826000D01*
X20447000Y5588000D02*
X20955000Y5588000D01*
X21971000Y5588000D02*
X21463000Y5588000D01*
X21463000Y4826000D02*
X21971000Y4826000D01*
X21971000Y4826000D02*
X21971000Y5588000D01*
X22034500Y5588000D02*
G75*
G03*
X22034500Y5588000I-63500J0D01*
G01*
G04 #@! TO.C,C69*
X4953000Y22860000D02*
X4953000Y23622000D01*
X5461000Y22860000D02*
X4953000Y22860000D01*
X5969000Y22860000D02*
X6477000Y22860000D01*
X6477000Y23622000D02*
X5969000Y23622000D01*
X4953000Y23622000D02*
X5461000Y23622000D01*
X6477000Y22860000D02*
X6477000Y23622000D01*
X6540500Y23622000D02*
G75*
G03*
X6540500Y23622000I-63500J0D01*
G01*
D10*
G04 #@! TO.C,C89*
X21209000Y23622000D02*
X22148800Y23622000D01*
X22148800Y23622000D02*
X22148800Y22098000D01*
X19253200Y22098000D02*
X19253200Y23622000D01*
X22148800Y22098000D02*
X21209000Y22098000D01*
X20193000Y22098000D02*
X19253200Y22098000D01*
X19253200Y23622000D02*
X20193000Y23622000D01*
X19354800Y22098000D02*
G75*
G03*
X19354800Y22098000I-101600J0D01*
G01*
D13*
G04 #@! TO.C,C70*
X6477000Y27686000D02*
X5969000Y27686000D01*
X5969000Y28448000D02*
X6477000Y28448000D01*
X6477000Y28448000D02*
X6477000Y27686000D01*
X4953000Y28448000D02*
X4953000Y27686000D01*
X4953000Y27686000D02*
X5461000Y27686000D01*
X5461000Y28448000D02*
X4953000Y28448000D01*
X5016500Y27686000D02*
G75*
G03*
X5016500Y27686000I-63500J0D01*
G01*
G04 #@! TO.C,R7*
X20193000Y39497000D02*
X20193000Y38989000D01*
X20193000Y40005000D02*
X20193000Y40513000D01*
X20193000Y38989000D02*
X19431000Y38989000D01*
X19431000Y38989000D02*
X19431000Y39497000D01*
X20193000Y40513000D02*
X19431000Y40513000D01*
X19431000Y40513000D02*
X19431000Y40005000D01*
X19494500Y40513000D02*
G75*
G03*
X19494500Y40513000I-63500J0D01*
G01*
G04 #@! TO.C,C68*
X6604000Y27686000D02*
X6604000Y28448000D01*
X8128000Y28448000D02*
X7620000Y28448000D01*
X8128000Y27686000D02*
X8128000Y28448000D01*
X6604000Y28448000D02*
X7112000Y28448000D01*
X7112000Y27686000D02*
X6604000Y27686000D01*
X7620000Y27686000D02*
X8128000Y27686000D01*
X8191500Y28448000D02*
G75*
G03*
X8191500Y28448000I-63500J0D01*
G01*
D10*
G04 #@! TO.C,D81*
X23088600Y6477000D02*
X23088600Y6286500D01*
X23088600Y5334000D02*
X23088600Y5461000D01*
X23088600Y7429500D02*
X23088600Y7239000D01*
X24866600Y8382000D02*
X24866600Y8255000D01*
X24866600Y5334000D02*
X23088600Y5334000D01*
X23088600Y8382000D02*
X24866600Y8382000D01*
X23088600Y8382000D02*
X23088600Y8255000D01*
X24866600Y7429500D02*
X24866600Y7239000D01*
X24866600Y5334000D02*
X24866600Y5461000D01*
X24866600Y6477000D02*
X24866600Y6286500D01*
X24231600Y5334000D02*
G75*
G03*
X23723600Y5334000I-254000J0D01*
G01*
X25374600Y5334000D02*
G75*
G03*
X25374600Y5334000I-127000J0D01*
G01*
D13*
G04 #@! TO.C,C2*
X15621000Y52324000D02*
X15621000Y52832000D01*
X15621000Y51308000D02*
X16383000Y51308000D01*
X16383000Y52832000D02*
X16383000Y52324000D01*
X15621000Y52832000D02*
X16383000Y52832000D01*
X15621000Y51816000D02*
X15621000Y51308000D01*
X16383000Y51308000D02*
X16383000Y51816000D01*
X16446500Y51308000D02*
G75*
G03*
X16446500Y51308000I-63500J0D01*
G01*
G04 #@! TO.C,R6*
X16383000Y29006800D02*
X15875000Y29006800D01*
X17399000Y29768800D02*
X16891000Y29768800D01*
X17399000Y29006800D02*
X17399000Y29768800D01*
X16891000Y29006800D02*
X17399000Y29006800D01*
X15875000Y29768800D02*
X16383000Y29768800D01*
X15875000Y29006800D02*
X15875000Y29768800D01*
X17462500Y29768800D02*
G75*
G03*
X17462500Y29768800I-63500J0D01*
G01*
G04 #@! TO.C,C1*
X17780000Y51308000D02*
X18288000Y51308000D01*
X18288000Y51308000D02*
X18288000Y52070000D01*
X17272000Y51308000D02*
X16764000Y51308000D01*
X16764000Y51308000D02*
X16764000Y52070000D01*
X18288000Y52070000D02*
X17780000Y52070000D01*
X16764000Y52070000D02*
X17272000Y52070000D01*
X18351500Y52070000D02*
G75*
G03*
X18351500Y52070000I-63500J0D01*
G01*
D11*
G04 #@! TO.C,J41*
X22733000Y21971000D02*
X22733000Y19685000D01*
X25146000Y21971000D02*
X25400000Y21717000D01*
X25400000Y19939000D02*
X25146000Y19685000D01*
X25146000Y19685000D02*
X21590000Y19685000D01*
X25400000Y21717000D02*
X25400000Y19939000D01*
X21590000Y21971000D02*
X25146000Y21971000D01*
X21336000Y19939000D02*
X21590000Y19685000D01*
X21336000Y21717000D02*
X21336000Y19939000D01*
X21336000Y21717000D02*
X21590000Y21971000D01*
D10*
G04 #@! TO.C,T81*
X28422600Y6807200D02*
X28422600Y7416800D01*
X27711400Y8128000D02*
X27914600Y8128000D01*
X27203400Y7416800D02*
X27203400Y6807200D01*
X27711400Y6096000D02*
X27914600Y6096000D01*
G04 #@! TO.C,D41*
X22288500Y32385000D02*
X22288500Y32766000D01*
X21463000Y33096200D02*
X23495000Y33096200D01*
X21463000Y31673800D02*
X21463000Y31927800D01*
X23241000Y32740600D02*
X23241000Y33197800D01*
X22860000Y32385000D02*
X22288500Y32766000D01*
X23139400Y32639000D02*
X23139400Y33197800D01*
X21920200Y32385000D02*
X22288500Y32385000D01*
X23139400Y32131000D02*
X23139400Y31572200D01*
X22860000Y32385000D02*
X23050500Y32385000D01*
X23495000Y31673800D02*
X23495000Y31927800D01*
X23495000Y31673800D02*
X21463000Y31673800D01*
X22288500Y32385000D02*
X22288500Y32004000D01*
X21463000Y32842200D02*
X21463000Y33096200D01*
X23241000Y31572200D02*
X23241000Y32029400D01*
X23495000Y33096200D02*
X23495000Y32842200D01*
X22288500Y32004000D02*
X22860000Y32385000D01*
X23037800Y31572200D02*
X23037800Y33197800D01*
G04 #@! TO.C,Q81*
X19050000Y17653000D02*
X19050000Y20193000D01*
X19050000Y17653000D02*
X20066000Y17653000D01*
X20066000Y20193000D02*
X20066000Y17653000D01*
X19050000Y20193000D02*
X20066000Y20193000D01*
X20051623Y17907000D02*
G75*
G03*
X20051623Y17907000I-239623J0D01*
G01*
D13*
G04 #@! TO.C,R4*
X19558000Y47117000D02*
X19558000Y47625000D01*
X18796000Y48641000D02*
X19558000Y48641000D01*
X19558000Y48641000D02*
X19558000Y48133000D01*
X18796000Y47625000D02*
X18796000Y47117000D01*
X18796000Y47117000D02*
X19558000Y47117000D01*
X18796000Y48133000D02*
X18796000Y48641000D01*
X19621500Y47117000D02*
G75*
G03*
X19621500Y47117000I-63500J0D01*
G01*
G04 #@! TO.C,C17*
X8255000Y41529000D02*
X8763000Y41529000D01*
X8763000Y42291000D02*
X8255000Y42291000D01*
X7239000Y42291000D02*
X7747000Y42291000D01*
X8763000Y41529000D02*
X8763000Y42291000D01*
X7747000Y41529000D02*
X7239000Y41529000D01*
X7239000Y41529000D02*
X7239000Y42291000D01*
X8826500Y42291000D02*
G75*
G03*
X8826500Y42291000I-63500J0D01*
G01*
G04 #@! TO.C,C9*
X21971000Y44450000D02*
X21971000Y43688000D01*
X20955000Y44450000D02*
X20447000Y44450000D01*
X21463000Y44450000D02*
X21971000Y44450000D01*
X20447000Y44450000D02*
X20447000Y43688000D01*
X20447000Y43688000D02*
X20955000Y43688000D01*
X21971000Y43688000D02*
X21463000Y43688000D01*
X20510500Y43688000D02*
G75*
G03*
X20510500Y43688000I-63500J0D01*
G01*
G04 #@! TO.C,R2*
X21209000Y40005000D02*
X21209000Y39497000D01*
X21971000Y38989000D02*
X21971000Y38481000D01*
X21971000Y39497000D02*
X21971000Y40005000D01*
X21209000Y38481000D02*
X21209000Y38989000D01*
X21971000Y40005000D02*
X21209000Y40005000D01*
X21971000Y38481000D02*
X21209000Y38481000D01*
X21272500Y40005000D02*
G75*
G03*
X21272500Y40005000I-63500J0D01*
G01*
G04 #@! TO.C,D96*
X3683000Y34290000D02*
X3683000Y34798000D01*
X4445000Y34290000D02*
X3683000Y34290000D01*
X4445000Y35306000D02*
X4445000Y35814000D01*
X4445000Y34798000D02*
X4445000Y34290000D01*
X3683000Y35814000D02*
X3683000Y35306000D01*
X4445000Y35814000D02*
X3683000Y35814000D01*
X3746500Y35814000D02*
G75*
G03*
X3746500Y35814000I-63500J0D01*
G01*
G04 #@! TO.C,C63*
X5715000Y21717000D02*
X5715000Y21209000D01*
X5715000Y22733000D02*
X6477000Y22733000D01*
X5715000Y21209000D02*
X6477000Y21209000D01*
X6477000Y22733000D02*
X6477000Y22225000D01*
X6477000Y21209000D02*
X6477000Y21717000D01*
X5715000Y22225000D02*
X5715000Y22733000D01*
X6540500Y21209000D02*
G75*
G03*
X6540500Y21209000I-63500J0D01*
G01*
G04 #@! TO.C,C43*
X21717000Y23876000D02*
X20955000Y23876000D01*
X21717000Y25400000D02*
X20955000Y25400000D01*
X21717000Y24384000D02*
X21717000Y23876000D01*
X21717000Y24892000D02*
X21717000Y25400000D01*
X20955000Y23876000D02*
X20955000Y24384000D01*
X20955000Y25400000D02*
X20955000Y24892000D01*
X21018500Y25400000D02*
G75*
G03*
X21018500Y25400000I-63500J0D01*
G01*
G04 #@! TO.C,C19*
X8763000Y41402000D02*
X8255000Y41402000D01*
X8763000Y40640000D02*
X8763000Y41402000D01*
X8255000Y40640000D02*
X8763000Y40640000D01*
X7747000Y40640000D02*
X7239000Y40640000D01*
X7239000Y40640000D02*
X7239000Y41402000D01*
X7239000Y41402000D02*
X7747000Y41402000D01*
X8826500Y41402000D02*
G75*
G03*
X8826500Y41402000I-63500J0D01*
G01*
G04 #@! TO.C,C4*
X5080000Y49657000D02*
X5080000Y50165000D01*
X5080000Y49149000D02*
X5080000Y48641000D01*
X5080000Y48641000D02*
X5842000Y48641000D01*
X5842000Y48641000D02*
X5842000Y49149000D01*
X5842000Y50165000D02*
X5842000Y49657000D01*
X5080000Y50165000D02*
X5842000Y50165000D01*
X5905500Y48641000D02*
G75*
G03*
X5905500Y48641000I-63500J0D01*
G01*
G04 #@! TO.C,D94*
X4445000Y40259000D02*
X3683000Y40259000D01*
X3683000Y41783000D02*
X3683000Y41275000D01*
X3683000Y40259000D02*
X3683000Y40767000D01*
X4445000Y41783000D02*
X3683000Y41783000D01*
X4445000Y41275000D02*
X4445000Y41783000D01*
X4445000Y40767000D02*
X4445000Y40259000D01*
X3746500Y41783000D02*
G75*
G03*
X3746500Y41783000I-63500J0D01*
G01*
G04 #@! TO.C,C90*
X18034000Y29337000D02*
X17526000Y29337000D01*
X18542000Y29337000D02*
X19050000Y29337000D01*
X19050000Y28575000D02*
X18542000Y28575000D01*
X17526000Y28575000D02*
X18034000Y28575000D01*
X19050000Y29337000D02*
X19050000Y28575000D01*
X17526000Y29337000D02*
X17526000Y28575000D01*
X17589500Y28575000D02*
G75*
G03*
X17589500Y28575000I-63500J0D01*
G01*
G04 #@! TO.C,C14*
X8001000Y50419000D02*
X7493000Y50419000D01*
X7493000Y51181000D02*
X8001000Y51181000D01*
X8509000Y50419000D02*
X9017000Y50419000D01*
X9017000Y51181000D02*
X8509000Y51181000D01*
X9017000Y50419000D02*
X9017000Y51181000D01*
X7493000Y50419000D02*
X7493000Y51181000D01*
X9080500Y51181000D02*
G75*
G03*
X9080500Y51181000I-63500J0D01*
G01*
G04 #@! TO.C,C6*
X20066000Y52705000D02*
X19304000Y52705000D01*
X20066000Y51689000D02*
X20066000Y51181000D01*
X20066000Y52197000D02*
X20066000Y52705000D01*
X19304000Y52705000D02*
X19304000Y52197000D01*
X20066000Y51181000D02*
X19304000Y51181000D01*
X19304000Y51181000D02*
X19304000Y51689000D01*
X19367500Y52705000D02*
G75*
G03*
X19367500Y52705000I-63500J0D01*
G01*
D10*
G04 #@! TO.C,D83*
X16332200Y25069800D02*
X16332200Y23444200D01*
X16510000Y24257000D02*
X17081500Y23876000D01*
X17907000Y23545800D02*
X15875000Y23545800D01*
X16230600Y24003000D02*
X16230600Y23444200D01*
X16510000Y24257000D02*
X16319500Y24257000D01*
X17081500Y24257000D02*
X17081500Y24638000D01*
X15875000Y24968200D02*
X17907000Y24968200D01*
X17449800Y24257000D02*
X17081500Y24257000D01*
X17907000Y24968200D02*
X17907000Y24714200D01*
X17081500Y24257000D02*
X17081500Y23876000D01*
X16230600Y24511000D02*
X16230600Y25069800D01*
X17907000Y23799800D02*
X17907000Y23545800D01*
X16129000Y23901400D02*
X16129000Y23444200D01*
X17081500Y24638000D02*
X16510000Y24257000D01*
X15875000Y24968200D02*
X15875000Y24714200D01*
X15875000Y23545800D02*
X15875000Y23799800D01*
X16129000Y25069800D02*
X16129000Y24612600D01*
G04 #@! TO.C,D31*
X6045200Y35560000D02*
X6045200Y33528000D01*
X4521200Y33985200D02*
X6146800Y33985200D01*
X5080000Y33883600D02*
X4521200Y33883600D01*
X4953000Y34734500D02*
X5334000Y34163000D01*
X5334000Y34163000D02*
X5715000Y34734500D01*
X5334000Y34163000D02*
X5334000Y33972500D01*
X4521200Y33782000D02*
X4978400Y33782000D01*
X5689600Y33782000D02*
X6146800Y33782000D01*
X4622800Y33528000D02*
X4622800Y35560000D01*
X4622800Y35560000D02*
X4876800Y35560000D01*
X4622800Y33528000D02*
X4876800Y33528000D01*
X5588000Y33883600D02*
X6146800Y33883600D01*
X5334000Y35102800D02*
X5334000Y34734500D01*
X5334000Y34734500D02*
X5715000Y34734500D01*
X6045200Y33528000D02*
X5791200Y33528000D01*
X5791200Y35560000D02*
X6045200Y35560000D01*
X5334000Y34734500D02*
X4953000Y34734500D01*
D13*
G04 #@! TO.C,D101*
X25781000Y48514000D02*
X25019000Y48514000D01*
X25019000Y48514000D02*
X25019000Y48006000D01*
X25781000Y46990000D02*
X25019000Y46990000D01*
X25781000Y48006000D02*
X25781000Y48514000D01*
X25781000Y47498000D02*
X25781000Y46990000D01*
X25019000Y46990000D02*
X25019000Y47498000D01*
X25082500Y48514000D02*
G75*
G03*
X25082500Y48514000I-63500J0D01*
G01*
D10*
G04 #@! TO.C,S31*
X12954000Y35687000D02*
X12954000Y35763200D01*
X9906000Y33909000D02*
X12954000Y33909000D01*
X12446000Y34544000D02*
X10414000Y34544000D01*
X12446000Y36068000D02*
X10414000Y36068000D01*
X11430000Y36068000D02*
X11430000Y35560000D01*
X9906000Y36576000D02*
X9906000Y36703000D01*
X9906000Y35674300D02*
X9906000Y35750500D01*
X12954000Y36703000D02*
X12954000Y36576000D01*
X11430000Y35560000D02*
X11684000Y35052000D01*
X9906000Y36703000D02*
X12954000Y36703000D01*
X9906000Y34848800D02*
X9906000Y34925000D01*
X11430000Y35052000D02*
X11430000Y34544000D01*
X12954000Y34861500D02*
X12954000Y34937700D01*
X12954000Y34036000D02*
X12954000Y33909000D01*
X9906000Y34036000D02*
X9906000Y33909000D01*
X11997961Y35306000D02*
G75*
G03*
X11997961Y35306000I-567961J0D01*
G01*
G04 #@! TO.C,C83*
X20574000Y15049500D02*
X19304000Y15049500D01*
X19304000Y15049500D02*
X19304000Y15811500D01*
X20574000Y17462500D02*
X19304000Y17462500D01*
X19304000Y17462500D02*
X19304000Y16700500D01*
X20574000Y15049500D02*
X20574000Y15811500D01*
X20574000Y16700500D02*
X20574000Y17462500D01*
X19367500Y17462500D02*
G75*
G03*
X19367500Y17462500I-63500J0D01*
G01*
D13*
G04 #@! TO.C,D1*
X19177000Y52197000D02*
X19177000Y52959000D01*
X17653000Y52197000D02*
X17653000Y52959000D01*
X18669000Y52197000D02*
X19177000Y52197000D01*
X18161000Y52197000D02*
X17653000Y52197000D01*
X17653000Y52959000D02*
X18161000Y52959000D01*
X19177000Y52959000D02*
X18669000Y52959000D01*
X19240500Y52959000D02*
G75*
G03*
X19240500Y52959000I-63500J0D01*
G01*
G04 #@! TO.C,D99*
X4445000Y26543000D02*
X4445000Y27051000D01*
X3683000Y27051000D02*
X3683000Y26543000D01*
X3683000Y26543000D02*
X4445000Y26543000D01*
X3683000Y27559000D02*
X3683000Y28067000D01*
X3683000Y28067000D02*
X4445000Y28067000D01*
X4445000Y28067000D02*
X4445000Y27559000D01*
X4508500Y26543000D02*
G75*
G03*
X4508500Y26543000I-63500J0D01*
G01*
G04 #@! TO.C,L4*
X7493000Y40513000D02*
X7493000Y40005000D01*
X7493000Y38989000D02*
X7493000Y39497000D01*
X8255000Y40005000D02*
X8255000Y40513000D01*
X8255000Y38989000D02*
X7493000Y38989000D01*
X8255000Y40513000D02*
X7493000Y40513000D01*
X8255000Y39497000D02*
X8255000Y38989000D01*
X7556500Y40513000D02*
G75*
G03*
X7556500Y40513000I-63500J0D01*
G01*
G04 #@! TO.C,R32*
X5080000Y36957000D02*
X4572000Y36957000D01*
X6096000Y36957000D02*
X6096000Y36195000D01*
X5588000Y36957000D02*
X6096000Y36957000D01*
X6096000Y36195000D02*
X5588000Y36195000D01*
X4572000Y36195000D02*
X5080000Y36195000D01*
X4572000Y36957000D02*
X4572000Y36195000D01*
X4635500Y36195000D02*
G75*
G03*
X4635500Y36195000I-63500J0D01*
G01*
G04 #@! TO.C,C13*
X20447000Y44577000D02*
X20955000Y44577000D01*
X20447000Y45339000D02*
X20447000Y44577000D01*
X21971000Y44577000D02*
X21463000Y44577000D01*
X20955000Y45339000D02*
X20447000Y45339000D01*
X21463000Y45339000D02*
X21971000Y45339000D01*
X21971000Y45339000D02*
X21971000Y44577000D01*
X20510500Y44577000D02*
G75*
G03*
X20510500Y44577000I-63500J0D01*
G01*
G04 #@! TO.C,R84*
X18669000Y25273000D02*
X18669000Y24765000D01*
X18669000Y23749000D02*
X18669000Y24257000D01*
X19431000Y24765000D02*
X19431000Y25273000D01*
X19431000Y24257000D02*
X19431000Y23749000D01*
X19431000Y25273000D02*
X18669000Y25273000D01*
X19431000Y23749000D02*
X18669000Y23749000D01*
X18732500Y25273000D02*
G75*
G03*
X18732500Y25273000I-63500J0D01*
G01*
G04 #@! TO.C,C86*
X21209000Y20447000D02*
X21209000Y20955000D01*
X20447000Y21463000D02*
X20447000Y21971000D01*
X20447000Y20955000D02*
X20447000Y20447000D01*
X20447000Y20447000D02*
X21209000Y20447000D01*
X20447000Y21971000D02*
X21209000Y21971000D01*
X21209000Y21971000D02*
X21209000Y21463000D01*
X21272500Y20447000D02*
G75*
G03*
X21272500Y20447000I-63500J0D01*
G01*
D10*
G04 #@! TO.C,U62*
X14605000Y30734000D02*
X14605000Y30861000D01*
X14605000Y32702500D02*
X14605000Y32766000D01*
X16383000Y33655000D02*
X16383000Y33782000D01*
X14605000Y33782000D02*
X14605000Y33655000D01*
X14605000Y33782000D02*
X16383000Y33782000D01*
X16383000Y30734000D02*
X16383000Y30861000D01*
X16383000Y31750000D02*
X16383000Y32766000D01*
X14605000Y31750000D02*
X14605000Y31813500D01*
X16383000Y30734000D02*
X14605000Y30734000D01*
X15240000Y33782000D02*
G75*
G03*
X15748000Y33782000I254000J0D01*
G01*
X14351000Y33782000D02*
G75*
G03*
X14351000Y33782000I-127000J0D01*
G01*
D13*
G04 #@! TO.C,D109*
X25781000Y29718000D02*
X25273000Y29718000D01*
X24765000Y30480000D02*
X24257000Y30480000D01*
X25781000Y30480000D02*
X25781000Y29718000D01*
X24257000Y30480000D02*
X24257000Y29718000D01*
X24257000Y29718000D02*
X24765000Y29718000D01*
X25273000Y30480000D02*
X25781000Y30480000D01*
X24320500Y29718000D02*
G75*
G03*
X24320500Y29718000I-63500J0D01*
G01*
G04 #@! TO.C,R41*
X24384000Y38354000D02*
X24384000Y37846000D01*
X24384000Y36830000D02*
X24384000Y37338000D01*
X23622000Y37338000D02*
X23622000Y36830000D01*
X23622000Y38354000D02*
X24384000Y38354000D01*
X23622000Y37846000D02*
X23622000Y38354000D01*
X23622000Y36830000D02*
X24384000Y36830000D01*
X24447500Y36830000D02*
G75*
G03*
X24447500Y36830000I-63500J0D01*
G01*
D10*
G04 #@! TO.C,C32*
X4572000Y39560500D02*
X5842000Y39560500D01*
X4572000Y37909500D02*
X4572000Y37147500D01*
X4572000Y37147500D02*
X5842000Y37147500D01*
X4572000Y39560500D02*
X4572000Y38798500D01*
X5842000Y37147500D02*
X5842000Y37909500D01*
X5842000Y39560500D02*
X5842000Y38798500D01*
X5905500Y37147500D02*
G75*
G03*
X5905500Y37147500I-63500J0D01*
G01*
D13*
G04 #@! TO.C,D108*
X25781000Y30607000D02*
X25273000Y30607000D01*
X25781000Y31369000D02*
X25781000Y30607000D01*
X24765000Y31369000D02*
X24257000Y31369000D01*
X24257000Y31369000D02*
X24257000Y30607000D01*
X25273000Y31369000D02*
X25781000Y31369000D01*
X24257000Y30607000D02*
X24765000Y30607000D01*
X24320500Y30607000D02*
G75*
G03*
X24320500Y30607000I-63500J0D01*
G01*
G04 #@! TO.C,D102*
X25781000Y46831250D02*
X25019000Y46831250D01*
X25019000Y45307250D02*
X25019000Y45815250D01*
X25781000Y45815250D02*
X25781000Y45307250D01*
X25781000Y46323250D02*
X25781000Y46831250D01*
X25781000Y45307250D02*
X25019000Y45307250D01*
X25019000Y46831250D02*
X25019000Y46323250D01*
X25082500Y46831250D02*
G75*
G03*
X25082500Y46831250I-63500J0D01*
G01*
G04 #@! TO.C,C67*
X8128000Y29337000D02*
X7620000Y29337000D01*
X7112000Y28575000D02*
X6604000Y28575000D01*
X7620000Y28575000D02*
X8128000Y28575000D01*
X6604000Y29337000D02*
X7112000Y29337000D01*
X6604000Y28575000D02*
X6604000Y29337000D01*
X8128000Y28575000D02*
X8128000Y29337000D01*
X8191500Y29337000D02*
G75*
G03*
X8191500Y29337000I-63500J0D01*
G01*
G04 #@! TO.C,C64*
X6604000Y21082000D02*
X6604000Y21844000D01*
X8128000Y21082000D02*
X8128000Y21844000D01*
X7112000Y21082000D02*
X6604000Y21082000D01*
X7620000Y21082000D02*
X8128000Y21082000D01*
X8128000Y21844000D02*
X7620000Y21844000D01*
X6604000Y21844000D02*
X7112000Y21844000D01*
X8191500Y21844000D02*
G75*
G03*
X8191500Y21844000I-63500J0D01*
G01*
G04 #@! TO.C,R67*
X11557000Y32258000D02*
X11557000Y32766000D01*
X10795000Y31242000D02*
X10795000Y31750000D01*
X11557000Y31750000D02*
X11557000Y31242000D01*
X11557000Y31242000D02*
X10795000Y31242000D01*
X10795000Y32766000D02*
X10795000Y32258000D01*
X11557000Y32766000D02*
X10795000Y32766000D01*
X10858500Y32766000D02*
G75*
G03*
X10858500Y32766000I-63500J0D01*
G01*
D10*
G04 #@! TO.C,U82*
X19558000Y31750000D02*
X19558000Y31686500D01*
X17780000Y29845000D02*
X17780000Y29718000D01*
X19558000Y32766000D02*
X19558000Y32639000D01*
X19558000Y29718000D02*
X19558000Y29845000D01*
X19558000Y30797500D02*
X19558000Y30734000D01*
X19558000Y29718000D02*
X17780000Y29718000D01*
X17780000Y32766000D02*
X17780000Y32639000D01*
X17780000Y31750000D02*
X17780000Y30734000D01*
X17780000Y32766000D02*
X19558000Y32766000D01*
X18923000Y29718000D02*
G75*
G03*
X18415000Y29718000I-254000J0D01*
G01*
X20066000Y29718000D02*
G75*
G03*
X20066000Y29718000I-127000J0D01*
G01*
D13*
G04 #@! TO.C,R81*
X18161000Y21209000D02*
X18161000Y20701000D01*
X18923000Y19685000D02*
X18161000Y19685000D01*
X18923000Y21209000D02*
X18161000Y21209000D01*
X18161000Y19685000D02*
X18161000Y20193000D01*
X18923000Y20193000D02*
X18923000Y19685000D01*
X18923000Y20701000D02*
X18923000Y21209000D01*
X18224500Y21209000D02*
G75*
G03*
X18224500Y21209000I-63500J0D01*
G01*
G04 #@! TO.C,C31*
X12446000Y33655000D02*
X12446000Y32893000D01*
X12446000Y32893000D02*
X11938000Y32893000D01*
X11430000Y33655000D02*
X10922000Y33655000D01*
X11938000Y33655000D02*
X12446000Y33655000D01*
X10922000Y33655000D02*
X10922000Y32893000D01*
X10922000Y32893000D02*
X11430000Y32893000D01*
X10985500Y32893000D02*
G75*
G03*
X10985500Y32893000I-63500J0D01*
G01*
D11*
G04 #@! TO.C,J52*
X26035000Y49911000D02*
X25654000Y49911000D01*
X28829000Y49911000D02*
X29210000Y49911000D01*
X29210000Y48895000D02*
X25654000Y48895000D01*
X28829000Y49403000D02*
X29210000Y49403000D01*
X29083000Y50800000D02*
X25781000Y50800000D01*
X29210000Y49022000D02*
X28448000Y49022000D01*
X26035000Y50165000D02*
X26543000Y50673000D01*
X25908000Y50546000D02*
X25908000Y21082000D01*
X28829000Y50165000D02*
X29210000Y50165000D01*
X26543000Y48895000D02*
X26035000Y49403000D01*
X29210000Y50419000D02*
X28575000Y50419000D01*
X28448000Y50546000D02*
X29210000Y50546000D01*
X28956000Y21082000D02*
X28448000Y20574000D01*
X28829000Y50038000D02*
X29210000Y50038000D01*
X28829000Y49784000D02*
X29210000Y49784000D01*
X26162000Y49276000D02*
X25654000Y49276000D01*
X26035000Y49530000D02*
X25654000Y49530000D01*
X26035000Y49784000D02*
X25654000Y49784000D01*
X28575000Y49149000D02*
X29210000Y49149000D01*
X26035000Y49403000D02*
X25654000Y49403000D01*
X26035000Y49657000D02*
X25654000Y49657000D01*
X26289000Y50419000D02*
X25654000Y50419000D01*
X26162000Y50292000D02*
X25654000Y50292000D01*
X29210000Y50673000D02*
X28575000Y51308000D01*
X29210000Y48514000D02*
X29210000Y50673000D01*
X28829000Y49657000D02*
X29210000Y49657000D01*
X29210000Y48514000D02*
X25654000Y48514000D01*
X26416000Y20574000D02*
X25908000Y21082000D01*
X29210000Y50673000D02*
X25654000Y50673000D01*
X26035000Y50165000D02*
X25654000Y50165000D01*
X28829000Y49403000D02*
X28321000Y48895000D01*
X29210000Y50292000D02*
X28702000Y50292000D01*
X28829000Y51054000D02*
X26035000Y51054000D01*
X28702000Y51181000D02*
X26162000Y51181000D01*
X28321000Y50673000D02*
X28829000Y50165000D01*
X26289000Y49149000D02*
X25654000Y49149000D01*
X26416000Y50546000D02*
X25654000Y50546000D01*
X28575000Y51308000D02*
X26289000Y51308000D01*
X28448000Y20574000D02*
X26416000Y20574000D01*
X29210000Y48641000D02*
X25654000Y48641000D01*
X25654000Y50673000D02*
X26289000Y51308000D01*
X28702000Y49276000D02*
X29210000Y49276000D01*
X26416000Y49022000D02*
X25654000Y49022000D01*
X29210000Y48768000D02*
X25654000Y48768000D01*
X26035000Y49403000D02*
X26035000Y50165000D01*
X26035000Y50038000D02*
X25654000Y50038000D01*
X28829000Y50165000D02*
X28829000Y49403000D01*
X28956000Y21082000D02*
X28956000Y50546000D01*
X25654000Y48514000D02*
X25654000Y50673000D01*
X28829000Y49530000D02*
X29210000Y49530000D01*
X28956000Y50927000D02*
X25908000Y50927000D01*
G04 #@! TO.C,C42*
X20777200Y36550600D02*
X20777200Y33299400D01*
D14*
X24892000Y36576000D02*
X24892000Y36322000D01*
D11*
X20980400Y36550600D02*
X20980400Y33299400D01*
D14*
X18796000Y33274000D02*
X24892000Y33274000D01*
X18796000Y36576000D02*
X18796000Y36271200D01*
X24892000Y33274000D02*
X24892000Y33528000D01*
X24892000Y36576000D02*
X18796000Y36576000D01*
X18796000Y33274000D02*
X18796000Y33578800D01*
D11*
X21234400Y36542980D02*
X21234400Y33291780D01*
D14*
X18796000Y33426400D02*
X20828000Y33426400D01*
X18793460Y36423600D02*
X20825460Y36423600D01*
X18796000Y36271200D02*
X20828000Y36271200D01*
D11*
X20853400Y36550600D02*
X20853400Y33299400D01*
D14*
X18796000Y33578800D02*
X20828000Y33578800D01*
D11*
X21107400Y36542980D02*
X21107400Y33291780D01*
D13*
G04 #@! TO.C,R70*
X6604000Y23622000D02*
X7112000Y23622000D01*
X6604000Y22860000D02*
X6604000Y23622000D01*
X8128000Y22860000D02*
X8128000Y23622000D01*
X7112000Y22860000D02*
X6604000Y22860000D01*
X8128000Y23622000D02*
X7620000Y23622000D01*
X7620000Y22860000D02*
X8128000Y22860000D01*
X8191500Y23622000D02*
G75*
G03*
X8191500Y23622000I-63500J0D01*
G01*
G04 #@! TO.C,D100*
X3683000Y25654000D02*
X3683000Y25146000D01*
X4445000Y25146000D02*
X4445000Y25654000D01*
X3683000Y24130000D02*
X3683000Y24638000D01*
X4445000Y25654000D02*
X3683000Y25654000D01*
X4445000Y24638000D02*
X4445000Y24130000D01*
X4445000Y24130000D02*
X3683000Y24130000D01*
X3746500Y25654000D02*
G75*
G03*
X3746500Y25654000I-63500J0D01*
G01*
G04 #@! TO.C,D110*
X25527000Y19685000D02*
X25527000Y20447000D01*
X25527000Y20447000D02*
X26035000Y20447000D01*
X27051000Y19685000D02*
X27051000Y20447000D01*
X26543000Y19685000D02*
X27051000Y19685000D01*
X27051000Y20447000D02*
X26543000Y20447000D01*
X26035000Y19685000D02*
X25527000Y19685000D01*
X27114500Y20447000D02*
G75*
G03*
X27114500Y20447000I-63500J0D01*
G01*
D14*
G04 #@! TO.C,U2*
X17399000Y37973000D02*
X17399000Y43307000D01*
X17399000Y43307000D02*
X12065000Y43307000D01*
D11*
X14224000Y38481000D02*
X15240000Y38481000D01*
D14*
X12065000Y37973000D02*
X17399000Y37973000D01*
X12065000Y43307000D02*
X12065000Y37973000D01*
D11*
X15240000Y38481000D02*
X15240000Y37973000D01*
X14224000Y37973000D02*
X14224000Y38481000D01*
D14*
X18034000Y38100000D02*
G75*
G03*
X18034000Y38100000I-127000J0D01*
G01*
D13*
G04 #@! TO.C,R1*
X20193000Y51308000D02*
X20193000Y50800000D01*
X20193000Y51816000D02*
X20193000Y52324000D01*
X20955000Y52324000D02*
X20955000Y51816000D01*
X20193000Y50800000D02*
X20955000Y50800000D01*
X20193000Y52324000D02*
X20955000Y52324000D01*
X20955000Y50800000D02*
X20955000Y51308000D01*
X21018500Y50800000D02*
G75*
G03*
X21018500Y50800000I-63500J0D01*
G01*
G04 #@! TO.C,R71*
X15875000Y23495000D02*
X15113000Y23495000D01*
X15875000Y22987000D02*
X15875000Y23495000D01*
X15875000Y21971000D02*
X15113000Y21971000D01*
X15113000Y23495000D02*
X15113000Y22987000D01*
X15875000Y22479000D02*
X15875000Y21971000D01*
X15113000Y21971000D02*
X15113000Y22479000D01*
X15176500Y23495000D02*
G75*
G03*
X15176500Y23495000I-63500J0D01*
G01*
G04 #@! TO.C,C74*
X6350000Y31242000D02*
X7112000Y31242000D01*
X6350000Y32258000D02*
X6350000Y32766000D01*
X6350000Y31750000D02*
X6350000Y31242000D01*
X7112000Y31242000D02*
X7112000Y31750000D01*
X6350000Y32766000D02*
X7112000Y32766000D01*
X7112000Y32766000D02*
X7112000Y32258000D01*
X7175500Y31242000D02*
G75*
G03*
X7175500Y31242000I-63500J0D01*
G01*
G04 #@! TO.C,R82*
X15113000Y20828000D02*
X15113000Y20320000D01*
X15113000Y21336000D02*
X15113000Y21844000D01*
X15113000Y20320000D02*
X15875000Y20320000D01*
X15113000Y21844000D02*
X15875000Y21844000D01*
X15875000Y20320000D02*
X15875000Y20828000D01*
X15875000Y21844000D02*
X15875000Y21336000D01*
X15938500Y20320000D02*
G75*
G03*
X15938500Y20320000I-63500J0D01*
G01*
G04 #@! TO.C,R63*
X4699000Y21717000D02*
X4699000Y21209000D01*
X3937000Y22733000D02*
X3937000Y22225000D01*
X3937000Y21209000D02*
X3937000Y21717000D01*
X4699000Y22733000D02*
X3937000Y22733000D01*
X4699000Y21209000D02*
X3937000Y21209000D01*
X4699000Y22225000D02*
X4699000Y22733000D01*
X4000500Y22733000D02*
G75*
G03*
X4000500Y22733000I-63500J0D01*
G01*
G04 #@! TO.C,L82*
X20320000Y20447000D02*
X20320000Y20955000D01*
X20320000Y21971000D02*
X20320000Y21463000D01*
X19558000Y20447000D02*
X20320000Y20447000D01*
X19558000Y21971000D02*
X20320000Y21971000D01*
X19558000Y21463000D02*
X19558000Y21971000D01*
X19558000Y20955000D02*
X19558000Y20447000D01*
X20383500Y20447000D02*
G75*
G03*
X20383500Y20447000I-63500J0D01*
G01*
G04 #@! TO.C,R68*
X15875000Y25146000D02*
X16383000Y25146000D01*
X16383000Y25908000D02*
X15875000Y25908000D01*
X17399000Y25146000D02*
X16891000Y25146000D01*
X17399000Y25908000D02*
X17399000Y25146000D01*
X15875000Y25908000D02*
X15875000Y25146000D01*
X16891000Y25908000D02*
X17399000Y25908000D01*
X15938500Y25146000D02*
G75*
G03*
X15938500Y25146000I-63500J0D01*
G01*
G04 #@! TO.C,R52*
X25019000Y39116000D02*
X25019000Y38608000D01*
X25019000Y37592000D02*
X25019000Y38100000D01*
X25781000Y39116000D02*
X25019000Y39116000D01*
X25781000Y38608000D02*
X25781000Y39116000D01*
X25781000Y37592000D02*
X25019000Y37592000D01*
X25781000Y38100000D02*
X25781000Y37592000D01*
X25082500Y39116000D02*
G75*
G03*
X25082500Y39116000I-63500J0D01*
G01*
D10*
G04 #@! TO.C,C72*
X7493000Y30988000D02*
X7493000Y29464000D01*
X7493000Y29464000D02*
X6553200Y29464000D01*
X4597400Y30988000D02*
X5537200Y30988000D01*
X4597400Y29464000D02*
X4597400Y30988000D01*
X5537200Y29464000D02*
X4597400Y29464000D01*
X6553200Y30988000D02*
X7493000Y30988000D01*
X4699000Y29464000D02*
G75*
G03*
X4699000Y29464000I-101600J0D01*
G01*
D13*
G04 #@! TO.C,R54*
X25654000Y43561000D02*
X25654000Y42799000D01*
X24638000Y43561000D02*
X24130000Y43561000D01*
X24130000Y43561000D02*
X24130000Y42799000D01*
X24130000Y42799000D02*
X24638000Y42799000D01*
X25146000Y43561000D02*
X25654000Y43561000D01*
X25654000Y42799000D02*
X25146000Y42799000D01*
X24193500Y42799000D02*
G75*
G03*
X24193500Y42799000I-63500J0D01*
G01*
D10*
G04 #@! TO.C,U31*
X6858000Y34925000D02*
X6858000Y34163000D01*
X6858000Y36068000D02*
X8382000Y36068000D01*
X8382000Y33020000D02*
X6858000Y33020000D01*
X8382000Y36068000D02*
X8382000Y36004500D01*
X8382000Y33020000D02*
X8382000Y33083500D01*
X6858000Y33020000D02*
X6858000Y33083500D01*
X6858000Y36068000D02*
X6858000Y36004500D01*
X8382000Y34925000D02*
X8382000Y34544000D01*
X7874000Y33020000D02*
G75*
G03*
X7366000Y33020000I-254000J0D01*
G01*
X8890000Y32893000D02*
G75*
G03*
X8890000Y32893000I-127000J0D01*
G01*
D13*
G04 #@! TO.C,R3*
X5842000Y46990000D02*
X5842000Y47498000D01*
X5842000Y48514000D02*
X5842000Y48006000D01*
X5080000Y48006000D02*
X5080000Y48514000D01*
X5080000Y48514000D02*
X5842000Y48514000D01*
X5080000Y47498000D02*
X5080000Y46990000D01*
X5080000Y46990000D02*
X5842000Y46990000D01*
X5905500Y46990000D02*
G75*
G03*
X5905500Y46990000I-63500J0D01*
G01*
G04 #@! TO.C,R85*
X24003000Y24892000D02*
X24003000Y25400000D01*
X24003000Y25400000D02*
X23241000Y25400000D01*
X24003000Y24384000D02*
X24003000Y23876000D01*
X23241000Y23876000D02*
X23241000Y24384000D01*
X24003000Y23876000D02*
X23241000Y23876000D01*
X23241000Y25400000D02*
X23241000Y24892000D01*
X23304500Y25400000D02*
G75*
G03*
X23304500Y25400000I-63500J0D01*
G01*
G04 #@! TO.C,D104*
X25019000Y39243000D02*
X25781000Y39243000D01*
X25781000Y39243000D02*
X25781000Y39751000D01*
X25019000Y40259000D02*
X25019000Y40767000D01*
X25781000Y40767000D02*
X25781000Y40259000D01*
X25019000Y40767000D02*
X25781000Y40767000D01*
X25019000Y39751000D02*
X25019000Y39243000D01*
X25844500Y39243000D02*
G75*
G03*
X25844500Y39243000I-63500J0D01*
G01*
G04 #@! TO.C,D91*
X3683000Y46990000D02*
X3683000Y47498000D01*
X4445000Y47498000D02*
X4445000Y46990000D01*
X4445000Y48006000D02*
X4445000Y48514000D01*
X4445000Y46990000D02*
X3683000Y46990000D01*
X3683000Y48514000D02*
X3683000Y48006000D01*
X4445000Y48514000D02*
X3683000Y48514000D01*
X3746500Y48514000D02*
G75*
G03*
X3746500Y48514000I-63500J0D01*
G01*
G04 #@! TO.C,D105*
X25019000Y36957000D02*
X25019000Y37465000D01*
X25019000Y36449000D02*
X25019000Y35941000D01*
X25781000Y35941000D02*
X25781000Y36449000D01*
X25019000Y35941000D02*
X25781000Y35941000D01*
X25781000Y37465000D02*
X25781000Y36957000D01*
X25019000Y37465000D02*
X25781000Y37465000D01*
X25844500Y35941000D02*
G75*
G03*
X25844500Y35941000I-63500J0D01*
G01*
D11*
G04 #@! TO.C,J51*
X3429000Y49657000D02*
X3810000Y49657000D01*
X635000Y49657000D02*
X254000Y49657000D01*
X3810000Y50419000D02*
X3175000Y50419000D01*
X3048000Y20574000D02*
X1016000Y20574000D01*
X3175000Y51308000D02*
X889000Y51308000D01*
X3810000Y50673000D02*
X3175000Y51308000D01*
X3556000Y21082000D02*
X3556000Y50546000D01*
X3810000Y48641000D02*
X254000Y48641000D01*
X762000Y50292000D02*
X254000Y50292000D01*
X254000Y48514000D02*
X254000Y50673000D01*
X3683000Y50800000D02*
X381000Y50800000D01*
X635000Y49911000D02*
X254000Y49911000D01*
X3556000Y50927000D02*
X508000Y50927000D01*
X635000Y49530000D02*
X254000Y49530000D01*
X635000Y49403000D02*
X254000Y49403000D01*
X3429000Y51054000D02*
X635000Y51054000D01*
X1016000Y49022000D02*
X254000Y49022000D01*
X3429000Y50165000D02*
X3810000Y50165000D01*
X3810000Y48514000D02*
X3810000Y50673000D01*
X635000Y50165000D02*
X254000Y50165000D01*
X2921000Y50673000D02*
X3429000Y50165000D01*
X3429000Y50038000D02*
X3810000Y50038000D01*
X3810000Y48514000D02*
X254000Y48514000D01*
X3429000Y49911000D02*
X3810000Y49911000D01*
X889000Y49149000D02*
X254000Y49149000D01*
X3429000Y49784000D02*
X3810000Y49784000D01*
X1016000Y50546000D02*
X254000Y50546000D01*
X3429000Y50165000D02*
X3429000Y49403000D01*
X635000Y50165000D02*
X1143000Y50673000D01*
X3302000Y51181000D02*
X762000Y51181000D01*
X3302000Y49276000D02*
X3810000Y49276000D01*
X3048000Y50546000D02*
X3810000Y50546000D01*
X3810000Y48895000D02*
X254000Y48895000D01*
X3429000Y49403000D02*
X3810000Y49403000D01*
X3810000Y49022000D02*
X3048000Y49022000D01*
X635000Y49784000D02*
X254000Y49784000D01*
X508000Y50546000D02*
X508000Y21082000D01*
X635000Y49403000D02*
X635000Y50165000D01*
X1143000Y48895000D02*
X635000Y49403000D01*
X1016000Y20574000D02*
X508000Y21082000D01*
X3556000Y21082000D02*
X3048000Y20574000D01*
X889000Y50419000D02*
X254000Y50419000D01*
X635000Y50038000D02*
X254000Y50038000D01*
X3810000Y50292000D02*
X3302000Y50292000D01*
X3810000Y50673000D02*
X254000Y50673000D01*
X3175000Y49149000D02*
X3810000Y49149000D01*
X762000Y49276000D02*
X254000Y49276000D01*
X254000Y50673000D02*
X889000Y51308000D01*
X3429000Y49403000D02*
X2921000Y48895000D01*
X3810000Y48768000D02*
X254000Y48768000D01*
X3429000Y49530000D02*
X3810000Y49530000D01*
D13*
G04 #@! TO.C,D103*
X24130000Y43688000D02*
X24638000Y43688000D01*
X24130000Y44450000D02*
X24130000Y43688000D01*
X24638000Y44450000D02*
X24130000Y44450000D01*
X25654000Y44450000D02*
X25654000Y43688000D01*
X25654000Y43688000D02*
X25146000Y43688000D01*
X25146000Y44450000D02*
X25654000Y44450000D01*
X24193500Y43688000D02*
G75*
G03*
X24193500Y43688000I-63500J0D01*
G01*
D10*
G04 #@! TO.C,Q82*
X18529235Y22566522D02*
X16733184Y20770471D01*
X16014763Y21488892D02*
X17810814Y23284943D01*
X17810814Y23284943D02*
X18529235Y22566522D01*
X16014763Y21488892D02*
X16733184Y20770471D01*
X16972808Y21129681D02*
G75*
G03*
X16972808Y21129681I-239624J0D01*
G01*
D13*
G04 #@! TO.C,R8*
X21082000Y38989000D02*
X20320000Y38989000D01*
X20320000Y40513000D02*
X20320000Y40005000D01*
X21082000Y40005000D02*
X21082000Y40513000D01*
X21082000Y39497000D02*
X21082000Y38989000D01*
X21082000Y40513000D02*
X20320000Y40513000D01*
X20320000Y38989000D02*
X20320000Y39497000D01*
X20383500Y40513000D02*
G75*
G03*
X20383500Y40513000I-63500J0D01*
G01*
G04 #@! TO.C,R62*
X4419600Y20320000D02*
X3911600Y20320000D01*
X5435600Y21082000D02*
X4927600Y21082000D01*
X5435600Y20320000D02*
X5435600Y21082000D01*
X3911600Y20320000D02*
X3911600Y21082000D01*
X3911600Y21082000D02*
X4419600Y21082000D01*
X4927600Y20320000D02*
X5435600Y20320000D01*
X5499100Y21082000D02*
G75*
G03*
X5499100Y21082000I-63500J0D01*
G01*
D11*
G04 #@! TO.C,X1*
X21844000Y46863000D02*
X21844000Y47117000D01*
X20878800Y45720000D02*
X20777200Y45720000D01*
X20878800Y48260000D02*
X20777200Y48260000D01*
X19812000Y46863000D02*
X19812000Y47117000D01*
X19685000Y48387000D02*
G75*
G03*
X19685000Y48387000I-127000J0D01*
G01*
D13*
G04 #@! TO.C,L1*
X18288000Y51181000D02*
X17780000Y51181000D01*
X16764000Y51181000D02*
X17272000Y51181000D01*
X17272000Y50419000D02*
X16764000Y50419000D01*
X18288000Y50419000D02*
X18288000Y51181000D01*
X17780000Y50419000D02*
X18288000Y50419000D01*
X16764000Y50419000D02*
X16764000Y51181000D01*
X18351500Y51181000D02*
G75*
G03*
X18351500Y51181000I-63500J0D01*
G01*
G04 #@! TO.C,R83*
X16764000Y28448000D02*
X17526000Y28448000D01*
X16764000Y27940000D02*
X16764000Y28448000D01*
X17526000Y26924000D02*
X17526000Y27432000D01*
X17526000Y28448000D02*
X17526000Y27940000D01*
X16764000Y26924000D02*
X17526000Y26924000D01*
X16764000Y27432000D02*
X16764000Y26924000D01*
X17589500Y26924000D02*
G75*
G03*
X17589500Y26924000I-63500J0D01*
G01*
G04 #@! TO.C,D98*
X4445000Y29210000D02*
X3683000Y29210000D01*
X3683000Y29210000D02*
X3683000Y29718000D01*
X4445000Y30226000D02*
X4445000Y30734000D01*
X4445000Y29718000D02*
X4445000Y29210000D01*
X4445000Y30734000D02*
X3683000Y30734000D01*
X3683000Y30734000D02*
X3683000Y30226000D01*
X3746500Y30734000D02*
G75*
G03*
X3746500Y30734000I-63500J0D01*
G01*
G04 #@! TO.C,D93*
X4445000Y42926000D02*
X4445000Y43434000D01*
X4445000Y41910000D02*
X3683000Y41910000D01*
X4445000Y43434000D02*
X3683000Y43434000D01*
X3683000Y41910000D02*
X3683000Y42418000D01*
X3683000Y43434000D02*
X3683000Y42926000D01*
X4445000Y42418000D02*
X4445000Y41910000D01*
X3746500Y43434000D02*
G75*
G03*
X3746500Y43434000I-63500J0D01*
G01*
G04 #@! TO.C,C85*
X18542000Y5207000D02*
X18542000Y5969000D01*
X20066000Y5207000D02*
X20066000Y5969000D01*
X18542000Y5969000D02*
X19050000Y5969000D01*
X19558000Y5207000D02*
X20066000Y5207000D01*
X20066000Y5969000D02*
X19558000Y5969000D01*
X19050000Y5207000D02*
X18542000Y5207000D01*
X20129500Y5969000D02*
G75*
G03*
X20129500Y5969000I-63500J0D01*
G01*
G04 #@! TO.C,C16*
X9017000Y40513000D02*
X8509000Y40513000D01*
X9525000Y40513000D02*
X10033000Y40513000D01*
X8509000Y39751000D02*
X9017000Y39751000D01*
X10033000Y39751000D02*
X9525000Y39751000D01*
X10033000Y40513000D02*
X10033000Y39751000D01*
X8509000Y40513000D02*
X8509000Y39751000D01*
X8572500Y39751000D02*
G75*
G03*
X8572500Y39751000I-63500J0D01*
G01*
G04 #@! TO.C,C88*
X27178000Y19685000D02*
X27686000Y19685000D01*
X28702000Y20447000D02*
X28702000Y19685000D01*
X28194000Y20447000D02*
X28702000Y20447000D01*
X28702000Y19685000D02*
X28194000Y19685000D01*
X27178000Y20447000D02*
X27178000Y19685000D01*
X27686000Y20447000D02*
X27178000Y20447000D01*
X27241500Y19685000D02*
G75*
G03*
X27241500Y19685000I-63500J0D01*
G01*
G04 #@! TO.C,L3*
X14478000Y51968400D02*
X13970000Y51968400D01*
X13970000Y51968400D02*
X13970000Y51206400D01*
X13970000Y51206400D02*
X14478000Y51206400D01*
X15494000Y51206400D02*
X14986000Y51206400D01*
X15494000Y51968400D02*
X15494000Y51206400D01*
X14986000Y51968400D02*
X15494000Y51968400D01*
X14033500Y51206400D02*
G75*
G03*
X14033500Y51206400I-63500J0D01*
G01*
D17*
G04 #@! TO.C,U1*
X17272000Y48387000D02*
X17145000Y48514000D01*
D11*
X12192000Y43942000D02*
X12192000Y44577000D01*
X12192000Y49022000D02*
X12192000Y48387000D01*
X17272000Y43942000D02*
X17272000Y44577000D01*
D17*
X17653000Y49149000D02*
G75*
G03*
X17653000Y49149000I-127000J0D01*
G01*
D13*
G04 #@! TO.C,R65*
X11684000Y31750000D02*
X11684000Y31242000D01*
X11684000Y32766000D02*
X12446000Y32766000D01*
X11684000Y32258000D02*
X11684000Y32766000D01*
X11684000Y31242000D02*
X12446000Y31242000D01*
X12446000Y32766000D02*
X12446000Y32258000D01*
X12446000Y31242000D02*
X12446000Y31750000D01*
X12509500Y31242000D02*
G75*
G03*
X12509500Y31242000I-63500J0D01*
G01*
G04 #@! TO.C,L61*
X6223000Y31242000D02*
X5461000Y31242000D01*
X6223000Y31750000D02*
X6223000Y31242000D01*
X6223000Y32766000D02*
X5461000Y32766000D01*
X5461000Y31242000D02*
X5461000Y31750000D01*
X5461000Y32766000D02*
X5461000Y32258000D01*
X6223000Y32258000D02*
X6223000Y32766000D01*
X5524500Y32766000D02*
G75*
G03*
X5524500Y32766000I-63500J0D01*
G01*
G04 #@! TO.C,C82*
X17907000Y14224000D02*
X18415000Y14224000D01*
X17907000Y14986000D02*
X17907000Y14224000D01*
X18415000Y14986000D02*
X17907000Y14986000D01*
X19431000Y14986000D02*
X19431000Y14224000D01*
X18923000Y14986000D02*
X19431000Y14986000D01*
X19431000Y14224000D02*
X18923000Y14224000D01*
X17970500Y14224000D02*
G75*
G03*
X17970500Y14224000I-63500J0D01*
G01*
G04 #@! TO.C,C75*
X17526000Y33020000D02*
X18288000Y33020000D01*
X17526000Y33528000D02*
X17526000Y33020000D01*
X18288000Y34544000D02*
X18288000Y34036000D01*
X18288000Y33020000D02*
X18288000Y33528000D01*
X17526000Y34544000D02*
X18288000Y34544000D01*
X17526000Y34036000D02*
X17526000Y34544000D01*
X18351500Y33020000D02*
G75*
G03*
X18351500Y33020000I-63500J0D01*
G01*
G04 #@! TO.C,D97*
X3683000Y31750000D02*
X3683000Y31242000D01*
X3683000Y32766000D02*
X4445000Y32766000D01*
X3683000Y31242000D02*
X4445000Y31242000D01*
X3683000Y32258000D02*
X3683000Y32766000D01*
X4445000Y31242000D02*
X4445000Y31750000D01*
X4445000Y32766000D02*
X4445000Y32258000D01*
X4508500Y31242000D02*
G75*
G03*
X4508500Y31242000I-63500J0D01*
G01*
G04 #@! TO.C,C71*
X5334000Y32766000D02*
X4572000Y32766000D01*
X5334000Y32258000D02*
X5334000Y32766000D01*
X4572000Y31242000D02*
X4572000Y31750000D01*
X5334000Y31750000D02*
X5334000Y31242000D01*
X4572000Y32766000D02*
X4572000Y32258000D01*
X5334000Y31242000D02*
X4572000Y31242000D01*
X4635500Y32766000D02*
G75*
G03*
X4635500Y32766000I-63500J0D01*
G01*
D10*
G04 #@! TO.C,S1*
X16510000Y34544000D02*
X14478000Y34544000D01*
X13970000Y36576000D02*
X13970000Y36703000D01*
X13970000Y36703000D02*
X17018000Y36703000D01*
X17018000Y34861500D02*
X17018000Y34937700D01*
X13970000Y34848800D02*
X13970000Y34925000D01*
X17018000Y34036000D02*
X17018000Y33909000D01*
X15494000Y35560000D02*
X15748000Y35052000D01*
X17018000Y36703000D02*
X17018000Y36576000D01*
X13970000Y34036000D02*
X13970000Y33909000D01*
X16510000Y36068000D02*
X14478000Y36068000D01*
X15494000Y36068000D02*
X15494000Y35560000D01*
X17018000Y35687000D02*
X17018000Y35763200D01*
X13970000Y33909000D02*
X17018000Y33909000D01*
X13970000Y35674300D02*
X13970000Y35750500D01*
X15494000Y35052000D02*
X15494000Y34544000D01*
X16061961Y35306000D02*
G75*
G03*
X16061961Y35306000I-567961J0D01*
G01*
D13*
G04 #@! TO.C,R73*
X7620000Y29464000D02*
X7620000Y29972000D01*
X8382000Y30988000D02*
X7620000Y30988000D01*
X8382000Y30480000D02*
X8382000Y30988000D01*
X7620000Y30988000D02*
X7620000Y30480000D01*
X8382000Y29972000D02*
X8382000Y29464000D01*
X8382000Y29464000D02*
X7620000Y29464000D01*
X7683500Y30988000D02*
G75*
G03*
X7683500Y30988000I-63500J0D01*
G01*
D16*
G04 #@! TO.C,J61*
X1778000Y20193000D02*
X17526000Y20193000D01*
X1778000Y-1651000D02*
X17526000Y-1651000D01*
X1778000Y20193000D02*
X1778000Y14097000D01*
X1778000Y381000D02*
X1778000Y-1651000D01*
X17526000Y20193000D02*
X17526000Y14097000D01*
X1778000Y10414000D02*
X1778000Y3683000D01*
X17526000Y-1651000D02*
X17526000Y1905000D01*
X17526000Y4699000D02*
X17526000Y10414000D01*
D13*
G04 #@! TO.C,R66*
X9906000Y31242000D02*
X9906000Y31750000D01*
X10668000Y32258000D02*
X10668000Y32766000D01*
X9906000Y32766000D02*
X9906000Y32258000D01*
X10668000Y31242000D02*
X9906000Y31242000D01*
X10668000Y32766000D02*
X9906000Y32766000D01*
X10668000Y31750000D02*
X10668000Y31242000D01*
X9969500Y32766000D02*
G75*
G03*
X9969500Y32766000I-63500J0D01*
G01*
G04 #@! TO.C,D106*
X25273000Y33147000D02*
X25781000Y33147000D01*
X24765000Y33147000D02*
X24257000Y33147000D01*
X25781000Y32385000D02*
X25273000Y32385000D01*
X25781000Y33147000D02*
X25781000Y32385000D01*
X24257000Y32385000D02*
X24765000Y32385000D01*
X24257000Y33147000D02*
X24257000Y32385000D01*
X24320500Y32385000D02*
G75*
G03*
X24320500Y32385000I-63500J0D01*
G01*
D10*
G04 #@! TO.C,D61*
X10795000Y23368000D02*
X10795000Y23241000D01*
X12573000Y20320000D02*
X10795000Y20320000D01*
X12573000Y23368000D02*
X12573000Y23241000D01*
X10795000Y20320000D02*
X10795000Y20447000D01*
X10795000Y22415500D02*
X10795000Y22225000D01*
X10795000Y23368000D02*
X12573000Y23368000D01*
X12573000Y20320000D02*
X12573000Y20447000D01*
X12573000Y21463000D02*
X12573000Y21272500D01*
X12573000Y22415500D02*
X12573000Y22225000D01*
X10795000Y21463000D02*
X10795000Y21272500D01*
X11938000Y20320000D02*
G75*
G03*
X11430000Y20320000I-254000J0D01*
G01*
X13081000Y20320000D02*
G75*
G03*
X13081000Y20320000I-127000J0D01*
G01*
D13*
G04 #@! TO.C,D92*
X3683000Y45974000D02*
X3683000Y45466000D01*
X4445000Y44450000D02*
X3683000Y44450000D01*
X4445000Y44958000D02*
X4445000Y44450000D01*
X4445000Y45974000D02*
X3683000Y45974000D01*
X4445000Y45466000D02*
X4445000Y45974000D01*
X3683000Y44450000D02*
X3683000Y44958000D01*
X3746500Y45974000D02*
G75*
G03*
X3746500Y45974000I-63500J0D01*
G01*
D10*
G04 #@! TO.C,SH1*
X19050000Y36957000D02*
X16383000Y36957000D01*
X22860000Y41275000D02*
X22860000Y43688000D01*
X6604000Y49657000D02*
X6604000Y47244000D01*
X18923000Y53594000D02*
X16510000Y53594000D01*
X23241000Y43815000D02*
X23241000Y41148000D01*
X6604000Y43688000D02*
X6604000Y41275000D01*
X16510000Y37338000D02*
X18923000Y37338000D01*
X22860000Y47244000D02*
X22860000Y49657000D01*
X10541000Y37338000D02*
X12954000Y37338000D01*
X6223000Y41148000D02*
X6223000Y43815000D01*
X16383000Y53975000D02*
X19050000Y53975000D01*
X6223000Y47117000D02*
X6223000Y49784000D01*
X13081000Y36957000D02*
X10414000Y36957000D01*
X13081000Y53975000D02*
X10414000Y53975000D01*
X23241000Y49784000D02*
X23241000Y47117000D01*
X12954000Y53594000D02*
X10541000Y53594000D01*
D13*
G04 #@! TO.C,C84*
X19177000Y10033000D02*
X18669000Y10033000D01*
X19685000Y10033000D02*
X20193000Y10033000D01*
X18669000Y10033000D02*
X18669000Y10795000D01*
X20193000Y10033000D02*
X20193000Y10795000D01*
X20193000Y10795000D02*
X19685000Y10795000D01*
X18669000Y10795000D02*
X19177000Y10795000D01*
X20256500Y10795000D02*
G75*
G03*
X20256500Y10795000I-63500J0D01*
G01*
G04 #@! TO.C,R55*
X24892000Y45339000D02*
X24130000Y45339000D01*
X24892000Y45847000D02*
X24892000Y45339000D01*
X24892000Y46863000D02*
X24130000Y46863000D01*
X24130000Y45339000D02*
X24130000Y45847000D01*
X24130000Y46863000D02*
X24130000Y46355000D01*
X24892000Y46355000D02*
X24892000Y46863000D01*
X24193500Y46863000D02*
G75*
G03*
X24193500Y46863000I-63500J0D01*
G01*
G04 #@! TO.C,R53*
X25781000Y41656000D02*
X25781000Y41148000D01*
X25019000Y42672000D02*
X25019000Y42164000D01*
X25781000Y42672000D02*
X25019000Y42672000D01*
X25019000Y41148000D02*
X25019000Y41656000D01*
X25781000Y41148000D02*
X25019000Y41148000D01*
X25781000Y42164000D02*
X25781000Y42672000D01*
X25082500Y42672000D02*
G75*
G03*
X25082500Y42672000I-63500J0D01*
G01*
D10*
G04 #@! TO.C,C41*
X23241000Y22098000D02*
X22301200Y22098000D01*
X25196800Y22098000D02*
X24257000Y22098000D01*
X24257000Y23622000D02*
X25196800Y23622000D01*
X22301200Y23622000D02*
X23241000Y23622000D01*
X22301200Y22098000D02*
X22301200Y23622000D01*
X25196800Y23622000D02*
X25196800Y22098000D01*
X25298400Y23622000D02*
G75*
G03*
X25298400Y23622000I-101600J0D01*
G01*
D13*
G04 #@! TO.C,R5*
X9652000Y50546000D02*
X9652000Y50038000D01*
X10414000Y50546000D02*
X9652000Y50546000D01*
X10414000Y49022000D02*
X9652000Y49022000D01*
X10414000Y49530000D02*
X10414000Y49022000D01*
X10414000Y50038000D02*
X10414000Y50546000D01*
X9652000Y49022000D02*
X9652000Y49530000D01*
X9715500Y50546000D02*
G75*
G03*
X9715500Y50546000I-63500J0D01*
G01*
G04 #@! TO.C,C20*
X12261850Y53397150D02*
X13023850Y53397150D01*
X13023850Y51873150D02*
X13023850Y52381150D01*
X12261850Y51873150D02*
X13023850Y51873150D01*
X12261850Y52889150D02*
X12261850Y53397150D01*
X13023850Y53397150D02*
X13023850Y52889150D01*
X12261850Y52381150D02*
X12261850Y51873150D01*
X13087350Y51873150D02*
G75*
G03*
X13087350Y51873150I-63500J0D01*
G01*
G04 #@! TD*
D18*
G04 #@! TO.C,J41*
X22098000Y20828000D03*
X23368000Y20828000D03*
X24638000Y20828000D03*
G04 #@! TD*
D19*
G04 #@! TO.C,J52*
X27432000Y49784000D03*
X27432000Y47244000D03*
X27432000Y44704000D03*
X27432000Y42164000D03*
X27432000Y39624000D03*
X27432000Y37084000D03*
X27432000Y34544000D03*
X27432000Y32004000D03*
X27432000Y29464000D03*
X27432000Y26924000D03*
X27432000Y24384000D03*
X27432000Y21844000D03*
G04 #@! TD*
G04 #@! TO.C,J51*
X2032000Y49784000D03*
X2032000Y47244000D03*
X2032000Y44704000D03*
X2032000Y42164000D03*
X2032000Y39624000D03*
X2032000Y37084000D03*
X2032000Y34544000D03*
X2032000Y32004000D03*
X2032000Y29464000D03*
X2032000Y26924000D03*
X2032000Y24384000D03*
X2032000Y21844000D03*
G04 #@! TD*
D20*
G04 #@! TO.C,J61*
X15367000Y9271000D03*
X3937000Y9271000D03*
D21*
X5207000Y15621000D03*
X6477000Y18161000D03*
X7747000Y15621000D03*
X9017000Y18161000D03*
X10287000Y15621000D03*
X11557000Y18161000D03*
X12827000Y15621000D03*
X14097000Y18161000D03*
D22*
X3048000Y4445000D03*
D23*
X5588000Y4445000D03*
X13716000Y4445000D03*
X16256000Y4445000D03*
D24*
X17424400Y12319000D03*
X1879600Y12319000D03*
G04 #@! TD*
%LPC*%
D25*
G04 #@! TO.C,C22*
X11303000Y52654200D03*
X11303000Y51130200D03*
G04 #@! TD*
D26*
G04 #@! TO.C,L81*
X18542000Y15494000D03*
X18542000Y17018000D03*
G04 #@! TD*
G04 #@! TO.C,L2*
X9525000Y41021000D03*
X9525000Y42545000D03*
G04 #@! TD*
D27*
G04 #@! TO.C,C87*
X20764500Y14605000D03*
X19875500Y14605000D03*
G04 #@! TD*
D28*
G04 #@! TO.C,U81*
X22098000Y18542000D03*
X22098000Y17272000D03*
X22098000Y16002000D03*
X22098000Y14732000D03*
X22098000Y13462000D03*
X22098000Y12192000D03*
X22098000Y10922000D03*
X22098000Y9652000D03*
X27432000Y9652000D03*
X27432000Y10922000D03*
X27432000Y12192000D03*
X27432000Y13462000D03*
X27432000Y14732000D03*
X27432000Y16002000D03*
X27432000Y17272000D03*
X27432000Y18542000D03*
G04 #@! TD*
D29*
G04 #@! TO.C,C7*
X21463000Y52006500D03*
X21463000Y51117500D03*
G04 #@! TD*
G04 #@! TO.C,R72*
X8509000Y32448500D03*
X8509000Y31559500D03*
G04 #@! TD*
G04 #@! TO.C,C24*
X8763000Y39306500D03*
X8763000Y38417500D03*
G04 #@! TD*
D30*
G04 #@! TO.C,U41*
X20193000Y24892000D03*
X22479000Y24892000D03*
X24765000Y24892000D03*
D31*
X22479000Y30480000D03*
G04 #@! TD*
D25*
G04 #@! TO.C,D42*
X24257000Y38989000D03*
X24257000Y40513000D03*
G04 #@! TD*
D26*
G04 #@! TO.C,C18*
X8128000Y42824400D03*
X8128000Y44348400D03*
G04 #@! TD*
D32*
G04 #@! TO.C,C62*
X5207000Y21526500D03*
X5207000Y22415500D03*
G04 #@! TD*
D33*
G04 #@! TO.C,X81*
X18859500Y9144000D03*
X18859500Y6858000D03*
X20510500Y6858000D03*
X20510500Y9144000D03*
G04 #@! TD*
D34*
G04 #@! TO.C,C12*
X20637500Y48895000D03*
X21526500Y48895000D03*
G04 #@! TD*
D29*
G04 #@! TO.C,C25*
X9652000Y39306500D03*
X9652000Y38417500D03*
G04 #@! TD*
G04 #@! TO.C,C10*
X19939000Y42278300D03*
X19939000Y41389300D03*
G04 #@! TD*
D35*
G04 #@! TO.C,X61*
X7302500Y24511000D03*
X7302500Y26797000D03*
X5651500Y26797000D03*
X5651500Y24511000D03*
G04 #@! TD*
D29*
G04 #@! TO.C,C3*
X18796000Y51625500D03*
X18796000Y50736500D03*
G04 #@! TD*
G04 #@! TO.C,C65*
X14605000Y22923500D03*
X14605000Y22034500D03*
G04 #@! TD*
D36*
G04 #@! TO.C,J81*
X21869400Y3556000D03*
X25882600Y3556000D03*
D37*
X22575520Y4064000D03*
X23228300Y4064000D03*
X23876000Y4064000D03*
X24523700Y4064000D03*
X25176480Y4064000D03*
D38*
X20320000Y1270000D03*
D39*
X25146000Y1270000D03*
D40*
X27051000Y3759200D03*
D38*
X27432000Y1270000D03*
D40*
X20701000Y3759200D03*
D39*
X22606000Y1270000D03*
G04 #@! TD*
D29*
G04 #@! TO.C,R51*
X24511000Y42354500D03*
X24511000Y41465500D03*
G04 #@! TD*
D34*
G04 #@! TO.C,R69*
X16192500Y26416000D03*
X17081500Y26416000D03*
G04 #@! TD*
D41*
G04 #@! TO.C,X2*
X8509000Y49657000D03*
X8509000Y47117000D03*
G04 #@! TD*
D34*
G04 #@! TO.C,R31*
X9588500Y33274000D03*
X10477500Y33274000D03*
G04 #@! TD*
D32*
G04 #@! TO.C,C73*
X7620000Y31559500D03*
X7620000Y32448500D03*
G04 #@! TD*
D42*
G04 #@! TO.C,C11*
X10922000Y43688000D03*
X9398000Y43688000D03*
G04 #@! TD*
D43*
G04 #@! TO.C,U61*
X10566400Y24892000D03*
X11074400Y24892000D03*
X11569700Y24892000D03*
X12065000Y24892000D03*
X12573000Y24892000D03*
X13068300Y24892000D03*
X13563600Y24892000D03*
X14071600Y24892000D03*
D44*
X14859000Y25679400D03*
X14859000Y26187400D03*
X14859000Y26682700D03*
X14859000Y27178000D03*
X14859000Y27686000D03*
X14859000Y28181300D03*
X14859000Y28676600D03*
X14859000Y29184600D03*
D43*
X14071600Y29972000D03*
X13563600Y29972000D03*
X13068300Y29972000D03*
X12573000Y29972000D03*
X12065000Y29972000D03*
X11569700Y29972000D03*
X11074400Y29972000D03*
X10566400Y29972000D03*
D44*
X9779000Y29184600D03*
X9779000Y28676600D03*
X9779000Y28181300D03*
X9779000Y27686000D03*
X9779000Y27178000D03*
X9779000Y26682700D03*
X9779000Y26187400D03*
X9779000Y25679400D03*
D45*
X12319000Y27432000D03*
G04 #@! TD*
D34*
G04 #@! TO.C,C23*
X14287500Y52451000D03*
X15176500Y52451000D03*
G04 #@! TD*
G04 #@! TO.C,C15*
X7937500Y45974000D03*
X8826500Y45974000D03*
G04 #@! TD*
D29*
G04 #@! TO.C,C66*
X16256000Y28130500D03*
X16256000Y27241500D03*
G04 #@! TD*
G04 #@! TO.C,C5*
X9931400Y47358300D03*
X9931400Y46469300D03*
G04 #@! TD*
D46*
G04 #@! TO.C,C21*
X9842500Y52070000D03*
X7937500Y52070000D03*
G04 #@! TD*
D47*
G04 #@! TO.C,FD4*
X18542000Y3302000D03*
G04 #@! TD*
D48*
G04 #@! TO.C,C8*
X20320000Y50038000D03*
X21844000Y50038000D03*
G04 #@! TD*
D49*
G04 #@! TO.C,D107*
X24612600Y31877000D03*
X25425400Y31877000D03*
G04 #@! TD*
D29*
G04 #@! TO.C,R56*
X24511000Y48196500D03*
X24511000Y47307500D03*
G04 #@! TD*
D50*
G04 #@! TO.C,D82*
X18338800Y28041600D03*
X18338800Y25806400D03*
G04 #@! TD*
D27*
G04 #@! TO.C,R64*
X7810500Y22352000D03*
X6921500Y22352000D03*
G04 #@! TD*
D51*
G04 #@! TO.C,D95*
X4064000Y36296600D03*
X4064000Y37109400D03*
G04 #@! TD*
D27*
G04 #@! TO.C,C81*
X21653500Y5207000D03*
X20764500Y5207000D03*
G04 #@! TD*
G04 #@! TO.C,C69*
X6159500Y23241000D03*
X5270500Y23241000D03*
G04 #@! TD*
D52*
G04 #@! TO.C,C89*
X19748500Y22860000D03*
X21653500Y22860000D03*
G04 #@! TD*
D34*
G04 #@! TO.C,C70*
X5270500Y28067000D03*
X6159500Y28067000D03*
G04 #@! TD*
D29*
G04 #@! TO.C,R7*
X19812000Y40195500D03*
X19812000Y39306500D03*
G04 #@! TD*
D27*
G04 #@! TO.C,C68*
X7810500Y28067000D03*
X6921500Y28067000D03*
G04 #@! TD*
D53*
G04 #@! TO.C,D81*
X25196800Y5892800D03*
X25196800Y6858000D03*
X25196800Y7823200D03*
X22758400Y7823200D03*
X22758400Y6858000D03*
X22758400Y5892800D03*
G04 #@! TD*
D32*
G04 #@! TO.C,C2*
X16002000Y51625500D03*
X16002000Y52514500D03*
G04 #@! TD*
D27*
G04 #@! TO.C,R6*
X17081500Y29387800D03*
X16192500Y29387800D03*
G04 #@! TD*
G04 #@! TO.C,C1*
X17970500Y51689000D03*
X17081500Y51689000D03*
G04 #@! TD*
D18*
G04 #@! TO.C,J41*
X22098000Y20828000D03*
X23368000Y20828000D03*
X24638000Y20828000D03*
G04 #@! TD*
D54*
G04 #@! TO.C,T81*
X27406600Y6248400D03*
X27406600Y7975600D03*
X28219400Y7975600D03*
X28219400Y6248400D03*
G04 #@! TD*
D55*
G04 #@! TO.C,D41*
X21361400Y32385000D03*
X23596600Y32385000D03*
G04 #@! TD*
D56*
G04 #@! TO.C,Q81*
X20657820Y17970500D03*
X20657820Y19875500D03*
X18458180Y18923000D03*
G04 #@! TD*
D32*
G04 #@! TO.C,R4*
X19177000Y47434500D03*
X19177000Y48323500D03*
G04 #@! TD*
D27*
G04 #@! TO.C,C17*
X8445500Y41910000D03*
X7556500Y41910000D03*
G04 #@! TD*
D34*
G04 #@! TO.C,C9*
X20764500Y44069000D03*
X21653500Y44069000D03*
G04 #@! TD*
D29*
G04 #@! TO.C,R2*
X21590000Y39687500D03*
X21590000Y38798500D03*
G04 #@! TD*
D57*
G04 #@! TO.C,D96*
X4064000Y35458400D03*
X4064000Y34645600D03*
G04 #@! TD*
D32*
G04 #@! TO.C,C63*
X6096000Y21526500D03*
X6096000Y22415500D03*
G04 #@! TD*
D29*
G04 #@! TO.C,C43*
X21336000Y25082500D03*
X21336000Y24193500D03*
G04 #@! TD*
D27*
G04 #@! TO.C,C19*
X8445500Y41021000D03*
X7556500Y41021000D03*
G04 #@! TD*
D32*
G04 #@! TO.C,C4*
X5461000Y48958500D03*
X5461000Y49847500D03*
G04 #@! TD*
D57*
G04 #@! TO.C,D94*
X4064000Y41427400D03*
X4064000Y40614600D03*
G04 #@! TD*
D34*
G04 #@! TO.C,C90*
X17843500Y28956000D03*
X18732500Y28956000D03*
G04 #@! TD*
D27*
G04 #@! TO.C,C14*
X8699500Y50800000D03*
X7810500Y50800000D03*
G04 #@! TD*
D47*
G04 #@! TO.C,FD1*
X4572000Y52197000D03*
G04 #@! TD*
D29*
G04 #@! TO.C,C6*
X19685000Y52387500D03*
X19685000Y51498500D03*
G04 #@! TD*
D55*
G04 #@! TO.C,D83*
X18008600Y24257000D03*
X15773400Y24257000D03*
G04 #@! TD*
D50*
G04 #@! TO.C,D31*
X5334000Y35661600D03*
X5334000Y33426400D03*
G04 #@! TD*
D57*
G04 #@! TO.C,D101*
X25400000Y48158400D03*
X25400000Y47345600D03*
G04 #@! TD*
D58*
G04 #@! TO.C,S31*
X12954000Y34467800D03*
X9906000Y34467800D03*
X12954000Y36144200D03*
X9906000Y36144200D03*
D59*
X13131800Y35306000D03*
X9728200Y35306000D03*
G04 #@! TD*
D25*
G04 #@! TO.C,C83*
X19939000Y17018000D03*
X19939000Y15494000D03*
G04 #@! TD*
D27*
G04 #@! TO.C,D1*
X18859500Y52578000D03*
X17970500Y52578000D03*
G04 #@! TD*
D51*
G04 #@! TO.C,D99*
X4064000Y26898600D03*
X4064000Y27711400D03*
G04 #@! TD*
D29*
G04 #@! TO.C,L4*
X7874000Y40195500D03*
X7874000Y39306500D03*
G04 #@! TD*
D34*
G04 #@! TO.C,R32*
X4889500Y36576000D03*
X5778500Y36576000D03*
G04 #@! TD*
G04 #@! TO.C,C13*
X20764500Y44958000D03*
X21653500Y44958000D03*
G04 #@! TD*
D29*
G04 #@! TO.C,R84*
X19050000Y24955500D03*
X19050000Y24066500D03*
G04 #@! TD*
D32*
G04 #@! TO.C,C86*
X20828000Y20764500D03*
X20828000Y21653500D03*
G04 #@! TD*
D53*
G04 #@! TO.C,U62*
X14274800Y33223200D03*
X14274800Y32258000D03*
X14274800Y31292800D03*
X16713200Y31292800D03*
X16713200Y33223200D03*
G04 #@! TD*
D49*
G04 #@! TO.C,D109*
X24612600Y30099000D03*
X25425400Y30099000D03*
G04 #@! TD*
D32*
G04 #@! TO.C,R41*
X24003000Y37147500D03*
X24003000Y38036500D03*
G04 #@! TD*
D26*
G04 #@! TO.C,C32*
X5207000Y37592000D03*
X5207000Y39116000D03*
G04 #@! TD*
D49*
G04 #@! TO.C,D108*
X24612600Y30988000D03*
X25425400Y30988000D03*
G04 #@! TD*
D57*
G04 #@! TO.C,D102*
X25400000Y46475650D03*
X25400000Y45662850D03*
G04 #@! TD*
D27*
G04 #@! TO.C,C67*
X7810500Y28956000D03*
X6921500Y28956000D03*
G04 #@! TD*
G04 #@! TO.C,C64*
X7810500Y21463000D03*
X6921500Y21463000D03*
G04 #@! TD*
D29*
G04 #@! TO.C,R67*
X11176000Y32448500D03*
X11176000Y31559500D03*
G04 #@! TD*
D53*
G04 #@! TO.C,U82*
X19888200Y30276800D03*
X19888200Y31242000D03*
X19888200Y32207200D03*
X17449800Y32207200D03*
X17449800Y30276800D03*
G04 #@! TD*
D29*
G04 #@! TO.C,R81*
X18542000Y20891500D03*
X18542000Y20002500D03*
G04 #@! TD*
D47*
G04 #@! TO.C,FD3*
X2032000Y2032000D03*
G04 #@! TD*
D34*
G04 #@! TO.C,C31*
X11239500Y33274000D03*
X12128500Y33274000D03*
G04 #@! TD*
D19*
G04 #@! TO.C,J52*
X27432000Y49784000D03*
X27432000Y47244000D03*
X27432000Y44704000D03*
X27432000Y42164000D03*
X27432000Y39624000D03*
X27432000Y37084000D03*
X27432000Y34544000D03*
X27432000Y32004000D03*
X27432000Y29464000D03*
X27432000Y26924000D03*
X27432000Y24384000D03*
X27432000Y21844000D03*
G04 #@! TD*
D60*
G04 #@! TO.C,C42*
X19558000Y34925000D03*
X24130000Y34925000D03*
G04 #@! TD*
D27*
G04 #@! TO.C,R70*
X7810500Y23241000D03*
X6921500Y23241000D03*
G04 #@! TD*
D57*
G04 #@! TO.C,D100*
X4064000Y25298400D03*
X4064000Y24485600D03*
G04 #@! TD*
D61*
G04 #@! TO.C,D110*
X26695400Y20066000D03*
X25882600Y20066000D03*
G04 #@! TD*
D62*
G04 #@! TO.C,U2*
X18415000Y38735000D03*
X18415000Y40005000D03*
X18415000Y41275000D03*
X18415000Y42545000D03*
X11049000Y42545000D03*
X11049000Y41275000D03*
X11049000Y40005000D03*
X11049000Y38735000D03*
G04 #@! TD*
D32*
G04 #@! TO.C,R1*
X20574000Y51117500D03*
X20574000Y52006500D03*
G04 #@! TD*
D29*
G04 #@! TO.C,R71*
X15494000Y23177500D03*
X15494000Y22288500D03*
G04 #@! TD*
D32*
G04 #@! TO.C,C74*
X6731000Y31559500D03*
X6731000Y32448500D03*
G04 #@! TD*
G04 #@! TO.C,R82*
X15494000Y20637500D03*
X15494000Y21526500D03*
G04 #@! TD*
D29*
G04 #@! TO.C,R63*
X4318000Y22415500D03*
X4318000Y21526500D03*
G04 #@! TD*
D32*
G04 #@! TO.C,L82*
X19939000Y20764500D03*
X19939000Y21653500D03*
G04 #@! TD*
D34*
G04 #@! TO.C,R68*
X16192500Y25527000D03*
X17081500Y25527000D03*
G04 #@! TD*
D29*
G04 #@! TO.C,R52*
X25400000Y38798500D03*
X25400000Y37909500D03*
G04 #@! TD*
D52*
G04 #@! TO.C,C72*
X5092700Y30226000D03*
X6997700Y30226000D03*
G04 #@! TD*
D34*
G04 #@! TO.C,R54*
X24447500Y43180000D03*
X25336500Y43180000D03*
G04 #@! TD*
D63*
G04 #@! TO.C,U31*
X8572500Y33769300D03*
D64*
X8572500Y35496500D03*
X6667500Y35496500D03*
X6667500Y33591500D03*
G04 #@! TD*
D32*
G04 #@! TO.C,R3*
X5461000Y47307500D03*
X5461000Y48196500D03*
G04 #@! TD*
D29*
G04 #@! TO.C,R85*
X23622000Y25082500D03*
X23622000Y24193500D03*
G04 #@! TD*
D51*
G04 #@! TO.C,D104*
X25400000Y39598600D03*
X25400000Y40411400D03*
G04 #@! TD*
D57*
G04 #@! TO.C,D91*
X4064000Y48158400D03*
X4064000Y47345600D03*
G04 #@! TD*
D51*
G04 #@! TO.C,D105*
X25400000Y36296600D03*
X25400000Y37109400D03*
G04 #@! TD*
D19*
G04 #@! TO.C,J51*
X2032000Y49784000D03*
X2032000Y47244000D03*
X2032000Y44704000D03*
X2032000Y42164000D03*
X2032000Y39624000D03*
X2032000Y37084000D03*
X2032000Y34544000D03*
X2032000Y32004000D03*
X2032000Y29464000D03*
X2032000Y26924000D03*
X2032000Y24384000D03*
X2032000Y21844000D03*
G04 #@! TD*
D49*
G04 #@! TO.C,D103*
X24485600Y44069000D03*
X25298400Y44069000D03*
G04 #@! TD*
D65*
G04 #@! TO.C,Q82*
X17376170Y20576498D03*
X18723208Y21923536D03*
X16494309Y22805397D03*
G04 #@! TD*
D29*
G04 #@! TO.C,R8*
X20701000Y40195500D03*
X20701000Y39306500D03*
G04 #@! TD*
D27*
G04 #@! TO.C,R62*
X5118100Y20701000D03*
X4229100Y20701000D03*
G04 #@! TD*
D66*
G04 #@! TO.C,X1*
X20193000Y47802800D03*
X20193000Y46151800D03*
X21463000Y46151800D03*
X21463000Y47802800D03*
G04 #@! TD*
D27*
G04 #@! TO.C,L1*
X17970500Y50800000D03*
X17081500Y50800000D03*
G04 #@! TD*
D32*
G04 #@! TO.C,R83*
X17145000Y27241500D03*
X17145000Y28130500D03*
G04 #@! TD*
D57*
G04 #@! TO.C,D98*
X4064000Y30378400D03*
X4064000Y29565600D03*
G04 #@! TD*
G04 #@! TO.C,D93*
X4064000Y43078400D03*
X4064000Y42265600D03*
G04 #@! TD*
D27*
G04 #@! TO.C,C85*
X19748500Y5588000D03*
X18859500Y5588000D03*
G04 #@! TD*
D34*
G04 #@! TO.C,C16*
X8826500Y40132000D03*
X9715500Y40132000D03*
G04 #@! TD*
D47*
G04 #@! TO.C,FD2*
X24892000Y52197000D03*
G04 #@! TD*
D34*
G04 #@! TO.C,C88*
X27495500Y20066000D03*
X28384500Y20066000D03*
G04 #@! TD*
G04 #@! TO.C,L3*
X14287500Y51587400D03*
X15176500Y51587400D03*
G04 #@! TD*
D67*
G04 #@! TO.C,U1*
X17007000Y49022000D03*
X16657000Y49022000D03*
X16307000Y49022000D03*
X15957000Y49022000D03*
X15607000Y49022000D03*
X15257000Y49022000D03*
X14907000Y49022000D03*
X14557000Y49022000D03*
X14207000Y49022000D03*
X13857000Y49022000D03*
X13507000Y49022000D03*
X13157000Y49022000D03*
X12807000Y49022000D03*
X12457000Y49022000D03*
D68*
X12192000Y48057000D03*
X12192000Y47707000D03*
X12192000Y47357000D03*
X12192000Y47007000D03*
X12192000Y46657000D03*
X12192000Y46307000D03*
X12192000Y45957000D03*
X12192000Y45607000D03*
X12192000Y45257000D03*
X12192000Y44907000D03*
D67*
X12457000Y43942000D03*
X12807000Y43942000D03*
X13157000Y43942000D03*
X13507000Y43942000D03*
X13857000Y43942000D03*
X14207000Y43942000D03*
X14557000Y43942000D03*
X14907000Y43942000D03*
X15257000Y43942000D03*
X15607000Y43942000D03*
X15957000Y43942000D03*
X16307000Y43942000D03*
X16657000Y43942000D03*
X17007000Y43942000D03*
D68*
X17272000Y44907000D03*
X17272000Y45257000D03*
X17272000Y45607000D03*
X17272000Y45957000D03*
X17272000Y46307000D03*
X17272000Y46657000D03*
X17272000Y47007000D03*
X17272000Y47357000D03*
X17272000Y47707000D03*
X17272000Y48057000D03*
D69*
X14732000Y46482000D03*
G04 #@! TD*
D32*
G04 #@! TO.C,R65*
X12065000Y31559500D03*
X12065000Y32448500D03*
G04 #@! TD*
D29*
G04 #@! TO.C,L61*
X5842000Y32448500D03*
X5842000Y31559500D03*
G04 #@! TD*
D34*
G04 #@! TO.C,C82*
X18224500Y14605000D03*
X19113500Y14605000D03*
G04 #@! TD*
D32*
G04 #@! TO.C,C75*
X17907000Y33337500D03*
X17907000Y34226500D03*
G04 #@! TD*
D51*
G04 #@! TO.C,D97*
X4064000Y31597600D03*
X4064000Y32410400D03*
G04 #@! TD*
D29*
G04 #@! TO.C,C71*
X4953000Y32448500D03*
X4953000Y31559500D03*
G04 #@! TD*
D58*
G04 #@! TO.C,S1*
X17018000Y34467800D03*
X13970000Y34467800D03*
X17018000Y36144200D03*
X13970000Y36144200D03*
D59*
X17195800Y35306000D03*
X13792200Y35306000D03*
G04 #@! TD*
D29*
G04 #@! TO.C,R73*
X8001000Y30670500D03*
X8001000Y29781500D03*
G04 #@! TD*
D20*
G04 #@! TO.C,J61*
X15367000Y9271000D03*
X3937000Y9271000D03*
D21*
X5207000Y15621000D03*
X6477000Y18161000D03*
X7747000Y15621000D03*
X9017000Y18161000D03*
X10287000Y15621000D03*
X11557000Y18161000D03*
X12827000Y15621000D03*
X14097000Y18161000D03*
D22*
X3048000Y4445000D03*
D23*
X5588000Y4445000D03*
X13716000Y4445000D03*
X16256000Y4445000D03*
D24*
X17424400Y12319000D03*
X1879600Y12319000D03*
G04 #@! TD*
D29*
G04 #@! TO.C,R66*
X10287000Y32448500D03*
X10287000Y31559500D03*
G04 #@! TD*
D49*
G04 #@! TO.C,D106*
X24612600Y32766000D03*
X25425400Y32766000D03*
G04 #@! TD*
D53*
G04 #@! TO.C,D61*
X12903200Y20878800D03*
X12903200Y21844000D03*
X12903200Y22809200D03*
X10464800Y22809200D03*
X10464800Y21844000D03*
X10464800Y20878800D03*
G04 #@! TD*
D57*
G04 #@! TO.C,D92*
X4064000Y45618400D03*
X4064000Y44805600D03*
G04 #@! TD*
D70*
G04 #@! TO.C,SH1*
X21209000Y37338000D03*
X8255000Y53594000D03*
D71*
X22860000Y38989000D03*
X22860000Y51943000D03*
D72*
X22860000Y45466000D03*
D70*
X21209000Y53594000D03*
D72*
X6604000Y45466000D03*
D70*
X8255000Y37338000D03*
D71*
X6604000Y38989000D03*
D73*
X14732000Y37338000D03*
X14732000Y53594000D03*
D71*
X6604000Y51943000D03*
G04 #@! TD*
D27*
G04 #@! TO.C,C84*
X19875500Y10414000D03*
X18986500Y10414000D03*
G04 #@! TD*
D29*
G04 #@! TO.C,R55*
X24511000Y46545500D03*
X24511000Y45656500D03*
G04 #@! TD*
G04 #@! TO.C,R53*
X25400000Y42354500D03*
X25400000Y41465500D03*
G04 #@! TD*
D46*
G04 #@! TO.C,C41*
X24701500Y22860000D03*
X22796500Y22860000D03*
G04 #@! TD*
D29*
G04 #@! TO.C,R5*
X10033000Y50228500D03*
X10033000Y49339500D03*
G04 #@! TD*
D32*
G04 #@! TO.C,C20*
X12642850Y52190650D03*
X12642850Y53079650D03*
G04 #@! TD*
M02*
